<?xml version="1.0" encoding="UTF-8"?>
<svg width="136px" height="15px" viewBox="0 0 136 15" version="1.1" xmlns="http://www.w3.org/2000/svg" xmlns:xlink="http://www.w3.org/1999/xlink">
    <!-- Generator: Sketch 42 (36781) - http://www.bohemiancoding.com/sketch -->
    <title>ttl_scene</title>
    <desc>Created with Sketch.</desc>
    <defs></defs>
    <g id="Page-1" stroke="none" stroke-width="1" fill="none" fill-rule="evenodd">
        <g id="ttl_scene">
            <path d="M1.864,13.488 C1.512,13.488 1.352,13.232 0.952,12.496 C0.904,12.416 0.616,12.08 0.568,12 C0.52,11.92 0.472,11.792 0.472,11.696 C0.472,11.632 0.52,11.584 0.616,11.584 C0.76,11.584 1.368,11.792 1.496,11.792 C2.184,11.792 6.488,9.392 10.312,5.056 C10.392,4.96 10.952,4.336 11,4.336 C11.032,4.336 11.064,4.352 11.064,4.4 C11.064,4.576 9.656,8 3.032,12.64 C2.84,12.768 2.072,13.488 1.864,13.488 Z M1.256,6.112 C1.944,6.112 2.92,6.752 2.92,7.536 C2.92,7.856 2.68,8.336 2.296,8.336 C2.056,8.336 1.976,8.24 1.736,7.84 C1.4,7.264 0.856,6.848 0.28,6.512 C0.232,6.48 0.136,6.416 0.136,6.352 C0.136,6.128 1.048,6.112 1.256,6.112 Z M3.112,3.056 C4.84,3.056 4.84,4.304 4.84,4.352 C4.84,4.72 4.584,5.072 4.328,5.072 C4.152,5.072 4.072,5.008 3.496,4.32 C3.064,3.808 2.504,3.584 2.12,3.472 C2.056,3.456 1.88,3.408 1.88,3.36 C1.88,3.312 2.328,3.056 3.112,3.056 Z M13.114,7.552 C13.642,7.552 19.226,7.344 21.562,7.216 C21.658,7.216 21.834,7.2 21.914,7.2 C22.89,7.2 23.034,7.792 23.034,7.904 C23.034,8.352 22.378,8.4 21.706,8.4 C21.338,8.4 19.738,8.368 19.418,8.368 C17.21,8.368 13.546,8.576 13.162,8.656 C12.97,8.688 12.106,8.944 11.914,8.944 C11.226,8.944 10.49,7.952 10.49,7.408 C10.49,7.312 10.538,7.216 10.618,7.216 C10.698,7.216 11.082,7.392 11.162,7.408 C11.434,7.488 12.09,7.552 13.114,7.552 Z M28.894,5.04 C28.894,5.52 28.622,5.84 28.206,5.84 C27.774,5.84 27.614,5.584 27.086,4.784 C26.542,3.968 26.078,3.728 25.63,3.472 C25.566,3.44 25.486,3.392 25.486,3.328 C25.486,3.264 25.614,3.184 25.838,3.184 C27.55,3.184 28.894,4.096 28.894,5.04 Z M35.55,4.896 C35.55,5.04 33.678,8.032 29.518,11.104 C29.102,11.408 28.286,12.016 27.95,12.416 C27.646,12.784 27.614,12.816 27.374,12.816 C26.51,12.816 25.326,11.792 25.326,11.152 C25.326,11.04 25.342,10.304 25.486,10.304 C25.55,10.304 25.902,10.576 25.966,10.608 C26.174,10.736 26.702,10.976 27.054,10.976 C27.838,10.976 32.078,8.144 34.734,5.52 C34.99,5.264 35.438,4.816 35.47,4.816 C35.502,4.816 35.55,4.864 35.55,4.896 Z" id="シーン" fill="#000000"></path>
            <path d="M57.076,2.336 C56.276,2.336 56.02,2.336 55.764,3.008 C55.636,3.328 54.916,5.248 54.916,5.376 C54.916,5.52 55.06,5.616 55.172,5.616 C55.316,5.616 55.348,5.552 55.732,4.928 C56.388,3.872 57.332,2.864 58.612,2.864 C59.044,2.864 59.476,3.008 59.636,3.44 C59.748,3.744 59.748,4.176 59.748,8.128 C59.748,12.384 59.748,12.4 59.7,12.656 C59.54,13.488 58.948,13.488 58.004,13.488 C57.908,13.488 57.652,13.488 57.652,13.744 C57.652,14 57.892,14 58.116,14 L62.596,14 C62.852,14 63.076,14 63.076,13.744 C63.076,13.488 62.948,13.488 62.356,13.488 C61.924,13.488 61.172,13.472 61.028,12.656 C60.98,12.384 60.98,8.688 60.98,8.24 C60.98,7.568 60.98,3.952 61.028,3.664 C61.124,3.12 61.508,2.864 62.132,2.864 C63.22,2.864 64.164,3.552 65.012,4.944 C65.38,5.552 65.428,5.616 65.556,5.616 C65.652,5.616 65.812,5.552 65.812,5.376 C65.812,5.216 65.124,3.408 64.996,3.056 C64.724,2.336 64.532,2.336 63.668,2.336 L57.076,2.336 Z M67.336,4.176 C67.336,4.24 67.368,4.368 67.528,4.368 C67.944,4.368 69.32,3.184 69.32,1.776 C69.32,1.008 68.744,0.672 68.264,0.672 C67.656,0.672 67.208,1.184 67.208,1.728 C67.208,2.32 67.624,2.544 67.832,2.64 C68.152,2.8 68.296,2.88 68.296,2.992 C68.296,3.296 67.96,3.648 67.672,3.84 C67.368,4.048 67.336,4.096 67.336,4.176 Z M71.52,6.144 C70.304,6.144 69.408,7.072 69.408,8.288 C69.408,9.52 70.256,10.08 71.936,10.672 C73.792,11.312 74.256,11.68 74.256,12.416 C74.256,13.2 73.648,13.872 72.864,13.872 C72.128,13.872 70.624,13.376 69.92,12.16 C69.664,11.712 69.552,11.52 69.36,11.52 C69.2,11.52 69.168,11.696 69.168,11.792 C69.168,12 69.792,13.6 69.936,13.968 C70.016,14.176 70.064,14.304 70.208,14.304 C70.288,14.304 70.48,14.224 70.784,14.096 C70.88,14.064 71.04,14 71.264,14 C71.36,14 71.472,14.016 71.568,14.048 C72.256,14.256 72.432,14.304 72.864,14.304 C74.56,14.304 75.312,13.056 75.312,11.984 C75.312,10.704 74.368,10.112 72.512,9.456 C70.896,8.896 70.464,8.528 70.464,7.872 C70.464,6.992 71.248,6.576 71.84,6.576 C72.864,6.576 74.016,7.856 74.208,8.16 C74.592,8.736 74.624,8.8 74.784,8.8 C74.896,8.8 74.928,8.72 74.928,8.64 C74.928,8.464 74.208,6.72 74.064,6.352 C74.016,6.224 73.984,6.144 73.888,6.144 C73.824,6.144 73.776,6.192 73.664,6.304 C73.552,6.432 73.408,6.528 73.2,6.528 C73.088,6.528 73.024,6.496 72.896,6.448 C72.288,6.224 72.064,6.144 71.52,6.144 Z M82.968,14.304 C83.128,14.304 83.16,14.272 83.432,14.032 C83.576,13.888 83.784,13.824 84.04,13.824 C84.136,13.824 84.248,13.84 84.68,13.984 C85.272,14.192 85.832,14.304 86.408,14.304 C88.184,14.304 89.88,13.008 89.88,10.848 C89.88,9.616 89.448,8.336 86.216,7.216 C84.12,6.48 83.16,6 83.16,4.672 C83.16,4 83.544,2.56 85.336,2.56 C87.304,2.56 88.168,3.936 88.6,4.624 C88.856,5.04 88.888,5.088 89.016,5.088 C89.112,5.088 89.288,5.04 89.288,4.832 C89.288,4.736 88.536,2.848 88.424,2.592 C88.264,2.176 88.216,2.032 88.024,2.032 C87.912,2.032 87.88,2.064 87.656,2.24 C87.56,2.304 87.448,2.336 87.304,2.336 C87.192,2.336 86.52,2.192 86.344,2.16 C85.928,2.08 85.528,2.032 85.208,2.032 C83.16,2.032 82.008,3.472 82.008,5.136 C82.008,7.04 83.48,7.888 85.704,8.656 C87.736,9.36 88.696,9.872 88.696,11.328 C88.696,13.024 87.4,13.744 86.328,13.744 C84.712,13.744 83.272,12.656 82.568,11.552 C82.184,10.96 82.152,10.88 81.976,10.88 C81.832,10.88 81.624,10.976 81.624,11.216 C81.624,11.312 82.312,13.12 82.424,13.408 C82.728,14.208 82.76,14.304 82.968,14.304 Z M99.132,2.032 C99.004,2.032 98.972,2.064 98.716,2.32 C98.604,2.432 98.412,2.48 98.284,2.48 C98.188,2.48 97.436,2.272 97.324,2.224 C96.828,2.096 96.364,2.032 95.964,2.032 C93.26,2.032 90.94,4.688 90.94,8.432 C90.94,11.568 92.588,14.304 95.964,14.304 C96.684,14.304 98.38,14.192 99.724,12.528 C100.236,11.888 100.636,11.056 100.636,10.912 C100.636,10.768 100.524,10.656 100.396,10.656 C100.268,10.656 100.268,10.672 99.9,11.296 C98.844,13.088 97.564,13.568 96.444,13.568 C94.54,13.568 92.364,12.112 92.364,8.4 C92.364,5.632 93.66,2.56 96.172,2.56 C96.844,2.56 98.268,2.784 99.628,4.704 C99.964,5.168 99.996,5.216 100.14,5.216 C100.284,5.216 100.444,5.104 100.444,4.928 C100.444,4.752 99.404,2.24 99.404,2.224 C99.356,2.128 99.228,2.032 99.132,2.032 Z M106.032,13.488 C104.88,13.488 104.88,12.704 104.88,11.584 C104.88,11.344 104.88,8.704 104.896,8.576 C104.928,8.368 105.04,8.208 105.312,8.208 L106.72,8.208 C107.616,8.208 108.528,8.528 108.528,9.888 C108.528,10.208 108.528,10.416 108.784,10.416 C109.04,10.416 109.04,10.16 109.04,10.08 C109.04,9.44 109.024,6.576 109.04,5.984 C109.04,5.856 109.056,5.584 108.784,5.584 C108.528,5.584 108.528,5.856 108.528,5.904 C108.528,6.608 108.528,7.696 106.72,7.696 L105.312,7.696 C105.264,7.696 105.024,7.68 104.928,7.488 C104.88,7.36 104.88,5.184 104.88,4.976 C104.88,3.712 104.88,3.568 105.072,3.28 C105.136,3.184 105.408,2.864 106.032,2.864 L107.808,2.864 C109.344,2.864 110.384,3.952 110.88,4.656 C111.248,5.168 111.28,5.2 111.376,5.2 C111.52,5.2 111.632,5.088 111.632,4.96 C111.632,4.848 111.04,3.376 110.944,3.152 C110.624,2.368 110.544,2.336 109.552,2.336 L102.256,2.336 C101.984,2.336 101.76,2.336 101.76,2.608 C101.76,2.864 102,2.864 102.112,2.864 C102.752,2.864 103.44,2.864 103.6,3.68 C103.648,3.968 103.648,7.6 103.648,8.24 C103.648,8.704 103.632,12.384 103.584,12.656 C103.44,13.44 102.752,13.488 102.368,13.488 C101.92,13.488 101.76,13.488 101.76,13.744 C101.76,14 101.984,14 102.256,14 L109.792,14 C110.832,14 110.848,13.952 111.248,12.912 C111.344,12.672 111.92,11.152 111.92,11.072 C111.92,10.896 111.776,10.816 111.648,10.816 C111.52,10.816 111.488,10.88 111.088,11.504 C109.92,13.344 108.272,13.488 107.264,13.488 L106.032,13.488 Z M116.804,14 C117.108,14 117.316,14 117.316,13.744 C117.316,13.488 117.076,13.488 116.948,13.488 C116.26,13.488 115.38,13.488 115.188,12.432 C115.14,12.128 115.14,8.944 115.14,8.304 C115.14,7.664 115.156,4.88 115.156,4.304 C115.156,4.128 115.204,4 115.284,4 C115.364,4 115.396,4.064 115.684,4.528 C115.764,4.64 122.036,14.064 122.132,14.176 C122.164,14.224 122.244,14.304 122.34,14.304 C122.548,14.304 122.548,14.032 122.548,13.952 C122.548,12.624 122.532,6.704 122.532,5.504 C122.532,3.584 122.532,2.864 123.86,2.864 C124.116,2.864 124.34,2.864 124.34,2.608 C124.34,2.336 124.1,2.336 123.924,2.336 L120.596,2.336 C120.372,2.336 120.148,2.336 120.148,2.608 C120.148,2.864 120.388,2.864 120.484,2.864 C121.012,2.864 121.828,2.864 122.02,3.84 C122.068,4.128 122.068,6.96 122.068,7.536 C122.068,8.096 122.052,10.72 122.052,11.168 C122.052,11.376 122.004,11.488 121.94,11.488 C121.844,11.488 120.372,9.248 120.164,8.928 C119.188,7.456 117.62,5.104 116.644,3.632 C115.828,2.384 115.796,2.336 114.644,2.336 L113.092,2.336 C112.852,2.336 112.612,2.336 112.612,2.608 C112.612,2.864 112.868,2.864 112.964,2.864 C113.508,2.864 114.388,2.864 114.58,3.824 C114.628,4.096 114.628,4.112 114.628,8.144 C114.628,12.384 114.612,12.4 114.484,12.768 C114.228,13.488 113.412,13.488 113.204,13.488 C112.804,13.488 112.612,13.488 112.612,13.744 C112.612,14 112.852,14 113.092,14 L116.804,14 Z M129.336,13.488 C128.184,13.488 128.184,12.704 128.184,11.584 C128.184,11.344 128.184,8.704 128.2,8.576 C128.232,8.368 128.344,8.208 128.616,8.208 L130.024,8.208 C130.92,8.208 131.832,8.528 131.832,9.888 C131.832,10.208 131.832,10.416 132.088,10.416 C132.344,10.416 132.344,10.16 132.344,10.08 C132.344,9.44 132.328,6.576 132.344,5.984 C132.344,5.856 132.36,5.584 132.088,5.584 C131.832,5.584 131.832,5.856 131.832,5.904 C131.832,6.608 131.832,7.696 130.024,7.696 L128.616,7.696 C128.568,7.696 128.328,7.68 128.232,7.488 C128.184,7.36 128.184,5.184 128.184,4.976 C128.184,3.712 128.184,3.568 128.376,3.28 C128.44,3.184 128.712,2.864 129.336,2.864 L131.112,2.864 C132.648,2.864 133.688,3.952 134.184,4.656 C134.552,5.168 134.584,5.2 134.68,5.2 C134.824,5.2 134.936,5.088 134.936,4.96 C134.936,4.848 134.344,3.376 134.248,3.152 C133.928,2.368 133.848,2.336 132.856,2.336 L125.56,2.336 C125.288,2.336 125.064,2.336 125.064,2.608 C125.064,2.864 125.304,2.864 125.416,2.864 C126.056,2.864 126.744,2.864 126.904,3.68 C126.952,3.968 126.952,7.6 126.952,8.24 C126.952,8.704 126.936,12.384 126.888,12.656 C126.744,13.44 126.056,13.488 125.672,13.488 C125.224,13.488 125.064,13.488 125.064,13.744 C125.064,14 125.288,14 125.56,14 L133.096,14 C134.136,14 134.152,13.952 134.552,12.912 C134.648,12.672 135.224,11.152 135.224,11.072 C135.224,10.896 135.08,10.816 134.952,10.816 C134.824,10.816 134.792,10.88 134.392,11.504 C133.224,13.344 131.576,13.488 130.568,13.488 L129.336,13.488 Z" id="T’s-SCENE" fill="#808080"></path>
        </g>
    </g>
</svg>