<?xml version="1.0" encoding="UTF-8"?>
<svg width="140px" height="16px" viewBox="0 0 140 16" version="1.1" xmlns="http://www.w3.org/2000/svg" xmlns:xlink="http://www.w3.org/1999/xlink">
    <!-- Generator: Sketch 42 (36781) - http://www.bohemiancoding.com/sketch -->
    <title>tt_media</title>
    <desc>Created with Sketch.</desc>
    <defs></defs>
    <g id="Page-1" stroke="none" stroke-width="1" fill="none" fill-rule="evenodd">
        <g id="tt_media">
            <path d="M9.294,1.616 L12.574,1.616 C12.798,1.616 12.862,1.616 13.038,1.52 C13.422,1.312 13.47,1.28 13.55,1.28 C13.678,1.28 14.59,1.808 14.59,2.064 C14.59,2.16 14.526,2.208 14.318,2.368 C14.238,2.448 14.206,2.48 14.19,2.56 C14.174,2.688 14.158,3.504 14.158,3.76 C14.158,4.08 14.206,5.456 14.206,5.744 C14.206,5.888 14.206,6.576 13.47,6.576 C13.166,6.576 13.118,6.496 12.91,6.208 C12.83,6.096 12.718,6.096 12.478,6.096 L9.502,6.096 C9.15,6.096 9.118,6.128 8.814,6.416 C8.766,6.464 8.494,6.56 8.494,6.608 C8.494,6.672 8.606,6.72 8.654,6.752 C8.75,6.784 9.278,7.088 9.278,7.264 C9.278,7.392 9.166,7.472 8.942,7.568 C8.638,7.696 8.622,7.712 8.622,7.792 C8.622,7.888 8.654,7.888 8.942,7.888 L13.214,7.888 C13.454,7.888 13.614,7.888 13.838,7.76 C13.934,7.68 14.094,7.584 14.158,7.584 C14.318,7.584 15.342,8.368 15.342,8.528 C15.342,8.624 15.246,8.72 15.166,8.784 C14.894,9.008 14.846,9.104 14.846,9.488 C14.846,12.176 14.846,15.184 12.814,15.184 C12.606,15.184 12.59,15.136 12.366,14.736 C12.286,14.608 12.142,14.368 11.998,14.256 C11.726,14.032 11.694,14 11.694,13.952 C11.694,13.888 11.822,13.888 11.854,13.888 C11.998,13.888 12.622,13.92 12.75,13.92 C13.086,13.92 13.374,13.92 13.55,13.12 C13.774,12.144 13.806,10.704 13.806,10.08 C13.806,9.92 13.79,8.832 13.758,8.64 C13.694,8.304 13.534,8.304 12.974,8.304 L8.766,8.304 C8.446,8.304 8.35,8.352 8.19,8.544 C8.094,8.64 7.71,9.072 7.71,9.136 C7.71,9.248 7.742,9.264 8.158,9.392 C8.398,9.472 8.99,9.664 8.99,9.808 C8.99,9.856 8.782,10.096 8.734,10.128 C8.606,10.272 8.558,10.368 8.558,10.64 C8.558,10.784 8.558,10.96 8.766,10.96 C8.942,10.96 10.126,10.464 10.942,9.872 C11.038,9.792 11.454,9.36 11.566,9.36 C11.758,9.36 12.27,10.176 12.27,10.352 C12.27,10.592 12.094,10.608 11.694,10.64 C11.182,10.752 10.014,11.024 9.454,11.136 C8.782,11.28 8.702,11.296 8.67,11.312 C8.558,11.36 8.542,11.504 8.542,11.6 C8.542,12.544 8.686,12.624 10.078,12.624 C11.23,12.624 11.31,12.352 11.47,11.776 C11.502,11.648 11.614,11.232 11.678,11.232 C11.758,11.232 11.822,11.904 11.87,12.016 C11.966,12.208 12.014,12.272 12.51,12.736 C12.574,12.8 12.622,12.88 12.622,12.928 C12.622,13.616 10.99,13.616 10.318,13.616 C7.982,13.616 7.534,13.456 7.534,12.08 C7.534,11.744 7.534,9.968 7.518,9.776 C7.518,9.68 7.518,9.52 7.374,9.52 C7.246,9.52 5.934,10.752 5.662,10.752 C5.646,10.752 5.63,10.736 5.63,10.72 C5.63,10.688 6.638,9.328 6.766,9.152 C6.942,8.896 7.806,7.68 7.854,6.832 C7.87,6.768 7.934,6.496 7.934,6.432 C7.934,6.4 7.87,6.144 7.87,6.08 C7.87,5.968 7.918,5.408 7.918,5.296 C7.918,5.024 7.918,2.704 7.902,2.528 C7.886,2.384 7.854,2.048 7.822,1.92 C7.79,1.744 7.71,1.408 7.71,1.392 C7.71,1.328 7.758,1.232 7.87,1.232 C8.03,1.232 8.67,1.52 8.798,1.552 C9.022,1.616 9.118,1.616 9.294,1.616 Z M12.494,2.048 L9.582,2.048 C9.198,2.048 9.038,2.048 9.006,2.32 C8.99,2.384 8.99,2.88 8.99,3.152 C8.99,3.68 9.102,3.68 9.582,3.68 L12.494,3.68 C12.862,3.68 13.022,3.68 13.07,3.408 C13.086,3.328 13.086,2.848 13.086,2.576 C13.086,2.08 13.022,2.048 12.494,2.048 Z M9.63,5.664 L12.43,5.664 C12.878,5.664 13.07,5.664 13.07,5.328 C13.07,5.168 13.07,4.416 13.054,4.352 C13.006,4.112 12.878,4.112 12.43,4.112 L9.63,4.112 C9.198,4.112 9.15,4.112 9.07,4.208 C8.99,4.288 8.99,4.368 8.99,5.072 C8.99,5.664 9.022,5.664 9.63,5.664 Z M6.142,4.624 L5.294,4.624 C4.878,4.624 4.638,4.624 4.638,5.104 C4.638,5.424 4.67,6.896 4.67,7.2 C4.67,7.616 4.67,7.824 4.958,7.824 C5.038,7.824 6.99,7.328 7.006,7.328 C7.038,7.328 7.07,7.328 7.07,7.376 C7.07,7.472 5.998,8.016 5.182,8.384 C4.75,8.592 4.638,8.704 4.638,9.104 C4.638,9.216 4.686,13.536 4.686,13.584 C4.686,14.352 4.43,14.672 3.902,14.912 C3.598,15.056 3.358,15.104 3.246,15.104 C3.134,15.104 3.038,14.992 2.878,14.784 C2.702,14.544 2.238,14.064 1.854,13.968 C1.79,13.952 1.614,13.904 1.614,13.824 C1.614,13.76 1.694,13.744 1.726,13.744 C1.742,13.744 2.574,13.776 2.734,13.776 C2.862,13.776 3.518,13.776 3.582,13.408 C3.63,13.152 3.63,10.192 3.63,9.856 C3.63,9.504 3.63,9.296 3.422,9.296 C3.358,9.296 1.918,9.904 1.854,9.968 C1.55,10.304 1.518,10.336 1.406,10.336 C1.006,10.336 0.653999998,9.04 0.653999998,8.8 C0.653999998,8.672 0.717999998,8.656 0.781999998,8.656 C0.861999998,8.656 1.166,8.704 1.246,8.704 C1.726,8.704 3.214,8.336 3.358,8.256 C3.598,8.16 3.63,8.048 3.63,7.632 L3.63,5.136 C3.63,4.72 3.422,4.624 3.118,4.624 C2.974,4.624 2.27,4.64 1.95,4.672 C1.886,4.672 1.662,4.704 1.598,4.704 C1.55,4.704 1.518,4.672 1.47,4.608 L1.15,4.24 C1.102,4.192 1.086,4.16 1.086,4.128 C1.086,4.112 1.102,4.096 1.15,4.096 C1.454,4.096 2.862,4.192 3.15,4.192 C3.582,4.192 3.614,3.984 3.614,3.696 C3.614,2.752 3.614,2.448 3.566,1.808 C3.55,1.648 3.406,0.976 3.406,0.832 C3.406,0.784 3.454,0.704 3.566,0.704 C3.63,0.704 5.246,1.04 5.246,1.344 C5.246,1.488 5.166,1.536 4.814,1.808 C4.702,1.92 4.67,2.336 4.67,2.432 C4.654,2.56 4.654,3.616 4.654,3.744 C4.654,3.84 4.654,4.192 5.07,4.192 C5.31,4.192 5.406,4.112 5.534,3.904 C5.822,3.456 5.854,3.408 5.998,3.408 C6.254,3.408 7.15,4.192 7.15,4.432 C7.15,4.512 7.07,4.56 6.942,4.592 C6.798,4.624 6.542,4.624 6.142,4.624 Z M23.01,11.072 L22.29,11.072 C21.794,11.072 21.794,11.376 21.794,11.744 C21.794,12.336 21.794,12.544 22.306,12.544 L23.01,12.544 C23.49,12.544 23.762,12.544 23.986,12.208 C24.29,11.728 24.338,11.68 24.434,11.68 C24.706,11.68 25.554,12.48 25.554,12.768 C25.554,12.96 25.458,12.96 24.578,12.96 L22.29,12.96 C21.874,12.96 21.81,13.12 21.81,13.392 C21.81,13.568 21.874,14.288 21.874,14.448 C21.874,14.592 21.874,15.264 21.218,15.264 C20.866,15.264 20.866,14.88 20.866,14.72 C20.866,14.528 20.898,13.664 20.898,13.488 C20.898,12.96 20.754,12.96 20.066,12.96 C19.138,12.96 18.514,12.992 18.274,13.008 C18.226,13.008 17.986,13.04 17.938,13.04 C17.89,13.04 17.858,13.008 17.794,12.944 L17.49,12.576 C17.426,12.496 17.426,12.496 17.426,12.464 C17.426,12.432 17.442,12.432 17.474,12.432 C17.57,12.432 17.97,12.464 18.05,12.48 C18.818,12.512 19.57,12.544 20.338,12.544 C20.882,12.544 20.93,12.416 20.93,11.728 C20.93,11.248 20.898,11.072 20.434,11.072 L19.826,11.072 C19.698,11.072 19.522,11.072 19.41,11.248 C19.298,11.392 19.122,11.632 18.786,11.632 C18.386,11.632 18.386,11.04 18.386,10.8 C18.386,10.496 18.434,9.2 18.434,8.928 C18.434,8.512 18.402,8.256 18.338,7.776 C18.338,7.744 18.274,7.376 18.274,7.344 C18.274,7.2 18.306,7.152 18.45,7.152 C18.738,7.152 18.994,7.344 19.266,7.552 C19.522,7.76 19.65,7.76 19.794,7.76 L20.418,7.76 C20.738,7.76 20.898,7.664 20.898,7.248 C20.898,6.912 20.85,6.672 20.482,6.672 C19.138,6.672 18.658,6.688 18.466,6.704 C18.418,6.704 18.034,6.752 18.002,6.752 C17.938,6.752 17.906,6.704 17.858,6.64 L17.554,6.272 C17.49,6.208 17.474,6.192 17.474,6.176 C17.474,6.144 17.506,6.128 17.538,6.128 C17.602,6.128 18.386,6.192 18.546,6.192 C19.474,6.24 19.762,6.24 20.498,6.24 C20.642,6.24 20.866,6.24 20.866,5.904 C20.866,5.76 20.818,5.52 20.754,5.312 C20.722,5.264 20.642,5.04 20.642,4.992 C20.642,4.912 20.722,4.88 20.802,4.88 C21.442,4.88 22.082,5.184 22.082,5.408 C22.082,5.52 22.034,5.568 21.858,5.744 C21.826,5.792 21.81,5.92 21.81,5.968 C21.81,6.24 22.082,6.24 22.226,6.24 L23.282,6.24 C23.49,6.24 23.586,6.24 23.762,6.096 C23.858,6.016 24.194,5.52 24.306,5.52 C24.562,5.52 25.378,6.224 25.378,6.48 C25.378,6.672 25.282,6.672 24.402,6.672 L22.226,6.672 C21.842,6.672 21.762,6.832 21.762,7.216 C21.762,7.68 21.938,7.76 22.29,7.76 L22.834,7.76 C22.978,7.76 23.186,7.76 23.346,7.584 C23.602,7.312 23.698,7.2 23.826,7.2 C23.954,7.2 24.754,7.696 24.754,7.936 C24.754,8.064 24.738,8.096 24.514,8.336 C24.418,8.448 24.418,8.544 24.418,9.392 C24.418,9.584 24.45,10.896 24.45,10.96 C24.45,11.472 24.034,11.616 23.89,11.616 C23.634,11.616 23.554,11.472 23.426,11.248 C23.362,11.136 23.282,11.072 23.01,11.072 Z M20.434,8.176 L19.81,8.176 C19.394,8.176 19.346,8.368 19.346,8.624 C19.346,8.976 19.346,9.184 19.81,9.184 L20.434,9.184 C20.85,9.184 20.914,9.008 20.914,8.736 C20.914,8.384 20.914,8.176 20.434,8.176 Z M20.466,9.616 L19.81,9.616 C19.394,9.616 19.378,9.776 19.378,10.128 C19.378,10.608 19.474,10.656 19.81,10.656 L20.482,10.656 C20.866,10.656 20.914,10.544 20.914,10.128 C20.914,9.68 20.818,9.616 20.466,9.616 Z M22.274,10.656 L22.978,10.656 C23.218,10.656 23.474,10.656 23.474,10.128 C23.474,9.648 23.25,9.616 22.978,9.616 L22.274,9.616 C22.002,9.616 21.778,9.648 21.778,10.128 C21.778,10.592 21.97,10.656 22.274,10.656 Z M22.274,9.184 L22.994,9.184 C23.266,9.184 23.49,9.168 23.49,8.688 C23.49,8.224 23.298,8.176 22.994,8.176 L22.274,8.176 C21.922,8.176 21.778,8.272 21.778,8.688 C21.778,9.184 22.018,9.184 22.274,9.184 Z M29.282,0.88 C29.538,0.928 30.578,1.168 30.578,2.112 C30.578,2.592 30.162,2.768 30.018,2.768 C29.794,2.768 29.762,2.688 29.282,1.92 C29.058,1.552 28.418,1.04 28.226,0.88 C28.178,0.848 28.162,0.8 28.162,0.784 C28.162,0.736 28.242,0.736 28.354,0.736 C28.418,0.736 28.738,0.752 29.282,0.88 Z M25.442,4.672 L20.05,4.672 C18.642,4.672 18.258,4.704 18.018,4.72 C17.97,4.72 17.73,4.752 17.682,4.752 C17.634,4.752 17.602,4.72 17.538,4.656 L17.234,4.288 C17.17,4.208 17.17,4.208 17.17,4.176 C17.17,4.144 17.186,4.144 17.218,4.144 C17.522,4.144 17.986,4.192 18.274,4.208 C19.346,4.24 19.458,4.256 20.338,4.256 C20.802,4.256 20.802,3.984 20.802,3.456 C20.802,3.216 20.802,2.928 20.37,2.928 C20.002,2.928 19.01,2.96 18.562,2.992 C18.514,2.992 18.354,3.008 18.322,3.008 C18.274,3.008 18.242,2.976 18.178,2.912 L17.874,2.544 C17.81,2.464 17.81,2.464 17.81,2.432 C17.81,2.416 17.826,2.4 17.858,2.4 C17.97,2.4 18.482,2.448 18.578,2.448 C19.186,2.48 20.242,2.512 20.354,2.512 C20.802,2.512 20.802,2.224 20.802,1.904 C20.802,1.584 20.802,1.44 20.754,1.264 C20.738,1.184 20.578,0.848 20.578,0.768 C20.578,0.656 20.706,0.64 20.786,0.64 C20.946,0.64 22.082,0.928 22.082,1.216 C22.082,1.28 21.826,1.456 21.81,1.52 C21.762,1.648 21.762,1.92 21.762,2.08 C21.762,2.512 22.114,2.512 22.258,2.512 L22.61,2.512 C22.818,2.512 22.962,2.512 23.186,2.224 C23.506,1.792 23.634,1.728 23.73,1.728 C24.002,1.728 24.786,2.496 24.786,2.736 C24.786,2.928 24.69,2.928 23.874,2.928 L22.258,2.928 C21.794,2.928 21.762,3.184 21.762,3.392 C21.762,4.048 21.762,4.256 22.242,4.256 L25.426,4.256 C25.586,4.256 25.858,4.256 25.858,3.856 C25.858,3.136 25.826,1.936 25.714,1.312 C25.698,1.216 25.538,0.816 25.538,0.72 C25.538,0.64 25.586,0.624 25.666,0.624 C25.954,0.624 27.266,0.992 27.266,1.36 C27.266,1.456 26.946,1.776 26.93,1.856 C26.866,2.128 26.866,3.136 26.866,3.456 C26.866,4.032 26.866,4.256 27.362,4.256 L28.706,4.256 C29.458,4.256 29.538,4.256 29.778,3.936 C30.258,3.312 30.306,3.232 30.466,3.232 C30.69,3.232 31.762,4.144 31.762,4.416 C31.762,4.672 31.506,4.672 31.01,4.672 L27.346,4.672 C27.186,4.672 26.914,4.672 26.914,5.072 C26.914,6.112 27.346,7.792 27.682,8.88 C27.842,9.392 28.002,9.936 28.146,9.936 C28.45,9.936 29.762,6.544 29.762,5.936 C29.762,5.888 29.714,5.664 29.714,5.584 C29.714,5.456 29.794,5.376 29.906,5.376 C30.066,5.376 31.362,5.856 31.362,6.24 C31.362,6.416 31.25,6.48 30.882,6.672 C30.754,6.736 30.45,7.504 30.338,7.776 C29.938,8.8 29.41,9.76 28.818,10.688 C28.754,10.784 28.69,10.912 28.69,11.056 C28.69,11.408 29.874,13.024 30.354,13.024 C30.69,13.024 30.802,12.928 31.586,11.52 C31.618,11.456 31.778,11.088 31.826,11.088 C31.874,11.088 31.89,11.184 31.89,11.264 C31.89,11.424 31.714,12.128 31.698,12.288 C31.634,12.704 31.554,13.248 31.554,13.568 C31.554,13.808 31.586,13.904 31.794,14.464 C31.826,14.544 31.826,14.592 31.826,14.656 C31.826,14.928 31.538,15.12 31.298,15.12 C30.498,15.12 28.85,13.36 28.21,12.352 C28.114,12.208 28.002,12.064 27.874,12.064 C27.778,12.064 27.682,12.16 27.586,12.256 C25.906,14.064 24.082,14.864 23.922,14.864 C23.906,14.864 23.842,14.864 23.826,14.816 C24.114,14.608 24.738,14.144 25.058,13.872 C25.986,13.12 27.378,11.472 27.378,11.056 C27.378,10.896 27.042,10.112 26.978,9.936 C26.418,8.4 26.082,6.736 25.922,5.088 C25.89,4.672 25.682,4.672 25.442,4.672 Z M44.486,12.016 C44.71,11.6 42.566,9.12 42.566,8.88 C42.566,8.848 42.598,8.816 42.614,8.816 C43.286,8.816 46.966,11.888 46.966,14.032 C46.966,14.544 46.55,14.928 46.246,14.928 C45.862,14.928 45.814,14.8 45.398,13.664 C45.078,12.784 44.982,12.704 44.694,12.704 C44.502,12.704 37.702,14.128 37.606,14.16 C37.366,14.224 37.366,14.224 37.126,14.528 C37.062,14.624 36.95,14.768 36.806,14.768 C36.598,14.768 36.55,14.672 36.182,13.872 C36.086,13.648 35.91,13.312 35.814,13.104 C35.766,12.992 35.75,12.912 35.75,12.832 C35.75,12.784 35.766,12.704 35.846,12.704 C35.958,12.704 36.438,12.816 36.55,12.832 C36.79,12.864 37.238,12.864 37.382,12.864 C38.086,12.864 38.214,12.864 38.518,11.936 C39.35,9.392 40.118,6.944 40.118,5.344 C40.118,5.28 40.086,5.008 40.086,4.944 C40.086,4.832 40.182,4.768 40.278,4.768 C40.358,4.768 42.15,5.28 42.15,5.648 C42.15,5.792 41.51,6.16 41.43,6.272 C41.366,6.352 41.302,6.48 41.174,6.88 C40.646,8.512 39.974,10.272 39.238,11.84 C39.142,12.048 38.95,12.48 38.95,12.576 C38.95,12.736 39.142,12.752 39.238,12.752 C39.478,12.752 41.286,12.56 43.174,12.352 C43.798,12.288 44.374,12.224 44.486,12.016 Z M41.766,3.2 L44.582,3.2 C45.254,3.2 45.382,3.2 45.67,2.832 C46.038,2.336 46.07,2.288 46.23,2.288 C46.534,2.288 47.638,3.2 47.638,3.392 C47.638,3.616 47.542,3.616 46.79,3.616 L36.214,3.616 C35.91,3.616 35.654,3.616 35.654,4.096 C35.654,8.512 35.654,9.136 35.366,10.784 C34.934,13.248 33.606,14.88 33.334,14.88 C33.286,14.88 33.27,14.832 33.27,14.784 C33.366,14.56 33.638,13.904 33.734,13.616 C34.278,12.096 34.502,10.56 34.502,7.28 C34.502,4.912 34.326,3.392 34.294,3.152 C34.278,3.04 34.15,2.608 34.15,2.528 C34.15,2.416 34.23,2.384 34.31,2.384 C34.534,2.384 35.35,2.8 35.398,2.832 C35.99,3.168 36.038,3.2 36.422,3.2 L39.478,3.2 C39.894,3.2 40.022,3.136 40.022,2.16 C40.022,1.76 39.99,1.264 39.942,1.104 C39.926,1.056 39.862,0.864 39.862,0.8 C39.862,0.688 39.974,0.64 40.07,0.64 C40.198,0.64 41.622,0.896 41.622,1.2 C41.622,1.296 41.318,1.6 41.286,1.68 C41.222,1.824 41.222,1.888 41.222,2.512 C41.222,2.992 41.222,3.2 41.766,3.2 Z M55.61,4.16 C56.074,4.16 56.074,4.432 56.074,4.672 L56.074,6.64 C56.074,7.072 55.818,7.088 55.578,7.088 L52.346,7.088 C51.45,7.088 50.618,7.056 50.154,7.04 C50.042,7.024 49.546,6.976 49.45,6.976 C49.434,6.976 49.402,6.992 49.402,7.024 C49.402,7.04 49.402,7.056 49.466,7.12 L49.77,7.488 C49.834,7.552 49.866,7.6 49.914,7.6 C49.946,7.6 50.33,7.552 50.378,7.552 C51.018,7.52 51.818,7.52 52.266,7.52 L63.194,7.52 C63.594,7.52 63.802,7.52 63.802,7.296 C63.802,6.992 62.73,6.032 62.49,6.032 C62.298,6.032 62.154,6.256 61.914,6.672 C61.658,7.088 61.594,7.088 60.89,7.088 L57.77,7.088 C57.578,7.088 57.306,7.088 57.274,6.72 C57.274,6.608 57.258,4.736 57.258,4.608 C57.258,4.256 57.418,4.16 57.722,4.16 L61.626,4.16 C62.442,4.16 62.538,4.16 62.538,4.016 C62.538,3.824 61.402,2.832 61.066,2.832 C60.922,2.832 60.89,2.896 60.602,3.328 C60.346,3.744 60.282,3.744 59.482,3.744 L57.722,3.744 C57.226,3.744 57.226,3.648 57.226,2.528 C57.226,2.304 57.226,1.808 57.338,1.632 C57.37,1.568 57.578,1.344 57.578,1.28 C57.578,0.944 56.122,0.656 56.09,0.656 C56.042,0.656 55.898,0.656 55.898,0.768 C55.898,0.848 56.01,1.2 56.026,1.264 C56.074,1.616 56.074,2.4 56.074,2.512 C56.074,3.616 56.074,3.744 55.61,3.744 L53.53,3.744 C53.434,3.744 53.178,3.744 53.178,3.552 C53.178,3.504 53.61,2.624 53.786,2.544 C54.058,2.4 54.154,2.352 54.154,2.272 C54.154,2.08 52.682,1.216 52.618,1.216 C52.554,1.216 52.522,1.264 52.522,1.344 C52.522,1.696 52.138,3.648 51.098,5.136 C50.73,5.664 50.346,6.096 50.186,6.224 C50.17,6.24 50.09,6.32 50.09,6.384 C50.09,6.416 50.122,6.448 50.154,6.448 C50.186,6.448 51.05,6.048 52.266,4.688 C52.73,4.16 52.954,4.16 53.418,4.16 L55.61,4.16 Z M53.61,9.44 L59.434,9.44 C60.17,9.44 60.25,9.44 60.378,9.248 C60.634,8.88 60.714,8.752 60.922,8.752 C61.21,8.752 61.882,9.44 61.882,9.664 C61.882,9.744 61.85,9.824 61.722,9.936 C61.514,10.096 61.434,10.176 61.434,10.432 C61.434,10.96 61.498,13.568 61.498,14.16 C61.498,14.8 60.906,15.056 60.618,15.056 C60.41,15.056 60.17,14.912 60.17,14.688 C60.17,14.624 60.186,14.336 60.186,14.272 C60.186,14.144 60.106,13.936 59.706,13.936 L53.498,13.936 C53.338,13.936 53.114,13.936 53.066,14.384 C53.05,14.608 53.002,15.152 52.314,15.152 C51.818,15.152 51.786,14.864 51.786,14.512 C51.786,14.336 51.818,13.488 51.818,13.296 C51.818,12.704 51.818,10.176 51.738,9.648 C51.722,9.552 51.562,9.136 51.562,9.04 C51.562,8.96 51.594,8.912 51.69,8.912 C51.834,8.912 52.746,9.28 52.89,9.328 C53.178,9.44 53.402,9.44 53.61,9.44 Z M53.498,13.504 L59.738,13.504 C60.186,13.504 60.218,13.296 60.218,12.928 L60.218,10.32 C60.218,9.888 59.994,9.872 59.674,9.872 L53.434,9.872 C53.066,9.872 52.938,9.968 52.938,10.432 C52.938,10.816 52.986,12.544 52.986,12.896 C52.986,13.344 53.034,13.504 53.498,13.504 Z" id="掲載広告" fill="#000000"></path>
            <path d="M86.118,14 C86.294,14 86.534,14 86.534,13.744 C86.534,13.488 86.294,13.488 86.086,13.488 C84.95,13.488 84.95,12.752 84.95,11.232 L84.95,4.592 C84.95,4.4 85.014,4.32 85.078,4.32 C85.142,4.32 85.206,4.432 85.206,4.448 C85.334,4.656 88.134,12.032 88.678,13.456 C88.95,14.144 89.046,14.304 89.222,14.304 C89.398,14.304 89.478,14.112 89.638,13.744 C89.846,13.248 92.966,4.96 93.334,4.016 C93.51,3.536 93.542,3.488 93.638,3.488 C93.75,3.488 93.75,3.664 93.75,3.744 C93.75,4.32 93.782,7.152 93.782,7.792 C93.782,8.432 93.782,12.384 93.734,12.656 C93.574,13.488 92.886,13.488 92.326,13.488 C92.23,13.488 91.974,13.488 91.974,13.744 C91.974,14 92.214,14 92.438,14 L96.31,14 C96.486,14 96.726,14 96.726,13.744 C96.726,13.488 96.502,13.488 96.246,13.488 C95.67,13.488 95.174,13.312 95.062,12.656 C95.014,12.416 94.998,12.384 94.998,8.096 C94.998,7.328 95.014,3.936 95.062,3.616 C95.19,2.88 95.766,2.864 96.406,2.864 C96.454,2.864 96.726,2.864 96.726,2.608 C96.726,2.336 96.486,2.336 96.326,2.336 L94.438,2.336 C93.414,2.336 93.35,2.528 92.886,3.744 C92.054,5.904 90.774,9.36 89.942,11.52 C89.862,11.728 89.766,12.016 89.606,12.016 C89.478,12.016 89.382,11.744 89.334,11.632 C88.998,10.704 87.238,6.144 86.87,5.104 C85.91,2.336 85.798,2.336 84.79,2.336 L83.142,2.336 C82.95,2.336 82.71,2.336 82.71,2.608 C82.71,2.864 82.934,2.864 83.238,2.864 C83.59,2.864 84.278,2.912 84.422,3.68 C84.47,3.952 84.47,7.376 84.47,8.128 C84.47,12.384 84.47,12.4 84.422,12.656 C84.278,13.488 83.574,13.488 83.046,13.488 C82.966,13.488 82.726,13.488 82.726,13.744 C82.726,14 82.95,14 83.142,14 L86.118,14 Z M102.058,13.488 C100.906,13.488 100.906,12.704 100.906,11.584 C100.906,11.344 100.906,8.704 100.922,8.576 C100.954,8.368 101.066,8.208 101.338,8.208 L102.746,8.208 C103.642,8.208 104.554,8.528 104.554,9.888 C104.554,10.208 104.554,10.416 104.81,10.416 C105.066,10.416 105.066,10.16 105.066,10.08 C105.066,9.44 105.05,6.576 105.066,5.984 C105.066,5.856 105.082,5.584 104.81,5.584 C104.554,5.584 104.554,5.856 104.554,5.904 C104.554,6.608 104.554,7.696 102.746,7.696 L101.338,7.696 C101.29,7.696 101.05,7.68 100.954,7.488 C100.906,7.36 100.906,5.184 100.906,4.976 C100.906,3.712 100.906,3.568 101.098,3.28 C101.162,3.184 101.434,2.864 102.058,2.864 L103.834,2.864 C105.37,2.864 106.41,3.952 106.906,4.656 C107.274,5.168 107.306,5.2 107.402,5.2 C107.546,5.2 107.658,5.088 107.658,4.96 C107.658,4.848 107.066,3.376 106.97,3.152 C106.65,2.368 106.57,2.336 105.578,2.336 L98.282,2.336 C98.01,2.336 97.786,2.336 97.786,2.608 C97.786,2.864 98.026,2.864 98.138,2.864 C98.778,2.864 99.466,2.864 99.626,3.68 C99.674,3.968 99.674,7.6 99.674,8.24 C99.674,8.704 99.658,12.384 99.61,12.656 C99.466,13.44 98.778,13.488 98.394,13.488 C97.946,13.488 97.786,13.488 97.786,13.744 C97.786,14 98.01,14 98.282,14 L105.818,14 C106.858,14 106.874,13.952 107.274,12.912 C107.37,12.672 107.946,11.152 107.946,11.072 C107.946,10.896 107.802,10.816 107.674,10.816 C107.546,10.816 107.514,10.88 107.114,11.504 C105.946,13.344 104.298,13.488 103.29,13.488 L102.058,13.488 Z M109.406,2.336 L113.662,2.336 C119.086,2.336 119.726,6.176 119.726,8.016 C119.726,11.472 117.758,14 113.806,14 L109.406,14 C109.166,14 108.942,14 108.942,13.744 C108.942,13.488 109.182,13.488 109.278,13.488 C109.902,13.488 110.59,13.488 110.734,12.656 C110.782,12.4 110.782,12.384 110.782,8.128 C110.782,7.376 110.782,3.952 110.734,3.68 C110.59,2.912 109.902,2.864 109.518,2.864 C109.118,2.864 108.942,2.864 108.942,2.608 C108.942,2.336 109.166,2.336 109.406,2.336 Z M113.998,2.864 L113.166,2.864 C112.59,2.864 112.158,3.12 112.062,3.696 C112.014,3.968 112.014,7.408 112.014,8.128 C112.014,12.384 112.014,12.4 112.062,12.656 C112.19,13.408 112.846,13.488 113.166,13.488 L113.934,13.488 C116.654,13.488 118.286,11.152 118.286,7.952 C118.286,5.936 117.454,2.864 113.998,2.864 Z M126.002,14 C126.194,14 126.434,14 126.434,13.744 C126.434,13.488 126.178,13.488 126.098,13.488 C125.026,13.488 124.45,13.488 124.306,12.656 C124.258,12.4 124.258,12.384 124.258,8.144 C124.258,7.408 124.258,3.808 124.322,3.584 C124.53,2.864 125.218,2.848 125.698,2.848 C126.29,2.848 126.434,2.848 126.434,2.608 C126.434,2.336 126.194,2.336 126.002,2.336 L121.298,2.336 C121.074,2.336 120.834,2.336 120.834,2.608 C120.834,2.864 121.09,2.864 121.186,2.864 C122.242,2.864 122.818,2.864 122.978,3.68 C123.026,3.968 123.026,7.584 123.026,8.24 C123.026,8.704 123.026,12.384 122.978,12.656 C122.818,13.488 122.05,13.488 121.586,13.488 C120.962,13.488 120.834,13.488 120.834,13.744 C120.834,14 121.074,14 121.282,14 L126.002,14 Z M138.79,14 L135.334,14 C135.158,14 134.95,13.952 134.95,13.744 C134.95,13.488 135.206,13.488 135.59,13.488 C135.894,13.488 136.246,13.2 136.246,12.784 C136.246,12.432 135.83,11.328 135.654,10.912 C135.302,10.016 135.254,9.904 134.726,9.904 L131.254,9.904 C130.662,9.904 130.598,10.064 130.342,10.784 C130.198,11.216 129.766,12.496 129.766,12.864 C129.766,13.488 130.278,13.488 130.662,13.488 C130.854,13.488 131.03,13.52 131.03,13.744 C131.03,14 130.79,14 130.662,14 L127.59,14 C127.462,14 127.254,13.984 127.254,13.76 C127.254,13.488 127.43,13.488 127.798,13.488 C128.23,13.488 128.614,13.392 129.014,12.848 C129.382,12.352 130.566,8.592 130.918,7.456 C131.126,6.816 132.15,3.68 132.358,2.96 C132.518,2.4 132.614,2.032 133.75,2.032 C133.942,2.032 134.038,2.144 134.102,2.288 C134.246,2.528 134.518,3.36 134.63,3.728 C135.75,7.2 135.846,7.584 136.854,10.544 C137.766,13.264 137.878,13.488 138.79,13.488 C138.998,13.488 139.158,13.584 139.158,13.76 C139.158,14 138.902,14 138.79,14 Z M131.398,9.376 L134.582,9.376 C134.758,9.376 134.982,9.296 134.982,9.12 C134.982,8.784 133.462,4.336 133.174,3.472 C133.078,3.2 133.046,3.056 132.934,3.056 C132.838,3.056 132.822,3.104 132.646,3.632 C132.198,4.928 130.95,8.992 130.95,9.136 C130.95,9.376 131.19,9.376 131.398,9.376 Z" id="MEDIA" fill="#808080"></path>
        </g>
    </g>
</svg>