<?xml version="1.0" encoding="UTF-8"?>
<svg width="85px" height="23px" viewBox="0 0 85 23" version="1.1" xmlns="http://www.w3.org/2000/svg" xmlns:xlink="http://www.w3.org/1999/xlink">
    <!-- Generator: Sketch 42 (36781) - http://www.bohemiancoding.com/sketch -->
    <title>Page 1</title>
    <desc>Created with Sketch.</desc>
    <defs>
        <polygon id="path-1" points="0 22.1035 84.932 22.1035 84.932 0.0005 0 0.0005"></polygon>
    </defs>
    <g id="Page-1" stroke="none" stroke-width="1" fill="none" fill-rule="evenodd">
        <g>
            <path d="M40.293,21.6465 L42.573,21.6465 L42.573,16.8715 C42.573,15.3415 41.673,13.9555 40.284,13.3295 C38.889,12.7035 37.261,12.9585 36.128,13.9825 C36.039,14.0665 35.91,14.0665 35.822,13.9825 C34.688,12.9755 33.05,12.7105 31.666,13.3295 C30.266,13.9555 29.37,15.3415 29.37,16.8715 L29.37,21.6465 L31.646,21.6465 L31.646,16.8715 C31.646,15.9845 32.364,15.2695 33.246,15.2695 C34.117,15.2695 34.839,15.9845 34.839,16.8715 L34.839,21.6465 L37.1,21.6465 L37.1,16.8715 C37.1,15.9845 37.821,15.2695 38.694,15.2695 C39.574,15.2695 40.293,15.9845 40.293,16.8715 L40.293,21.6465 Z M42.797,22.1035 L40.064,22.1035 C39.936,22.1035 39.832,22.0005 39.832,21.8785 L39.832,16.8715 C39.832,16.2425 39.316,15.7355 38.694,15.7355 C38.07,15.7355 37.561,16.2425 37.561,16.8715 L37.561,21.8785 C37.561,22.0005 37.457,22.1035 37.331,22.1035 L34.607,22.1035 C34.483,22.1035 34.381,22.0005 34.381,21.8785 L34.381,16.8715 C34.381,16.2425 33.865,15.7355 33.246,15.7355 C32.611,15.7355 32.106,16.2425 32.106,16.8715 L32.106,21.8785 C32.106,22.0005 32.002,22.1035 31.874,22.1035 L29.14,22.1035 C29.013,22.1035 28.912,22.0005 28.912,21.8785 L28.912,16.6395 C28.912,16.6245 28.918,16.5985 28.92,16.5795 C29.026,14.9875 30.002,13.5685 31.476,12.9165 C32.971,12.2465 34.716,12.4855 35.977,13.5165 C37.236,12.4795 38.97,12.2395 40.468,12.9165 C41.938,13.5685 42.91,14.9875 43.021,16.5795 C43.025,16.5985 43.027,16.6245 43.027,16.6395 L43.027,21.8785 C43.027,22.0005 42.926,22.1035 42.797,22.1035 Z" id="Fill-1" fill="#000000"></path>
            <path d="M49.1699,15.7353 C48.2999,15.7353 47.5839,16.4433 47.5839,17.3203 C47.5839,18.1943 48.2999,18.9043 49.1699,18.9043 C50.0589,18.9043 50.7769,18.1943 50.7769,17.3203 C50.7769,16.4433 50.0589,15.7353 49.1699,15.7353 M49.1699,19.3693 C48.0419,19.3693 47.1189,18.4493 47.1189,17.3203 C47.1189,16.1863 48.0419,15.2693 49.1699,15.2693 C50.3109,15.2693 51.2339,16.1863 51.2339,17.3203 C51.2339,18.4493 50.3109,19.3693 49.1699,19.3693 M49.1699,12.9953 C46.7899,12.9953 44.8479,14.9403 44.8479,17.3203 C44.8479,19.7043 46.7899,21.6463 49.1699,21.6463 C51.5679,21.6463 53.5099,19.7043 53.5099,17.3203 C53.5099,14.9403 51.5679,12.9953 49.1699,12.9953 M49.1699,22.1033 C46.5349,22.1033 44.3839,19.9623 44.3839,17.3203 C44.3839,14.6783 46.5349,12.5373 49.1699,12.5373 C51.8199,12.5373 53.9659,14.6783 53.9659,17.3203 C53.9659,19.9623 51.8199,22.1033 49.1699,22.1033" id="Fill-3" fill="#000000"></path>
            <mask id="mask-2" fill="white">
                <use xlink:href="#path-1"></use>
            </mask>
            <g id="Clip-6"></g>
            <path d="M66.719,21.6465 L68.998,21.6465 L68.998,12.9955 L66.719,12.9955 L66.719,21.6465 Z M69.223,22.1035 L66.486,22.1035 C66.357,22.1035 66.256,21.9995 66.256,21.8785 L66.256,12.7695 C66.256,12.6435 66.357,12.5375 66.486,12.5375 L69.223,12.5375 C69.35,12.5375 69.455,12.6435 69.455,12.7695 L69.455,21.8785 C69.455,21.9995 69.35,22.1035 69.223,22.1035 L69.223,22.1035 Z" id="Fill-5" fill="#000000" mask="url(#mask-2)"></path>
            <path d="M67.8496,9.3432 C67.2366,9.3432 66.7186,9.8672 66.7186,10.4862 C66.7186,11.1052 67.2206,11.6172 67.8496,11.6172 C68.4836,11.6172 68.9976,11.1052 68.9976,10.4862 C68.9976,9.8672 68.4716,9.3432 67.8496,9.3432 M67.8496,12.0782 C66.9676,12.0782 66.2556,11.3592 66.2556,10.4862 C66.2556,9.5972 66.9676,8.8852 67.8496,8.8852 C68.7316,8.8852 69.4546,9.5972 69.4546,10.4862 C69.4546,11.3592 68.7316,12.0782 67.8496,12.0782" id="Fill-7" fill="#000000" mask="url(#mask-2)"></path>
            <path d="M71.27,21.6465 L73.549,21.6465 L73.549,8.4435 L71.27,8.4435 L71.27,21.6465 Z M73.779,22.1035 L71.039,22.1035 C70.919,22.1035 70.81,21.9995 70.81,21.8785 L70.81,8.2145 C70.81,8.0805 70.919,7.9825 71.039,7.9825 L73.779,7.9825 C73.899,7.9825 74.002,8.0805 74.002,8.2145 L74.002,21.8785 C74.002,21.9995 73.899,22.1035 73.779,22.1035 L73.779,22.1035 Z" id="Fill-8" fill="#000000" mask="url(#mask-2)"></path>
            <polygon id="Fill-9" fill="#000000" mask="url(#mask-2)" points="21.8506 21.8784 8.1896 21.8784 8.1896 18.2404 18.2096 18.2404 18.2096 16.8714 12.7436 16.8714 12.7436 8.2144 21.8506 8.2144 21.8506 11.8494 16.3776 11.8494 16.3776 13.2214 21.8506 13.2214"></polygon>
            <polygon id="Fill-10" fill="#000000" mask="url(#mask-2)" points="21.8506 3.6611 7.2676 3.6611 7.2676 17.3201 3.6316 17.3201 3.6316 3.6611 -0.0004 3.6611 -0.0004 0.0001 21.8506 0.0001"></polygon>
            <polygon id="Fill-11" fill="#C84F36" mask="url(#mask-2)" points="8.222 8.2175 11.866 8.2175 11.866 4.5795 8.222 4.5795"></polygon>
            <polygon id="Fill-12" fill="#5EA745" mask="url(#mask-2)" points="3.669 21.8385 7.27 21.8385 7.27 18.2365 3.669 18.2365"></polygon>
            <path d="M60.1152,15.7353 C59.2262,15.7353 58.5112,16.4433 58.5112,17.3203 C58.5112,18.1943 59.2262,18.9043 60.1152,18.9043 C60.9902,18.9043 61.7062,18.1943 61.7062,17.3203 C61.7062,16.4433 60.9902,15.7353 60.1152,15.7353 L60.1152,15.7353 Z M60.1152,19.3693 C58.9752,19.3693 58.0512,18.4493 58.0512,17.3203 C58.0512,16.1863 58.9752,15.2693 60.1152,15.2693 C61.2482,15.2693 62.1642,16.1863 62.1642,17.3203 C62.1642,18.4493 61.2482,19.3693 60.1152,19.3693 L60.1152,19.3693 Z M55.7872,8.4433 L55.7872,17.3203 C55.7872,19.7043 57.7312,21.6463 60.1152,21.6463 C62.5012,21.6463 64.4342,19.7043 64.4342,17.3203 C64.4342,14.9403 62.5012,12.9953 60.1152,12.9953 C59.5112,12.9953 58.9162,13.1183 58.3762,13.3633 C58.2992,13.3873 58.2192,13.3823 58.1542,13.3443 C58.0912,13.2983 58.0512,13.2273 58.0512,13.1483 L58.0512,8.4433 L55.7872,8.4433 Z M60.1152,22.1033 C57.4742,22.1033 55.3262,19.9623 55.3262,17.3203 L55.3262,8.2143 C55.3262,8.0803 55.4292,7.9823 55.5582,7.9823 L58.2792,7.9823 C58.4122,7.9823 58.5112,8.0803 58.5112,8.2143 L58.5112,12.8203 C59.0182,12.6263 59.5632,12.5373 60.1152,12.5373 C62.7502,12.5373 64.8912,14.6783 64.8912,17.3203 C64.8912,19.9623 62.7502,22.1033 60.1152,22.1033 L60.1152,22.1033 Z" id="Fill-13" fill="#000000" mask="url(#mask-2)"></path>
            <path d="M81.3574,16.1836 L78.9334,16.1836 C78.8374,16.1836 78.7584,16.1286 78.7244,16.0376 C78.6934,15.9486 78.7154,15.8456 78.7864,15.7856 C79.5464,15.1096 80.7554,15.1096 81.5114,15.7856 C81.5774,15.8456 81.6064,15.9486 81.5704,16.0376 C81.5374,16.1286 81.4484,16.1836 81.3574,16.1836 M80.1454,19.3776 C79.6504,19.3776 79.1624,19.1976 78.7864,18.8586 C78.7154,18.7966 78.6934,18.6986 78.7214,18.6096 C78.7584,18.5176 78.8374,18.4596 78.9334,18.4596 L81.3574,18.4596 C81.4484,18.4596 81.5374,18.5176 81.5704,18.6096 C81.6064,18.6986 81.5774,18.7966 81.5114,18.8586 C81.1304,19.1976 80.6434,19.3776 80.1454,19.3776 M80.1454,12.9946 C78.2464,12.9946 76.5944,14.2146 76.0204,16.0226 C75.6684,17.1206 75.7714,18.2946 76.3104,19.3206 C76.8504,20.3436 77.7424,21.0996 78.8474,21.4436 C80.5414,21.9756 82.4654,21.3686 83.5514,19.9826 L81.9634,18.8826 C81.8794,18.8276 81.8394,18.7156 81.8734,18.6216 C81.9044,18.5196 81.9904,18.4596 82.0864,18.4596 L84.3144,18.4596 C84.9304,16.2326 83.6664,13.9036 81.4434,13.1936 C81.0214,13.0546 80.5884,12.9946 80.1454,12.9946 M80.1384,22.1016 C79.6554,22.1016 79.1724,22.0276 78.7104,21.8836 C77.4904,21.4996 76.4984,20.6666 75.9004,19.5356 C75.3144,18.3946 75.2024,17.1036 75.5824,15.8826 C76.2094,13.8776 78.0484,12.5316 80.1454,12.5316 C80.6314,12.5316 81.1184,12.6076 81.5824,12.7516 C84.0964,13.5476 85.5044,16.2426 84.7104,18.7616 C84.6794,18.8536 84.5874,18.9166 84.4924,18.9166 L82.8264,18.9166 L84.0054,19.7386 C84.0674,19.7746 84.0914,19.8276 84.1084,19.8876 C84.1234,19.9446 84.0984,20.0136 84.0724,20.0666 C83.1694,21.3426 81.7014,22.1016 80.1384,22.1016" id="Fill-14" fill="#000000" mask="url(#mask-2)"></path>
        </g>
    </g>
</svg>