<svg id="ttl_about.svg" xmlns="http://www.w3.org/2000/svg" width="474" height="89" viewBox="0 0 474 89">
  <defs>
    <style>
      .cls-1 {
        fill: #caad17;
      }

      .cls-1, .cls-2 {
        fill-rule: evenodd;
      }
    </style>
  </defs>
  <path id="シェイプ_3" data-name="シェイプ 3" class="cls-1" d="M337.451,106.3l0.239,0.064a1.023,1.023,0,0,0-.022.285,0.725,0.725,0,0,0,.315.53,3.261,3.261,0,0,0,.847.484,6.742,6.742,0,0,0,1.219.362,6.982,6.982,0,0,0,1.424.145,3.274,3.274,0,0,0,1-.122,1.164,1.164,0,0,0,.574-0.385,1.454,1.454,0,0,0,.275-0.694,7.319,7.319,0,0,0,.064-1.042v-7.3a0.632,0.632,0,0,0-.108-0.386,0.491,0.491,0,0,0-.414-0.145V97.837h2.869V98.1a0.484,0.484,0,0,0-.412.145,0.613,0.613,0,0,0-.109.386v7.5a7.07,7.07,0,0,1-.129,1.415,2.142,2.142,0,0,1-.554,1.069,2.6,2.6,0,0,1-1.207.647,8.306,8.306,0,0,1-2.087.21,10.1,10.1,0,0,1-1.718-.12,6.389,6.389,0,0,1-1.13-.3,8.281,8.281,0,0,1-.794-0.331,1.2,1.2,0,0,0-.466-0.15,0.416,0.416,0,0,0-.328.218l-0.151-.068Zm13.461,2.854a0.532,0.532,0,0,0,.437-0.145,1.746,1.746,0,0,0,.214-0.369l3.2-7.428a1.163,1.163,0,0,0,.1-0.351,0.234,0.234,0,0,0-.111-0.184,0.782,0.782,0,0,0-.395-0.1v-0.2h3.285v0.244a0.96,0.96,0,0,0-.313.052,0.2,0.2,0,0,0-.154.194,0.473,0.473,0,0,0,.052.207,2.164,2.164,0,0,1,.09.2l3.47,7.468a0.933,0.933,0,0,0,.183.279,0.589,0.589,0,0,0,.447.134v0.247h-2.557v-0.247a1.256,1.256,0,0,0,.485-0.061,0.2,0.2,0,0,0,.124-0.183,0.7,0.7,0,0,0-.041-0.249c-0.027-.069-0.056-0.139-0.083-0.206l-0.831-1.726H353.59L352.9,108.3a3.619,3.619,0,0,1-.173.347,0.589,0.589,0,0,0-.092.27,0.2,0.2,0,0,0,.122.183,1.059,1.059,0,0,0,.427.061v0.247h-2.272v-0.247Zm3.145-3.57h3.955l-2.047-4.311Zm13.209-4.855a0.535,0.535,0,0,0-.415-0.114v-0.244h5.436q3.042,0,3.044,2.523a2.227,2.227,0,0,1-.243,1.046,2.657,2.657,0,0,1-.638.811,2.891,2.891,0,0,1-.914.523,3.185,3.185,0,0,1-1.086.185h-3.835v3.119a0.788,0.788,0,0,0,.091.461,0.542,0.542,0,0,0,.418.115v0.247h-2.273v-0.247a0.539,0.539,0,0,0,.415-0.115,0.769,0.769,0,0,0,.093-0.461V101.2A0.779,0.779,0,0,0,367.266,100.733Zm5.082,3.581a1.736,1.736,0,0,0,1.25-.388,1.446,1.446,0,0,0,.395-1.07,1.222,1.222,0,0,0-.478-1.077,2.522,2.522,0,0,0-1.45-.339h-3.45v2.874h3.733Zm6.594,4.844a0.527,0.527,0,0,0,.434-0.145,1.7,1.7,0,0,0,.214-0.369l3.208-7.428a1.173,1.173,0,0,0,.1-0.351,0.236,0.236,0,0,0-.109-0.184,0.785,0.785,0,0,0-.395-0.1v-0.2h3.285v0.244a0.966,0.966,0,0,0-.314.052,0.2,0.2,0,0,0-.154.194,0.461,0.461,0,0,0,.053.207c0.033,0.068.064,0.136,0.09,0.2l3.469,7.468a0.937,0.937,0,0,0,.184.279,0.585,0.585,0,0,0,.445.134v0.247h-2.556v-0.247a1.256,1.256,0,0,0,.485-0.061,0.2,0.2,0,0,0,.125-0.183,0.7,0.7,0,0,0-.041-0.249c-0.027-.069-0.057-0.139-0.084-0.206l-0.831-1.726H381.62l-0.692,1.564a3.619,3.619,0,0,1-.173.347,0.582,0.582,0,0,0-.09.27,0.2,0.2,0,0,0,.12.183,1.077,1.077,0,0,0,.429.061v0.247h-2.272v-0.247Zm3.144-3.57h3.954l-2.046-4.311Zm12.772,3.57a0.619,0.619,0,0,0,.437-0.115,0.67,0.67,0,0,0,.112-0.461V101.2a0.679,0.679,0,0,0-.112-0.462,0.615,0.615,0,0,0-.437-0.114v-0.244h2.962v0.244a1.215,1.215,0,0,0-.436.052,0.155,0.155,0,0,0-.111.134,1.121,1.121,0,0,0,.224.35l5.5,6.381V101.2a0.678,0.678,0,0,0-.113-0.462,0.61,0.61,0,0,0-.436-0.114v-0.244h2.232v0.244a0.6,0.6,0,0,0-.434.114,0.678,0.678,0,0,0-.113.462v7.387a0.67,0.67,0,0,0,.113.461,0.607,0.607,0,0,0,.434.115v0.247h-2.717v-0.247a1.54,1.54,0,0,0,.485-0.043,0.147,0.147,0,0,0,.083-0.145,0.247,0.247,0,0,0-.072-0.174,2.129,2.129,0,0,1-.173-0.194l-5.741-6.629v6.609a0.684,0.684,0,0,0,.109.461,0.626,0.626,0,0,0,.437.115v0.247h-2.231v-0.247Zm26.254-10.17a0.46,0.46,0,0,0-.386-0.131V98.609h6.819a4.344,4.344,0,0,1,2.878.761,2.663,2.663,0,0,1,.873,2.131,3.174,3.174,0,0,1-.862,2.382,3.962,3.962,0,0,1-2.829.841h-4.687v3.941a0.574,0.574,0,0,0,.1.359,0.455,0.455,0,0,0,.384.134v0.247h-2.678v-0.247a0.46,0.46,0,0,0,.386-0.134,0.573,0.573,0,0,0,.1-0.359V99.349A0.581,0.581,0,0,0,421.112,98.988Zm6.391,4.342a2.541,2.541,0,0,0,1.742-.474,1.671,1.671,0,0,0,.508-1.294,1.449,1.449,0,0,0-.455-1.18,3,3,0,0,0-1.8-.376h-4.585v3.324H427.5Zm11.478,5.713a0.538,0.538,0,0,0,.418.115v0.247h-2.272v-0.247a0.53,0.53,0,0,0,.413-0.115,0.783,0.783,0,0,0,.094-0.461V101.2a0.793,0.793,0,0,0-.094-0.462,0.527,0.527,0,0,0-.413-0.114v-0.244h6.207a2.5,2.5,0,0,1,1.946.675,2.667,2.667,0,0,1,.609,1.848,2.356,2.356,0,0,1-.64,1.8,2.677,2.677,0,0,1-1.814.646l2.231,3.448a1.074,1.074,0,0,0,.244.3,0.448,0.448,0,0,0,.264.073v0.247h-2.189v-0.247a0.7,0.7,0,0,0,.273-0.031,0.154,0.154,0,0,0,.05-0.135,0.4,0.4,0,0,0-.063-0.2c-0.039-.068-0.1-0.163-0.159-0.289L442.1,105.34h-3.2v3.242A0.8,0.8,0,0,0,438.981,109.043Zm4.23-4.853a1.359,1.359,0,0,0,1.034-.328,1.426,1.426,0,0,0,.3-1.006,1.534,1.534,0,0,0-.313-1.077,1.687,1.687,0,0,0-1.23-.339h-4.114v2.75h4.319Zm9.312-3.457a0.472,0.472,0,0,0-.376-0.114v-0.244h8.176a0.413,0.413,0,0,0,.508-0.493h0.242v2.133h-0.242a0.564,0.564,0,0,0-.1-0.381,0.542,0.542,0,0,0-.405-0.11h-6.37v2.666h4.484a0.55,0.55,0,0,0,.406-0.113,0.564,0.564,0,0,0,.1-0.376h0.242v2.13h-0.242a0.572,0.572,0,0,0-.1-0.378,0.541,0.541,0,0,0-.406-0.113h-4.484v2.915h6.594a0.55,0.55,0,0,0,.407-0.113,0.6,0.6,0,0,0,.1-0.381H461.3v2.073h-0.245a0.464,0.464,0,0,0-.1-0.349,0.7,0.7,0,0,0-.407-0.08h-8.4v-0.247a0.476,0.476,0,0,0,.376-0.115,0.786,0.786,0,0,0,.092-0.461V101.2A0.8,0.8,0,0,0,452.523,100.733Zm23.257,8.425a0.626,0.626,0,0,0,.44-0.115,0.7,0.7,0,0,0,.108-0.461v-6.445h-0.041l-3.671,6.833-3.67-6.833H468.9v6.445a0.664,0.664,0,0,0,.113.461,0.614,0.614,0,0,0,.436.115v0.247h-2.234v-0.247a0.617,0.617,0,0,0,.437-0.115,0.663,0.663,0,0,0,.114-0.461V101.2a0.672,0.672,0,0,0-.114-0.462,0.613,0.613,0,0,0-.437-0.114v-0.244h2.72v0.244c-0.325,0-.486.075-0.486,0.228a0.976,0.976,0,0,0,.122.266l3.042,5.6,3.043-5.6a1.029,1.029,0,0,0,.121-0.266c0-.153-0.162-0.228-0.486-0.228v-0.244h2.758v0.244a0.462,0.462,0,0,0-.373.114,0.789,0.789,0,0,0-.092.462v7.387a0.778,0.778,0,0,0,.092.461,0.465,0.465,0,0,0,.373.115v0.247H475.78v-0.247Zm8.821,0a0.533,0.533,0,0,0,.415-0.115,0.769,0.769,0,0,0,.093-0.461V101.2a0.779,0.779,0,0,0-.093-0.462,0.529,0.529,0,0,0-.415-0.114v-0.244h2.272v0.244a0.532,0.532,0,0,0-.414.114,0.784,0.784,0,0,0-.09.462v7.387a0.774,0.774,0,0,0,.09.461,0.536,0.536,0,0,0,.414.115v0.247H484.6v-0.247Zm17.707-1.192a2.91,2.91,0,0,1-1.057.914,4.6,4.6,0,0,1-1.443.46,9.77,9.77,0,0,1-3.128,0,4.578,4.578,0,0,1-1.441-.46,2.873,2.873,0,0,1-1.053-.914,2.42,2.42,0,0,1-.409-1.436V101.2a0.878,0.878,0,0,0-.079-0.462,0.4,0.4,0,0,0-.346-0.114v-0.244h2.113v0.244a0.408,0.408,0,0,0-.347.114,0.861,0.861,0,0,0-.082.462v5.07a1.7,1.7,0,0,0,.873,1.64,6.012,6.012,0,0,0,4.67,0,1.706,1.706,0,0,0,.875-1.64V101.2a0.871,0.871,0,0,0-.082-0.462,0.4,0.4,0,0,0-.342-0.114v-0.244h2.109v0.244a0.4,0.4,0,0,0-.346.114,0.9,0.9,0,0,0-.083.462v5.335A2.425,2.425,0,0,1,502.308,107.966Zm15.639,1.192a0.625,0.625,0,0,0,.439-0.115,0.678,0.678,0,0,0,.109-0.461v-6.445h-0.041l-3.672,6.833-3.671-6.833h-0.042v6.445a0.67,0.67,0,0,0,.112.461,0.62,0.62,0,0,0,.438.115v0.247h-2.231v-0.247a0.623,0.623,0,0,0,.436-0.115,0.673,0.673,0,0,0,.109-0.461V101.2a0.681,0.681,0,0,0-.109-0.462,0.618,0.618,0,0,0-.436-0.114v-0.244H512.1v0.244c-0.323,0-.484.075-0.484,0.228a1.071,1.071,0,0,0,.121.266l3.042,5.6,3.044-5.6a1.071,1.071,0,0,0,.121-0.266c0-.153-0.164-0.228-0.485-0.228v-0.244h2.76v0.244a0.476,0.476,0,0,0-.379.114,0.824,0.824,0,0,0-.091.462v7.387a0.813,0.813,0,0,0,.091.461,0.479,0.479,0,0,0,.379.115v0.247h-2.275v-0.247ZM545,111.023a0.332,0.332,0,0,0,.112-0.182,1.17,1.17,0,0,0,.011-0.142,1.3,1.3,0,0,0-.244-0.465,6.661,6.661,0,0,0-.955-1.016,9.292,9.292,0,0,1-2.191.248,8.406,8.406,0,0,1-2.433-.339,5.344,5.344,0,0,1-1.938-1.039,4.738,4.738,0,0,1-1.278-1.72,6.343,6.343,0,0,1,0-4.723,4.865,4.865,0,0,1,1.278-1.735,5.5,5.5,0,0,1,1.938-1.067,8.452,8.452,0,0,1,4.867,0A5.533,5.533,0,0,1,546.1,99.91a4.889,4.889,0,0,1,1.278,1.735,5.747,5.747,0,0,1,.455,2.36,5.472,5.472,0,0,1-.658,2.759,4.87,4.87,0,0,1-1.813,1.838c0.309,0.331.549,0.576,0.718,0.738a0.725,0.725,0,0,0,.5.247,0.256,0.256,0,0,0,.184-0.081l0.159,0.165-1.8,1.495Zm-1.848-4.533a7.253,7.253,0,0,1,1.177,1,3.336,3.336,0,0,0,1.29-1.385,4.665,4.665,0,0,0,.437-2.1,4.027,4.027,0,0,0-1.125-3.025,5.208,5.208,0,0,0-6.391,0,4.6,4.6,0,0,0,0,6.039,4.38,4.38,0,0,0,3.193,1.092,4.971,4.971,0,0,0,.561-0.027c0.18-.019.354-0.041,0.516-0.072-0.287-.255-0.513-0.464-0.682-0.628a4.809,4.809,0,0,0-.444-0.38,1.4,1.4,0,0,0-.376-0.2,1.525,1.525,0,0,0-.466-0.063,0.472,0.472,0,0,0-.162.023,0.5,0.5,0,0,1-.124.019c-0.121,0-.18-0.045-0.18-0.141a0.464,0.464,0,0,1,.324-0.39,2.02,2.02,0,0,1,.914-0.165A2.683,2.683,0,0,1,543.149,106.49Zm19.6,1.476a2.9,2.9,0,0,1-1.054.914,4.566,4.566,0,0,1-1.439.46,9.757,9.757,0,0,1-3.126,0,4.566,4.566,0,0,1-1.439-.46,2.882,2.882,0,0,1-1.056-.914,2.419,2.419,0,0,1-.407-1.436V101.2a0.861,0.861,0,0,0-.082-0.462,0.4,0.4,0,0,0-.344-0.114v-0.244h2.112v0.244a0.4,0.4,0,0,0-.346.114,0.881,0.881,0,0,0-.082.462v5.07a1.7,1.7,0,0,0,.875,1.64,6,6,0,0,0,4.664,0,1.7,1.7,0,0,0,.873-1.64V101.2a0.861,0.861,0,0,0-.082-0.462,0.406,0.406,0,0,0-.345-0.114v-0.244h2.109v0.244a0.407,0.407,0,0,0-.346.114,0.91,0.91,0,0,0-.079.462v5.335A2.426,2.426,0,0,1,562.749,107.966Zm5.5,1.192a0.529,0.529,0,0,0,.437-0.145,1.884,1.884,0,0,0,.215-0.369l3.2-7.428a1.1,1.1,0,0,0,.1-0.351,0.231,0.231,0,0,0-.113-0.184,0.769,0.769,0,0,0-.395-0.1v-0.2h3.288v0.244a1.011,1.011,0,0,0-.316.052,0.193,0.193,0,0,0-.151.194,0.469,0.469,0,0,0,.049.207,1.973,1.973,0,0,1,.094.2l3.469,7.468a0.879,0.879,0,0,0,.183.279,0.585,0.585,0,0,0,.445.134v0.247h-2.554v-0.247a1.28,1.28,0,0,0,.485-0.061,0.2,0.2,0,0,0,.12-0.183,0.622,0.622,0,0,0-.041-0.249c-0.026-.069-0.056-0.139-0.079-0.206l-0.831-1.726h-4.932l-0.689,1.564c-0.055.122-.113,0.238-0.173,0.347a0.6,0.6,0,0,0-.092.27,0.207,0.207,0,0,0,.122.183,1.057,1.057,0,0,0,.425.061v0.247h-2.271v-0.247Zm3.146-3.57h3.955l-2.046-4.311Zm21.438,4.205a0.382,0.382,0,0,0-.1-0.308,0.685,0.685,0,0,0-.4-0.08h-8.139v-0.247a0.537,0.537,0,0,0,.417-0.115,0.8,0.8,0,0,0,.09-0.461V101.2a0.808,0.808,0,0,0-.09-0.462,0.533,0.533,0,0,0-.417-0.114v-0.244h2.271v0.244a0.539,0.539,0,0,0-.416.114,0.833,0.833,0,0,0-.091.462v7.06h6.375a0.488,0.488,0,0,0,.4-0.135,0.829,0.829,0,0,0,.1-0.481h0.244v2.154h-0.244Zm5.892-.635a0.536,0.536,0,0,0,.415-0.115,0.786,0.786,0,0,0,.092-0.461V101.2a0.8,0.8,0,0,0-.092-0.462,0.532,0.532,0,0,0-.415-0.114v-0.244H601v0.244a0.538,0.538,0,0,0-.417.114,0.807,0.807,0,0,0-.091.462v7.387a0.8,0.8,0,0,0,.091.461,0.541,0.541,0,0,0,.417.115v0.247h-2.274v-0.247Zm16.84-7.143a0.582,0.582,0,0,0-.1-0.381,0.551,0.551,0,0,0-.408-0.11h-3.145v7.058a0.767,0.767,0,0,0,.094.461,0.526,0.526,0,0,0,.414.115v0.247H610.07v-0.247a0.543,0.543,0,0,0,.417-0.115,0.8,0.8,0,0,0,.089-0.461v-7.058h-3.143a0.545,0.545,0,0,0-.407.11,0.576,0.576,0,0,0-.1.381h-0.243V99.882h0.243a0.569,0.569,0,0,0,.1.379,0.561,0.561,0,0,0,.407.114h7.628a0.567,0.567,0,0,0,.408-0.114,0.575,0.575,0,0,0,.1-0.379h0.241v2.133h-0.241Zm8.373,7.143a0.412,0.412,0,0,0,.348-0.115,0.859,0.859,0,0,0,.082-0.461v-2.914l-3.1-4.513a1.8,1.8,0,0,0-.354-0.371,0.718,0.718,0,0,0-.436-0.165v-0.244H623v0.244c-0.274,0-.41.07-0.41,0.2a0.362,0.362,0,0,0,.083.217l0.139,0.194,2.294,3.3,2.6-3.322a0.927,0.927,0,0,0,.226-0.392,0.18,0.18,0,0,0-.071-0.164,0.8,0.8,0,0,0-.316-0.041v-0.244h2.516v0.244a0.65,0.65,0,0,0-.506.176c-0.111.117-.265,0.3-0.469,0.565l-3.367,4.308v2.914a0.8,0.8,0,0,0,.091.461,0.537,0.537,0,0,0,.415.115v0.247h-2.274v-0.247Zm21.469-3a0.7,0.7,0,0,0-.064.268,0.84,0.84,0,0,0,.358.6,3.756,3.756,0,0,0,.933.565,7,7,0,0,0,1.31.42,6.632,6.632,0,0,0,1.481.166,5.169,5.169,0,0,0,2.788-.577,1.719,1.719,0,0,0,.865-1.476,1.161,1.161,0,0,0-.214-0.719,1.372,1.372,0,0,0-.587-0.442,3.477,3.477,0,0,0-.876-0.217,9.317,9.317,0,0,0-1.064-.061c-0.622,0-1.28,0-1.977-.007a7.1,7.1,0,0,1-1.918-.269,3.178,3.178,0,0,1-1.441-.85,2.472,2.472,0,0,1-.568-1.766,2.373,2.373,0,0,1,.4-1.343,3.535,3.535,0,0,1,1.109-1.039,5.885,5.885,0,0,1,1.652-.676,8.2,8.2,0,0,1,2.071-.247,8.013,8.013,0,0,1,1.511.123,10.881,10.881,0,0,1,1.105.266c0.313,0.1.569,0.185,0.771,0.267a1.391,1.391,0,0,0,.508.124,0.5,0.5,0,0,0,.324-0.086A1.767,1.767,0,0,0,654.1,99l0.241,0.1-1.111,2.36L653,101.319a1.048,1.048,0,0,0,.019-0.269,0.543,0.543,0,0,0-.243-0.348,2.738,2.738,0,0,0-.688-0.4,5.789,5.789,0,0,0-1.066-.33,6.587,6.587,0,0,0-1.349-.129,5.378,5.378,0,0,0-2.609.532,1.584,1.584,0,0,0-.963,1.394,0.892,0.892,0,0,0,.214.626,1.4,1.4,0,0,0,.587.369,3.485,3.485,0,0,0,.873.175c0.331,0.029.689,0.038,1.066,0.038,0.636,0,1.3.014,1.988,0.035a6.633,6.633,0,0,1,1.908.318,3.246,3.246,0,0,1,1.438.922,2.726,2.726,0,0,1,.57,1.869,2.566,2.566,0,0,1-.334,1.259,3.205,3.205,0,0,1-1,1.079,5.276,5.276,0,0,1-1.655.74,8.7,8.7,0,0,1-2.279.267,9.16,9.16,0,0,1-1.9-.175,8.153,8.153,0,0,1-1.371-.411c-0.376-.156-0.691-0.3-0.931-0.43a1.352,1.352,0,0,0-.589-0.2,0.6,0.6,0,0,0-.425.244l-0.2-.122,1.1-2.359Zm23.555-7.315A5.564,5.564,0,0,1,670.9,99.91a4.879,4.879,0,0,1,1.279,1.735,6.356,6.356,0,0,1,0,4.723,4.751,4.751,0,0,1-1.279,1.72,5.4,5.4,0,0,1-1.936,1.039,8.911,8.911,0,0,1-4.869,0,5.36,5.36,0,0,1-1.938-1.039,4.726,4.726,0,0,1-1.278-1.72,6.343,6.343,0,0,1,0-4.723,4.853,4.853,0,0,1,1.278-1.735,5.52,5.52,0,0,1,1.938-1.067A8.459,8.459,0,0,1,668.966,98.844Zm-5.633,2.132a4.621,4.621,0,0,0,0,6.039,5.221,5.221,0,0,0,6.391,0,4.605,4.605,0,0,0,0-6.039A5.215,5.215,0,0,0,663.333,100.976Zm22.65,4.078a0.458,0.458,0,0,0-.16-0.413,1.064,1.064,0,0,0-.628-0.162h-4.324v4.186a0.586,0.586,0,0,0,.1.359,0.465,0.465,0,0,0,.388.134v0.247h-2.679v-0.247a0.456,0.456,0,0,0,.384-0.134,0.574,0.574,0,0,0,.106-0.359V99.349a0.581,0.581,0,0,0-.106-0.362,0.455,0.455,0,0,0-.384-0.131V98.609h8.724a1.492,1.492,0,0,0,.671-0.093,0.344,0.344,0,0,0,.142-0.318h0.244v2.341h-0.244a0.571,0.571,0,0,0-.162-0.423,0.94,0.94,0,0,0-.628-0.152h-6.557v3.158h4.3a1.5,1.5,0,0,0,.669-0.091,0.35,0.35,0,0,0,.14-0.318h0.246v2.341h-0.246Zm8.133,3.12c-0.056.123-.116,0.257-0.183,0.408a0.947,0.947,0,0,0-.1.351c0,0.149.113,0.225,0.345,0.225v0.247h-2.494v-0.247a1.058,1.058,0,0,0,.211-0.021,0.313,0.313,0,0,0,.173-0.124,1.85,1.85,0,0,0,.184-0.3c0.068-.129.155-0.3,0.264-0.523l3.671-8.29c0.107-.234.19-0.407,0.245-0.527a0.712,0.712,0,0,0,.08-0.276c0-.164-0.122-0.244-0.366-0.244V98.609h2.965v0.248c-0.219,0-.325.08-0.325,0.244a0.735,0.735,0,0,0,.1.319c0.069,0.13.157,0.312,0.263,0.544l3.9,8.168c0.122,0.245.214,0.439,0.286,0.573a1.32,1.32,0,0,0,.193.308,0.351,0.351,0,0,0,.19.124,1.723,1.723,0,0,0,.287.021v0.247h-2.821v-0.247a0.528,0.528,0,0,0,.327-0.073,0.277,0.277,0,0,0,.08-0.217,0.51,0.51,0,0,0-.055-0.213c-0.03-.076-0.1-0.236-0.21-0.481l-0.771-1.644h-5.743Zm5.74-3-2.29-4.844-2.111,4.844h4.4Zm-388.808-8.6a0.3,0.3,0,0,0-.247-0.084V96.334h4.315a2.75,2.75,0,0,1,1.823.481,1.687,1.687,0,0,1,.553,1.353,2.027,2.027,0,0,1-.541,1.507,2.527,2.527,0,0,1-1.794.528h-2.966V102.7a0.4,0.4,0,0,0,.061.232,0.3,0.3,0,0,0,.247.084v0.156h-1.7v-0.156a0.29,0.29,0,0,0,.247-0.084,0.39,0.39,0,0,0,.065-0.232v-5.89A0.363,0.363,0,0,0,311.048,96.577Zm4.045,2.744a1.583,1.583,0,0,0,1.1-.3,1.056,1.056,0,0,0,.32-0.816,0.9,0.9,0,0,0-.289-0.746,1.868,1.868,0,0,0-1.133-.239h-2.9v2.1h2.9ZM311.2,109.2a0.346,0.346,0,0,0-.049.168,0.519,0.519,0,0,0,.195.388,2.4,2.4,0,0,0,.563.407,4.242,4.242,0,0,0,.806.324,4.077,4.077,0,0,0,.925.176,3.286,3.286,0,0,0,1.787-.222,1.085,1.085,0,0,0,.615-0.891,0.731,0.731,0,0,0-.1-0.464,0.856,0.856,0,0,0-.35-0.309,2.341,2.341,0,0,0-.536-0.178,5.075,5.075,0,0,0-.673-0.088c-0.393-.032-0.807-0.068-1.25-0.107a4.373,4.373,0,0,1-1.2-.262,2.029,2.029,0,0,1-.866-0.6,1.572,1.572,0,0,1-.274-1.147,1.511,1.511,0,0,1,.321-0.825,2.287,2.287,0,0,1,.748-0.6,3.74,3.74,0,0,1,1.072-.345,5.15,5.15,0,0,1,1.321-.054,4.924,4.924,0,0,1,.944.153,7.141,7.141,0,0,1,.685.218c0.192,0.081.351,0.147,0.477,0.211a0.853,0.853,0,0,0,.311.1,0.325,0.325,0,0,0,.209-0.034c0.045-.03.093-0.065,0.14-0.1l0.147,0.073-0.819,1.438-0.131-.106a0.884,0.884,0,0,0,.025-0.168,0.346,0.346,0,0,0-.135-0.228,1.8,1.8,0,0,0-.419-0.285,3.841,3.841,0,0,0-.655-0.263,3.781,3.781,0,0,0-.847-0.149,3.42,3.42,0,0,0-1.669.208,1,1,0,0,0-.674.835,0.588,0.588,0,0,0,.1.405,0.943,0.943,0,0,0,.354.261,2.221,2.221,0,0,0,.542.152c0.21,0.034.429,0.061,0.671,0.076,0.4,0.031.818,0.072,1.257,0.12a4.139,4.139,0,0,1,1.183.3,2.026,2.026,0,0,1,.868.651,1.725,1.725,0,0,1,.268,1.206,1.6,1.6,0,0,1-.272.782,2.022,2.022,0,0,1-.687.629,3.2,3.2,0,0,1-1.078.385,5.648,5.648,0,0,1-1.451.055,5.965,5.965,0,0,1-1.189-.2,5.828,5.828,0,0,1-.845-0.328c-0.23-.116-0.42-0.224-0.567-0.316a0.851,0.851,0,0,0-.366-0.154,0.4,0.4,0,0,0-.279.135l-0.121-.087,0.8-1.437Zm-1.339,6.151a11.348,11.348,0,1,1,11.217-11.345,11.3,11.3,0,0,1-11.217,11.345h0Zm0-22.129a10.781,10.781,0,1,0,10.661,10.784,10.733,10.733,0,0,0-10.661-10.784h0Zm0,23.786a13,13,0,1,1,12.86-13,12.947,12.947,0,0,1-12.86,13h0Zm0-25.445a12.442,12.442,0,1,0,12.3,12.443,12.386,12.386,0,0,0-12.3-12.443h0Zm-0.706,19.555a0.156,0.156,0,0,0-.061.022,0.549,0.549,0,0,1-.11.035,0.859,0.859,0,0,1-.309.008,0.888,0.888,0,0,1-.262-0.09,2.168,2.168,0,0,1-.321-0.192c-0.03-.023-0.064-0.042-0.1-0.066a3.152,3.152,0,0,0,1-1.068,3.457,3.457,0,0,0,.417-1.731,3.636,3.636,0,0,0-.29-1.481,2.957,2.957,0,0,0-.8-1.084,3.453,3.453,0,0,0-1.212-.673,5.37,5.37,0,0,0-3.063,0,3.458,3.458,0,0,0-1.215.673,3,3,0,0,0-.8,1.084,3.937,3.937,0,0,0,0,2.961,3.023,3.023,0,0,0,.8,1.081,3.352,3.352,0,0,0,1.215.651,5.187,5.187,0,0,0,1.53.213,5.806,5.806,0,0,0,1.38-.158l0.016,0,0.119-.05a3.753,3.753,0,0,0,.481.262,1.718,1.718,0,0,0,.991.095,1.326,1.326,0,0,0,.536-0.194,0.283,0.283,0,0,0,.154-0.248C309.248,111.143,309.242,111.106,309.157,111.121Zm-4.322-1.362a0.2,0.2,0,0,0,.067-0.012,0.442,0.442,0,0,1,.114-0.011,1.1,1.1,0,0,1,.3.034,0.99,0.99,0,0,1,.248.137,2.847,2.847,0,0,1,.284.245c0.111,0.1.254,0.238,0.43,0.394l0.049,0.044-0.06.014c-0.106.015-.217,0.03-0.332,0.041a2.439,2.439,0,0,1-.357.021,2.828,2.828,0,0,1-2.042-.7,2.957,2.957,0,0,1,0-3.868,3.331,3.331,0,0,1,4.086,0,2.6,2.6,0,0,1,.721,1.939,2.979,2.979,0,0,1-.279,1.343,2.166,2.166,0,0,1-.826.89l-0.021.011-0.015-.015a4.709,4.709,0,0,0-.741-0.632,1.705,1.705,0,0,0-.957-0.258,1.235,1.235,0,0,0-.565.1,0.28,0.28,0,0,0-.188.217C304.751,109.724,304.751,109.759,304.835,109.759Zm-0.451-13.3a0.272,0.272,0,0,0,.072.282,1.247,1.247,0,0,0,.457.347,1.929,1.929,0,0,0,.842.22h1.389v3.6a4.545,4.545,0,0,1-.047.715,1.03,1.03,0,0,1-.193.491,0.865,0.865,0,0,1-.413.277,2.316,2.316,0,0,1-.689.084,5.078,5.078,0,0,1-1.8-.342,2.2,2.2,0,0,1-.587-0.339,0.532,0.532,0,0,1-.232-0.4c0-.071,0-0.119,0-0.154l-0.068-.017-0.514,1.543,0.023,0.008a0.306,0.306,0,0,1,.242-0.139,0.87,0.87,0,0,1,.335.112,5.279,5.279,0,0,0,.531.219,4.39,4.39,0,0,0,.754.2,6.832,6.832,0,0,0,1.151.078,5.948,5.948,0,0,0,1.394-.135,1.642,1.642,0,0,0,.789-0.427,1.418,1.418,0,0,0,.362-0.694,4.522,4.522,0,0,0,.086-0.947V96.912a0.444,0.444,0,0,1,.087-0.289,0.335,0.335,0,0,1,.266-0.118v-0.08l-4.2,0A0.052,0.052,0,0,0,304.384,96.463Z" transform="translate(-263 -91)"/>
  <path id="シェイプ_2" data-name="シェイプ 2" class="cls-2" d="M268.062,175.438a1.06,1.06,0,0,0-1.223.864c-0.084,1.071-.169,2.224-2.024,2.224A1.273,1.273,0,0,1,263.338,177c0-.164.254-8.4,0.254-9.966,0-4.489,0-14.291-.338-18.451-0.042-.37-0.253-2.1-0.253-2.47,0-.207.042-0.33,0.253-0.33a7.42,7.42,0,0,1,1.983.865,3.957,3.957,0,0,0,2.108.576h12.906c0.886,0,1.223,0,1.519-.411,0.632-.865.8-1.071,1.222-1.071,0.591,0,3.67,1.935,3.67,2.553,0,0.288-.211.453-0.928,1.071-0.548.412-.759,0.7-0.759,2.677,0,4.406.042,5.148,0.084,8.772,0.042,2.347.337,12.767,0.337,14.909a2.093,2.093,0,0,1-2.108,2.265c-0.127,0-1.223,0-1.35-1.565-0.042-.7-0.042-0.988-0.886-0.988h-12.99Zm12.653-14.95a1.075,1.075,0,0,0,1.223-1.318c0-.495-0.127-10.09-0.211-10.3a1.047,1.047,0,0,0-1.054-.535H267.641a0.94,0.94,0,0,0-.971.617c-0.084.329-.084,9.266-0.084,10.008,0,0.782.043,1.524,1.181,1.524h12.948Zm-0.042,13.837a1.008,1.008,0,0,0,1.223-.865c0.042-.247.042-9.39,0.042-10.336,0-.865-0.084-1.566-1.223-1.566H267.809c-1.1,0-1.223.618-1.223,1.442,0,1.359.127,7.99,0.127,9.472,0,1.318.126,1.853,1.265,1.853h12.695Zm36.133-3.707c-1.14,0-1.35.5-1.35,1.731,0,0.782.084,4.406,0.084,5.106,0,1.483-.843,2.554-2.15,2.554a1.134,1.134,0,0,1-1.055-1.4c0-.37.169-2.306,0.169-2.47,0.042-1.442.126-3.913,0.126-4.2,0-1.318-.675-1.318-1.223-1.318h-1.476c-1.054,0-2.235.083-2.742,0.124-0.211,0-1.054.083-1.223,0.083s-0.169,0-.379-0.247l-0.928-1.03a0.347,0.347,0,0,1-.126-0.206c0-.082.126-0.082,0.168-0.082,0.844,0,4.6.288,5.356,0.288h1.265c1.224,0,1.308-.536,1.308-1.277,0-1.73.084-9.431,0.084-11,0-.412,0-0.782-0.379-0.782-0.337,0-.38.123-1.265,1.606a36.932,36.932,0,0,1-11.852,12.973,14.707,14.707,0,0,1-3.078,1.647,0.232,0.232,0,0,1-.254-0.165c0-.123,2.194-1.936,2.615-2.306,5.778-5.107,10.966-13.92,10.966-15.279,0-.618-0.59-0.618-1.054-0.618h-5.694c-1.181,0-2.868,0-4.429.082-0.253,0-1.476.124-1.729,0.124a0.5,0.5,0,0,1-.421-0.247l-0.844-.988a1.19,1.19,0,0,1-.169-0.248c0-.082.127-0.082,0.169-0.082,0.3,0,1.644.124,1.94,0.124,2.4,0.123,3.964.164,5.693,0.164h8.393c1.392,0,1.392-.617,1.392-1.317,0-3.542,0-4.9-.084-5.807-0.042-.289-0.38-2.595-0.38-2.8a0.323,0.323,0,0,1,.38-0.371c0.127,0,4.218.536,4.218,1.277a8.621,8.621,0,0,1-.97,1.194c-0.422.906-.464,4.407-0.464,5.6,0,1.442,0,2.224,1.1,2.224H324.4c1.94,0,2.235,0,2.7-.988,0.76-1.73,1.012-1.854,1.35-1.854,0.506,0,4.3,2.719,4.3,3.3,0,0.617-.8.617-2.277,0.617H318.366c-0.548,0-.844,0-0.844.371,0,1.482,6.875,10.419,15.858,13.961,0.928,0.371,1.055.371,1.055,0.494s-2.446.5-2.91,0.618a3.559,3.559,0,0,0-1.772.947,0.992,0.992,0,0,1-.548.412,28.1,28.1,0,0,1-6.242-5.4,36.624,36.624,0,0,1-6.369-10.667c-0.21-.535-0.3-0.741-0.674-0.741-0.506,0-.506.577-0.506,1.029,0,3.584.042,9.35,0.042,12.974a1,1,0,0,0,1.181,1.194H317.4c1.307,0,1.56-.083,2.024-1.194a1.825,1.825,0,0,1,.971-1.03c0.548,0,2.867,2.141,2.867,2.636,0,0.658-.716.658-2.277,0.658h-4.175Zm48.806-9.719c1.9,0,2.109,0,2.7-.7,1.687-2.059,1.9-2.265,2.446-2.265,0.422,0,.675,0,3.627,2.554a2.172,2.172,0,0,1,1.012,1.194c0,0.577-.253.577-2.32,0.577H344.061c-3.543,0-4.808.082-5.315,0.123-0.126,0-.759.082-0.885,0.082a0.562,0.562,0,0,1-.38-0.247l-0.885-1.153a1.608,1.608,0,0,1-.211-0.371c0-.082.126-0.082,0.168-0.082,0.212,0,1.519.165,1.772,0.165,1.349,0.123,4.639.123,5.862,0.123h21.425Zm36.236-11.2c0,0.124.084,0.289,0.084,0.453a30.95,30.95,0,0,1,.422,4.448c0,2.76-.633,6.59-4.344,12.067-3.375,5.025-5.525,6.013-7.212,6.013-2.784,0-5.272-4.242-5.272-9.266a14.334,14.334,0,0,1,4.681-10.5,17.693,17.693,0,0,1,13.454-5.353,14.013,14.013,0,0,1,6.791,1.318,12.874,12.874,0,0,1,7.338,11.984,15.378,15.378,0,0,1-10.628,14.5,26.449,26.449,0,0,1-7,1.524,0.346,0.346,0,0,1-.421-0.288c0-.124.084-0.165,1.139-0.577,4.386-1.689,13.538-5.231,13.538-15.485,0-1.607-.169-11.408-11.683-11.408C401.89,149.121,401.848,149.45,401.848,149.7ZM388.14,162.341c0,2.677,1.1,6.342,3.67,6.342,1.223,0,2.235-.494,5.145-4.777,2.236-3.336,4.133-7.908,4.133-11.985,0-2.471-.168-2.677-0.717-2.677C396.365,149.244,388.14,154.557,388.14,162.341Zm47.348-4.572a1.947,1.947,0,0,1-1.729,2.224c-0.928,0-1.1-.247-2.953-3.377a18.691,18.691,0,0,0-3.374-4,0.741,0.741,0,0,1-.253-0.37c0-.165.253-0.124,0.337-0.124C429.287,152.5,435.488,153.651,435.488,157.769Zm15.773-2.471c-0.506.783-2.361,4.613-2.783,5.354a37,37,0,0,1-12.569,13.673,23.294,23.294,0,0,1-4.681,2.266,0.223,0.223,0,0,1-.211-0.207c0-.164,3.8-3.253,4.471-3.87,10.206-9.1,12.694-19.357,12.694-19.934a3.085,3.085,0,0,0-1.181-2.1,0.658,0.658,0,0,1-.21-0.33c0-.37.927-0.37,1.1-0.37a3.852,3.852,0,0,1,3.079,1.153c0.422,0.37,1.772,1.523,1.772,2.43A9.1,9.1,0,0,1,451.261,155.3Zm14.05-4.118a10.5,10.5,0,0,0,3.5.906c1.73,0,14.087-1.194,15.9-1.977a5.071,5.071,0,0,1,1.771-.659c0.928,0,1.6.577,2.91,1.689,1.9,1.647,2.151,2.1,2.151,2.677,0,0.535-.211.741-0.97,1.482a6.814,6.814,0,0,0-1.645,2.595c-6.622,13.426-21.341,19.191-21.763,19.191a0.278,0.278,0,0,1-.3-0.246,0.866,0.866,0,0,1,.549-0.536c7.338-5.024,13.285-10.461,16.659-16.309a22.935,22.935,0,0,0,2.868-6.959,0.806,0.806,0,0,0-.928-0.742c-0.464,0-12.737,2.018-15.183,2.965a12.339,12.339,0,0,1-2.194.906c-0.548,0-.843,0-3.036-1.976a2.6,2.6,0,0,1-1.223-2.307,4.2,4.2,0,0,1,.126-0.947A2.842,2.842,0,0,1,465.311,151.18Zm39.4,5.971a11.312,11.312,0,0,0,2.067.165,100.952,100.952,0,0,0,14.087-1.936,8.572,8.572,0,0,1,1.476-.782c0.8,0,4.091,3.254,4.091,4.448,0,0.536-.169.577-1.982,1.112-1.055.33-5.82,1.9-6.5,3.048-0.5.864-1.982,5.024-2.361,5.848a17.583,17.583,0,0,1-10.418,9.472c-0.169,0-.211-0.082-0.211-0.164,0-.207.042-0.248,0.76-0.783,8.139-6.054,8.646-12.026,8.646-13.55a3.588,3.588,0,0,0-.38-1.688,1.94,1.94,0,0,1-.38-0.865c0-.371.633-0.412,0.844-0.412a6.414,6.414,0,0,1,1.982.329,10.363,10.363,0,0,0,1.434.578c0.8,0,3.838-3.378,3.838-4.119a0.481,0.481,0,0,0-.548-0.412,58.8,58.8,0,0,0-12.1,2.059,26.855,26.855,0,0,1-2.911.989c-0.843,0-3.584-2.183-3.584-3.419a0.3,0.3,0,0,1,.337-0.247C503.021,156.822,504.454,157.111,504.707,157.151Zm38.723,7.455c0-1.236,1.181-2.553,4.049-5.807a18.824,18.824,0,0,0,3.585-6.136,0.389,0.389,0,0,0-.464-0.289c-0.422,0-2.151.33-2.53,0.33-1.6,0-3.754-2.018-3.754-3.624a0.229,0.229,0,0,1,.253-0.288,9.522,9.522,0,0,1,1.6.782,6.833,6.833,0,0,0,2.784.741c3.459,0,3.459-1.112,3.459-1.936a3.239,3.239,0,0,0-.338-1.441,6.678,6.678,0,0,1-1.012-1.194c0-.33,1.1-0.659,1.856-0.659,1.012,0,2.067.37,2.151,1.276,0.042,0.536.211,0.618,1.9,0.742,0.3,0,1.9.206,1.9,1.071,0,1.358-3.08,2.512-5.019,3.253-0.633.247-.675,0.329-1.6,2.43a31.625,31.625,0,0,1-2.278,4.448,1.5,1.5,0,0,0-.295.659,0.153,0.153,0,0,0,.169.165,8.553,8.553,0,0,0,1.307-.454,4.025,4.025,0,0,1,1.645-.329,3.808,3.808,0,0,1,3.585,2.512,1.2,1.2,0,0,0,.422.783,19.4,19.4,0,0,0,1.729-2.224c1.392-1.9,4.133-5.643,7.8-5.643a3.935,3.935,0,0,1,3.964,3.666c0,1.935-3.332,3.3-5.947,4.406-1.054.453-5.82,2.307-6.579,2.76a1.611,1.611,0,0,0-.717,1.73c0,0.37.084,2.1,0.084,2.471,0,0.658,0,3.006-1.56,3.006-1.139,0-1.308-1.359-1.308-2.1,0-.412.127-2.389,0.127-2.43,0-.165,0-0.494-0.295-0.494-0.338,0-4.091,2.553-4.091,4.9,0,2.841,4.217,2.841,5.441,2.841a13.343,13.343,0,0,0,2.7-.247c0.59-.082,3.289-0.741,3.838-0.741,0.885,0,2.066.412,2.066,1.4,0,2.553-6.537,2.718-7.549,2.718-5.357,0-8.183-2.141-8.183-5.4,0-2.636,1.6-3.954,5.568-7.083a1.74,1.74,0,0,0,.633-1.442c0-1.853-.338-4.159-2.025-4.159-1.6,0-4.091,1.894-5.188,4.365-0.464,1.03-.928,2.018-2.277,2.018A1.332,1.332,0,0,1,543.43,164.606Zm10.755-15.567c0.084,0,2.109-.536,2.109-0.989,0-.535-1.055-0.618-1.434-0.618-0.591,0-.759,1.153-0.759,1.318S554.1,149.039,554.185,149.039Zm3.838,13.343a0.185,0.185,0,0,0,.169.206c0.126,0,8.435-3.295,8.435-6.013a1.289,1.289,0,0,0-1.476-1.235C561.65,155.34,558.023,161.723,558.023,162.382Zm34.774,14.5c-0.717,0-.8,0-0.8-0.206,0-.124.126-0.206,1.223-0.535,5.567-1.771,13.286-5.355,13.286-12.809,0-6.425-6.285-8.4-8.183-8.4-0.633,0-.717.247-1.813,2.759a34.772,34.772,0,0,1-3.205,5.89,1.056,1.056,0,0,0-.212.576,0.813,0.813,0,0,0,.633.782c1.434,0.742,1.9,1.071,1.9,2.06a1.341,1.341,0,0,1-1.56,1.317,4.243,4.243,0,0,1-2.362-.7,1.776,1.776,0,0,0-.886-0.329c-0.422,0-.506.082-1.265,0.865-3.417,3.5-6.2,4.53-7.381,4.53-2.742,0-3.206-4.2-3.206-5.848,0-4.283,2.657-7.578,4.429-9.308a1.306,1.306,0,0,0,.464-1.071c0-.37-1.687-5.312-1.9-5.889-0.126-.329-0.886-1.812-0.886-1.935a0.1,0.1,0,0,1,.085-0.124c1.35,0,3.247,1.442,3.416,2.224a17.384,17.384,0,0,0,1.1,4.077,0.873,0.873,0,0,0,.759.453,12.37,12.37,0,0,0,2.025-.865,20.908,20.908,0,0,1,6.58-1.483,1.094,1.094,0,0,0,1.054-.535,9.146,9.146,0,0,0,.59-3.047,7.965,7.965,0,0,0-.885-3.419,0.657,0.657,0,0,1-.084-0.2,0.474,0.474,0,0,1,.421-0.124c1.9,0,4.176,1.524,4.176,2.512a38.008,38.008,0,0,0-1.476,4.242,0.738,0.738,0,0,0,.8.783c5.9,0.988,10.079,5.106,10.079,10.543C609.709,172.472,600.3,176.879,592.8,176.879Zm-4.724-12.067a16.743,16.743,0,0,1-2.867-4.737,1.119,1.119,0,0,0-.759-0.988c-0.549,0-3.417,2.842-3.417,7,0,2.224.844,3.707,1.814,3.707,1.56,0,5.525-3.377,5.525-4.242A0.923,0.923,0,0,0,588.073,164.812Zm6.411-10.09a14.05,14.05,0,0,0-6.411,1.524c-0.717.412-1.138,0.7-1.138,1.276,0,0.7,2.4,5.231,3.542,5.231,0.423,0,.591-0.083,1.477-1.483a25.89,25.89,0,0,0,3.121-6.054A0.489,0.489,0,0,0,594.484,154.722Zm29.828,2.842c-4.345,0-6.2-3.172-6.2-3.954a0.3,0.3,0,0,1,.338-0.371,11.221,11.221,0,0,1,1.73.783,10.774,10.774,0,0,0,4.343,1.112c1.6,0,4.471-.742,4.471-1.4,0-.371-1.392-1.318-1.94-1.689-1.139-.782-2.7-2.183-2.7-3.377a2.016,2.016,0,0,1,2.109-1.977c0.886,0,1.307.247,3.247,1.359a7.163,7.163,0,0,0,3.964.947c0.507,0,2.658-.041,3.121,0a1.438,1.438,0,0,1,1.434,1.483c0,1.071-1.982,2.554-2.572,2.883-1.139.7-1.266,0.782-1.266,1.07a1.17,1.17,0,0,0,.506.783c2.194,1.895,7.719,6.672,7.719,10.872a2.609,2.609,0,0,1-2.784,2.76c-0.759,0-1.055-.165-3.585-1.524a15.754,15.754,0,0,0-7.169-2.141c-4.092,0-5.9,3.253-5.9,4.777,0,2.636,2.657,3.665,6.242,3.665,0.716,0,4.218-.371,4.386-0.371a1.77,1.77,0,0,1,2.066,1.606c0,2.184-4.048,2.184-4.808,2.184a14.45,14.45,0,0,1-6.789-1.277,6.045,6.045,0,0,1-3.628-5.107c0-4.077,4.3-6.548,8.984-6.548a15.375,15.375,0,0,1,4.555.741c2.614,0.741,2.867.824,3.458,0.824a1.342,1.342,0,0,0,1.476-1.318c0-2.677-5.609-8.814-6.832-8.814-0.253,0-4.471,1.524-5.357,1.73A12.452,12.452,0,0,1,624.312,157.564Zm7.423-4.86c0.252,0,1.56-.412,1.56-1.318,0-.536-0.127-0.659-1.476-1.441-2.784-1.648-3.121-1.813-3.585-1.813a0.777,0.777,0,0,0-.8.742c0,0.988,1.519,2.182,1.856,2.429A7.155,7.155,0,0,0,631.735,152.7Zm14.044-2.759a1.576,1.576,0,0,1-1.266,1.606c-0.548,0-.928-0.288-2.192-1.812a10.953,10.953,0,0,0-2.952-2.513,1.483,1.483,0,0,1-.633-0.618,0.77,0.77,0,0,1,.759-0.329C644.218,146.279,645.779,149.039,645.779,149.945Zm4.6-3.089a1.18,1.18,0,0,1-1.1,1.235c-0.927,0-1.434-.7-2.15-1.647a10.4,10.4,0,0,0-3.585-2.471,0.665,0.665,0,0,1-.507-0.494c0-.412,1.35-0.412,1.6-0.412C646.917,143.067,650.376,144.508,650.376,146.856Zm16.184,2.676a18.775,18.775,0,0,1-.8,2.307,96.684,96.684,0,0,0-1.772,14.662c0,4.159.8,7.866,6.453,7.866a21.18,21.18,0,0,0,8.856-2.142c0.633-.289,3.839-2.018,4.007-2.018a0.194,0.194,0,0,1,.211.206c0,0.453-6.242,7.083-14.171,7.083-5.483,0-8.1-3.088-8.1-11.366,0-2.553.083-3.377,0.969-11.449,0.169-1.359.549-4.736,0.549-5.889a5.084,5.084,0,0,0-.38-2.019c-0.042-.123-0.464-1.07-0.464-1.112a0.523,0.523,0,0,1,.59-0.411C664.705,145.25,666.56,148.585,666.56,149.532Zm23.576,3.377c1.814,0,2.447-.164,8.225-1.77,3.753-1.03,13.369-3.707,16.2-3.707,1.476,0,3.374.577,3.374,1.977a1.662,1.662,0,0,1-1.688,1.524c-0.548,0-2.952-.453-3.458-0.453-5.356,0-11.345,4.818-11.345,15.444,0,6.919,2.657,7.372,5.145,7.372,0.633,0,3.669-.247,4.007-0.247,1.308,0,2.109.535,2.109,1.523,0,2.183-4.64,2.183-4.893,2.183-8.646,0-8.646-6.877-8.646-8.813,0-1.812.042-10.543,6.158-15.856a7.47,7.47,0,0,0,1.012-.865c0-.082-0.168-0.082-0.253-0.082-2.4,0-11.177,3.665-12.526,4.406a3.094,3.094,0,0,1-1.476.536c-2.109,0-4.092-2.759-3.585-3.336A4.565,4.565,0,0,1,690.136,152.909ZM737,174.943a4.684,4.684,0,1,1-4.682-4.571A4.65,4.65,0,0,1,737,174.943Zm-8.183-.041a3.5,3.5,0,0,0,3.544,3.46,3.444,3.444,0,0,0,3.5-3.377,3.494,3.494,0,0,0-3.585-3.46A3.37,3.37,0,0,0,728.816,174.9Z" transform="translate(-263 -91)"/>
</svg>
