<svg id="ttl_aboutOutline.svg" xmlns="http://www.w3.org/2000/svg" width="162" height="14.969" viewBox="0 0 162 14.969">
  <defs>
    <style>
      .cls-1, .cls-2 {
        fill-rule: evenodd;
      }

      .cls-2 {
        fill: gray;
      }
    </style>
  </defs>
  <path id="シェイプ_4" data-name="シェイプ 4" class="cls-1" d="M419.986,690.3a0.373,0.373,0,0,1,.239-0.226c0.111-.08,1.417-1.014,2.452-1.9,2.723-2.351,3.726-4.267,3.806-4.621,0.127-.5.127-0.563,0.318-0.563a4.522,4.522,0,0,1,1.5.982c0,0.08-.032.1-0.191,0.21a0.158,0.158,0,0,0-.112.16c0,0.5,2.819,4.073,6.593,5.152,0.445,0.129.445,0.129,0.445,0.21s-0.047.112-.445,0.241a1.862,1.862,0,0,0-1.019.66,0.229,0.229,0,0,1-.208.161,15.057,15.057,0,0,1-5.541-5.683c-0.175-.338-0.207-0.386-0.271-0.386a2.25,2.25,0,0,0-.446.483,15.793,15.793,0,0,1-6.974,5.167C420.081,690.36,419.986,690.375,419.986,690.3Zm4.379,2.205c-1.179,0-1.576.017-2.006,0.049-0.048,0-.287.032-0.335,0.032a0.19,0.19,0,0,1-.143-0.1l-0.3-.371A0.819,0.819,0,0,1,421.5,692c0-.031.033-0.031,0.064-0.031,0.112,0,.6.048,0.7,0.048,0.78,0.032,1.624.064,2.182,0.064H429.7a1.1,1.1,0,0,0,1.226-.531,0.682,0.682,0,0,1,.446-0.435,0.866,0.866,0,0,1,.541.338c0.813,0.676.813,0.692,0.813,0.837,0,0.209-.08.209-0.829,0.209h-4.872c-0.159,0-.223,0-0.223.049a3.445,3.445,0,0,1,.748.821c0,0.145,0,.145-0.477.274a1.57,1.57,0,0,0-.558.627c-0.334.451-.987,1.24-1.082,1.337a0.769,0.769,0,0,0-.223.386c0,0.145.223,0.161,0.286,0.161,0.208,0,1.7-.1,3.472-0.273,1.146-.113,1.273-0.129,1.273-0.29,0-.242-0.939-1.063-0.939-1.256a0.1,0.1,0,0,1,.112-0.1,14.861,14.861,0,0,1,2.022,1,2.39,2.39,0,0,1,1.417,1.852,0.784,0.784,0,0,1-.621.869,1.716,1.716,0,0,1-1.083-1.126c-0.3-.548-0.446-0.6-0.669-0.6a68.9,68.9,0,0,0-7.388,1.481,3.279,3.279,0,0,1-.462.257,0.181,0.181,0,0,1-.159-0.112,12.739,12.739,0,0,1-.876-1.707,0.1,0.1,0,0,1,.127-0.113c0.112,0,.606.1,0.7,0.113a8.4,8.4,0,0,0,.94.065c0.892,0,1,0,1.656-1.32a11.364,11.364,0,0,0,.828-2.126c0-.274-0.207-0.274-0.478-0.274h-1Zm3.312-2.994a1,1,0,0,0,1.13-.418,2.01,2.01,0,0,1,.526-0.548,4.335,4.335,0,0,1,1.21,1.208c0,0.177-.08.177-0.844,0.177h-3.662c-0.972,0-1.433,0-2.022.048-0.048,0-.287.032-0.335,0.032a0.22,0.22,0,0,1-.143-0.1l-0.3-.37a0.134,0.134,0,0,1-.065-0.113,0.04,0.04,0,0,1,.049-0.032c0.111,0,.6.048,0.7,0.048,0.78,0.048,1.545.064,2.181,0.064h1.577Zm8.468-2.5a0.336,0.336,0,0,1-.08-0.113c0-.032.048-0.032,0.064-0.032,0.3,0,1.767.1,2.1,0.1,0.445,0,.445-0.113.445-1.192,0-.241-0.016-1.191-0.063-1.8,0-.081-0.08-0.451-0.08-0.547,0-.033.048-0.033,0.064-0.033a12.218,12.218,0,0,1,1.433.435,0.287,0.287,0,0,1,.175.225,3.277,3.277,0,0,1-.318.371,1.785,1.785,0,0,0-.08.9v1.353a0.211,0.211,0,0,0,.255.257,0.565,0.565,0,0,0,.382-0.112,3.8,3.8,0,0,1,.717-0.548,0.3,0.3,0,0,1,.223.113c0.19,0.193.525,0.595,0.573,0.628a0.8,0.8,0,0,1,.382.467,0.242,0.242,0,0,1-.175.209c-0.048.016-.271,0.064-0.318,0.081a18.434,18.434,0,0,0-1.482,1.609,1.032,1.032,0,0,0-.509.822c0,0.337.143,0.37,0.525,0.45,0.542,0.129,2.039.564,2.039,1.787a0.628,0.628,0,0,1-.558.741c-0.382,0-.557-0.322-0.971-1.176a2.32,2.32,0,0,0-.924-1c-0.143,0-.143.225-0.143,0.418,0,0.612.016,3.59,0.016,4.25,0,0.21.08,1.208,0.08,1.433a0.763,0.763,0,0,1-.844.741c-0.383,0-.478-0.161-0.478-0.387,0-.161.063-0.9,0.063-1.078,0.032-1.192.1-2.866,0.1-4.766,0-.177,0-0.45-0.159-0.45s-2.229,1.819-2.643,1.819c-0.032,0-.08,0-0.08-0.048a15.787,15.787,0,0,1,1.386-1.433c0.636-.661,2.881-3.478,2.881-3.945,0-.144-0.111-0.161-0.254-0.161h-1.115c-0.621,0-1.29.017-1.847,0.048-0.048,0-.287.033-0.334,0.033a0.172,0.172,0,0,1-.144-0.1Zm5.206,9.853a0.177,0.177,0,0,1-.063-0.1,0.051,0.051,0,0,1,.048-0.048c0.095,0,.589.064,0.7,0.064,0.462,0.016,1.29.049,2.182,0.049h0.621a0.384,0.384,0,0,0,.462-0.355c0.032-.29.063-6.488,0.063-7.325a0.4,0.4,0,0,0-.382-0.5c-0.4,0-1.321,0-1.879.048-0.047,0-.27.033-0.334,0.033a0.223,0.223,0,0,1-.143-0.1l-0.3-.37a0.154,0.154,0,0,1-.064-0.113,0.038,0.038,0,0,1,.048-0.032c0.016,0,.589.048,0.669,0.048,0.159,0,1.449.064,1.99,0.064,0.383,0,.414-0.209.414-0.66,0-1.481-.031-2.2-0.111-3.413,0-.129-0.1-0.692-0.1-0.821,0-.08.032-0.113,0.128-0.113,0.048,0,1.035.306,1.146,0.339a0.54,0.54,0,0,1,.478.4,4.3,4.3,0,0,1-.35.434c-0.1.226-.144,2.9-0.144,3.333a0.39,0.39,0,0,0,.382.5,1,1,0,0,0,1.163-.45c0.462-.628.509-0.693,0.652-0.693a3.3,3.3,0,0,1,1.338,1.353c0,0.209-.334.209-0.844,0.209h-2.213c-0.43,0-.462.241-0.462,0.531,0,0.966.048,5.683,0.048,6.762,0,0.6,0,.886.414,0.886H447.5a0.986,0.986,0,0,0,.94-0.484c0.429-.563.477-0.627,0.668-0.627a4.614,4.614,0,0,1,1.545,1.32c0,0.225-.335.225-0.86,0.225h-5.653c-0.382,0-1.449-.016-2.006.032-0.048,0-.286.049-0.335,0.049a0.209,0.209,0,0,1-.143-0.113Zm10.738-10.159a0.227,0.227,0,0,1-.08-0.113c0-.032.032-0.032,0.064-0.032,0.223,0,1.242.08,1.449,0.08a0.371,0.371,0,0,0,.414-0.418c0-.258-0.016-1.658-0.016-1.98-0.016-.129-0.1-0.676-0.1-0.789a0.137,0.137,0,0,1,.159-0.161c0.063,0,1.4.225,1.4,0.595,0,0.1-.016.113-0.239,0.274a0.491,0.491,0,0,0-.159.338c-0.016.049-.08,1.884-0.08,1.948a0.174,0.174,0,0,0,.128.162,0.936,0.936,0,0,0,.35-0.387,0.479,0.479,0,0,1,.3-0.274,1.721,1.721,0,0,1,.892.885c0,0.258-.35.258-0.605,0.258h-0.557c-0.4,0-.51.145-0.51,0.451,0,0.676,0,.982.366,1.127a1.63,1.63,0,0,1,1.243,1.288,0.5,0.5,0,0,1-.4.563c-0.286,0-.35-0.209-0.493-0.611a1.665,1.665,0,0,0-.621-0.838c-0.112,0-.112.21-0.112,0.242,0,0.29-.016,1.594-0.016,1.852,0,0.9.1,4.862,0.1,5.667a0.794,0.794,0,0,1-.749.965c-0.381,0-.413-0.145-0.413-0.708,0-.886.159-4.83,0.159-5.635,0-.289,0-0.386-0.143-0.386a0.276,0.276,0,0,0-.144.193,17.572,17.572,0,0,1-1.64,3.027,0.038,0.038,0,0,1-.032-0.048c0-.049.7-2.383,0.78-2.689,0.176-.66.892-3.719,0.892-4.122a0.317,0.317,0,0,0-.366-0.321c-0.127,0-.7.064-0.781,0.064a0.172,0.172,0,0,1-.143-0.1Zm5.987,3.655a0.413,0.413,0,0,0-.494.466c0,0.5.016,2.979,0.016,3.526a0.228,0.228,0,0,0,.239.274,4.273,4.273,0,0,0,.892-0.548c0.478-.337.573-0.4,0.573-0.643,0-.306-1.035-1.868-1.035-2.029a0.038,0.038,0,0,1,.048-0.032c0.366,0,2.229,1.449,2.229,2.527a0.754,0.754,0,0,1-.525.789,0.709,0.709,0,0,1-.415-0.563,0.17,0.17,0,0,0-.158-0.161,0.189,0.189,0,0,0-.144.08c-0.239.258-.94,1-1.114,1.143a10.588,10.588,0,0,0-1.481,1.337c-0.16.338-.175,0.386-0.3,0.386a2.289,2.289,0,0,1-.876-1.03c0-.1.048-0.113,0.494-0.258a0.784,0.784,0,0,0,.605-0.548c0.063-.209.08-5.94,0.08-6.6,0-1.32-.017-2.785-0.08-4.089,0-.1-0.048-0.548-0.048-0.645,0-.032,0-0.064.032-0.064,0.1,0,.876.515,1.067,0.6a1.346,1.346,0,0,0,.637.128h0.318a0.686,0.686,0,0,0,.494-0.16,2.308,2.308,0,0,1,.477-0.548,2.643,2.643,0,0,1,.813,1.047c0,0.064-.255.29-0.287,0.37s-0.048,1-.048,1.143c0,0.612.128,3.542,0.128,4.2a0.625,0.625,0,0,1-.669.628c-0.207,0-.223-0.08-0.287-0.4a0.386,0.386,0,0,0-.462-0.321h-0.716Zm0.016-5.522c-0.51,0-.51.193-0.51,1.142,0,1.063,0,1.176.51,1.176H458.7c0.51,0,.51-0.226.51-0.853,0-1.321,0-1.465-.51-1.465h-0.605Zm-0.032,2.752c-0.478,0-.478.274-0.478,0.66,0,1.643,0,1.691.494,1.691h0.669c0.462,0,.462-0.274.462-0.354,0-.193,0-1.675-0.016-1.739a0.409,0.409,0,0,0-.446-0.258H458.06Zm6.258,2.415c-0.048,0-.175,0-0.175.064a0.381,0.381,0,0,0,.255.161,0.751,0.751,0,0,1,.525.4,0.23,0.23,0,0,1-.08.177,1.089,1.089,0,0,0-.366.419c-0.032.129-.032,2.093-0.032,2.382,0,2.8.048,2.8,0.574,2.8,0.462,0,.557,0,0.843-1.707a6.437,6.437,0,0,1,.287-1.255,0.177,0.177,0,0,1,.08.193,4.691,4.691,0,0,0,.366,1.916,0.9,0.9,0,0,1,.271.6,1.248,1.248,0,0,1-.526.886,2.044,2.044,0,0,1-1.544.338c-1.274,0-1.386-.435-1.386-1.449,0-.548.08-4.073,0.08-4.283,0-.064,0-0.177-0.1-0.177-0.063,0-.063.033-0.127,0.226-1.226,4.089-4.236,5.586-4.6,5.586a0.1,0.1,0,0,1-.1-0.08,5.975,5.975,0,0,1,.78-0.693,12.557,12.557,0,0,0,3.344-6.214c0-.274-0.207-0.29-0.462-0.29-0.557,0-1.019.032-1.258,0.049-0.032,0-.191.032-0.223,0.032a0.161,0.161,0,0,1-.143-0.113l-0.3-.37a1.215,1.215,0,0,1-.079-0.1,0.055,0.055,0,0,1,.063-0.048c0.048,0,.526.064,0.621,0.064a0.36,0.36,0,0,0,.335-0.434c0-.58.047-3.414,0.047-4.057a0.181,0.181,0,0,0-.174-0.193c-0.033,0-.176.015-0.208,0.015a0.225,0.225,0,0,1-.143-0.1l-0.3-.37a0.209,0.209,0,0,1-.064-0.113,0.038,0.038,0,0,1,.048-0.032c0.111,0,.6.048,0.716,0.064,0.653,0.016,1.37.048,2.022,0.048H463.6a1.111,1.111,0,0,0,.892-0.128,3.533,3.533,0,0,1,.669-0.773,3.575,3.575,0,0,1,1.242,1.111c0,0.209-.334.209-0.86,0.209h-0.509a0.425,0.425,0,0,0-.446.29c-0.032.225-.239,1.883-0.287,2.221-0.032.258-.35,1.836-0.35,1.916a0.372,0.372,0,0,0,.414.37,0.671,0.671,0,0,0,.7-0.273c0.366-.563.4-0.628,0.542-0.628a3.916,3.916,0,0,1,1.162,1.127c0,0.209-.366.209-0.844,0.209h-1.608Zm-1.688-5.232a0.366,0.366,0,0,0-.43.4c0,0.627-.048,3.461-0.048,4.04,0,0.323.255,0.354,0.478,0.354,0.271,0,.3-0.176.334-0.386a32.666,32.666,0,0,0,.51-4.057,0.352,0.352,0,0,0-.4-0.354H462.63Zm10.685,1.288c0.461,0,.461-0.274.461-0.531,0-.837,0-1-0.461-1h-1.4c-1.4,0-1.863.032-2.006,0.048-0.064,0-.287.032-0.334,0.032a0.17,0.17,0,0,1-.144-0.1l-0.318-.37a0.265,0.265,0,0,1-.064-0.113c0-.032.016-0.032,0.064-0.032,0.111,0,.589.048,0.7,0.048,0.78,0.033,1.432.065,2.181,0.065h7.245c0.716,0,.8,0,1-0.274,0.478-.612.526-0.676,0.669-0.676a4.507,4.507,0,0,1,1.577,1.143c0,0.226-.319.226-0.845,0.226h-3.407c-0.414,0-.414.289-0.414,1.03a0.393,0.393,0,0,0,.4.5h1.21a0.587,0.587,0,0,0,.382-0.1,2.446,2.446,0,0,1,.462-0.451,2.535,2.535,0,0,1,1.115.934,4.038,4.038,0,0,1-.319.467,8.394,8.394,0,0,0-.063,1.288c0,0.1,0,1.24-.016,1.256a0.739,0.739,0,0,1-.764.531c-0.287,0-.287-0.032-0.335-0.37a0.308,0.308,0,0,0-.382-0.274h-3.392c-0.159,0-.175,0-0.175.049a3.7,3.7,0,0,1,.732.563c0,0.112-.047.161-0.461,0.386A7.753,7.753,0,0,0,474.955,692c0,0.129.127,0.129,0.35,0.129h4.442a1.044,1.044,0,0,0,.8-0.112,5.2,5.2,0,0,1,.844-0.918A5.684,5.684,0,0,1,483,692.34c0,0.225-.318.225-0.844,0.225h-3.3c-0.128,0-.144,0-0.144.032,0,0.048.016,0.048,0.16,0.129,0.4,0.21.446,0.225,0.446,0.338a1.9,1.9,0,0,1-.558.515c-0.191.193-.971,1.079-1.146,1.256a0.411,0.411,0,0,0-.128.193,0.718,0.718,0,0,0,.494.209c1.29,0.419,2.946,1.176,2.946,1.965a0.587,0.587,0,0,1-.573.579,0.824,0.824,0,0,1-.383-0.113c-1.831-1.287-2.8-1.947-3.216-1.947a0.363,0.363,0,0,0-.255.1,12.607,12.607,0,0,1-6.051,2.109,0.2,0.2,0,0,1-.223-0.1,0.211,0.211,0,0,1,.191-0.113,11.969,11.969,0,0,0,5.08-2.512,8.132,8.132,0,0,0-2.134-.708c-0.191,0-.223.048-0.478,0.386a1.3,1.3,0,0,1-1.034.8,0.53,0.53,0,0,1-.574-0.4c0-.225.032-0.258,0.7-1a19.1,19.1,0,0,0,1.162-1.643c0-.08-0.032-0.08-0.366-0.08h-1.385c-1.4,0-1.863.032-2.022,0.032a2.435,2.435,0,0,1-.335.048,0.264,0.264,0,0,1-.143-0.112l-0.3-.37a0.137,0.137,0,0,1-.064-0.1,0.042,0.042,0,0,1,.048-0.048c0.112,0,.6.064,0.7,0.064,0.78,0.032,1.449.048,2.2,0.048h1.593a0.741,0.741,0,0,0,.685-0.3,7.505,7.505,0,0,0,1.337-2.319c0-.161-0.143-0.161-0.287-0.161h-2.643a0.375,0.375,0,0,0-.414.177,0.75,0.75,0,0,1-.684.789,0.44,0.44,0,0,1-.494-0.563c0-.29.032-1.546,0.032-1.8,0-.74-0.032-1.529-0.08-1.98a2.036,2.036,0,0,1-.016-0.257c0-.049,0-0.161.064-0.161,0.111,0,.812.354,0.971,0.4a1.694,1.694,0,0,0,.573.113h1.211Zm-1.227.418c-0.43,0-.43.339-0.43,0.757,0,1.626,0,1.674.462,1.674H473.3c0.477,0,.477-0.241.477-0.885,0-1.529,0-1.546-.477-1.546h-1.211Zm2.9,6.086a0.7,0.7,0,0,0-.685.29c-0.08.112-.844,1.191-0.844,1.272,0,0.1.032,0.1,0.35,0.144s2.134,0.4,2.166.4c0.462,0,1.719-1.851,1.719-1.98s-0.095-.129-0.175-0.129h-2.531Zm0.175-6.086c-0.478,0-.494.13-0.494,1.224s0.016,1.207.477,1.207h1.338a0.415,0.415,0,0,0,.43-0.209c0.048-.1.032-1.562,0.032-1.8a0.37,0.37,0,0,0-.4-0.419h-1.385Zm0-1.947c-0.462,0-.462.209-0.462,0.966,0,0.289,0,.563.478,0.563h1.353a0.423,0.423,0,0,0,.414-0.515c0-.773,0-1.014-0.414-1.014h-1.369Zm3.057,1.947c-0.414,0-.414.194-0.414,1.321,0,0.869,0,1.11.414,1.11h1.29c0.414,0,.414-0.193.414-1.32,0-.869,0-1.111-0.414-1.111h-1.29Z" transform="translate(-420 -683)"/>
  <path id="シェイプ_5" data-name="シェイプ 5" class="cls-2" d="M507.255,696.781c-3.1,0-5.259-2.48-5.259-6.011s2.139-6.027,5.259-6.027c3.088,0,5.243,2.479,5.243,6.027C512.5,694.286,510.359,696.781,507.255,696.781Zm3.715-6.152c0-1.444-.418-5.369-3.715-5.369-3.6,0-3.731,4.615-3.731,5.651,0,1.507.466,5.352,3.731,5.352C510.842,696.263,510.97,691.7,510.97,690.629Zm13.947-5.589c0.209,0,.449,0,0.449.268,0,0.25-.225.25-0.5,0.25a1.189,1.189,0,0,0-1.238,1.382c-0.016.785,0,4.677,0,5.556a4.24,4.24,0,0,1-1.03,3.3,3.8,3.8,0,0,1-2.717.988c-0.692,0-3.989-.219-4.085-3.469-0.016-.879.015-5.148,0.015-6.105,0-1.209-.08-1.649-1.5-1.649a0.287,0.287,0,0,1-.354-0.25c0-.268.241-0.268,0.483-0.268h3.94c0.193,0,.434,0,0.434.268,0,0.25-.209.25-0.515,0.25a1.08,1.08,0,0,0-1.174.707c-0.08.235-.08,3.218-0.08,3.767,0,3.453,0,3.72.274,4.458a2.82,2.82,0,0,0,2.749,1.695,2.874,2.874,0,0,0,2.509-1.225c0.547-.784.547-1.444,0.547-5.085,0-3.469-.032-3.547-0.225-3.845a1.247,1.247,0,0,0-1.142-.472,0.271,0.271,0,0,1-.321-0.25c0-.268.241-0.268,0.386-0.268h3.088Zm10.963,0c0.868,0,1.061,0,1.335.707,0.128,0.345.819,2.119,0.819,2.276a0.246,0.246,0,0,1-.257.236c-0.128,0-.177-0.064-0.547-0.66-0.852-1.365-1.8-2.041-2.894-2.041a0.967,0.967,0,0,0-1.11.785c-0.048.283-.048,3.83-0.048,4.49,0,0.439,0,4.065.048,4.331a1.131,1.131,0,0,0,1.335.817c0.595,0,.724,0,0.724.251s-0.226.251-.483,0.251h-4.5c-0.225,0-.467,0-0.467-0.251a0.288,0.288,0,0,1,.354-0.251c0.949,0,1.544,0,1.7-.817a40.826,40.826,0,0,0,.048-4.441c0-3.877,0-4.3-.112-4.6a1.009,1.009,0,0,0-1.03-.565,3.67,3.67,0,0,0-2.895,2.025c-0.385.612-.418,0.676-0.562,0.676a0.26,0.26,0,0,1-.258-0.236c0-.126.724-2.009,0.853-2.323,0.257-.66.514-0.66,1.319-0.66h6.626Zm8.517,10.941a4.787,4.787,0,0,0,4.053-2.135c0.306-.439.338-0.486,0.451-0.486a0.223,0.223,0,0,1,.241.235c0,0.094-.611,1.632-0.708,1.883-0.4.989-.466,1-1.511,1h-6.739c-0.241,0-.466,0-0.466-0.251s0.176-.251.579-0.251a1.066,1.066,0,0,0,1.222-.817c0.048-.266.048-3.877,0.048-4.331,0-.629,0-4.191-0.048-4.474-0.145-.8-0.852-0.8-1.448-0.8a0.281,0.281,0,0,1-.353-0.25c0-.268.225-0.268,0.466-0.268h3.988c0.258,0,.483,0,0.483.268,0,0.25-.177.25-0.579,0.25a1.078,1.078,0,0,0-1.222.8c-0.048.283-.048,3.626-0.048,4.364a40.826,40.826,0,0,0,.048,4.441,1.027,1.027,0,0,0,1.109.817H544.4Zm6.656,0.5c-0.209,0-.45,0-0.45-0.251s0.128-.251.756-0.251a1.174,1.174,0,0,0,1.4-.817c0.049-.266.049-3.877,0.049-4.331,0-.644,0-4.191-0.049-4.474-0.16-.8-0.739-0.8-1.8-0.8a0.287,0.287,0,0,1-.353-0.25c0-.268.241-0.268,0.466-0.268H555.8c0.193,0,.434,0,0.434.268,0,0.235-.144.235-0.739,0.235a1.217,1.217,0,0,0-1.383.722c-0.065.22-.065,3.751-0.065,4.473a40.588,40.588,0,0,0,.048,4.426c0.145,0.817.724,0.817,1.8,0.817a0.279,0.279,0,0,1,.337.251c0,0.251-.241.251-0.434,0.251h-4.744Zm7.464,0c-0.241,0-.483,0-0.483-0.251s0.194-.251.6-0.251a1.279,1.279,0,0,0,1.287-.707c0.129-.36.145-0.376,0.145-4.536a38.347,38.347,0,0,0-.048-4.238,1.367,1.367,0,0,0-1.625-.942,0.288,0.288,0,0,1-.354-0.25c0-.268.242-0.268,0.483-0.268h1.56c1.158,0,1.19.048,2.01,1.272,0.981,1.444,2.557,3.751,3.538,5.195,0.209,0.314,1.689,2.512,1.786,2.512,0.064,0,.112-0.11.112-0.314,0-.44.016-3.014,0.016-3.563,0-.565,0-3.343-0.048-3.626a1.289,1.289,0,0,0-1.544-.958,0.274,0.274,0,0,1-.338-0.25c0-.268.225-0.268,0.451-0.268h3.345c0.177,0,.418,0,0.418.268,0,0.25-.225.25-0.483,0.25-1.334,0-1.334.707-1.334,2.59,0,1.178.016,6.985,0.016,8.288,0,0.079,0,.345-0.209.345a0.28,0.28,0,0,1-.209-0.125c-0.1-.11-6.4-9.355-6.482-9.465a0.9,0.9,0,0,0-.4-0.518c-0.08,0-.129.126-0.129,0.3,0,0.564-.015,3.3-0.015,3.923s0,3.752.048,4.05c0.193,1.036,1.077,1.036,1.769,1.036a0.29,0.29,0,0,1,.37.251c0,0.251-.209.251-0.515,0.251h-3.731Zm18.79-.5a4.215,4.215,0,0,0,3.844-1.947c0.4-.611.434-0.674,0.562-0.674a0.254,0.254,0,0,1,.274.251c0,0.078-.579,1.569-0.675,1.805-0.4,1.02-.419,1.067-1.464,1.067h-7.575c-0.274,0-.5,0-0.5-0.251s0.161-.251.611-0.251a1.067,1.067,0,0,0,1.223-.817c0.048-.266.064-3.877,0.064-4.331,0-.629,0-4.191-0.048-4.474-0.161-.8-0.852-0.8-1.5-0.8a0.282,0.282,0,0,1-.354-0.25c0-.268.225-0.268,0.5-0.268h7.334c1,0,1.077.032,1.4,0.8,0.1,0.22.691,1.664,0.691,1.774a0.248,0.248,0,0,1-.257.235,0.889,0.889,0,0,1-.5-0.533,3.928,3.928,0,0,0-3.088-1.759h-1.786a1.127,1.127,0,0,0-.965.409c-0.192.282-.192,0.424-0.192,1.663,0,0.205,0,2.339.048,2.465a0.448,0.448,0,0,0,.386.2h1.415c1.817,0,1.817-1.068,1.817-1.758a0.274,0.274,0,0,1,.258-0.314,0.3,0.3,0,0,1,.257.393c-0.016.58,0,3.39,0,4.018a0.274,0.274,0,0,1-.257.329c-0.258,0-.258-0.2-0.258-0.518a1.554,1.554,0,0,0-1.817-1.648h-1.415a0.384,0.384,0,0,0-.419.361c-0.015.125-.015,2.715-0.015,2.951,0,1.1,0,1.868,1.157,1.868h1.239Z" transform="translate(-420 -683)"/>
</svg>
