<svg xmlns="http://www.w3.org/2000/svg" width="539" height="57" viewBox="0 0 539 57">
  <defs>
    <style>
      .cls-1 {
        fill-rule: evenodd;
      }
    </style>
  </defs>
  <path id="txt_about.svg" class="cls-1" d="M245.928,490.284h4.307c2.511,0,2.583.234,2.583,2.749v35.141c0,8.165-.375,9.654-5.067,10.063l-2.819.237a1.162,1.162,0,0,0-.2.8,0.939,0.939,0,0,0,.28.723c4.691-.175,7.564-0.259,10.778-0.259,3.037,0,5.606.07,10.191,0.232a1.311,1.311,0,0,0,.267-0.79,0.9,0.9,0,0,0-.176-0.741l-2.4-.2c-4.774-.409-4.91-1.793-4.91-10.063V492.949c0-1.271,0-1.908.372-2.287,0.36-.362.98-0.378,2.132-0.378h5.559c4.383,0,7.4.661,9.224,2.013,1.217,0.895,1.787,3.7,2.05,5.9a2.208,2.208,0,0,0,.723.128,0.966,0.966,0,0,0,.869-0.362,46.425,46.425,0,0,1,1.125-11.785,1.722,1.722,0,0,0-1.063-.074c-1.117,2.044-1.968,2.217-6.193,2.217H241.235c-3.082,0-5.749,0-6.255-2.6a0.777,0.777,0,0,1-.431.011,2.418,2.418,0,0,0-.625.078A83.466,83.466,0,0,1,231,497.336a1.34,1.34,0,0,0,1.635.389,13.821,13.821,0,0,1,3.506-5.413c1.933-1.787,6.032-2.028,9.787-2.028h0Zm46.116-5.11c-3.35,0-3.522,2.487-3.522,2.989a1.866,1.866,0,0,0,1.9,1.966,4.523,4.523,0,0,1,4.131,4.633c0,3.449-3.307,5.7-6.086,6.979a0.928,0.928,0,0,0-.01.533,1.084,1.084,0,0,0,.487.651c4.32-1.34,8.9-4.771,8.9-10.44,0-3.893-2.709-7.311-5.8-7.311h0Zm9.035,45.438a1.083,1.083,0,0,0-.808.309,23.99,23.99,0,0,0,.979,7.7c1.859,1.462,4.552,2.212,8.158,2.212,5.317,0,11.039-2.726,11.039-8.723,0-5.482-3.719-8.054-7.867-10.4l-0.364-.212c-2.711-1.549-5.784-3.3-5.784-6.521,0-3.01,2.109-5.032,5.248-5.032,3.121,0,5.644,2.092,7.109,5.891a0.969,0.969,0,0,0,.531.129,1.115,1.115,0,0,0,.922-0.395,18.76,18.76,0,0,0-1.266-6.166c-0.556-.465-3.311-1.265-6.671-1.265-6.229,0-10.411,3.507-10.411,8.727,0,4.484,3.665,7.2,7.631,9.463,2.447,1.393,6.145,3.5,6.145,7.435,0,3.2-2.15,5.267-5.48,5.267-3.912,0-6.859-2.856-8.523-8.263a1.1,1.1,0,0,0-.588-0.148h0Zm58.2-23.581a40.361,40.361,0,0,1-7.753,3.837,0.634,0.634,0,0,0-.134.371,0.866,0.866,0,0,0,.148.657l0.669,0.44c2.218,1.486,2.218,1.966,2.218,5.069v13.758c0,5.7-.087,6.654-3.183,7.074l-1.879.237a1.326,1.326,0,0,0-.123.8,0.879,0.879,0,0,0,.345.707c2.416-.178,4.762-0.252,7.5-0.252,2.7,0,4.974.074,7.144,0.232a1.462,1.462,0,0,0,.231-0.687,0.94,0.94,0,0,0-.231-0.849l-1.314-.193c-3.07-.519-3.168-1.566-3.168-7.074V518.981c0-2.65.433-3.671,1.23-4.635a8.574,8.574,0,0,1,6.755-2.915c4.934,0,7.434,2.8,7.434,8.334v11.4c0,5.627-.084,6.57-3.169,7.074l-1.406.237a1.254,1.254,0,0,0-.139.8,0.912,0.912,0,0,0,.345.707c2.2-.186,4.34-0.252,7.035-0.252,2.657,0,4.931.074,7.376,0.232a1.507,1.507,0,0,0,.236-0.687,0.971,0.971,0,0,0-.232-0.849l-1.544-.193c-3.075-.429-3.174-1.5-3.174-7.074V519.138c0-2.736.217-3.6,1.225-4.866a8.678,8.678,0,0,1,6.681-2.841c4.989,0,7.513,2.8,7.513,8.334v11.4c0,5.627-.084,6.57-3.168,7.074l-1.408.237a1.258,1.258,0,0,0-.137.8,0.908,0.908,0,0,0,.344.707c2.2-.186,4.339-0.252,7.03-0.252,2.593,0,4.852.066,7.547,0.23a0.983,0.983,0,0,0,.306-0.685,0.957,0.957,0,0,0-.236-0.849l-1.771-.193c-3.085-.429-3.179-1.5-3.179-7.074V517.644c0-4.6-2.386-9.513-9.082-9.513-4.025,0-7.941,2.155-10.514,3.968a2.756,2.756,0,0,1-2.145.666,0.265,0.265,0,0,1-.142-0.1c-2.248-3.306-4.443-4.535-8.1-4.535-3.129,0-6.588,1.334-10.278,3.968a1.062,1.062,0,0,1-1.23-1.063c0-.707,0-1.893.158-3.71a0.765,0.765,0,0,0-.63-0.3h0Zm68.357,1.1c-9.373,0-16.438,7.2-16.438,16.743,0,9.4,6.5,15.956,15.817,15.956,9.584,0,16.28-6.851,16.28-16.662,0-9.146-6.73-16.037-15.659-16.037h0Zm0.162,30.813c-7.1,0-10.336-7.825-10.336-15.093,0-8.4,3.625-13.837,9.239-13.837,7.134,0,10.332,7.74,10.332,15.411,0,6.538-2.426,13.519-9.235,13.519h0Zm27.1-.159a6.851,6.851,0,0,1,2,.559c0.4,0.143.851,0.311,1.362,0.478a22.033,22.033,0,0,0,6.585,1.008c10.458,0,17.764-7.208,17.764-17.527,0-8.793-6.185-15.172-14.715-15.172a17.656,17.656,0,0,0-8.886,2.562c-0.984-.036-1.136-0.921-1.136-1.856V493.976c0-2.84.1-6.031,0.315-9.757a0.765,0.765,0,0,0-.55-0.222,41.9,41.9,0,0,1-6.4,2.565c-0.808.272-1.516,0.509-2.048,0.72a0.871,0.871,0,0,0-.148.564,0.749,0.749,0,0,0,.183.585l0.783,0.473c2.454,1.482,2.538,2.044,2.538,6.728v37.5c0,4.146-.078,5.632-0.158,6.7a0.809,0.809,0,0,0,.551.222,3.4,3.4,0,0,1,1.953-1.266h0Zm11.124,0.159a7.668,7.668,0,0,1-6.14-2.678,11.069,11.069,0,0,1-2.007-6.988V517.013c0-3.053.137-4.038,1.043-4.675a10.423,10.423,0,0,1,5.455-1.3c7.376,0,12.134,5.74,12.134,14.623,0,6.422-2.755,13.285-10.485,13.285h0Zm32.171-31.913a50.231,50.231,0,0,1-8,3.837,0.681,0.681,0,0,0-.138.371,0.908,0.908,0,0,0,.148.655l0.674,0.442c2.218,1.486,2.218,1.966,2.218,5.069v13.758c0,5.7-.088,6.654-3.183,7.074l-1.642.237a1.29,1.29,0,0,0-.134.8,0.9,0.9,0,0,0,.349.711c2.146-.178,4.493-0.252,7.277-0.252,2.642,0,4.9.07,7.316,0.23a1.017,1.017,0,0,0,.3-0.685,0.956,0.956,0,0,0-.231-0.849l-1.535-.193c-3.085-.429-3.182-1.5-3.182-7.074v-14.15c0-3.862.22-8.114,0.319-9.762a0.606,0.606,0,0,0-.552-0.22h0Zm-2.745-15.885a3.833,3.833,0,0,0-4,4.013,3.844,3.844,0,0,0,7.685-.159,3.689,3.689,0,0,0-3.685-3.854h0ZM519.618,484a53.111,53.111,0,0,1-8.338,3.28,0.741,0.741,0,0,0-.173.569,0.749,0.749,0,0,0,.183.585l0.781,0.473c2.456,1.482,2.54,2.044,2.54,6.728v35.531c0,5.7-.089,6.654-3.18,7.074l-1.8.237a1.3,1.3,0,0,0-.128.8,0.9,0.9,0,0,0,.345.707c2.3-.178,4.693-0.252,7.424-0.252,2.592,0,4.851.066,7.537,0.23a0.971,0.971,0,0,0,.305-0.685,0.951,0.951,0,0,0-.232-0.849l-1.768-.193c-3.082-.429-3.18-1.5-3.18-7.074V493.976c0-3,.118-6.307.2-8.728l0.034-1.026a0.755,0.755,0,0,0-.552-0.225h0ZM545.2,508.131c-8.84,0-15.494,7.533-15.494,17.528a16.516,16.516,0,0,0,3.231,10.073,13.733,13.733,0,0,0,11.162,5.1c3.974,0,9.519-1.877,12.082-7.177a0.851,0.851,0,0,0-1.132-.613c-2.1,2.722-4.235,3.858-7.266,3.858-7.793,0-13.234-6.138-13.234-14.929,0-2.065.147-2.362,2.351-2.362h14.484c2.456,0,4.212-.029,4.409-0.42a4.637,4.637,0,0,0,.285-1.936c0-4.387-4.157-9.12-10.878-9.12h0Zm-3.449,9.59H536.2c-0.787,0-.787-0.475-0.787-0.628,0.083-2.738,4.2-7.079,8.924-7.079,4.625,0,6.263,2.8,6.263,5.192a1.854,1.854,0,0,1-.57,1.69c-0.66.494-2.317,0.825-8.276,0.825h0Zm43.843,9.312a1.281,1.281,0,0,0-.989.414c0.206,3.725,1.239,9.125,2.13,10.76a24.939,24.939,0,0,0,12.009,2.782c9.983,0,16.437-5.613,16.437-14.308,0-5.971-3.167-10.846-9.676-14.891l-6.264-3.931c-2.525-1.575-6.764-4.955-6.764-9.871,0-2.694.929-8.964,9.553-8.964,7.552,0,9.822,5.173,10.873,9.059a1.542,1.542,0,0,0,1.535-.3,36.3,36.3,0,0,0-1.382-9.23,11.007,11.007,0,0,1-2.641-.478,30.144,30.144,0,0,0-7.213-1.006c-9.412,0-15.735,5.335-15.735,13.281,0,6.44,4.536,10.8,8.349,13.324l7.435,4.873c5.737,3.709,6.528,7.575,6.528,11.205,0,4.613-3.093,9.273-10.021,9.273-8.438,0-12.1-6.463-13.693-11.882a0.829,0.829,0,0,0-.471-0.108h0Zm65.675-39.966c-15.753,0-27.635,11.825-27.635,27.509,0,13.129,9.5,26.413,27.635,26.413,15.355,0,26.931-11.694,26.931-27.2,0-12.873-8.424-26.723-26.931-26.723h0Zm1.017,51.956c-14.63,0-21.293-13.976-21.293-26.965,0-17,10.209-23.034,18.948-23.034,15.428,0,20.9,14.656,20.9,27.2,0,15.747-9.322,22.8-18.558,22.8h0Zm31.459-50.94a2.666,2.666,0,0,0-.186.8,0.9,0.9,0,0,0,.172.737l1.156,0.12c4.762,0.575,4.9,1.954,4.9,10.14v28.3c0,8.394-.182,9.49-4.9,10.063l-1.958.237a2.219,2.219,0,0,0-.049.926,0.83,0.83,0,0,0,.285.593c3.38-.175,6.107-0.259,9.683-0.259,3.237,0,6.071.088,10.347,0.232a1.327,1.327,0,0,0,.264-0.79,0.894,0.894,0,0,0-.175-0.741l-2.549-.2c-4.852-.409-4.993-1.793-4.993-10.063V517.251c0-2.217.358-2.362,2.818-2.362h5.324a27.077,27.077,0,0,1,6.094.4,4.023,4.023,0,0,1,2.667,3.149l0.783,3.071a2.087,2.087,0,0,0,1.613-.069c-0.039-.672-0.1-1.705-0.171-2.851-0.084-1.438-.183-3.068-0.183-4.649,0-1.615.1-3.312,0.183-4.808,0.073-1.2.132-2.291,0.132-3.13a2.744,2.744,0,0,0-1.619.15l-0.659,3.046c-0.5,2.174-1.214,2.594-2.107,2.925a32.391,32.391,0,0,1-6.733.484h-5.324c-2.416,0-2.818-.067-2.818-2.361V493.664c0-3,0-3.38,2.587-3.38H703.1a33.408,33.408,0,0,1,7.66.481c4.118,1.074,5.022,4.186,5.629,7.565a1.316,1.316,0,0,0,1.456-.213c-0.172-2.683-.257-6.348-0.261-9.989-1.417.192-5.579,0.192-10.337,0.192h-14.4c-2.957,0-5.584-.068-9.1-0.237h0Zm58.206,1.892c0.159,1.256-.309,2.757-1.371,5.5L732.589,516.7c-2.278,6.1-4.053,10.494-5.352,13.705-0.6,1.461-1.1,2.717-1.536,3.833-0.978,2.526-2.533,3.8-4.894,4l-2.583.237a2.451,2.451,0,0,0-.07.675,1.226,1.226,0,0,0,.336.858l1.613-.111c1.806-.078,3.848-0.162,5.771-0.162l2.607,0.045c2.348,0.043,4.035.074,5.556,0.187a1.035,1.035,0,0,0,.289-0.656,1.009,1.009,0,0,0-.289-0.88l-2.47-.193c-1.835-.156-2.485-0.628-2.485-1.808,0-.919.57-3.078,1.736-6.6l2.741-8.255c0.591-1.794,1.219-2.045,3.2-2.045h11.818c2.4,0,2.847.279,3.434,2.129l3.448,10.69a15.455,15.455,0,0,1,1.028,4.238c0,0.88-1.047,1.469-2.951,1.651l-2.268.237a1.3,1.3,0,0,0-.153.77,0.883,0.883,0,0,0,.389.747l1.5-.084c1.993-.078,4.471-0.173,7.4-0.173,3.282,0,6.006.063,9.383,0.23a1.5,1.5,0,0,0,.211-0.858,0.865,0.865,0,0,0-.251-0.676l-2.008-.193c-3.5-.407-4.585-1.756-6.848-8.487l-11.149-32.856c-1.047-3.07-2.126-6.242-3.026-9.3a0.84,0.84,0,0,0-.846-0.532,8.966,8.966,0,0,1-3.912,2.908h0Zm5.609,26.883h-9.628c-1.2,0-1.829-.017-2.1-0.4-0.257-.358-0.088-0.893.226-1.8L741,500.973a46.115,46.115,0,0,1,1.9-4.678,0.228,0.228,0,0,1,.2-0.114h0.163a0.23,0.23,0,0,1,.206.128,51.075,51.075,0,0,1,1.816,4.986l4.226,12.813c0.393,1.176.522,1.813,0.217,2.239s-0.97.511-2.161,0.511h0Z" transform="translate(-231 -484)"/>
</svg>
