<?xml version="1.0" encoding="UTF-8"?>
<svg width="295px" height="14px" viewBox="0 0 295 14" version="1.1" xmlns="http://www.w3.org/2000/svg" xmlns:xlink="http://www.w3.org/1999/xlink">
    <!-- Generator: Sketch 43 (38999) - http://www.bohemiancoding.com/sketch -->
    <title>ttl_shop.svg</title>
    <desc>Created with Sketch.</desc>
    <defs>
        <polygon id="path-1" points="8.46160714 0.435375 8.46160714 12.2729464 0.496992857 12.2729464 0.496992857 0.435375 8.46160714 0.435375"></polygon>
    </defs>
    <g id="Page-1" stroke="none" stroke-width="1" fill="none" fill-rule="evenodd">
        <g id="ttl_shop.svg">
            <path d="M0.7041,4.2734 C1.2161,4.3694 1.8891,4.3694 2.0161,4.3694 C2.8811,4.3694 5.2501,4.1454 5.4901,4.0974 C5.7301,4.0494 5.8421,3.9534 5.8421,3.7134 C5.8421,1.6484 5.4101,1.1364 5.2181,0.9284 C5.1541,0.8644 4.8661,0.5924 4.8661,0.5124 C4.8661,0.3684 5.6181,0.3684 5.7621,0.3684 C6.5461,0.3684 7.0271,0.8644 7.0271,1.0244 C7.0271,1.1204 6.8501,1.5364 6.8191,1.6164 C6.7871,1.8084 6.7701,2.6894 6.7701,2.9294 C6.7701,3.6974 6.7871,3.8734 7.1071,3.8734 C7.4271,3.8734 8.4191,3.6974 8.8031,3.6334 C8.9151,3.6174 9.4281,3.4574 9.5241,3.4574 C9.6681,3.4574 10.5161,3.6654 10.5161,4.1454 C10.5161,4.5774 9.7321,4.5774 9.5241,4.5774 C9.3161,4.5774 8.4191,4.5134 8.2271,4.5134 C6.8191,4.5134 6.8191,4.7534 6.8191,5.0894 C6.8191,5.3304 6.9951,9.0594 7.0271,9.4114 C7.0581,9.6994 7.2191,10.9004 7.2191,11.1404 C7.2191,11.9884 6.6901,12.6284 6.2581,12.6284 C5.8901,12.6284 5.8101,12.3564 5.6661,11.8284 C5.5221,11.3324 5.0581,10.8044 4.7381,10.5164 C4.6901,10.4684 4.3861,10.1804 4.3861,10.1484 C4.3861,10.1154 4.4331,10.1004 4.4501,10.1004 C4.4821,10.1004 5.6981,10.5644 5.8741,10.5644 C6.0821,10.5644 6.0821,10.3084 6.0821,10.1804 C6.0821,8.4194 6.0021,6.4024 5.9701,6.3224 C5.9541,6.2584 5.8901,6.2264 5.8261,6.2264 C5.7461,6.2264 5.7141,6.2584 5.4421,6.5944 C3.1371,9.4434 0.5921,10.9484 0.2561,10.9484 C0.2081,10.9484 0.1601,10.9164 0.1601,10.8844 C0.1601,10.8044 1.0241,10.0674 1.1841,9.9234 C3.4411,7.8114 5.0741,5.5694 5.0741,5.0894 C5.0741,4.9934 5.0101,4.9134 4.8981,4.9134 C4.6101,4.9134 2.7211,5.1534 2.4331,5.2174 C2.2731,5.2664 1.6171,5.5224 1.4731,5.5224 C0.9921,5.5224 0.0001,4.4334 0.0001,4.1934 C0.0001,4.1294 0.0801,4.1134 0.0961,4.1134 C0.1921,4.1134 0.6241,4.2574 0.7041,4.2734" id="Fill-1" fill="#000000"></path>
            <path d="M14.6719,2.4008 C15.0399,2.5768 15.6649,2.7528 16.0009,2.7528 C16.6569,2.7528 21.3469,2.2888 22.0349,1.9848 C22.5309,1.7608 22.5949,1.7288 22.7079,1.7288 C23.0599,1.7288 23.3159,1.9528 23.8119,2.3848 C24.5319,3.0248 24.6279,3.2008 24.6279,3.4248 C24.6279,3.6328 24.5479,3.7128 24.2599,4.0018 C24.0039,4.2418 23.9399,4.3698 23.6359,5.0098 C21.1229,10.2278 15.5369,12.4688 15.3769,12.4688 C15.2969,12.4688 15.2639,12.4048 15.2639,12.3728 C15.2639,12.3088 15.3129,12.2768 15.4719,12.1648 C18.2569,10.2118 20.5149,8.0988 21.7949,5.8258 C22.5789,4.4498 22.8829,3.2808 22.8829,3.1208 C22.8829,2.8488 22.6109,2.8328 22.5309,2.8328 C22.3549,2.8328 17.6969,3.6168 16.7689,3.9848 C16.6409,4.0488 16.0649,4.3378 15.9369,4.3378 C15.7289,4.3378 15.6159,4.3378 14.7839,3.5688 C14.4799,3.2968 14.3199,3.1368 14.3199,2.6728 C14.3199,2.5448 14.3359,2.4648 14.3679,2.3048 C14.4479,2.3048 14.5439,2.3528 14.6719,2.4008" id="Fill-3" fill="#000000"></path>
            <path d="M32.915,6.3706 C33.187,6.5466 33.523,6.7066 33.523,6.9146 C33.523,6.9946 33.379,7.3626 33.363,7.4586 C33.332,7.6666 33.299,7.9226 33.299,9.7636 C33.299,10.1806 33.299,10.6916 33.332,11.3006 C33.332,11.4606 33.427,12.2766 33.427,12.4526 C33.427,12.5806 33.427,13.0606 33.075,13.0606 C32.691,13.0606 32.275,12.4366 32.275,12.1166 C32.275,12.0526 32.275,12.0046 32.355,11.5406 C32.467,10.9646 32.531,9.5876 32.531,8.7876 C32.531,8.3876 32.531,7.0266 32.211,7.0266 C32.163,7.0266 32.131,7.0586 31.874,7.2826 C30.002,9.0116 28.385,9.6836 28.289,9.6836 C28.209,9.6836 28.193,9.6196 28.193,9.5876 C28.193,9.5076 28.673,9.1076 28.833,8.9796 C32.019,6.3546 33.251,3.8896 33.251,3.4896 C33.251,3.3926 33.219,3.2486 33.139,3.1046 C33.123,3.0736 33.011,2.8806 33.011,2.8496 C33.011,2.7526 33.107,2.6886 33.187,2.6886 C33.363,2.6886 34.724,3.2486 34.724,3.7936 C34.724,3.9216 34.66,4.0336 34.596,4.0816 C34.291,4.3376 34.26,4.3536 34.1,4.5936 C33.748,5.1216 33.651,5.2336 32.851,6.2586 C32.851,6.2906 32.883,6.3546 32.915,6.3706" id="Fill-5" fill="#000000"></path>
            <path d="M43.9702,2.833 C43.9702,3.201 43.7142,3.553 43.4582,3.553 C43.2822,3.553 43.2012,3.489 42.6252,2.801 C42.1932,2.289 41.6332,2.064 41.2492,1.953 C41.1852,1.937 41.0092,1.889 41.0092,1.84 C41.0092,1.792 41.4572,1.537 42.2412,1.537 C43.9702,1.537 43.9702,2.785 43.9702,2.833 M40.0802,10.98 C40.0322,10.9 39.7442,10.564 39.6962,10.484 C39.6482,10.404 39.6002,10.276 39.6002,10.18 C39.6002,10.116 39.6482,10.068 39.7442,10.068 C39.8882,10.068 40.4962,10.276 40.6252,10.276 C41.3132,10.276 45.6182,7.875 49.4442,3.537 C49.5242,3.441 50.0842,2.817 50.1332,2.817 C50.1642,2.817 50.1972,2.833 50.1972,2.881 C50.1972,3.057 48.7882,6.482 42.1612,11.125 C41.9692,11.252 41.2012,11.973 40.9922,11.973 C40.6402,11.973 40.4812,11.716 40.0802,10.98 M42.0492,6.018 C42.0492,6.338 41.8092,6.818 41.4252,6.818 C41.1852,6.818 41.1052,6.723 40.8652,6.322 C40.5292,5.746 39.9842,5.33 39.4082,4.994 C39.3602,4.962 39.2642,4.898 39.2642,4.834 C39.2642,4.61 40.1772,4.594 40.3852,4.594 C41.0732,4.594 42.0492,5.234 42.0492,6.018" id="Fill-7" fill="#000000"></path>
            <path d="M63.6362,5.9702 C63.6362,6.2262 63.4122,6.3062 63.1242,6.4022 C62.7882,6.5142 62.7082,6.5782 61.9882,7.1072 C61.7162,7.2992 60.7392,7.9712 60.5312,7.9712 C60.4672,7.9712 60.4512,7.9072 60.4512,7.8912 C60.4512,7.7152 61.8442,6.2262 61.8442,5.8262 C61.8442,5.7142 61.7322,5.6982 61.6672,5.6982 C61.5872,5.6982 59.6672,6.1622 59.4432,6.2102 C58.8662,6.3542 58.8032,6.3702 58.8032,6.6262 C58.8032,6.8832 59.6352,9.5232 60.1792,10.9002 C60.5472,11.8452 60.6272,12.0842 60.6272,12.3732 C60.6272,12.7092 60.4672,13.0452 60.2912,13.0452 C60.1312,13.0452 59.4742,12.6132 59.3302,12.1492 C59.2502,11.8922 58.3862,8.1632 58.1622,7.4272 C57.9702,6.7862 57.9382,6.7062 57.7142,6.7062 C57.5542,6.7062 56.4172,6.9942 55.9052,7.2192 C55.2492,7.4912 55.1852,7.5232 55.0892,7.5232 C54.9282,7.5232 54.8492,7.4742 54.1442,6.9942 C53.9362,6.8502 53.8242,6.6902 53.8242,6.4182 C53.8242,6.3222 53.8402,6.0182 53.9692,6.0182 C54.0162,6.0182 54.2572,6.1142 54.3212,6.1302 C54.7052,6.2582 55.0092,6.2582 55.1692,6.2582 C55.8092,6.2582 57.0102,6.0822 57.4102,5.9702 C57.5062,5.9382 57.6342,5.8582 57.6342,5.7142 C57.6342,5.4582 57.3782,4.3532 56.8492,3.9212 C56.7852,3.8732 56.5302,3.7132 56.4812,3.6812 C56.4652,3.6652 56.4492,3.6332 56.4492,3.6012 C56.4492,3.3452 57.1062,3.3452 57.2502,3.3452 C57.9062,3.3452 58.4342,3.4732 58.4342,3.9852 C58.4342,4.7692 58.4342,5.6342 58.8032,5.6342 C59.1382,5.6342 60.8352,5.2662 61.1712,5.1372 C61.3152,5.0902 61.9712,4.7212 62.1152,4.7212 C62.5802,4.7212 63.6362,5.5542 63.6362,5.9702" id="Fill-9" fill="#000000"></path>
            <path d="M73.0107,8.7392 C73.0107,8.6592 73.0907,8.2432 73.1067,8.1632 C73.1547,7.8592 73.1707,6.5942 73.1707,6.1942 C73.1707,4.2412 72.9787,3.5852 72.8667,3.1852 C72.8347,3.1052 72.6577,2.6892 72.6577,2.6092 C72.6577,2.5452 72.7217,2.5292 72.7547,2.5292 C72.8347,2.5292 74.5147,2.8172 74.5147,3.6492 C74.5147,3.8412 74.2907,4.6742 74.2597,4.8492 C74.1947,5.2812 74.1307,7.2182 74.1307,7.7472 C74.1307,7.9552 74.1467,8.2752 74.4347,8.2752 C74.9157,8.2752 76.3877,7.2182 77.9247,5.6662 C78.1967,5.3942 79.5567,3.9532 79.6207,3.9532 C79.6537,3.9532 79.6847,3.9852 79.6847,4.0172 C79.6847,4.1452 78.7567,6.1302 75.9557,8.5952 C75.1237,9.3152 74.9637,9.4752 74.8507,9.6192 C74.5787,9.9242 74.4347,10.0352 74.3227,10.0512 C73.8587,10.1322 73.0107,9.1872 73.0107,8.7392 M70.4177,7.2512 C69.4567,9.3312 67.7767,10.2922 67.4557,10.2922 C67.3917,10.2922 67.3767,10.2442 67.3767,10.2122 C67.3767,10.0842 67.8887,9.5232 68.0167,9.3642 C69.7777,6.9472 69.9527,5.2022 69.9527,4.6742 C69.9527,4.2572 69.9377,4.0812 69.6807,3.2972 C69.6487,3.1852 69.6167,3.0892 69.6167,3.0092 C69.6167,2.9612 69.6337,2.9292 69.6977,2.9292 C69.8087,2.9292 71.5057,3.4732 71.5057,4.2892 C71.5057,4.3372 70.6897,6.6422 70.4177,7.2512" id="Fill-11" fill="#000000"></path>
            <path d="M88.083,2.833 C88.083,3.201 87.827,3.553 87.571,3.553 C87.395,3.553 87.314,3.489 86.738,2.801 C86.306,2.289 85.746,2.064 85.362,1.953 C85.298,1.937 85.122,1.889 85.122,1.84 C85.122,1.792 85.57,1.537 86.354,1.537 C88.083,1.537 88.083,2.785 88.083,2.833 M84.193,10.98 C84.145,10.9 83.857,10.564 83.809,10.484 C83.761,10.404 83.713,10.276 83.713,10.18 C83.713,10.116 83.761,10.068 83.857,10.068 C84.001,10.068 84.609,10.276 84.738,10.276 C85.426,10.276 89.731,7.875 93.557,3.537 C93.637,3.441 94.197,2.817 94.246,2.817 C94.277,2.817 94.31,2.833 94.31,2.881 C94.31,3.057 92.901,6.482 86.274,11.125 C86.082,11.252 85.314,11.973 85.106,11.973 C84.753,11.973 84.593,11.716 84.193,10.98 M86.162,6.018 C86.162,6.338 85.922,6.818 85.538,6.818 C85.298,6.818 85.218,6.723 84.978,6.322 C84.642,5.746 84.097,5.33 83.521,4.994 C83.473,4.962 83.377,4.898 83.377,4.834 C83.377,4.61 84.29,4.594 84.498,4.594 C85.186,4.594 86.162,5.234 86.162,6.018" id="Fill-13" fill="#000000"></path>
            <path d="M98.9297,5.3779 C99.1857,5.4579 99.6817,5.4579 99.8577,5.4579 C100.4507,5.4579 103.1867,5.3459 103.8437,5.1059 C103.9717,5.0579 104.4197,4.6739 104.5317,4.6739 C104.6597,4.6739 105.6037,5.3939 105.6037,5.7139 C105.6037,5.8739 105.5557,5.9219 105.3317,6.1779 C105.2517,6.2739 105.1877,6.4019 105.1717,6.7069 C105.1237,7.7629 105.0917,8.9629 105.0917,10.0199 C105.0917,10.1799 105.1237,10.8839 105.1237,11.0279 C105.1237,11.7649 104.7397,12.0529 104.4997,12.0529 C104.2597,12.0529 104.0517,11.7959 103.9877,11.4279 C103.9557,11.2199 103.9557,11.1719 103.7317,11.1719 C103.2027,11.1719 100.6417,11.4769 100.2097,11.5569 C100.0817,11.5719 99.5857,11.7159 99.4097,11.7159 C98.9777,11.7159 98.4977,10.6919 98.4977,10.5639 C98.4977,10.4999 98.5127,10.3719 98.6417,10.3719 C98.6897,10.3719 98.7377,10.3879 99.1697,10.5319 C99.2337,10.5479 99.5377,10.6599 99.9377,10.6599 C100.5777,10.6599 103.7317,10.3399 103.8757,10.2759 C104.0517,10.1799 104.0517,10.0359 104.0677,9.5879 C104.0677,9.4599 104.0997,8.7879 104.0997,8.7229 C104.0997,8.5149 104.0357,8.4199 103.8437,8.4199 C103.7797,8.4199 102.6267,8.5789 102.0347,8.6589 C101.6027,8.7079 99.8897,8.9319 99.6177,8.9319 C99.1697,8.9319 98.5297,8.4829 98.5297,7.9549 C98.5297,7.7949 98.5617,7.7469 98.6417,7.7469 C98.6897,7.7469 98.8817,7.8429 99.0257,7.9069 C99.2177,7.9869 99.4897,8.0189 99.8257,8.0189 C101.2507,8.0189 103.9077,7.7469 104.0517,7.5869 C104.1637,7.4589 104.1797,6.5149 104.1797,6.2909 C104.1797,6.0179 104.0997,5.9379 103.8597,5.9379 C103.7637,5.9379 101.9387,6.1299 100.7857,6.2739 C100.5617,6.3059 99.5857,6.4659 99.3937,6.4659 C98.8017,6.4659 98.2087,5.6019 98.2087,5.3779 C98.2087,5.2819 98.2887,5.2019 98.3527,5.2019 C98.4177,5.2019 98.7377,5.3139 98.9297,5.3779" id="Fill-15" fill="#000000"></path>
            <path d="M114.5308,6.0664 C114.5308,6.5304 114.2748,6.8824 113.9868,6.8824 C113.6348,6.8824 113.5548,6.4824 113.5068,6.2104 C113.3948,5.6984 113.3458,5.5544 112.9138,4.6904 C112.8828,4.6254 112.7388,4.4014 112.7388,4.3374 C112.7388,4.2894 112.8188,4.2414 112.8988,4.2574 C113.6508,4.3694 114.5308,5.1704 114.5308,6.0664 M117.0278,4.5134 C117.0278,4.4974 116.9958,4.4174 116.9958,4.3694 C116.9958,4.2894 117.0598,4.2574 117.1078,4.2574 C117.2358,4.2574 117.7168,4.5934 117.8278,4.6574 C118.0848,4.7854 118.7248,5.1704 118.7248,5.6344 C118.7248,5.7624 118.6608,5.7784 118.3888,5.9384 C118.2598,6.0184 117.6998,7.1074 117.5728,7.3154 C115.1228,11.3804 111.1858,12.9644 111.0578,12.9644 C111.0098,12.9644 110.9618,12.9174 110.9618,12.8694 C110.9618,12.7894 111.7138,12.3084 111.8578,12.1964 C115.2668,9.5874 117.1398,6.5784 117.1398,5.2024 C117.1398,4.8814 117.1078,4.7054 117.0278,4.5134 M112.0818,7.8114 C112.0818,8.2594 111.7138,8.4194 111.5378,8.4194 C111.1858,8.4194 111.0738,8.0514 110.9618,7.6984 C110.8178,7.2514 110.4658,6.6264 110.0328,6.0824 C109.9528,5.9704 109.9208,5.9224 109.9208,5.8744 C109.9208,5.7784 110.0168,5.7304 110.1288,5.7304 C110.5128,5.7304 112.0818,6.5304 112.0818,7.8114" id="Fill-17" fill="#000000"></path>
            <path d="M133.3491,1.5683 C133.3491,2.2403 133.9571,2.5283 134.3901,2.5283 C135.0781,2.5283 135.3821,1.9363 135.3821,1.5523 C135.3821,0.9443 134.7891,0.5443 134.3571,0.5443 C133.9891,0.5443 133.3491,0.8483 133.3491,1.5683 M135.9101,1.5203 C135.9101,2.3683 135.2061,3.0733 134.3731,3.0733 C133.6371,3.0733 132.8211,2.4643 132.8211,1.5203 C132.8211,0.7203 133.4451,0.0003 134.3901,0.0003 C135.5421,0.0003 135.9101,0.9763 135.9101,1.5203 M123.0251,2.5923 C123.3131,2.7363 123.9531,2.9293 124.3531,2.9293 C125.0101,2.9293 129.7001,2.4813 130.3881,2.1763 C130.8841,1.9523 130.9481,1.9203 131.0601,1.9203 C131.4121,1.9203 131.6681,2.1443 132.1641,2.5763 C132.8851,3.2173 132.9811,3.3933 132.9811,3.6173 C132.9811,3.8253 132.9011,3.9053 132.6131,4.1933 C132.3571,4.4333 132.2921,4.5613 131.9891,5.2023 C129.4751,10.4203 123.8891,12.6613 123.7291,12.6613 C123.6491,12.6613 123.6171,12.5963 123.6171,12.5653 C123.6171,12.5013 123.6651,12.4683 123.8251,12.3573 C126.6101,10.4033 128.8671,8.2913 130.1481,6.0183 C130.9321,4.6413 131.2361,3.4733 131.2361,3.3133 C131.2361,3.0413 130.9641,3.0253 130.8841,3.0253 C130.7241,3.0253 126.0981,3.7933 125.1211,4.1773 C124.9941,4.2253 124.4501,4.5293 124.3211,4.5293 C123.9531,4.5293 122.6731,3.7293 122.6731,2.8493 C122.6731,2.5453 122.7211,2.4963 122.8171,2.4963 C122.8491,2.4963 122.9931,2.5923 123.0251,2.5923" id="Fill-19" fill="#000000"></path>
            <g id="Group" transform="translate(155.000000, 0.000000)">
                <path d="M8.74028571,6.28193571 C8.74028571,4.86154286 8.33914286,1.00247143 5.17532143,1.00247143 C1.71739286,1.00247143 1.59396429,5.5404 1.59396429,6.55965 C1.59396429,8.04175714 2.04139286,11.8227214 5.17532143,11.8227214 C8.61685714,11.8227214 8.74028571,7.33107857 8.74028571,6.28193571 M5.17532143,12.3318643 C2.19567857,12.3318643 0.127285714,9.89318571 0.127285714,6.42079286 C0.127285714,2.94743571 2.18025,0.494292857 5.17532143,0.494292857 C8.13857143,0.494292857 10.2069643,2.93200714 10.2069643,6.42079286 C10.2069643,9.87775714 8.154,12.3318643 5.17532143,12.3318643" id="Fill-21" fill="#808080"></path>
                <path d="M17.3321679,5.95755 C18.3967393,5.95755 18.8451321,5.57183571 18.8451321,4.47544286 C18.8451321,4.21315714 18.8451321,4.01258571 19.0919893,4.01258571 C19.3388464,4.01258571 19.3388464,4.24401429 19.3388464,4.30669286 L19.3388464,8.31908571 C19.3388464,8.42708571 19.3388464,8.65851429 19.0919893,8.65851429 C18.8451321,8.65851429 18.8451321,8.42708571 18.8451321,8.2728 C18.8451321,7.47051429 18.8451321,6.45126429 17.3321679,6.45126429 L15.4952036,6.45126429 C15.4489179,6.45126429 15.2174893,6.46669286 15.1403464,6.66726429 C15.0786321,6.79069286 15.0786321,9.18308571 15.0786321,9.52347857 C15.0786321,10.9891929 15.0786321,11.5446214 16.3447393,11.5446214 C16.7767393,11.5446214 16.931025,11.5446214 16.931025,11.7924429 C16.931025,12.0393 16.715025,12.0393 16.5144536,12.0393 L12.5473821,12.0393 C12.300525,12.0393 12.0690964,12.0393 12.0690964,11.7924429 C12.0690964,11.5446214 12.3159536,11.5446214 12.4702393,11.5446214 C13.0256679,11.5446214 13.6900607,11.5446214 13.8443464,10.7423357 C13.8906321,10.4954786 13.8906321,10.48005 13.8906321,6.37412143 C13.8906321,5.64897857 13.8906321,2.36172857 13.8443464,2.08305 C13.7054893,1.31162143 12.9793821,1.29619286 12.6553821,1.29619286 C12.2233821,1.29619286 12.0690964,1.29619286 12.0690964,1.04933571 C12.0690964,0.78705 12.2850964,0.78705 12.5473821,0.78705 L19.9714179,0.78705 C20.8363821,0.78705 20.9897036,0.833335714 21.2838107,1.66647857 C21.3609536,1.88247857 21.8700964,3.33372857 21.8700964,3.4263 C21.8700964,3.62687143 21.7003821,3.70401429 21.5923821,3.70401429 C21.4843821,3.70401429 21.4843821,3.70401429 21.1140964,3.14858571 C20.3725607,2.02133571 19.2925607,1.29619286 17.9184536,1.29619286 L16.2058821,1.29619286 C15.0786321,1.29619286 15.0786321,1.99047857 15.0786321,3.27201429 C15.0786321,3.47258571 15.0786321,5.47926429 15.0940607,5.61812143 C15.1249179,5.84955 15.2946321,5.95755 15.4952036,5.95755 L17.3321679,5.95755 Z" id="Fill-23" fill="#808080"></path>
                <path d="M28.5174964,5.95755 C29.5820679,5.95755 30.0304607,5.57183571 30.0304607,4.47544286 C30.0304607,4.21315714 30.0304607,4.01258571 30.2773179,4.01258571 C30.524175,4.01258571 30.524175,4.24401429 30.524175,4.30669286 L30.524175,8.31908571 C30.524175,8.42708571 30.524175,8.65851429 30.2773179,8.65851429 C30.0304607,8.65851429 30.0304607,8.42708571 30.0304607,8.2728 C30.0304607,7.47051429 30.0304607,6.45126429 28.5174964,6.45126429 L26.6805321,6.45126429 C26.6342464,6.45126429 26.4028179,6.46669286 26.325675,6.66726429 C26.2639607,6.79069286 26.2639607,9.18308571 26.2639607,9.52347857 C26.2639607,10.9891929 26.2639607,11.5446214 27.5300679,11.5446214 C27.9620679,11.5446214 28.1163536,11.5446214 28.1163536,11.7924429 C28.1163536,12.0393 27.9003536,12.0393 27.6997821,12.0393 L23.7327107,12.0393 C23.4858536,12.0393 23.254425,12.0393 23.254425,11.7924429 C23.254425,11.5446214 23.5012821,11.5446214 23.6555679,11.5446214 C24.2109964,11.5446214 24.8753893,11.5446214 25.029675,10.7423357 C25.0759607,10.4954786 25.0759607,10.48005 25.0759607,6.37412143 C25.0759607,5.64897857 25.0759607,2.36172857 25.029675,2.08305 C24.8908179,1.31162143 24.1647107,1.29619286 23.8407107,1.29619286 C23.4087107,1.29619286 23.254425,1.29619286 23.254425,1.04933571 C23.254425,0.78705 23.470425,0.78705 23.7327107,0.78705 L31.1567464,0.78705 C32.0217107,0.78705 32.1750321,0.833335714 32.4691393,1.66647857 C32.5462821,1.88247857 33.055425,3.33372857 33.055425,3.4263 C33.055425,3.62687143 32.8857107,3.70401429 32.7777107,3.70401429 C32.6697107,3.70401429 32.6697107,3.70401429 32.299425,3.14858571 C31.5578893,2.02133571 30.4778893,1.29619286 29.1037821,1.29619286 L27.3912107,1.29619286 C26.2639607,1.29619286 26.2639607,1.99047857 26.2639607,3.27201429 C26.2639607,3.47258571 26.2639607,5.47926429 26.2793893,5.61812143 C26.3102464,5.84955 26.4799607,5.95755 26.6805321,5.95755 L28.5174964,5.95755 Z" id="Fill-25" fill="#808080"></path>
                <path d="M34.5947143,12.0389143 C34.3941429,12.0389143 34.1627143,12.0389143 34.1627143,11.7920571 C34.1627143,11.5452 34.2861429,11.5452 34.8878571,11.5452 C35.3352857,11.5452 36.0768214,11.5452 36.2301429,10.74195 C36.2773929,10.4796643 36.2773929,6.93012857 36.2773929,6.4827 C36.2773929,5.85012857 36.2773929,2.36134286 36.2301429,2.08362857 C36.0768214,1.29580714 35.5204286,1.29580714 34.5021429,1.29580714 C34.4095714,1.29580714 34.1627143,1.29580714 34.1627143,1.04991429 C34.1627143,0.786664286 34.3941429,0.786664286 34.6101429,0.786664286 L39.1480714,0.786664286 C39.3332143,0.786664286 39.5646429,0.786664286 39.5646429,1.04991429 C39.5646429,1.28037857 39.4257857,1.28037857 38.8539643,1.28037857 C38.3920714,1.28037857 37.7276786,1.29580714 37.5271071,1.99105714 C37.4653929,2.20705714 37.4653929,5.67945 37.4653929,6.39012857 C37.4653929,10.4796643 37.4653929,10.4950929 37.5116786,10.74195 C37.6505357,11.5452 38.2059643,11.5452 39.2406429,11.5452 C39.3177857,11.5452 39.5646429,11.5452 39.5646429,11.7920571 C39.5646429,12.0389143 39.3332143,12.0389143 39.1480714,12.0389143 L34.5947143,12.0389143 Z" id="Fill-27" fill="#808080"></path>
                <path d="M49.1315143,0.678953571 C49.1315143,0.694382143 50.1353357,3.11763214 50.1353357,3.28734643 C50.1353357,3.45706071 49.9800857,3.56506071 49.8412286,3.56506071 C49.7023714,3.56506071 49.6724786,3.518775 49.3475143,3.07134643 C48.0360857,1.21895357 46.6619786,1.00295357 46.0139786,1.00295357 C43.5907286,1.00295357 42.3410143,3.96620357 42.3410143,6.637275 C42.3410143,10.2176679 44.4393,11.6226321 46.2762643,11.6226321 C47.3562643,11.6226321 48.5915143,11.1588107 49.6107643,9.43081071 C49.9646571,8.82909643 49.9646571,8.81366786 50.08905,8.81366786 C50.2124786,8.81366786 50.3195143,8.92070357 50.3195143,9.05956071 C50.3195143,9.19841786 49.9347643,10.0016679 49.4400857,10.6188107 C48.1440857,12.2243464 46.5076929,12.3323464 45.8134071,12.3323464 C42.5570143,12.3323464 40.9669071,9.69309643 40.9669071,6.66716786 C40.9669071,3.05591786 43.2050143,0.493810714 45.8134071,0.493810714 C46.1991214,0.493810714 46.64655,0.555525 47.1248357,0.678953571 C47.2328357,0.725239286 47.9589429,0.925810714 48.0515143,0.925810714 C48.1749429,0.925810714 48.3600857,0.879525 48.4680857,0.771525 C48.7149429,0.524667857 48.7458,0.493810714 48.8692286,0.493810714 C48.9618,0.493810714 49.0852286,0.586382143 49.1315143,0.678953571" id="Fill-29" fill="#808080"></path>
                <path d="M52.1062393,12.0389143 C51.9056679,12.0389143 51.6742393,12.0389143 51.6742393,11.7920571 C51.6742393,11.5452 51.7976679,11.5452 52.3993821,11.5452 C52.8468107,11.5452 53.5883464,11.5452 53.7416679,10.74195 C53.7889179,10.4796643 53.7889179,6.93012857 53.7889179,6.4827 C53.7889179,5.85012857 53.7889179,2.36134286 53.7416679,2.08362857 C53.5883464,1.29580714 53.0319536,1.29580714 52.0136679,1.29580714 C51.9210964,1.29580714 51.6742393,1.29580714 51.6742393,1.04991429 C51.6742393,0.786664286 51.9056679,0.786664286 52.1216679,0.786664286 L56.6595964,0.786664286 C56.8447393,0.786664286 57.0761679,0.786664286 57.0761679,1.04991429 C57.0761679,1.28037857 56.9373107,1.28037857 56.3654893,1.28037857 C55.9035964,1.28037857 55.2392036,1.29580714 55.0386321,1.99105714 C54.9769179,2.20705714 54.9769179,5.67945 54.9769179,6.39012857 C54.9769179,10.4796643 54.9769179,10.4950929 55.0232036,10.74195 C55.1620607,11.5452 55.7174893,11.5452 56.7521679,11.5452 C56.8293107,11.5452 57.0761679,11.5452 57.0761679,11.7920571 C57.0761679,12.0389143 56.8447393,12.0389143 56.6595964,12.0389143 L52.1062393,12.0389143 Z" id="Fill-31" fill="#808080"></path>
                <path d="M65.4541714,7.578225 C65.6238857,7.578225 65.8398857,7.50108214 65.8398857,7.33136786 C65.8398857,7.00736786 64.3732071,2.71629643 64.0954929,1.88315357 C64.0038857,1.62086786 63.9720643,1.48201071 63.8650286,1.48201071 C63.7714929,1.48201071 63.7560643,1.52829643 63.58635,2.03743929 C63.15435,3.28715357 61.9509214,7.20793929 61.9509214,7.34679643 C61.9509214,7.578225 62.18235,7.578225 62.3829214,7.578225 L65.4541714,7.578225 Z M66.1793143,12.0390107 C66.0096,12.0390107 65.8090286,11.992725 65.8090286,11.7921536 C65.8090286,11.5452964 66.05685,11.5452964 66.4261714,11.5452964 C66.7193143,11.5452964 67.0597071,11.2675821 67.0597071,10.8664393 C67.0597071,10.5260464 66.6585643,9.461475 66.48885,9.06033214 C66.1484571,8.19536786 66.1021714,8.08736786 65.5930286,8.08736786 L62.2440643,8.08736786 C61.6732071,8.08736786 61.6114929,8.24165357 61.3636714,8.93690357 C61.2248143,9.353475 60.8082429,10.588725 60.8082429,10.9435821 C60.8082429,11.5452964 61.3019571,11.5452964 61.6732071,11.5452964 C61.85835,11.5452964 62.0280643,11.5761536 62.0280643,11.7921536 C62.0280643,12.0390107 61.7966357,12.0390107 61.6732071,12.0390107 L58.7089929,12.0390107 C58.5855643,12.0390107 58.3849929,12.0235821 58.3849929,11.8075821 C58.3849929,11.5452964 58.5547071,11.5452964 58.9095643,11.5452964 C59.3271,11.5452964 59.6973857,11.452725 60.0831,10.9281536 C60.4379571,10.4498679 61.5796714,6.822225 61.9191,5.72583214 C62.1196714,5.10868929 63.1080643,2.083725 63.3086357,1.38943929 C63.4629214,0.848475 63.5554929,0.493617857 64.6518857,0.493617857 C64.8370286,0.493617857 64.9296,0.601617857 64.9913143,0.740475 C65.1301714,0.971903571 65.3924571,1.77418929 65.5004571,2.13001071 C66.5804571,5.478975 66.6739929,5.850225 67.6459929,8.70451071 C68.5263857,11.3292964 68.6334214,11.5452964 69.5138143,11.5452964 C69.7143857,11.5452964 69.8686714,11.6378679 69.8686714,11.8075821 C69.8686714,12.0390107 69.6218143,12.0390107 69.5138143,12.0390107 L66.1793143,12.0390107 Z" id="Fill-33" fill="#808080"></path>
                <path d="M75.8367321,11.5450071 C76.8087321,11.5450071 78.553125,11.2364357 79.7266607,9.44575714 C80.0198036,9.01375714 80.0506607,8.96747143 80.1586607,8.96747143 C80.2512321,8.96747143 80.3900893,9.01375714 80.3900893,9.1989 C80.3900893,9.29147143 79.8038036,10.8044357 79.7112321,11.0512929 C79.3255179,12.0232929 79.2628393,12.0387214 78.2599821,12.0387214 L71.7925179,12.0387214 C71.5610893,12.0387214 71.3450893,12.0387214 71.3450893,11.7918643 C71.3450893,11.5450071 71.5148036,11.5450071 71.9005179,11.5450071 C72.2717679,11.5450071 72.9351964,11.4987214 73.0740536,10.7417571 C73.1203393,10.4804357 73.1203393,6.92993571 73.1203393,6.48250714 C73.1203393,5.86536429 73.1203393,2.36115 73.0740536,2.08343571 C72.9351964,1.29657857 72.2563393,1.29657857 71.6845179,1.29657857 C71.5765179,1.29657857 71.3450893,1.29657857 71.3450893,1.04972143 C71.3450893,0.786471429 71.5610893,0.786471429 71.7925179,0.786471429 L75.6207321,0.786471429 C75.8675893,0.786471429 76.0835893,0.786471429 76.0835893,1.04972143 C76.0835893,1.29657857 75.913875,1.29657857 75.5281607,1.29657857 C75.2041607,1.29657857 74.4934821,1.32743571 74.354625,2.08343571 C74.3093036,2.36115 74.3093036,5.64936429 74.3093036,6.37450714 C74.3093036,10.4804357 74.3093036,10.4958643 74.354625,10.7417571 C74.4934821,11.4678643 75.1270179,11.5450071 75.4201607,11.5450071 L75.8367321,11.5450071 Z" id="Fill-35" fill="#808080"></path>
                <path d="M88.2241393,11.4677679 C88.1161393,11.1900536 87.4527107,9.44566071 87.4527107,9.35308929 C87.4527107,9.12166071 87.6532821,9.02908929 87.7921393,9.02908929 C87.9618536,9.02908929 87.9927107,9.10623214 88.3629964,9.67708929 C89.0428179,10.742625 90.4313893,11.7917679 91.9906393,11.7917679 C93.0243536,11.7917679 94.2750321,11.0974821 94.2750321,9.46108929 C94.2750321,8.056125 93.3483536,7.56241071 91.388925,6.88355357 C89.2433893,6.14298214 87.8229964,5.32430357 87.8229964,3.48830357 C87.8229964,1.88276786 88.9338536,0.494196429 90.909675,0.494196429 C91.2182464,0.494196429 91.604925,0.539517857 92.0060679,0.617625 C92.1757821,0.647517857 92.8237821,0.786375 92.9317821,0.786375 C93.0706393,0.786375 93.1786393,0.756482143 93.2712107,0.694767857 C93.4872107,0.524089286 93.5180679,0.494196429 93.6270321,0.494196429 C93.8112107,0.494196429 93.8584607,0.633053571 94.0117821,1.03419643 C94.1207464,1.28105357 94.8458893,3.10258929 94.8458893,3.19419643 C94.8458893,3.39476786 94.676175,3.44201786 94.5836036,3.44201786 C94.460175,3.44201786 94.4293179,3.39476786 94.1824607,2.993625 C93.7658893,2.33019643 92.9317821,1.002375 91.0340679,1.002375 C89.3051036,1.002375 88.9338536,2.39191071 88.9338536,3.040875 C88.9338536,4.32144643 89.8605321,4.78430357 91.8826393,5.49498214 C95.000175,6.57498214 95.4167464,7.81023214 95.4167464,8.99823214 C95.4167464,11.0820536 93.7813179,12.3317679 92.0677821,12.3317679 C91.5123536,12.3317679 90.9723536,12.2237679 90.4005321,12.0231964 C89.9839607,11.8843393 89.8759607,11.8689107 89.7833893,11.8689107 C89.5365321,11.8689107 89.3359607,11.930625 89.1971036,12.0704464 C88.9338536,12.3009107 88.9039607,12.3317679 88.7487107,12.3317679 C88.5481393,12.3317679 88.5172821,12.2391964 88.2241393,11.4677679" id="Fill-37" fill="#808080"></path>
                <path d="M104.257704,6.03478929 C104.674275,6.03478929 104.674275,5.94221786 104.674275,3.90468214 C104.674275,1.666575 104.674275,1.28086071 103.238454,1.28086071 C103.115025,1.28086071 102.837311,1.28086071 102.837311,1.018575 C102.837311,0.787146429 103.115025,0.787146429 103.253882,0.787146429 L107.190096,0.787146429 C107.298096,0.787146429 107.591239,0.787146429 107.591239,1.03400357 C107.591239,1.29628929 107.390668,1.29628929 106.912382,1.29628929 C106.448561,1.29628929 106.079239,1.558575 105.970275,1.86714643 C105.846846,2.19211071 105.831418,2.23743214 105.831418,7.82546786 C105.831418,8.41175357 105.831418,10.603575 105.955811,10.9584321 C106.170846,11.5447179 106.804382,11.5447179 107.097525,11.5447179 C107.328954,11.5447179 107.591239,11.5447179 107.591239,11.7925393 C107.591239,12.0393964 107.298096,12.0393964 107.190096,12.0393964 L103.253882,12.0393964 C103.099596,12.0393964 102.837311,12.0393964 102.837311,11.8070036 C102.837311,11.5601464 103.115025,11.5601464 103.284739,11.5601464 C103.701311,11.5601464 104.134275,11.4993964 104.365704,11.251575 C104.674275,10.9430036 104.674275,10.927575 104.674275,8.10318214 C104.674275,6.66736071 104.674275,6.54393214 104.257704,6.54393214 L100.105489,6.54393214 C100.012918,6.54393214 99.8123464,6.59021786 99.7506321,6.729075 C99.6889179,6.89878929 99.6889179,8.42718214 99.6889179,8.720325 C99.6889179,11.251575 99.6889179,11.5601464 101.140168,11.5601464 C101.247204,11.5601464 101.525882,11.5601464 101.525882,11.8224321 C101.525882,12.0393964 101.247204,12.0393964 101.108346,12.0393964 L97.1730964,12.0393964 C97.080525,12.0393964 96.7719536,12.0393964 96.7719536,11.7925393 C96.7719536,11.5447179 96.972525,11.5447179 97.4508107,11.5447179 C97.6668107,11.5447179 98.3312036,11.4521464 98.4536679,10.7578607 C98.5153821,10.387575 98.5153821,6.63746786 98.5153821,4.66164643 C98.5153821,4.10525357 98.5153821,2.22200357 98.4073821,1.882575 C98.2068107,1.29628929 97.5588107,1.29628929 97.2656679,1.29628929 C97.0342393,1.29628929 96.7719536,1.29628929 96.7719536,1.03400357 C96.7719536,0.787146429 97.0650964,0.787146429 97.1730964,0.787146429 L101.108346,0.787146429 C101.263596,0.787146429 101.525882,0.787146429 101.525882,1.018575 C101.525882,1.28086071 101.263596,1.28086071 101.078454,1.28086071 C99.6889179,1.28086071 99.6889179,1.74371786 99.6889179,3.71953929 C99.6889179,3.99725357 99.6889179,5.69536071 99.7506321,5.83421786 C99.827775,6.03478929 100.074632,6.03478929 100.105489,6.03478929 L104.257704,6.03478929 Z" id="Fill-39" fill="#808080"></path>
                <path d="M118.082186,6.28193571 C118.082186,4.86154286 117.681043,1.00247143 114.517221,1.00247143 C111.059293,1.00247143 110.935864,5.5404 110.935864,6.55965 C110.935864,8.04175714 111.383293,11.8227214 114.517221,11.8227214 C117.958757,11.8227214 118.082186,7.33107857 118.082186,6.28193571 M114.517221,12.3318643 C111.537579,12.3318643 109.469186,9.89318571 109.469186,6.42079286 C109.469186,2.94743571 111.52215,0.494292857 114.517221,0.494292857 C117.480471,0.494292857 119.548864,2.93200714 119.548864,6.42079286 C119.548864,9.87775714 117.4959,12.3318643 114.517221,12.3318643" id="Fill-41" fill="#808080"></path>
                <path d="M125.856257,6.20469643 C127.893793,6.20469643 128.696079,5.07841071 128.696079,3.76601786 C128.696079,2.06791071 127.4454,1.29648214 126.0414,1.29648214 L125.377971,1.29648214 C124.26615,1.29648214 124.26615,1.97533929 124.26615,3.31858929 C124.26615,3.53458929 124.26615,5.72544643 124.281579,5.86526786 C124.312436,6.09669643 124.48215,6.20469643 124.682721,6.20469643 L125.856257,6.20469643 Z M125.763686,0.786375 C126.349971,0.786375 130.162757,0.786375 130.162757,3.70430357 C130.162757,5.308875 128.927507,6.71383929 126.164829,6.71383929 L124.682721,6.71383929 C124.26615,6.71383929 124.26615,6.83726786 124.26615,8.01080357 C124.26615,10.8351964 124.26615,10.850625 124.435864,11.1129107 C124.682721,11.4677679 125.0694,11.5449107 125.470543,11.5449107 C125.809971,11.5449107 125.995114,11.5449107 125.995114,11.7917679 C125.995114,12.038625 125.779114,12.038625 125.563114,12.038625 L121.750329,12.038625 C121.5189,12.038625 121.3029,12.038625 121.3029,11.7917679 C121.3029,11.5449107 121.534329,11.5449107 121.688614,11.5449107 C122.21415,11.5449107 122.877579,11.5449107 123.031864,10.742625 C123.07815,10.4957679 123.07815,10.4803393 123.07815,6.37441071 C123.07815,5.64926786 123.07815,2.345625 123.031864,2.08333929 C122.893007,1.34276786 122.228614,1.29648214 121.858329,1.29648214 C121.472614,1.29648214 121.3029,1.29648214 121.3029,1.049625 C121.3029,0.786375 121.5189,0.786375 121.750329,0.786375 L125.763686,0.786375 Z" id="Fill-43" fill="#808080"></path>
                <g id="Group-47" transform="translate(131.142857, 0.058821)">
                    <mask id="mask-2" fill="white">
                        <use xlink:href="#path-1"></use>
                    </mask>
                    <g id="Clip-46"></g>
                    <path d="M1.26842143,11.4089464 C1.16138571,11.1312321 0.496992857,9.38683929 0.496992857,9.29426786 C0.496992857,9.06283929 0.697564286,8.97026786 0.837385714,8.97026786 C1.0071,8.97026786 1.03795714,9.04741071 1.40824286,9.61826786 C2.0871,10.6838036 3.47567143,11.7329464 5.03492143,11.7329464 C6.0696,11.7329464 7.31931429,11.0386607 7.31931429,9.40226786 C7.31931429,7.99730357 6.39263571,7.50358929 4.43320714,6.82473214 C2.28767143,6.08416071 0.867278571,5.26548214 0.867278571,3.42948214 C0.867278571,1.82394643 1.97813571,0.435375 3.95395714,0.435375 C4.26252857,0.435375 4.64920714,0.480696429 5.05035,0.558803571 C5.22006429,0.588696429 5.86902857,0.727553571 5.97702857,0.727553571 C6.11492143,0.727553571 6.22388571,0.697660714 6.31549286,0.635946429 C6.53245714,0.465267857 6.56235,0.435375 6.67131429,0.435375 C6.85645714,0.435375 6.90274286,0.574232143 7.05702857,0.975375 C7.16502857,1.22223214 7.89017143,3.04376786 7.89017143,3.135375 C7.89017143,3.33594643 7.72045714,3.38319643 7.62788571,3.38319643 C7.50445714,3.38319643 7.47456429,3.33594643 7.22674286,2.93480357 C6.81017143,2.271375 5.97702857,0.943553571 4.07835,0.943553571 C2.34938571,0.943553571 1.97813571,2.33308929 1.97813571,2.98205357 C1.97813571,4.262625 2.90481429,4.72548214 4.92692143,5.43616071 C8.04445714,6.51616071 8.46199286,7.75141071 8.46199286,8.93941071 C8.46199286,11.0232321 6.8256,12.2729464 5.11206429,12.2729464 C4.55663571,12.2729464 4.01663571,12.1649464 3.44577857,11.964375 C3.02824286,11.8255179 2.92024286,11.8100893 2.82767143,11.8100893 C2.58081429,11.8100893 2.38024286,11.8718036 2.24138571,12.011625 C1.97813571,12.2420893 1.94824286,12.2729464 1.79395714,12.2729464 C1.59338571,12.2729464 1.56252857,12.180375 1.26842143,11.4089464" id="Fill-45" fill="#808080" mask="url(#mask-2)"></path>
                </g>
            </g>
        </g>
    </g>
</svg>