<?xml version="1.0" encoding="UTF-8"?>
<svg width="261px" height="16px" viewBox="0 0 261 16" version="1.1" xmlns="http://www.w3.org/2000/svg" xmlns:xlink="http://www.w3.org/1999/xlink">
    <!-- Generator: Sketch 42 (36781) - http://www.bohemiancoding.com/sketch -->
    <title>ttl_shop</title>
    <desc>Created with Sketch.</desc>
    <defs>
        <polygon id="path-1" points="0.6457 11 8.7287 11 8.7287 0.5155 0.6457 0.5155 0.6457 11"></polygon>
        <polygon id="path-3" points="6.639 0.5158 6.639 8.6788 0.4931 8.6788 0.4931 0.5158 6.639 0.5158"></polygon>
    </defs>
    <g id="Page-1" stroke="none" stroke-width="1" fill="none" fill-rule="evenodd">
        <g id="ttl_shop">
            <path d="M0.7041,4.2734 C1.2161,4.3694 1.8891,4.3694 2.0161,4.3694 C2.8811,4.3694 5.2501,4.1454 5.4901,4.0974 C5.7301,4.0494 5.8421,3.9534 5.8421,3.7134 C5.8421,1.6484 5.4101,1.1364 5.2181,0.9284 C5.1541,0.8644 4.8661,0.5924 4.8661,0.5124 C4.8661,0.3684 5.6181,0.3684 5.7621,0.3684 C6.5461,0.3684 7.0271,0.8644 7.0271,1.0244 C7.0271,1.1204 6.8501,1.5364 6.8191,1.6164 C6.7871,1.8084 6.7701,2.6894 6.7701,2.9294 C6.7701,3.6974 6.7871,3.8734 7.1071,3.8734 C7.4271,3.8734 8.4191,3.6974 8.8031,3.6334 C8.9151,3.6174 9.4281,3.4574 9.5241,3.4574 C9.6681,3.4574 10.5161,3.6654 10.5161,4.1454 C10.5161,4.5774 9.7321,4.5774 9.5241,4.5774 C9.3161,4.5774 8.4191,4.5134 8.2271,4.5134 C6.8191,4.5134 6.8191,4.7534 6.8191,5.0894 C6.8191,5.3304 6.9951,9.0594 7.0271,9.4114 C7.0581,9.6994 7.2191,10.9004 7.2191,11.1404 C7.2191,11.9884 6.6901,12.6284 6.2581,12.6284 C5.8901,12.6284 5.8101,12.3564 5.6661,11.8284 C5.5221,11.3324 5.0581,10.8044 4.7381,10.5164 C4.6901,10.4684 4.3861,10.1794 4.3861,10.1484 C4.3861,10.1154 4.4331,10.1004 4.4501,10.1004 C4.4821,10.1004 5.6981,10.5644 5.8741,10.5644 C6.0821,10.5644 6.0821,10.3084 6.0821,10.1794 C6.0821,8.4194 6.0021,6.4024 5.9701,6.3224 C5.9541,6.2584 5.8901,6.2264 5.8261,6.2264 C5.7461,6.2264 5.7141,6.2584 5.4421,6.5944 C3.1371,9.4434 0.5921,10.9484 0.2561,10.9484 C0.2081,10.9484 0.1601,10.9164 0.1601,10.8844 C0.1601,10.8044 1.0241,10.0674 1.1841,9.9234 C3.4411,7.8114 5.0741,5.5704 5.0741,5.0894 C5.0741,4.9934 5.0101,4.9134 4.8981,4.9134 C4.6101,4.9134 2.7211,5.1534 2.4331,5.2174 C2.2731,5.2664 1.6171,5.5224 1.4731,5.5224 C0.9921,5.5224 0.0001,4.4334 0.0001,4.1934 C0.0001,4.1294 0.0801,4.1134 0.0961,4.1134 C0.1921,4.1134 0.6241,4.2574 0.7041,4.2734" id="Fill-1" fill="#000000"></path>
            <path d="M15.0478,2.4009 C15.4158,2.5769 16.0408,2.7529 16.3768,2.7529 C17.0328,2.7529 21.7228,2.2889 22.4108,1.9839 C22.9068,1.7609 22.9708,1.7289 23.0838,1.7289 C23.4358,1.7289 23.6918,1.9529 24.1878,2.3849 C24.9078,3.0249 25.0038,3.2009 25.0038,3.4249 C25.0038,3.6329 24.9238,3.7129 24.6358,4.0019 C24.3798,4.2419 24.3158,4.3699 24.0118,5.0099 C21.4988,10.2279 15.9128,12.4689 15.7528,12.4689 C15.6728,12.4689 15.6398,12.4049 15.6398,12.3729 C15.6398,12.3089 15.6888,12.2769 15.8478,12.1649 C18.6328,10.2119 20.8908,8.0989 22.1708,5.8259 C22.9548,4.4499 23.2588,3.2809 23.2588,3.1209 C23.2588,2.8489 22.9868,2.8329 22.9068,2.8329 C22.7308,2.8329 18.0728,3.6169 17.1448,3.9849 C17.0168,4.0489 16.4408,4.3379 16.3128,4.3379 C16.1048,4.3379 15.9918,4.3379 15.1598,3.5689 C14.8558,3.2969 14.6958,3.1369 14.6958,2.6729 C14.6958,2.5449 14.7118,2.4649 14.7438,2.3049 C14.8238,2.3049 14.9198,2.3529 15.0478,2.4009" id="Fill-3" fill="#000000"></path>
            <path d="M32.5542,6.3706 C32.8262,6.5466 33.1622,6.7066 33.1622,6.9146 C33.1622,6.9946 33.0182,7.3626 33.0022,7.4586 C32.9702,7.6666 32.9382,7.9226 32.9382,9.7636 C32.9382,10.1796 32.9382,10.6926 32.9702,11.3006 C32.9702,11.4606 33.0662,12.2766 33.0662,12.4526 C33.0662,12.5806 33.0662,13.0606 32.7142,13.0606 C32.3302,13.0606 31.9142,12.4366 31.9142,12.1166 C31.9142,12.0526 31.9142,12.0046 31.9942,11.5406 C32.1062,10.9646 32.1702,9.5876 32.1702,8.7876 C32.1702,8.3876 32.1702,7.0266 31.8502,7.0266 C31.8022,7.0266 31.7702,7.0586 31.5132,7.2826 C29.6412,9.0116 28.0242,9.6836 27.9282,9.6836 C27.8482,9.6836 27.8322,9.6196 27.8322,9.5876 C27.8322,9.5076 28.3122,9.1076 28.4722,8.9796 C31.6582,6.3546 32.8902,3.8896 32.8902,3.4896 C32.8902,3.3926 32.8582,3.2486 32.7782,3.1046 C32.7622,3.0736 32.6502,2.8806 32.6502,2.8496 C32.6502,2.7526 32.7462,2.6886 32.8262,2.6886 C33.0022,2.6886 34.3632,3.2486 34.3632,3.7936 C34.3632,3.9216 34.2992,4.0336 34.2352,4.0816 C33.9302,4.3376 33.8992,4.3536 33.7392,4.5936 C33.3872,5.1216 33.2902,5.2336 32.4902,6.2586 C32.4902,6.2906 32.5222,6.3546 32.5542,6.3706" id="Fill-5" fill="#000000"></path>
            <path d="M44.7763,2.833 C44.7763,3.201 44.5203,3.553 44.2643,3.553 C44.0883,3.553 44.0073,3.489 43.4313,2.801 C42.9993,2.289 42.4393,2.064 42.0553,1.953 C41.9913,1.937 41.8153,1.889 41.8153,1.84 C41.8153,1.792 42.2633,1.537 43.0473,1.537 C44.7763,1.537 44.7763,2.785 44.7763,2.833 M40.8863,10.98 C40.8383,10.9 40.5503,10.564 40.5023,10.484 C40.4543,10.404 40.4063,10.276 40.4063,10.18 C40.4063,10.116 40.4543,10.068 40.5503,10.068 C40.6943,10.068 41.3023,10.276 41.4313,10.276 C42.1193,10.276 46.4243,7.875 50.2503,3.537 C50.3303,3.441 50.8903,2.817 50.9393,2.817 C50.9703,2.817 51.0033,2.833 51.0033,2.881 C51.0033,3.057 49.5943,6.482 42.9673,11.125 C42.7753,11.252 42.0073,11.973 41.7993,11.973 C41.4463,11.973 41.2863,11.717 40.8863,10.98 M42.8553,6.018 C42.8553,6.338 42.6153,6.818 42.2313,6.818 C41.9913,6.818 41.9113,6.723 41.6713,6.322 C41.3353,5.746 40.7903,5.33 40.2143,4.994 C40.1663,4.962 40.0703,4.898 40.0703,4.834 C40.0703,4.61 40.9833,4.594 41.1913,4.594 C41.8793,4.594 42.8553,5.234 42.8553,6.018" id="Fill-7" fill="#000000"></path>
            <path d="M63.9526,5.9702 C63.9526,6.2262 63.7286,6.3062 63.4406,6.4022 C63.1046,6.5142 63.0246,6.5782 62.3046,7.1062 C62.0326,7.2992 61.0556,7.9712 60.8476,7.9712 C60.7836,7.9712 60.7676,7.9072 60.7676,7.8912 C60.7676,7.7152 62.1606,6.2262 62.1606,5.8262 C62.1606,5.7142 62.0486,5.6982 61.9836,5.6982 C61.9036,5.6982 59.9836,6.1622 59.7596,6.2102 C59.1826,6.3542 59.1196,6.3702 59.1196,6.6262 C59.1196,6.8832 59.9516,9.5232 60.4956,10.9002 C60.8636,11.8452 60.9436,12.0842 60.9436,12.3732 C60.9436,12.7092 60.7836,13.0452 60.6076,13.0452 C60.4476,13.0452 59.7906,12.6132 59.6466,12.1492 C59.5666,11.8922 58.7026,8.1632 58.4786,7.4272 C58.2866,6.7862 58.2546,6.7062 58.0306,6.7062 C57.8706,6.7062 56.7336,6.9942 56.2216,7.2192 C55.5656,7.4912 55.5016,7.5232 55.4056,7.5232 C55.2446,7.5232 55.1656,7.4742 54.4606,6.9942 C54.2526,6.8502 54.1406,6.6902 54.1406,6.4182 C54.1406,6.3222 54.1566,6.0182 54.2856,6.0182 C54.3326,6.0182 54.5736,6.1142 54.6376,6.1302 C55.0216,6.2582 55.3256,6.2582 55.4856,6.2582 C56.1256,6.2582 57.3266,6.0822 57.7266,5.9702 C57.8226,5.9382 57.9506,5.8582 57.9506,5.7142 C57.9506,5.4582 57.6946,4.3532 57.1656,3.9212 C57.1016,3.8732 56.8466,3.7132 56.7976,3.6812 C56.7816,3.6652 56.7656,3.6332 56.7656,3.6012 C56.7656,3.3452 57.4226,3.3452 57.5666,3.3452 C58.2226,3.3452 58.7506,3.4732 58.7506,3.9852 C58.7506,4.7692 58.7506,5.6342 59.1196,5.6342 C59.4546,5.6342 61.1516,5.2662 61.4876,5.1372 C61.6316,5.0902 62.2876,4.7212 62.4316,4.7212 C62.8966,4.7212 63.9526,5.5542 63.9526,5.9702" id="Fill-9" fill="#000000"></path>
            <path d="M72.6421,8.7393 C72.6421,8.6593 72.7221,8.2433 72.7381,8.1633 C72.7861,7.8593 72.8021,6.5943 72.8021,6.1943 C72.8021,4.2413 72.6101,3.5853 72.4981,3.1853 C72.4661,3.1053 72.2891,2.6893 72.2891,2.6093 C72.2891,2.5453 72.3541,2.5293 72.3861,2.5293 C72.4661,2.5293 74.1461,2.8173 74.1461,3.6493 C74.1461,3.8413 73.9221,4.6743 73.8901,4.8493 C73.8261,5.2813 73.7621,7.2183 73.7621,7.7473 C73.7621,7.9553 73.7781,8.2753 74.0661,8.2753 C74.5471,8.2753 76.0191,7.2183 77.5561,5.6663 C77.8281,5.3943 79.1881,3.9533 79.2521,3.9533 C79.2851,3.9533 79.3161,3.9853 79.3161,4.0173 C79.3161,4.1453 78.3881,6.1303 75.5871,8.5953 C74.7551,9.3153 74.5951,9.4753 74.4821,9.6193 C74.2101,9.9243 74.0661,10.0353 73.9541,10.0513 C73.4901,10.1323 72.6421,9.1873 72.6421,8.7393 M70.0491,7.2513 C69.0881,9.3313 67.4081,10.2923 67.0871,10.2923 C67.0231,10.2923 67.0081,10.2443 67.0081,10.2123 C67.0081,10.0843 67.5201,9.5233 67.6481,9.3643 C69.4091,6.9473 69.5841,5.2023 69.5841,4.6743 C69.5841,4.2573 69.5691,4.0813 69.3121,3.2973 C69.2811,3.1853 69.2481,3.0893 69.2481,3.0093 C69.2481,2.9613 69.2651,2.9293 69.3291,2.9293 C69.4401,2.9293 71.1371,3.4733 71.1371,4.2893 C71.1371,4.3373 70.3211,6.6423 70.0491,7.2513" id="Fill-11" fill="#000000"></path>
            <path d="M87.895,2.833 C87.895,3.201 87.639,3.553 87.383,3.553 C87.207,3.553 87.126,3.489 86.55,2.801 C86.118,2.289 85.558,2.064 85.174,1.953 C85.11,1.937 84.934,1.889 84.934,1.84 C84.934,1.792 85.382,1.537 86.166,1.537 C87.895,1.537 87.895,2.785 87.895,2.833 M84.005,10.98 C83.957,10.9 83.669,10.564 83.621,10.484 C83.573,10.404 83.525,10.276 83.525,10.18 C83.525,10.116 83.573,10.068 83.669,10.068 C83.813,10.068 84.421,10.276 84.55,10.276 C85.238,10.276 89.543,7.875 93.369,3.537 C93.449,3.441 94.009,2.817 94.058,2.817 C94.089,2.817 94.122,2.833 94.122,2.881 C94.122,3.057 92.713,6.482 86.086,11.125 C85.894,11.252 85.126,11.973 84.917,11.973 C84.565,11.973 84.406,11.717 84.005,10.98 M85.974,6.018 C85.974,6.338 85.734,6.818 85.35,6.818 C85.11,6.818 85.03,6.723 84.79,6.322 C84.454,5.746 83.909,5.33 83.333,4.994 C83.285,4.962 83.189,4.898 83.189,4.834 C83.189,4.61 84.102,4.594 84.31,4.594 C84.998,4.594 85.974,5.234 85.974,6.018" id="Fill-13" fill="#000000"></path>
            <path d="M98.8647,5.3779 C99.1207,5.4579 99.6167,5.4579 99.7927,5.4579 C100.3857,5.4579 103.1217,5.3459 103.7787,5.1059 C103.9067,5.0579 104.3547,4.6739 104.4667,4.6739 C104.5947,4.6739 105.5387,5.3939 105.5387,5.7139 C105.5387,5.8739 105.4907,5.9219 105.2667,6.1779 C105.1867,6.2739 105.1227,6.4019 105.1067,6.7069 C105.0587,7.7629 105.0267,8.9629 105.0267,10.0199 C105.0267,10.1799 105.0587,10.8839 105.0587,11.0279 C105.0587,11.7649 104.6747,12.0529 104.4347,12.0529 C104.1947,12.0529 103.9867,11.7959 103.9227,11.4279 C103.8907,11.2199 103.8907,11.1719 103.6667,11.1719 C103.1377,11.1719 100.5767,11.4769 100.1447,11.5569 C100.0167,11.5719 99.5207,11.7169 99.3447,11.7169 C98.9127,11.7169 98.4327,10.6919 98.4327,10.5639 C98.4327,10.4999 98.4477,10.3719 98.5767,10.3719 C98.6247,10.3719 98.6727,10.3879 99.1047,10.5319 C99.1687,10.5479 99.4727,10.6599 99.8727,10.6599 C100.5127,10.6599 103.6667,10.3399 103.8107,10.2759 C103.9867,10.1799 103.9867,10.0359 104.0027,9.5879 C104.0027,9.4599 104.0347,8.7879 104.0347,8.7229 C104.0347,8.5149 103.9707,8.4199 103.7787,8.4199 C103.7147,8.4199 102.5617,8.5789 101.9697,8.6589 C101.5377,8.7079 99.8247,8.9319 99.5527,8.9319 C99.1047,8.9319 98.4647,8.4829 98.4647,7.9549 C98.4647,7.7949 98.4967,7.7469 98.5767,7.7469 C98.6247,7.7469 98.8167,7.8429 98.9607,7.9069 C99.1527,7.9869 99.4247,8.0189 99.7607,8.0189 C101.1857,8.0189 103.8427,7.7469 103.9867,7.5869 C104.0987,7.4589 104.1147,6.5149 104.1147,6.2909 C104.1147,6.0179 104.0347,5.9379 103.7947,5.9379 C103.6987,5.9379 101.8737,6.1299 100.7207,6.2739 C100.4967,6.3059 99.5207,6.4659 99.3287,6.4659 C98.7367,6.4659 98.1437,5.6019 98.1437,5.3779 C98.1437,5.2819 98.2237,5.2019 98.2887,5.2019 C98.3527,5.2019 98.6727,5.3139 98.8647,5.3779" id="Fill-15" fill="#000000"></path>
            <path d="M115.8037,6.0664 C115.8037,6.5304 115.5477,6.8824 115.2597,6.8824 C114.9077,6.8824 114.8277,6.4824 114.7797,6.2104 C114.6677,5.6984 114.6187,5.5544 114.1867,4.6904 C114.1557,4.6254 114.0117,4.4014 114.0117,4.3374 C114.0117,4.2894 114.0917,4.2414 114.1717,4.2574 C114.9237,4.3694 115.8037,5.1704 115.8037,6.0664 M118.3007,4.5134 C118.3007,4.4974 118.2687,4.4174 118.2687,4.3694 C118.2687,4.2894 118.3327,4.2574 118.3807,4.2574 C118.5087,4.2574 118.9897,4.5934 119.1007,4.6574 C119.3577,4.7854 119.9977,5.1704 119.9977,5.6344 C119.9977,5.7624 119.9337,5.7784 119.6617,5.9384 C119.5327,6.0184 118.9727,7.1064 118.8457,7.3154 C116.3957,11.3804 112.4587,12.9644 112.3307,12.9644 C112.2827,12.9644 112.2347,12.9174 112.2347,12.8694 C112.2347,12.7894 112.9867,12.3084 113.1307,12.1964 C116.5397,9.5874 118.4127,6.5784 118.4127,5.2024 C118.4127,4.8814 118.3807,4.7054 118.3007,4.5134 M113.3547,7.8114 C113.3547,8.2594 112.9867,8.4194 112.8107,8.4194 C112.4587,8.4194 112.3457,8.0514 112.2347,7.6984 C112.0907,7.2514 111.7387,6.6264 111.3057,6.0824 C111.2257,5.9704 111.1937,5.9224 111.1937,5.8744 C111.1937,5.7784 111.2897,5.7304 111.4017,5.7304 C111.7857,5.7304 113.3547,6.5304 113.3547,7.8114" id="Fill-17" fill="#000000"></path>
            <path d="M134.3462,1.5684 C134.3462,2.2404 134.9542,2.5284 135.3872,2.5284 C136.0752,2.5284 136.3792,1.9364 136.3792,1.5524 C136.3792,0.9444 135.7862,0.5444 135.3542,0.5444 C134.9862,0.5444 134.3462,0.8484 134.3462,1.5684 M136.9072,1.5204 C136.9072,2.3684 136.2032,3.0734 135.3702,3.0734 C134.6342,3.0734 133.8182,2.4644 133.8182,1.5204 C133.8182,0.7204 134.4422,0.0004 135.3872,0.0004 C136.5392,0.0004 136.9072,0.9764 136.9072,1.5204 M124.0222,2.5924 C124.3102,2.7364 124.9502,2.9294 125.3502,2.9294 C126.0072,2.9294 130.6972,2.4814 131.3852,2.1764 C131.8812,1.9524 131.9452,1.9204 132.0572,1.9204 C132.4092,1.9204 132.6652,2.1444 133.1612,2.5764 C133.8822,3.2174 133.9782,3.3934 133.9782,3.6174 C133.9782,3.8254 133.8982,3.9054 133.6102,4.1934 C133.3542,4.4334 133.2892,4.5614 132.9862,5.2024 C130.4722,10.4204 124.8862,12.6614 124.7262,12.6614 C124.6462,12.6614 124.6142,12.5964 124.6142,12.5654 C124.6142,12.5014 124.6622,12.4684 124.8222,12.3574 C127.6072,10.4034 129.8642,8.2914 131.1452,6.0184 C131.9292,4.6414 132.2332,3.4734 132.2332,3.3134 C132.2332,3.0414 131.9612,3.0254 131.8812,3.0254 C131.7212,3.0254 127.0952,3.7934 126.1182,4.1774 C125.9912,4.2254 125.4472,4.5294 125.3182,4.5294 C124.9502,4.5294 123.6702,3.7294 123.6702,2.8494 C123.6702,2.5454 123.7182,2.4974 123.8142,2.4974 C123.8462,2.4974 123.9902,2.5924 124.0222,2.5924" id="Fill-19" fill="#000000"></path>
            <path d="M164.7768,6.5147 C164.7768,5.0417 164.3608,1.0397 161.0798,1.0397 C157.4938,1.0397 157.3658,5.7457 157.3658,6.8027 C157.3658,8.3397 157.8298,12.2607 161.0798,12.2607 C164.6488,12.2607 164.7768,7.6027 164.7768,6.5147 M161.0798,12.7887 C157.9898,12.7887 155.8448,10.2597 155.8448,6.6587 C155.8448,3.0567 157.9738,0.5127 161.0798,0.5127 C164.1528,0.5127 166.2978,3.0407 166.2978,6.6587 C166.2978,10.2437 164.1688,12.7887 161.0798,12.7887" id="Fill-21" fill="#808080"></path>
            <path d="M172.6147,4.9297 C172.7427,4.9297 172.9827,4.9297 172.9827,5.1857 C172.9827,5.4417 172.7427,5.4417 172.6147,5.4417 L171.4137,5.4417 C171.3657,5.4417 171.1257,5.4577 171.0307,5.6657 C170.9817,5.7937 170.9817,7.5067 170.9817,7.8267 C170.9817,8.1797 170.9817,10.9317 171.0307,11.1727 C171.1897,11.9727 171.9267,11.9727 172.1827,11.9727 C172.6787,11.9727 172.8227,11.9727 172.8227,12.2287 C172.8227,12.4847 172.5827,12.4847 172.4227,12.4847 L168.7247,12.4847 C168.5967,12.4847 168.3567,12.4847 168.3567,12.2287 C168.3567,11.9727 168.6137,11.9727 168.7087,11.9727 C169.1897,11.9727 169.8617,11.8127 169.8617,10.8677 C169.8617,10.1957 169.8617,5.9067 169.8457,5.8587 C169.8457,5.6817 169.7657,5.4417 169.4457,5.4417 L168.5647,5.4417 C168.4207,5.4417 168.1807,5.4417 168.1807,5.1857 C168.1807,4.9297 168.4207,4.9297 168.5647,4.9297 L169.4457,4.9297 C169.8617,4.9297 169.8617,4.5937 169.8617,4.4017 C169.8617,3.7617 169.8617,3.1207 170.1497,2.4007 C170.6777,1.1367 171.8147,0.5127 172.6947,0.5127 C173.2227,0.5127 173.7027,0.8007 173.7027,1.3447 C173.7027,1.7447 173.4147,2.1127 172.9667,2.1127 C172.5187,2.1127 172.3267,1.8247 172.2307,1.6967 C171.9897,1.3607 171.9747,1.3277 171.8307,1.3277 C171.6067,1.3277 171.4137,1.5047 171.2857,1.6967 C170.9977,2.1607 170.9977,2.3687 170.9977,4.4497 C170.9977,4.5617 170.9977,4.9297 171.4137,4.9297 L172.6147,4.9297 Z" id="Fill-23" fill="#808080"></path>
            <path d="M174.9824,5.4419 C174.8704,5.4419 174.6144,5.4419 174.6144,5.1859 C174.6144,4.9299 174.8544,4.9299 174.9824,4.9299 L175.5744,4.9299 C175.8154,4.9299 175.9744,4.7539 175.9744,4.4979 C175.9744,3.3769 175.9744,2.3529 176.8714,1.4569 C177.7354,0.5919 178.9204,0.5119 179.3684,0.5119 C180.6494,0.5119 181.8174,1.1049 181.8174,2.0489 C181.8174,2.5289 181.4644,2.8649 181.0014,2.8649 C180.4244,2.8649 180.3284,2.4329 180.2484,2.0809 C180.1844,1.7289 180.0244,1.0079 179.1604,1.0079 C178.6804,1.0079 178.1994,1.2159 177.8154,1.6169 C177.2554,2.1769 177.0954,2.7529 177.0954,3.8409 C177.0954,4.6099 177.1114,4.9299 177.5434,4.9299 L179.9124,4.9299 C180.1364,4.9299 180.2484,4.9299 180.6324,4.8339 C180.7604,4.8019 181.3534,4.6259 181.3854,4.6259 C181.5294,4.6259 181.5614,4.7219 181.5614,4.9139 C181.5614,5.4739 181.5614,11.0599 181.5934,11.2529 C181.6574,11.6689 181.8334,11.9729 182.6654,11.9729 C182.8574,11.9729 183.0974,11.9729 183.0974,12.2289 C183.0974,12.4849 182.8574,12.4849 182.7294,12.4849 L179.3364,12.4849 C179.2244,12.4849 178.9834,12.4849 178.9834,12.2289 C178.9834,12.1969 178.9834,11.9729 179.2884,11.9729 C179.5124,11.9729 179.9284,11.9729 180.1684,11.7169 C180.4084,11.4439 180.4244,11.1249 180.4244,8.1309 C180.4244,7.7949 180.4244,5.7779 180.3764,5.6499 C180.3124,5.4899 180.1044,5.4419 180.0084,5.4419 L177.5434,5.4419 C177.1114,5.4419 177.1114,5.5699 177.1114,6.7539 C177.1114,10.7719 177.1274,11.2199 177.2234,11.5079 C177.3834,11.9409 177.8794,11.9569 178.1674,11.9729 C178.3764,11.9729 178.4404,12.1329 178.4404,12.2289 C178.4404,12.3569 178.3274,12.4849 178.1674,12.4849 L174.8864,12.4849 C174.7424,12.4849 174.5024,12.4849 174.4864,12.2289 C174.4864,11.9729 174.7584,11.9729 174.8064,11.9729 C175.1744,11.9729 175.5904,11.9569 175.8304,11.6049 C175.9904,11.3489 175.9904,11.3329 175.9904,8.2269 C175.9904,7.8749 175.9904,5.7779 175.9264,5.6499 C175.8784,5.5059 175.6704,5.4419 175.5744,5.4419 L174.9824,5.4419 Z" id="Fill-25" fill="#808080"></path>
            <path d="M187.8242,12.7891 C186.3352,12.7891 184.4942,11.8451 184.4942,8.8831 C184.4942,6.4181 185.8872,4.6251 188.1922,4.6251 C189.4722,4.6251 190.6732,5.2661 190.6732,6.1461 C190.6732,6.6901 190.2572,6.9781 189.8092,6.9781 C189.1532,6.9781 189.0882,6.4181 189.0562,6.0181 C188.9602,5.0581 188.0482,5.0581 187.9682,5.0581 C186.8162,5.0581 185.8392,6.5301 185.8392,8.6271 C185.8392,10.8201 186.9282,12.1011 188.2722,12.1011 C189.0402,12.1011 189.8892,11.6681 190.4172,11.0121 C190.5612,10.8201 190.6252,10.7401 190.7532,10.7401 C190.8172,10.7401 190.9132,10.7881 190.9132,10.9321 C190.9132,11.1881 189.8092,12.7891 187.8242,12.7891" id="Fill-27" fill="#808080"></path>
            <path d="M193.3764,1.4404 C193.3764,0.9284 193.7934,0.5124 194.3054,0.5274 C194.8174,0.5274 195.2334,0.9284 195.2334,1.4404 C195.2334,1.9524 194.8174,2.3684 194.3054,2.3684 C193.7764,2.3684 193.3764,1.9524 193.3764,1.4404 L193.3764,1.4404 Z M192.8644,12.4844 C192.7204,12.4844 192.4964,12.4844 192.4964,12.2284 C192.4964,11.9884 192.6884,11.9724 192.9924,11.9564 C193.2004,11.9564 193.4884,11.8604 193.6324,11.5084 C193.7604,11.2364 193.7604,8.8994 193.7604,8.3234 C193.7604,7.8754 193.7444,6.0184 193.6644,5.7944 C193.5844,5.6024 193.4084,5.5224 193.2164,5.5224 C193.1364,5.5224 192.7364,5.5704 192.7204,5.5704 C192.6564,5.5704 192.5764,5.5384 192.5764,5.4254 C192.5764,5.3144 192.6564,5.2814 193.3764,5.0574 C193.5844,4.9934 194.5774,4.6254 194.7054,4.6254 C194.8654,4.6254 194.8654,4.7694 194.8654,4.9294 C194.8654,5.6494 194.8494,9.2514 194.8494,10.0674 C194.8494,11.2364 194.8494,11.9084 195.5854,11.9564 C195.9054,11.9724 196.0974,11.9884 196.0974,12.2284 C196.0974,12.4844 195.8254,12.4844 195.7134,12.4844 L192.8644,12.4844 Z" id="Fill-29" fill="#808080"></path>
            <path d="M202.2788,11.0923 C202.3588,10.9003 202.3908,10.8363 202.3908,8.9473 C202.3908,8.6273 202.3908,8.3553 202.0548,8.3553 C201.4788,8.3553 199.0778,9.4273 199.0778,10.9323 C199.0778,11.3643 199.3498,12.1003 200.4538,12.1003 C200.9988,12.1003 202.0548,11.6203 202.2788,11.0923 M203.5278,6.8023 C203.5438,7.3463 203.5108,9.9563 203.5108,10.5483 C203.5108,11.3003 203.5108,11.9723 204.1518,11.9723 C204.3118,11.9723 204.5678,11.8763 204.6638,11.7963 C204.6798,11.7803 204.7758,11.7003 204.7918,11.7003 C204.8238,11.7003 204.8718,11.7173 204.8718,11.7963 C204.8718,12.0843 204.2158,12.7893 203.5278,12.7893 C203.0148,12.7893 202.5988,12.4043 202.4708,12.0693 C202.4388,11.9563 202.3908,11.8123 202.2468,11.8123 C202.1508,11.8123 202.0068,11.9253 201.8628,12.0363 C201.2378,12.5173 200.4538,12.7893 199.7498,12.7893 C198.7898,12.7893 197.7168,12.2773 197.7168,11.0923 C197.7168,9.1873 200.4058,8.3713 201.3348,8.0993 C202.2948,7.8113 202.3908,7.7793 202.3908,6.9463 C202.3908,5.5703 201.6228,5.0573 200.8858,5.0573 C199.8298,5.0573 199.6538,5.8103 199.6058,6.0343 C199.4938,6.5143 199.3818,7.0913 198.7578,7.0913 C198.3408,7.0913 198.0058,6.7543 198.0058,6.3063 C198.0058,5.3623 199.5578,4.6253 200.9028,4.6253 C202.1668,4.6253 203.4958,5.2023 203.5278,6.8023" id="Fill-31" fill="#808080"></path>
            <path d="M206.6655,12.4849 C206.5695,12.4849 206.2815,12.4849 206.2815,12.2449 C206.2815,11.9729 206.5375,11.9729 206.7455,11.9729 C206.9695,11.9729 207.3535,11.8929 207.4985,11.3809 C207.5945,11.0449 207.5945,5.3619 207.5945,4.4979 C207.5945,4.0329 207.5945,2.0009 207.4985,1.6959 C207.4655,1.6009 207.3535,1.4239 207.0495,1.4239 C206.9855,1.4239 206.6175,1.4729 206.5215,1.4729 C206.4255,1.4729 206.3775,1.4079 206.3775,1.3439 C206.3775,1.1999 206.9055,1.0399 207.1625,0.9599 C207.2735,0.9279 208.6185,0.5119 208.6345,0.5119 C208.7305,0.5119 208.7305,0.5599 208.7305,0.8809 C208.7305,2.1449 208.6985,8.3069 208.6985,9.6999 C208.6985,11.3969 208.6985,11.9249 209.5305,11.9729 C209.8825,11.9889 210.0425,11.9889 210.0425,12.2449 C210.0425,12.4849 209.8345,12.4849 209.6435,12.4849 L206.6655,12.4849 Z" id="Fill-33" fill="#808080"></path>
            <path d="M218.3134,11.8926 C218.2014,11.6046 217.5134,9.7956 217.5134,9.6996 C217.5134,9.4596 217.7214,9.3636 217.8654,9.3636 C218.0414,9.3636 218.0734,9.4436 218.4574,10.0356 C219.1624,11.1406 220.6024,12.2286 222.2194,12.2286 C223.2914,12.2286 224.5884,11.5086 224.5884,9.8116 C224.5884,8.3546 223.6274,7.8426 221.5954,7.1386 C219.3704,6.3706 217.8974,5.5216 217.8974,3.6176 C217.8974,1.9526 219.0494,0.5126 221.0984,0.5126 C221.4184,0.5126 221.8194,0.5596 222.2354,0.6406 C222.4114,0.6716 223.0834,0.8156 223.1954,0.8156 C223.3394,0.8156 223.4514,0.7846 223.5474,0.7206 C223.7714,0.5436 223.8034,0.5126 223.9164,0.5126 C224.1074,0.5126 224.1564,0.6566 224.3154,1.0726 C224.4284,1.3286 225.1804,3.2176 225.1804,3.3126 C225.1804,3.5216 225.0044,3.5696 224.9084,3.5696 C224.7804,3.5696 224.7484,3.5216 224.4924,3.1046 C224.0604,2.4166 223.1954,1.0396 221.2274,1.0396 C219.4344,1.0396 219.0494,2.4806 219.0494,3.1536 C219.0494,4.4816 220.0104,4.9616 222.1074,5.6986 C225.3404,6.8186 225.7724,8.0996 225.7724,9.3316 C225.7724,11.4926 224.0764,12.7886 222.2994,12.7886 C221.7234,12.7886 221.1634,12.6766 220.5704,12.4686 C220.1384,12.3246 220.0264,12.3086 219.9304,12.3086 C219.6744,12.3086 219.4664,12.3726 219.3224,12.5176 C219.0494,12.7566 219.0184,12.7886 218.8574,12.7886 C218.6494,12.7886 218.6174,12.6926 218.3134,11.8926" id="Fill-35" fill="#808080"></path>
            <path d="M227.5468,12.4849 C227.4188,12.4849 227.1148,12.4849 227.1148,12.2289 C227.1148,11.9729 227.3708,11.9729 227.5148,11.9729 C228.0588,11.9569 228.2028,11.5719 228.2348,11.4929 C228.3468,11.1729 228.3468,10.4839 228.3468,4.2899 C228.3468,3.8099 228.3468,2.0169 228.2508,1.7289 C228.2028,1.6169 228.0428,1.3439 227.6428,1.3439 C227.5788,1.3439 227.2428,1.4079 227.1788,1.4079 C227.0988,1.4079 227.0188,1.3439 227.0188,1.2489 C227.0188,1.1359 227.1148,1.1049 227.3068,1.0559 C227.5308,0.9919 229.2278,0.5119 229.3078,0.5119 C229.3718,0.5119 229.4518,0.5599 229.4518,0.6879 C229.4668,0.7999 229.4518,4.3539 229.4518,5.0419 C229.4518,5.3779 229.4518,5.5859 229.6278,5.5859 C229.7398,5.5859 230.1878,5.2179 230.2838,5.1539 C230.5238,4.9939 231.1798,4.6259 232.0118,4.6259 C233.1168,4.6259 233.6618,5.1699 233.8528,5.7939 C234.0458,6.4189 234.0458,6.4829 234.0458,9.2999 C234.0458,9.7799 234.0458,11.2199 234.1578,11.5079 C234.1888,11.6049 234.3658,11.9729 234.8778,11.9729 C235.1818,11.9729 235.4858,11.9729 235.4858,12.2449 C235.4858,12.4689 235.1978,12.4849 235.0048,12.4849 L231.9318,12.4849 C231.7888,12.4849 231.5008,12.4849 231.5008,12.2289 C231.5008,12.1329 231.5638,12.0369 231.6758,12.0049 C231.7718,11.9729 232.3328,11.9569 232.4448,11.9089 C232.9408,11.7169 232.9408,11.4929 232.9408,9.1879 C232.9408,7.1549 232.9408,6.4189 232.6048,5.9059 C232.2688,5.3779 231.7558,5.3139 231.5478,5.3139 C230.7638,5.3139 229.7548,5.9379 229.5468,6.5949 C229.4518,6.8989 229.4358,6.9309 229.4358,9.9879 C229.4358,11.3489 229.4358,11.9729 230.2678,11.9729 C230.4918,11.9729 230.7478,11.9729 230.7478,12.2449 C230.7478,12.4849 230.4598,12.4849 230.2838,12.4849 L227.5468,12.4849 Z" id="Fill-37" fill="#808080"></path>
            <path d="M240.019,12.3569 C241.363,12.3569 242.196,10.6279 242.196,8.7079 C242.196,6.7539 241.347,5.0579 240.019,5.0579 C238.802,5.0579 237.842,6.5459 237.842,8.7079 C237.842,10.5959 238.658,12.3569 240.019,12.3569 M240.019,4.6259 C242.068,4.6259 243.556,6.4019 243.556,8.7079 C243.556,11.0119 242.068,12.7889 240.019,12.7889 C237.97,12.7889 236.481,10.9959 236.481,8.7079 C236.481,6.4349 237.938,4.6259 240.019,4.6259" id="Fill-39" fill="#808080"></path>
            <g id="Group-43" transform="translate(244.000000, 4.109900)">
                <mask id="mask-2" fill="white">
                    <use xlink:href="#path-1"></use>
                </mask>
                <g id="Clip-42"></g>
                <path d="M3.5757,1.8125 C3.1757,2.1965 3.1587,2.4685 3.1587,4.7895 C3.1587,7.1425 3.2227,7.1905 3.5587,7.5105 C4.0547,7.9585 4.8237,7.9905 5.0797,7.9905 C6.8727,7.9905 7.3857,6.0215 7.3857,4.6135 C7.3857,2.7245 6.5847,1.2045 5.1117,1.2045 C4.5997,1.2045 3.9747,1.4445 3.5757,1.8125 L3.5757,1.8125 Z M1.0787,11.0005 C0.9337,11.0005 0.6457,10.9685 0.6457,10.7445 C0.6457,10.5035 0.9497,10.4875 1.2217,10.4715 C1.6067,10.4565 1.9107,10.2955 2.0067,9.7995 C2.0547,9.4955 2.0547,4.2615 2.0547,3.2855 C2.0547,1.8765 2.0547,1.4285 1.4947,1.4285 C1.3977,1.4285 0.9187,1.5405 0.8057,1.5405 C0.7257,1.5405 0.6617,1.4605 0.6617,1.3955 C0.6617,1.2845 0.7257,1.2515 1.0297,1.1565 C1.2067,1.1075 3.0147,0.5155 3.0627,0.5155 C3.1757,0.5155 3.1757,0.6445 3.1757,0.9635 C3.1757,1.2045 3.1757,1.3155 3.3037,1.3155 C3.3187,1.3155 3.8147,1.0275 3.8637,0.9965 C4.1677,0.8195 4.8077,0.5155 5.5447,0.5155 C7.2087,0.5155 8.7287,1.9725 8.7287,4.4535 C8.7287,6.5665 7.5287,8.6795 5.5277,8.6795 C4.8237,8.6795 4.2157,8.4715 3.9747,8.3745 C3.8797,8.3275 3.4957,8.1185 3.3837,8.1185 C3.1757,8.1185 3.1757,8.1665 3.1757,9.4315 C3.1757,9.7195 3.1757,10.4235 3.9747,10.4715 C4.4237,10.4875 4.6317,10.5035 4.6317,10.7445 C4.6317,10.9835 4.3277,11.0005 4.1677,11.0005 L1.0787,11.0005 Z" id="Fill-41" fill="#808080" mask="url(#mask-2)"></path>
            </g>
            <g id="Group-46" transform="translate(254.000000, 4.109900)">
                <mask id="mask-4" fill="white">
                    <use xlink:href="#path-3"></use>
                </mask>
                <g id="Clip-45"></g>
                <path d="M4.2231,0.8198 C4.3511,0.8678 4.4141,0.8998 4.5271,0.8998 C4.7351,0.8998 4.8791,0.8038 4.9911,0.6758 C5.1031,0.5638 5.1511,0.5158 5.2151,0.5158 C5.3111,0.5158 5.3431,0.5958 5.3911,0.7238 C5.5351,1.0918 6.2551,2.8368 6.2551,3.0128 C6.2551,3.0928 6.2231,3.1728 6.1121,3.1728 C5.9521,3.1728 5.9191,3.1088 5.5351,2.5328 C5.3431,2.2288 4.1911,0.9478 3.1661,0.9478 C2.5741,0.9478 1.7891,1.3638 1.7891,2.2448 C1.7891,2.9008 2.2221,3.2688 3.8381,3.8288 C5.6951,4.4858 6.6391,5.0778 6.6391,6.3588 C6.6391,7.4308 5.8871,8.6788 4.1911,8.6788 C3.7581,8.6788 3.5821,8.6318 2.8941,8.4228 C2.7981,8.3908 2.6861,8.3748 2.5901,8.3748 C2.3661,8.3748 2.2051,8.4388 2.1101,8.4708 C1.8061,8.5988 1.6141,8.6788 1.5341,8.6788 C1.3891,8.6788 1.3411,8.5508 1.2611,8.3428 C1.1181,7.9748 0.4931,6.3738 0.4931,6.1658 C0.4931,6.0698 0.5251,5.8938 0.6851,5.8938 C0.8771,5.8938 0.9901,6.0858 1.2451,6.5338 C1.9501,7.7508 3.4541,8.2468 4.1911,8.2468 C4.9751,8.2468 5.5831,7.5748 5.5831,6.7908 C5.5831,6.0538 5.1191,5.6858 3.2621,5.0458 C1.5811,4.4538 0.7331,3.8928 0.7331,2.6608 C0.7331,1.4448 1.6291,0.5158 2.8461,0.5158 C3.3901,0.5158 3.6151,0.5958 4.2231,0.8198" id="Fill-44" fill="#808080" mask="url(#mask-4)"></path>
            </g>
        </g>
    </g>
</svg>