<?xml version="1.0" encoding="UTF-8"?>
<svg width="13px" height="13px" viewBox="0 0 13 13" version="1.1" xmlns="http://www.w3.org/2000/svg" xmlns:xlink="http://www.w3.org/1999/xlink">
    <!-- Generator: Sketch 42 (36781) - http://www.bohemiancoding.com/sketch -->
    <title>Group</title>
    <desc>Created with Sketch.</desc>
    <defs></defs>
    <g id="Page-1" stroke="none" stroke-width="1" fill="none" fill-rule="evenodd">
        <g id="Group" fill-rule="nonzero" fill="#000000">
            <polygon id="Fill-9" points="12.9117182 12.9281455 4.83930909 12.9281455 4.83930909 10.7784182 10.7602182 10.7784182 10.7602182 9.96946364 7.53030909 9.96946364 7.53030909 4.85396364 12.9117182 4.85396364 12.9117182 7.00191818 9.67767273 7.00191818 9.67767273 7.81264545 12.9117182 7.81264545"></polygon>
            <polygon id="Fill-10" points="12.9117182 2.16337727 4.29449091 2.16337727 4.29449091 10.2346045 2.14594545 10.2346045 2.14594545 2.16337727 -0.000236363636 2.16337727 -0.000236363636 5.90909091e-05 12.9117182 5.90909091e-05"></polygon>
            <polygon id="Fill-11" points="4.85845455 4.85579545 7.01172727 4.85579545 7.01172727 2.70606818 4.85845455 2.70606818"></polygon>
            <polygon id="Fill-12" points="2.16804545 12.9045682 4.29590909 12.9045682 4.29590909 10.7761136 2.16804545 10.7761136"></polygon>
        </g>
    </g>
</svg>