<?xml version="1.0" encoding="UTF-8"?>
<svg width="206px" height="15px" viewBox="0 0 206 15" version="1.1" xmlns="http://www.w3.org/2000/svg" xmlns:xlink="http://www.w3.org/1999/xlink">
    <!-- Generator: Sketch 42 (36781) - http://www.bohemiancoding.com/sketch -->
    <title>ttl_adver.svg</title>
    <desc>Created with Sketch.</desc>
    <defs>
        <polygon id="path-1" points="1.35525272e-20 0.434 1.35525272e-20 14.92 14.6938 14.92 14.6938 0.434 0 0.434"></polygon>
        <polygon id="path-3" points="15.4985 0.354 0.7725 0.354 0.7725 14.9997 15.4985 14.9997 15.4985 0.354"></polygon>
        <polygon id="path-5" points="10.34 13.0391 10.34 0.7631 0.3042 0.7631 0.3042 13.0391 10.34 13.0391"></polygon>
    </defs>
    <g id="Page-1" stroke="none" stroke-width="1" fill="none" fill-rule="evenodd">
        <g id="ttl_adver.svg" transform="translate(0.000000, -1.000000)">
            <g id="Group-3" transform="translate(0.000000, 0.646000)">
                <mask id="mask-2" fill="white">
                    <use xlink:href="#path-1"></use>
                </mask>
                <g id="Clip-2"></g>
                <path d="M11.7808,5.396 C12.2288,5.396 12.4208,5.396 12.4208,5.06 C12.4208,4.9 12.4208,4.147 12.4048,4.084 C12.3568,3.843 12.2288,3.843 11.7808,3.843 L8.9798,3.843 C8.5478,3.843 8.4998,3.843 8.4198,3.939 C8.3398,4.02 8.3398,4.1 8.3398,4.804 C8.3398,5.396 8.3708,5.396 8.9798,5.396 L11.7808,5.396 Z M8.9318,1.778 C8.5478,1.778 8.3868,1.778 8.3558,2.051 C8.3398,2.115 8.3398,2.611 8.3398,2.883 C8.3398,3.411 8.4508,3.411 8.9318,3.411 L11.8448,3.411 C12.2128,3.411 12.3728,3.411 12.4208,3.139 C12.4368,3.059 12.4368,2.579 12.4368,2.307 C12.4368,1.811 12.3728,1.778 11.8448,1.778 L8.9318,1.778 Z M11.9248,1.346 C12.1488,1.346 12.2128,1.346 12.3888,1.25 C12.7728,1.042 12.8218,1.01 12.9018,1.01 C13.0298,1.01 13.9418,1.539 13.9418,1.794 C13.9418,1.891 13.8778,1.938 13.6698,2.099 C13.5898,2.179 13.5578,2.21 13.5418,2.291 C13.5258,2.419 13.5098,3.235 13.5098,3.491 C13.5098,3.812 13.5578,5.188 13.5578,5.476 C13.5578,5.62 13.5578,6.308 12.8218,6.308 C12.5168,6.308 12.4688,6.229 12.2608,5.94 C12.1808,5.828 12.0688,5.828 11.8288,5.828 L8.8518,5.828 C8.4998,5.828 8.4678,5.86 8.1628,6.148 C8.1148,6.196 7.8428,6.292 7.8428,6.34 C7.8428,6.404 7.9548,6.453 8.0028,6.484 C8.0988,6.517 8.6278,6.821 8.6278,6.997 C8.6278,7.125 8.5148,7.205 8.2918,7.301 C7.9878,7.429 7.9708,7.445 7.9708,7.525 C7.9708,7.621 8.0028,7.621 8.2918,7.621 L12.5648,7.621 C12.8048,7.621 12.9658,7.621 13.1898,7.493 C13.2848,7.413 13.4458,7.317 13.5098,7.317 C13.6698,7.317 14.6938,8.101 14.6938,8.261 C14.6938,8.357 14.5978,8.453 14.5178,8.517 C14.2458,8.741 14.1978,8.837 14.1978,9.222 C14.1978,11.911 14.1978,14.92 12.1648,14.92 C11.9568,14.92 11.9408,14.872 11.7168,14.472 C11.6368,14.344 11.4928,14.104 11.3488,13.992 C11.0758,13.768 11.0448,13.735 11.0448,13.688 C11.0448,13.624 11.1728,13.624 11.2048,13.624 C11.3488,13.624 11.9728,13.655 12.1008,13.655 C12.4368,13.655 12.7248,13.655 12.9018,12.855 C13.1248,11.878 13.1568,10.438 13.1568,9.814 C13.1568,9.654 13.1408,8.565 13.1098,8.373 C13.0458,8.037 12.8848,8.037 12.3248,8.037 L8.1148,8.037 C7.7948,8.037 7.6988,8.085 7.5388,8.277 C7.4428,8.373 7.0588,8.805 7.0588,8.87 C7.0588,8.981 7.0908,8.998 7.5068,9.125 C7.7468,9.206 8.3398,9.397 8.3398,9.542 C8.3398,9.59 8.1318,9.83 8.0828,9.862 C7.9548,10.006 7.9068,10.102 7.9068,10.374 C7.9068,10.518 7.9068,10.694 8.1148,10.694 C8.2918,10.694 9.4758,10.198 10.2918,9.605 C10.3878,9.526 10.8038,9.093 10.9168,9.093 C11.1088,9.093 11.6208,9.91 11.6208,10.086 C11.6208,10.326 11.4448,10.342 11.0448,10.374 C10.5318,10.486 9.3638,10.758 8.8038,10.87 C8.1318,11.014 8.0518,11.03 8.0188,11.046 C7.9068,11.094 7.8908,11.238 7.8908,11.334 C7.8908,12.279 8.0348,12.359 9.4278,12.359 C10.5798,12.359 10.6598,12.087 10.8208,11.51 C10.8528,11.382 10.9648,10.966 11.0288,10.966 C11.1088,10.966 11.1728,11.639 11.2198,11.75 C11.3168,11.943 11.3648,12.007 11.8608,12.471 C11.9248,12.535 11.9728,12.615 11.9728,12.663 C11.9728,13.351 10.3408,13.351 9.6678,13.351 C7.3308,13.351 6.8828,13.191 6.8828,11.814 C6.8828,11.479 6.8828,9.702 6.8668,9.51 C6.8668,9.414 6.8668,9.253 6.7228,9.253 C6.5948,9.253 5.2818,10.486 5.0098,10.486 C4.9938,10.486 4.9778,10.47 4.9778,10.454 C4.9778,10.422 5.9868,9.062 6.1138,8.885 C6.2908,8.629 7.1548,7.413 7.2028,6.564 C7.2188,6.5 7.2828,6.229 7.2828,6.164 C7.2828,6.132 7.2188,5.876 7.2188,5.812 C7.2188,5.7 7.2668,5.14 7.2668,5.028 C7.2668,4.756 7.2668,2.435 7.2508,2.259 C7.2348,2.115 7.2028,1.778 7.1708,1.65 C7.1388,1.475 7.0588,1.138 7.0588,1.122 C7.0588,1.058 7.1068,0.962 7.2188,0.962 C7.3788,0.962 8.0188,1.25 8.1468,1.282 C8.3708,1.346 8.4678,1.346 8.6438,1.346 L11.9248,1.346 Z M4.6418,4.355 C4.2258,4.355 3.9858,4.355 3.9858,4.836 C3.9858,5.156 4.0178,6.628 4.0178,6.933 C4.0178,7.349 4.0178,7.557 4.3058,7.557 C4.3858,7.557 6.3388,7.061 6.3548,7.061 C6.3868,7.061 6.4188,7.061 6.4188,7.109 C6.4188,7.205 5.3458,7.749 4.5298,8.117 C4.0978,8.325 3.9858,8.437 3.9858,8.837 C3.9858,8.949 4.0338,13.271 4.0338,13.319 C4.0338,14.087 3.7778,14.408 3.2488,14.648 C2.9458,14.792 2.7048,14.84 2.5928,14.84 C2.4808,14.84 2.3848,14.728 2.2248,14.52 C2.0488,14.28 1.5848,13.799 1.1998,13.703 C1.1358,13.688 0.9608,13.639 0.9608,13.559 C0.9608,13.495 1.0408,13.479 1.0728,13.479 C1.0888,13.479 1.9208,13.511 2.0808,13.511 C2.2088,13.511 2.8648,13.511 2.9288,13.143 C2.9768,12.887 2.9768,9.926 2.9768,9.59 C2.9768,9.237 2.9768,9.029 2.7688,9.029 C2.7048,9.029 1.2648,9.638 1.1998,9.702 C0.8968,10.038 0.8638,10.07 0.7528,10.07 C0.3518,10.07 -0.0002,8.773 -0.0002,8.533 C-0.0002,8.405 0.0638,8.389 0.1278,8.389 C0.2078,8.389 0.5118,8.437 0.5928,8.437 C1.0728,8.437 2.5608,8.069 2.7048,7.989 C2.9458,7.893 2.9768,7.781 2.9768,7.365 L2.9768,4.868 C2.9768,4.452 2.7688,4.355 2.4648,4.355 C2.3208,4.355 1.6168,4.372 1.2968,4.404 C1.2328,4.404 1.0088,4.436 0.9448,4.436 C0.8968,4.436 0.8638,4.404 0.8168,4.339 L0.4958,3.971 C0.4478,3.923 0.4318,3.892 0.4318,3.859 C0.4318,3.843 0.4478,3.827 0.4958,3.827 C0.8008,3.827 2.2088,3.923 2.4968,3.923 C2.9288,3.923 2.9608,3.715 2.9608,3.427 C2.9608,2.483 2.9608,2.179 2.9128,1.539 C2.8968,1.378 2.7528,0.706 2.7528,0.562 C2.7528,0.514 2.8018,0.434 2.9128,0.434 C2.9768,0.434 4.5938,0.77 4.5938,1.074 C4.5938,1.218 4.5138,1.266 4.1618,1.539 C4.0498,1.65 4.0178,2.066 4.0178,2.163 C4.0018,2.291 4.0018,3.347 4.0018,3.475 C4.0018,3.571 4.0018,3.923 4.4178,3.923 C4.6578,3.923 4.7538,3.843 4.8818,3.635 C5.1698,3.187 5.2018,3.139 5.3458,3.139 C5.6018,3.139 6.4988,3.923 6.4988,4.164 C6.4988,4.244 6.4188,4.292 6.2908,4.324 C6.1468,4.355 5.8898,4.355 5.4898,4.355 L4.6418,4.355 Z" id="Fill-1" fill="#000000" mask="url(#mask-2)"></path>
            </g>
            <g id="Group-6" transform="translate(16.000000, 0.646000)">
                <mask id="mask-4" fill="white">
                    <use xlink:href="#path-3"></use>
                </mask>
                <g id="Clip-5"></g>
                <path d="M14.1865,1.8427 C14.1865,2.3227 13.7705,2.4987 13.6265,2.4987 C13.4025,2.4987 13.3705,2.4187 12.8905,1.6507 C12.6655,1.2817 12.0255,0.7697 11.8335,0.6097 C11.7855,0.5777 11.7695,0.5297 11.7695,0.5137 C11.7695,0.4657 11.8495,0.4657 11.9615,0.4657 C12.0255,0.4657 12.3455,0.4817 12.8905,0.6097 C13.1455,0.6577 14.1865,0.8977 14.1865,1.8427 L14.1865,1.8427 Z M6.5835,10.3897 C6.8235,10.3897 7.0795,10.3897 7.0795,9.8617 C7.0795,9.3817 6.8555,9.3497 6.5835,9.3497 L5.8785,9.3497 C5.6065,9.3497 5.3825,9.3817 5.3825,9.8617 C5.3825,10.3257 5.5755,10.3897 5.8785,10.3897 L6.5835,10.3897 Z M6.5995,8.9177 C6.8715,8.9177 7.0955,8.9017 7.0955,8.4217 C7.0955,7.9567 6.9035,7.9087 6.5995,7.9087 L5.8785,7.9087 C5.5265,7.9087 5.3825,8.0047 5.3825,8.4217 C5.3825,8.9177 5.6235,8.9177 5.8785,8.9177 L6.5995,8.9177 Z M3.4145,9.3497 C2.9985,9.3497 2.9815,9.5097 2.9815,9.8617 C2.9815,10.3417 3.0785,10.3897 3.4145,10.3897 L4.0865,10.3897 C4.4705,10.3897 4.5185,10.2777 4.5185,9.8617 C4.5185,9.4137 4.4225,9.3497 4.0705,9.3497 L3.4145,9.3497 Z M3.4145,7.9087 C2.9985,7.9087 2.9495,8.1007 2.9495,8.3567 C2.9495,8.7097 2.9495,8.9177 3.4145,8.9177 L4.0385,8.9177 C4.4545,8.9177 4.5185,8.7407 4.5185,8.4687 C4.5185,8.1167 4.5185,7.9087 4.0385,7.9087 L3.4145,7.9087 Z M5.8945,10.8057 C5.3985,10.8057 5.3985,11.1107 5.3985,11.4787 C5.3985,12.0707 5.3985,12.2787 5.9115,12.2787 L6.6155,12.2787 C7.0955,12.2787 7.3675,12.2787 7.5915,11.9427 C7.8955,11.4627 7.9435,11.4147 8.0405,11.4147 C8.3115,11.4147 9.1605,12.2147 9.1605,12.5027 C9.1605,12.6947 9.0645,12.6947 8.1845,12.6947 L5.8945,12.6947 C5.4785,12.6947 5.4155,12.8547 5.4155,13.1267 C5.4155,13.3027 5.4785,14.0237 5.4785,14.1837 C5.4785,14.3277 5.4785,14.9997 4.8225,14.9997 C4.4705,14.9997 4.4705,14.6157 4.4705,14.4557 C4.4705,14.2637 4.5025,13.3997 4.5025,13.2227 C4.5025,12.6947 4.3585,12.6947 3.6705,12.6947 C2.7415,12.6947 2.1175,12.7267 1.8775,12.7427 C1.8295,12.7427 1.5895,12.7747 1.5415,12.7747 C1.4935,12.7747 1.4615,12.7427 1.3975,12.6787 L1.0935,12.3107 C1.0295,12.2307 1.0295,12.2307 1.0295,12.1987 C1.0295,12.1667 1.0445,12.1667 1.0775,12.1667 C1.1735,12.1667 1.5735,12.1987 1.6535,12.2147 C2.4215,12.2467 3.1735,12.2787 3.9425,12.2787 C4.4865,12.2787 4.5345,12.1507 4.5345,11.4627 C4.5345,10.9827 4.5025,10.8057 4.0385,10.8057 L3.4305,10.8057 C3.3025,10.8057 3.1255,10.8057 3.0145,10.9827 C2.9015,11.1267 2.7255,11.3657 2.3895,11.3657 C1.9895,11.3657 1.9895,10.7737 1.9895,10.5337 C1.9895,10.2297 2.0375,8.9337 2.0375,8.6607 C2.0375,8.2447 2.0055,7.9887 1.9415,7.5087 C1.9415,7.4767 1.8775,7.1087 1.8775,7.0767 C1.8775,6.9327 1.9095,6.8847 2.0535,6.8847 C2.3415,6.8847 2.5975,7.0767 2.8695,7.2847 C3.1255,7.4927 3.2535,7.4927 3.3975,7.4927 L4.0225,7.4927 C4.3425,7.4927 4.5025,7.3967 4.5025,6.9807 C4.5025,6.6447 4.4545,6.4047 4.0865,6.4047 C2.7415,6.4047 2.2615,6.4207 2.0695,6.4367 C2.0215,6.4367 1.6375,6.4847 1.6055,6.4847 C1.5415,6.4847 1.5095,6.4367 1.4615,6.3727 L1.1575,6.0047 C1.0935,5.9407 1.0775,5.9247 1.0775,5.9077 C1.0775,5.8757 1.1095,5.8607 1.1415,5.8607 C1.2055,5.8607 1.9895,5.9247 2.1495,5.9247 C3.0785,5.9717 3.3665,5.9717 4.1025,5.9717 C4.2465,5.9717 4.4705,5.9717 4.4705,5.6357 C4.4705,5.4917 4.4225,5.2517 4.3585,5.0437 C4.3265,4.9957 4.2465,4.7717 4.2465,4.7237 C4.2465,4.6437 4.3265,4.6117 4.4065,4.6117 C5.0465,4.6117 5.6865,4.9157 5.6865,5.1397 C5.6865,5.2517 5.6395,5.2997 5.4625,5.4757 C5.4315,5.5237 5.4155,5.6517 5.4155,5.6997 C5.4155,5.9717 5.6865,5.9717 5.8315,5.9717 L6.8875,5.9717 C7.0955,5.9717 7.1915,5.9717 7.3675,5.8277 C7.4635,5.7477 7.7995,5.2517 7.9125,5.2517 C8.1675,5.2517 8.9845,5.9557 8.9845,6.2127 C8.9845,6.4047 8.8885,6.4047 8.0075,6.4047 L5.8315,6.4047 C5.4465,6.4047 5.3665,6.5647 5.3665,6.9487 C5.3665,7.4127 5.5425,7.4927 5.8945,7.4927 L6.4395,7.4927 C6.5835,7.4927 6.7915,7.4927 6.9515,7.3167 C7.2075,7.0447 7.3035,6.9327 7.4315,6.9327 C7.5595,6.9327 8.3595,7.4287 8.3595,7.6687 C8.3595,7.7967 8.3445,7.8287 8.1205,8.0687 C8.0235,8.1807 8.0235,8.2777 8.0235,9.1257 C8.0235,9.3177 8.0565,10.6297 8.0565,10.6947 C8.0565,11.2067 7.6395,11.3507 7.4955,11.3507 C7.2395,11.3507 7.1595,11.2067 7.0315,10.9827 C6.9675,10.8697 6.8875,10.8057 6.6155,10.8057 L5.8945,10.8057 Z M3.6545,4.4037 C2.2455,4.4037 1.8615,4.4357 1.6215,4.4517 C1.5735,4.4517 1.3335,4.4837 1.2855,4.4837 C1.2375,4.4837 1.2055,4.4517 1.1415,4.3877 L0.8365,4.0197 C0.7725,3.9397 0.7725,3.9397 0.7725,3.9067 C0.7725,3.8757 0.7895,3.8757 0.8205,3.8757 C1.1245,3.8757 1.5895,3.9237 1.8775,3.9397 C2.9495,3.9707 3.0615,3.9877 3.9425,3.9877 C4.4065,3.9877 4.4065,3.7157 4.4065,3.1867 C4.4065,2.9467 4.4065,2.6587 3.9745,2.6587 C3.6055,2.6587 2.6135,2.6907 2.1655,2.7227 C2.1175,2.7227 1.9575,2.7387 1.9255,2.7387 C1.8775,2.7387 1.8455,2.7067 1.7815,2.6427 L1.4775,2.2747 C1.4135,2.1947 1.4135,2.1947 1.4135,2.1627 C1.4135,2.1467 1.4295,2.1307 1.4615,2.1307 C1.5735,2.1307 2.0855,2.1787 2.1815,2.1787 C2.7905,2.2107 3.8465,2.2427 3.9585,2.2427 C4.4065,2.2427 4.4065,1.9547 4.4065,1.6347 C4.4065,1.3147 4.4065,1.1707 4.3585,0.9937 C4.3425,0.9137 4.1825,0.5777 4.1825,0.4977 C4.1825,0.3857 4.3105,0.3697 4.3905,0.3697 C4.5505,0.3697 5.6865,0.6577 5.6865,0.9467 C5.6865,1.0097 5.4315,1.1857 5.4155,1.2507 C5.3665,1.3787 5.3665,1.6507 5.3665,1.8107 C5.3665,2.2427 5.7195,2.2427 5.8635,2.2427 L6.2155,2.2427 C6.4235,2.2427 6.5675,2.2427 6.7915,1.9547 C7.1115,1.5227 7.2395,1.4587 7.3355,1.4587 C7.6075,1.4587 8.3925,2.2267 8.3925,2.4667 C8.3925,2.6587 8.2955,2.6587 7.4795,2.6587 L5.8635,2.6587 C5.3985,2.6587 5.3665,2.9147 5.3665,3.1227 C5.3665,3.7797 5.3665,3.9877 5.8475,3.9877 L9.0325,3.9877 C9.1925,3.9877 9.4645,3.9877 9.4645,3.5877 C9.4645,2.8667 9.4325,1.6667 9.3205,1.0417 C9.3045,0.9467 9.1445,0.5457 9.1445,0.4497 C9.1445,0.3697 9.1925,0.3537 9.2725,0.3537 C9.5605,0.3537 10.8735,0.7217 10.8735,1.0907 C10.8735,1.1857 10.5535,1.5067 10.5375,1.5867 C10.4735,1.8587 10.4735,2.8667 10.4735,3.1867 C10.4735,3.7627 10.4735,3.9877 10.9695,3.9877 L12.3135,3.9877 C13.0655,3.9877 13.1455,3.9877 13.3865,3.6677 C13.8665,3.0427 13.9145,2.9627 14.0745,2.9627 C14.2985,2.9627 15.3715,3.8757 15.3715,4.1477 C15.3715,4.4037 15.1145,4.4037 14.6185,4.4037 L10.9535,4.4037 C10.7925,4.4037 10.5205,4.4037 10.5205,4.8037 C10.5205,5.8437 10.9535,7.5247 11.2895,8.6137 C11.4495,9.1257 11.6095,9.6697 11.7535,9.6697 C12.0575,9.6697 13.3705,6.2767 13.3705,5.6677 C13.3705,5.6197 13.3225,5.3957 13.3225,5.3157 C13.3225,5.1877 13.4025,5.1077 13.5145,5.1077 C13.6745,5.1077 14.9705,5.5877 14.9705,5.9717 C14.9705,6.1487 14.8585,6.2127 14.4905,6.4047 C14.3625,6.4677 14.0585,7.2367 13.9465,7.5087 C13.5465,8.5327 13.0185,9.4937 12.4255,10.4217 C12.3615,10.5177 12.2975,10.6457 12.2975,10.7897 C12.2975,11.1417 13.4815,12.7587 13.9625,12.7587 C14.2985,12.7587 14.4105,12.6627 15.1945,11.2547 C15.2275,11.1907 15.3865,10.8217 15.4355,10.8217 C15.4825,10.8217 15.4985,10.9187 15.4985,10.9977 C15.4985,11.1577 15.3225,11.8627 15.3075,12.0227 C15.2425,12.4387 15.1625,12.9827 15.1625,13.3027 C15.1625,13.5437 15.1945,13.6387 15.4025,14.1997 C15.4355,14.2797 15.4355,14.3277 15.4355,14.3917 C15.4355,14.6637 15.1465,14.8557 14.9065,14.8557 C14.1065,14.8557 12.4575,13.0947 11.8175,12.0867 C11.7215,11.9427 11.6095,11.7987 11.4815,11.7987 C11.3855,11.7987 11.2895,11.8947 11.1935,11.9907 C9.5125,13.7997 7.6875,14.5997 7.5275,14.5997 C7.5115,14.5997 7.4475,14.5997 7.4315,14.5517 C7.7195,14.3437 8.3445,13.8797 8.6645,13.6077 C9.5925,12.8547 10.9855,11.2067 10.9855,10.7897 C10.9855,10.6297 10.6485,9.8457 10.5845,9.6697 C10.0245,8.1337 9.6885,6.4677 9.5285,4.8197 C9.4965,4.4037 9.2885,4.4037 9.0485,4.4037 L3.6545,4.4037 Z" id="Fill-4" fill="#000000" mask="url(#mask-4)"></path>
            </g>
            <path d="M43.042,9.2593 C43.042,9.2273 43.074,9.1953 43.09,9.1953 C43.762,9.1953 47.444,12.2683 47.444,14.4133 C47.444,14.9263 47.028,15.3093 46.724,15.3093 C46.339,15.3093 46.292,15.1813 45.875,14.0453 C45.555,13.1653 45.459,13.0853 45.171,13.0853 C44.979,13.0853 38.176,14.5093 38.08,14.5413 C37.84,14.6053 37.84,14.6053 37.6,14.9093 C37.536,15.0053 37.424,15.1493 37.28,15.1493 C37.072,15.1493 37.023,15.0533 36.655,14.2533 C36.56,14.0293 36.383,13.6933 36.287,13.4853 C36.239,13.3733 36.223,13.2933 36.223,13.2133 C36.223,13.1653 36.239,13.0853 36.319,13.0853 C36.431,13.0853 36.912,13.1973 37.023,13.2133 C37.264,13.2453 37.712,13.2453 37.856,13.2453 C38.56,13.2453 38.688,13.2453 38.992,12.3163 C39.825,9.7713 40.593,7.3223 40.593,5.7213 C40.593,5.6573 40.561,5.3853 40.561,5.3213 C40.561,5.2093 40.657,5.1453 40.753,5.1453 C40.833,5.1453 42.626,5.6573 42.626,6.0263 C42.626,6.1703 41.986,6.5383 41.906,6.6503 C41.841,6.7303 41.777,6.8583 41.649,7.2583 C41.121,8.8913 40.449,10.6523 39.713,12.2203 C39.617,12.4283 39.424,12.8613 39.424,12.9563 C39.424,13.1163 39.617,13.1333 39.713,13.1333 C39.953,13.1333 41.762,12.9413 43.65,12.7333 C44.274,12.6683 44.851,12.6043 44.963,12.3963 C45.187,11.9803 43.042,9.4993 43.042,9.2593 L43.042,9.2593 Z M45.059,3.5773 C45.731,3.5773 45.859,3.5773 46.147,3.2093 C46.516,2.7123 46.547,2.6643 46.708,2.6643 C47.012,2.6643 48.116,3.5773 48.116,3.7693 C48.116,3.9933 48.02,3.9933 47.268,3.9933 L36.688,3.9933 C36.383,3.9933 36.127,3.9933 36.127,4.4733 C36.127,8.8913 36.127,9.5153 35.839,11.1643 C35.407,13.6293 34.079,15.2613 33.806,15.2613 C33.758,15.2613 33.742,15.2143 33.742,15.1653 C33.838,14.9413 34.11,14.2853 34.207,13.9973 C34.75,12.4763 34.975,10.9403 34.975,7.6583 C34.975,5.2893 34.799,3.7693 34.767,3.5293 C34.75,3.4173 34.623,2.9853 34.623,2.9053 C34.623,2.7923 34.703,2.7603 34.783,2.7603 C35.007,2.7603 35.823,3.1763 35.871,3.2093 C36.463,3.5453 36.511,3.5773 36.896,3.5773 L39.953,3.5773 C40.369,3.5773 40.497,3.5133 40.497,2.5363 C40.497,2.1363 40.465,1.6403 40.417,1.4803 C40.401,1.4323 40.337,1.2403 40.337,1.1763 C40.337,1.0643 40.449,1.0163 40.545,1.0163 C40.673,1.0163 42.098,1.2723 42.098,1.5763 C42.098,1.6723 41.793,1.9763 41.762,2.0563 C41.697,2.2003 41.697,2.2643 41.697,2.8883 C41.697,3.3693 41.697,3.5773 42.242,3.5773 L45.059,3.5773 Z" id="Fill-7" fill="#000000"></path>
            <path d="M59.6904,13.8852 C60.1384,13.8852 60.1704,13.6772 60.1704,13.3092 L60.1704,10.6992 C60.1704,10.2672 59.9464,10.2512 59.6264,10.2512 L53.3844,10.2512 C53.0164,10.2512 52.8874,10.3472 52.8874,10.8122 C52.8874,11.1962 52.9364,12.9252 52.9364,13.2772 C52.9364,13.7252 52.9834,13.8852 53.4484,13.8852 L59.6904,13.8852 Z M59.3864,9.8192 C60.1224,9.8192 60.2024,9.8192 60.3314,9.6272 C60.5864,9.2592 60.6674,9.1312 60.8754,9.1312 C61.1634,9.1312 61.8354,9.8192 61.8354,10.0432 C61.8354,10.1232 61.8034,10.2032 61.6754,10.3162 C61.4674,10.4752 61.3874,10.5552 61.3874,10.8122 C61.3874,11.3402 61.4514,13.9492 61.4514,14.5412 C61.4514,15.1812 60.8584,15.4382 60.5704,15.4382 C60.3624,15.4382 60.1224,15.2942 60.1224,15.0702 C60.1224,15.0052 60.1384,14.7172 60.1384,14.6532 C60.1384,14.5252 60.0584,14.3172 59.6584,14.3172 L53.4484,14.3172 C53.2884,14.3172 53.0644,14.3172 53.0164,14.7652 C53.0004,14.9892 52.9514,15.5332 52.2634,15.5332 C51.7674,15.5332 51.7354,15.2452 51.7354,14.8932 C51.7354,14.7172 51.7674,13.8692 51.7674,13.6772 C51.7674,13.0852 51.7674,10.5552 51.6874,10.0272 C51.6714,9.9312 51.5114,9.5152 51.5114,9.4192 C51.5114,9.3392 51.5434,9.2912 51.6394,9.2912 C51.7834,9.2912 52.6954,9.6592 52.8394,9.7072 C53.1284,9.8192 53.3524,9.8192 53.5604,9.8192 L59.3864,9.8192 Z M53.3684,4.5372 C52.9034,4.5372 52.6794,4.5372 52.2154,5.0652 C50.9994,6.4262 50.1344,6.8262 50.1024,6.8262 C50.0704,6.8262 50.0384,6.7942 50.0384,6.7622 C50.0384,6.6982 50.1184,6.6182 50.1344,6.6022 C50.2944,6.4742 50.6794,6.0422 51.0474,5.5132 C52.0874,4.0252 52.4714,2.0722 52.4714,1.7202 C52.4714,1.6402 52.5034,1.5922 52.5674,1.5922 C52.6314,1.5922 54.1044,2.4562 54.1044,2.6482 C54.1044,2.7282 54.0084,2.7772 53.7364,2.9212 C53.5604,3.0012 53.1284,3.8812 53.1284,3.9292 C53.1284,4.1212 53.3844,4.1212 53.4804,4.1212 L55.5614,4.1212 C56.0244,4.1212 56.0244,3.9932 56.0244,2.8882 C56.0244,2.7772 56.0244,1.9922 55.9774,1.6402 C55.9614,1.5762 55.8494,1.2242 55.8494,1.1442 C55.8494,1.0312 55.9934,1.0312 56.0414,1.0312 C56.0734,1.0312 57.5294,1.3202 57.5294,1.6562 C57.5294,1.7202 57.3214,1.9442 57.2894,2.0082 C57.1774,2.1842 57.1774,2.6802 57.1774,2.9052 C57.1774,4.0252 57.1774,4.1212 57.6734,4.1212 L59.4344,4.1212 C60.2344,4.1212 60.2984,4.1212 60.5554,3.7052 C60.8434,3.2732 60.8754,3.2092 61.0194,3.2092 C61.3554,3.2092 62.4914,4.2012 62.4914,4.3932 C62.4914,4.5372 62.3954,4.5372 61.5794,4.5372 L57.6734,4.5372 C57.3694,4.5372 57.2094,4.6332 57.2094,4.9852 C57.2094,5.1142 57.2254,6.9862 57.2254,7.0982 C57.2574,7.4672 57.5294,7.4672 57.7214,7.4672 L60.8434,7.4672 C61.5474,7.4672 61.6114,7.4672 61.8674,7.0502 C62.1074,6.6342 62.2514,6.4102 62.4434,6.4102 C62.6844,6.4102 63.7564,7.3702 63.7564,7.6752 C63.7564,7.8992 63.5484,7.8992 63.1484,7.8992 L52.2154,7.8992 C51.7674,7.8992 50.9674,7.8992 50.3264,7.9302 C50.2784,7.9302 49.8944,7.9782 49.8624,7.9782 C49.8144,7.9782 49.7824,7.9302 49.7184,7.8662 L49.4144,7.4982 C49.3504,7.4342 49.3504,7.4182 49.3504,7.4022 C49.3504,7.3702 49.3824,7.3542 49.3984,7.3542 C49.4944,7.3542 49.9904,7.4022 50.1024,7.4182 C50.5664,7.4342 51.3994,7.4672 52.2954,7.4672 L55.5284,7.4672 C55.7694,7.4672 56.0244,7.4502 56.0244,7.0182 L56.0244,5.0502 C56.0244,4.8092 56.0244,4.5372 55.5614,4.5372 L53.3684,4.5372 Z" id="Fill-9" fill="#000000"></path>
            <path d="M90.0894,9.7553 C90.2654,9.7553 90.4894,9.6753 90.4894,9.4993 C90.4894,9.1633 88.9684,4.7133 88.6804,3.8493 C88.5854,3.5773 88.5524,3.4333 88.4414,3.4333 C88.3444,3.4333 88.3284,3.4813 88.1524,4.0093 C87.7044,5.3053 86.4564,9.3713 86.4564,9.5153 C86.4564,9.7553 86.6964,9.7553 86.9044,9.7553 L90.0894,9.7553 Z M90.8414,14.3813 C90.6654,14.3813 90.4574,14.3333 90.4574,14.1253 C90.4574,13.8693 90.7144,13.8693 91.0974,13.8693 C91.4014,13.8693 91.7544,13.5813 91.7544,13.1653 C91.7544,12.8123 91.3384,11.7083 91.1614,11.2923 C90.8094,10.3953 90.7614,10.2833 90.2334,10.2833 L86.7604,10.2833 C86.1684,10.2833 86.1044,10.4433 85.8474,11.1643 C85.7034,11.5963 85.2714,12.8773 85.2714,13.2453 C85.2714,13.8693 85.7834,13.8693 86.1684,13.8693 C86.3604,13.8693 86.5364,13.9013 86.5364,14.1253 C86.5364,14.3813 86.2964,14.3813 86.1684,14.3813 L83.0944,14.3813 C82.9664,14.3813 82.7584,14.3653 82.7584,14.1413 C82.7584,13.8693 82.9344,13.8693 83.3024,13.8693 C83.7354,13.8693 84.1194,13.7733 84.5194,13.2293 C84.8874,12.7333 86.0714,8.9713 86.4234,7.8343 C86.6314,7.1943 87.6564,4.0573 87.8644,3.3373 C88.0244,2.7763 88.1204,2.4083 89.2574,2.4083 C89.4494,2.4083 89.5454,2.5203 89.6094,2.6643 C89.7534,2.9043 90.0254,3.7363 90.1374,4.1053 C91.2574,7.5783 91.3544,7.9633 92.3624,10.9233 C93.2754,13.6453 93.3864,13.8693 94.2994,13.8693 C94.5074,13.8693 94.6674,13.9653 94.6674,14.1413 C94.6674,14.3813 94.4114,14.3813 94.2994,14.3813 L90.8414,14.3813 Z" id="Fill-11" fill="#808080"></path>
            <path d="M101.0654,3.2407 C100.4894,3.2407 100.0574,3.4967 99.9614,4.0737 C99.9134,4.3447 99.9134,7.7867 99.9134,8.5067 C99.9134,12.7647 99.9134,12.7807 99.9614,13.0367 C100.0894,13.7887 100.7454,13.8687 101.0654,13.8687 L101.8344,13.8687 C104.5554,13.8687 106.1874,11.5327 106.1874,8.3307 C106.1874,6.3137 105.3554,3.2407 101.8984,3.2407 L101.0654,3.2407 Z M101.5614,2.7127 C106.9874,2.7127 107.6284,6.5537 107.6284,8.3947 C107.6284,11.8527 105.6594,14.3817 101.7054,14.3817 L97.3044,14.3817 C97.0644,14.3817 96.8394,14.3817 96.8394,14.1247 C96.8394,13.8687 97.0804,13.8687 97.1754,13.8687 C97.8004,13.8687 98.4884,13.8687 98.6324,13.0367 C98.6804,12.7807 98.6804,12.7647 98.6804,8.5067 C98.6804,7.7547 98.6804,4.3287 98.6324,4.0567 C98.4884,3.2887 97.8004,3.2407 97.4164,3.2407 C97.0164,3.2407 96.8394,3.2407 96.8394,2.9847 C96.8394,2.7127 97.0644,2.7127 97.3044,2.7127 L101.5614,2.7127 Z" id="Fill-13" fill="#808080"></path>
            <path d="M112.9307,2.7124 C113.1067,2.7124 113.3477,2.7124 113.3477,2.9844 C113.3477,3.2404 113.1067,3.2404 112.8507,3.2404 C112.5947,3.2404 111.8107,3.2564 111.8107,3.9134 C111.8107,4.1054 111.8587,4.3134 111.9227,4.4894 C112.5627,6.4904 113.5067,9.1954 114.3237,11.5324 C114.4517,11.9164 114.5317,12.1084 114.6757,12.1084 C114.7717,12.1084 114.8677,11.9324 114.8837,11.8844 C114.8997,11.8524 115.7157,9.5794 115.7957,9.3714 C117.4607,4.7134 117.6527,4.2014 117.6527,3.8654 C117.6527,3.2404 116.9807,3.2404 116.3247,3.2404 C116.2437,3.2404 115.9887,3.2404 115.9887,2.9844 C115.9887,2.7124 116.2277,2.7124 116.4207,2.7124 L119.5257,2.7124 C119.7017,2.7124 119.9417,2.7124 119.9417,2.9844 C119.9417,3.2404 119.7017,3.2404 119.5577,3.2404 C118.5167,3.2404 118.1487,4.2494 117.7487,5.3534 C116.9167,7.6904 115.5877,11.4364 114.7557,13.7894 C114.4677,14.5894 114.4357,14.6854 114.2427,14.6854 C114.0517,14.6854 114.0347,14.6214 113.8267,14.0134 C112.9147,11.4204 111.5227,7.2584 110.6257,4.6654 C110.2257,3.4814 109.8897,3.2404 109.0737,3.2404 C108.9127,3.2404 108.7687,3.1604 108.7687,2.9844 C108.7687,2.7124 109.0097,2.7124 109.1377,2.7124 L112.9307,2.7124 Z" id="Fill-15" fill="#808080"></path>
            <path d="M127.5259,13.8691 C128.5339,13.8691 130.1829,13.7251 131.3519,11.8841 C131.7519,11.2601 131.7839,11.1961 131.9119,11.1961 C132.0399,11.1961 132.1839,11.2761 132.1839,11.4521 C132.1839,11.5321 131.6079,13.0531 131.5119,13.2931 C131.1109,14.3331 131.0949,14.3811 130.0549,14.3811 L122.5159,14.3811 C122.2439,14.3811 122.0199,14.3811 122.0199,14.1251 C122.0199,13.8691 122.1799,13.8691 122.6279,13.8691 C123.0119,13.8691 123.6999,13.8211 123.8439,13.0361 C123.8929,12.7651 123.9089,9.0831 123.9089,8.6191 C123.9089,7.9781 123.9089,4.3451 123.8599,4.0571 C123.6999,3.2411 123.0119,3.2411 122.3719,3.2411 C122.2599,3.2411 122.0199,3.2411 122.0199,2.9851 C122.0199,2.7121 122.2439,2.7121 122.5159,2.7121 L129.8149,2.7121 C130.8069,2.7121 130.8869,2.7441 131.2079,3.5291 C131.3029,3.7531 131.8959,5.2251 131.8959,5.3381 C131.8959,5.4661 131.7839,5.5771 131.6399,5.5771 C131.5439,5.5771 131.5119,5.5461 131.1439,5.0341 C130.6469,4.3291 129.6069,3.2411 128.0699,3.2411 L126.2939,3.2411 C125.6689,3.2411 125.3969,3.5611 125.3329,3.6571 C125.1409,3.9451 125.1409,4.0891 125.1409,5.3531 C125.1409,5.5621 125.1409,7.7391 125.1889,7.8671 C125.2849,8.0581 125.5249,8.0751 125.5729,8.0751 L126.9819,8.0751 C128.7909,8.0751 128.7909,6.9861 128.7909,6.2821 C128.7909,6.2341 128.7909,5.9621 129.0469,5.9621 C129.3189,5.9621 129.3029,6.2341 129.3029,6.3621 C129.2869,6.9541 129.3029,9.8191 129.3029,10.4601 C129.3029,10.5401 129.3029,10.7961 129.0469,10.7961 C128.7909,10.7961 128.7909,10.5881 128.7909,10.2671 C128.7909,8.9071 127.8779,8.5871 126.9819,8.5871 L125.5729,8.5871 C125.3009,8.5871 125.1889,8.7471 125.1569,8.9551 C125.1409,9.0831 125.1409,11.7241 125.1409,11.9641 C125.1409,13.0851 125.1409,13.8691 126.2939,13.8691 L127.5259,13.8691 Z" id="Fill-17" fill="#808080"></path>
            <path d="M137.9414,3.2407 C136.7894,3.2407 136.7894,3.9607 136.7894,5.6097 C136.7894,8.1227 136.7894,8.1707 137.2214,8.1707 L138.5184,8.1707 C140.0864,8.1707 141.4154,7.3067 141.4154,5.6417 C141.4154,4.5217 140.8064,3.2407 138.7264,3.2407 L137.9414,3.2407 Z M138.5184,2.7127 C139.2864,2.7127 142.9354,2.7927 142.9354,5.4817 C142.9354,7.1147 141.7034,7.8507 140.8064,8.2827 C140.2464,8.5547 140.1824,8.5867 140.1824,8.7627 C140.1824,9.1477 141.5264,11.9807 141.8474,12.5887 C142.0714,13.0207 142.5034,13.8687 143.7354,13.8687 C143.8964,13.8687 144.2164,13.8687 144.2164,14.1247 C144.2164,14.3487 143.8964,14.3817 143.8164,14.3817 L141.8154,14.3817 C141.6554,14.3817 141.3354,14.3817 141.0634,13.9167 C140.9664,13.7577 139.8304,11.2757 139.6544,10.8757 C138.7744,8.9387 138.6624,8.6827 138.1014,8.6827 L137.2214,8.6827 C137.1094,8.6827 136.9014,8.7467 136.8534,8.8747 C136.7894,9.0347 136.7894,11.1477 136.7894,11.5157 C136.7894,13.4527 136.7894,13.8687 138.2614,13.8687 C138.3744,13.8687 138.5974,13.8687 138.5974,14.1247 C138.5974,14.3817 138.3094,14.3817 138.1334,14.3817 L134.1804,14.3817 C134.0204,14.3817 133.7794,14.3487 133.7794,14.1247 C133.7794,13.8687 134.0034,13.8687 134.2284,13.8687 C135.3324,13.8687 135.4924,13.3567 135.5404,12.7647 C135.5724,12.2207 135.5724,7.8187 135.5724,7.0667 C135.5724,6.4737 135.5724,4.2337 135.4444,3.8327 C135.2364,3.2407 134.5484,3.2407 134.1804,3.2407 C134.0844,3.2407 133.7484,3.2407 133.7484,2.9527 C133.7484,2.7127 134.0364,2.7127 134.2284,2.7127 L138.5184,2.7127 Z" id="Fill-19" fill="#808080"></path>
            <path d="M154.3179,2.7124 C155.1819,2.7124 155.3739,2.7124 155.6469,3.4334 C155.7749,3.7854 156.4629,5.5934 156.4629,5.7544 C156.4629,5.9294 156.3029,5.9944 156.2069,5.9944 C156.0789,5.9944 156.0299,5.9294 155.6619,5.3214 C154.8139,3.9294 153.8699,3.2404 152.7809,3.2404 C152.1569,3.2404 151.7729,3.4974 151.6769,4.0414 C151.6289,4.3294 151.6289,7.9464 151.6289,8.6194 C151.6289,9.0674 151.6289,12.7644 151.6769,13.0364 C151.8209,13.8534 152.5729,13.8694 153.0059,13.8694 C153.5979,13.8694 153.7259,13.8694 153.7259,14.1254 C153.7259,14.3814 153.5019,14.3814 153.2449,14.3814 L148.7639,14.3814 C148.5399,14.3814 148.2989,14.3814 148.2989,14.1254 C148.2989,13.8694 148.5559,13.8694 148.6509,13.8694 C149.5959,13.8694 150.1879,13.8694 150.3479,13.0364 C150.3959,12.7804 150.3959,12.7644 150.3959,8.5064 C150.3959,4.5534 150.3959,4.1214 150.2839,3.8164 C150.1239,3.3844 149.6919,3.2404 149.2599,3.2404 C147.9789,3.2404 147.0349,4.2494 146.3789,5.3054 C145.9949,5.9294 145.9629,5.9944 145.8179,5.9944 C145.7069,5.9944 145.5619,5.8984 145.5619,5.7544 C145.5619,5.6264 146.2829,3.7054 146.4109,3.3844 C146.6669,2.7124 146.9229,2.7124 147.7229,2.7124 L154.3179,2.7124 Z" id="Fill-21" fill="#808080"></path>
            <path d="M158.5059,14.3813 C158.2979,14.3813 158.0579,14.3813 158.0579,14.1253 C158.0579,13.8693 158.1859,13.8693 158.8099,13.8693 C159.2739,13.8693 160.0429,13.8693 160.2029,13.0363 C160.2509,12.7643 160.2509,9.0833 160.2509,8.6193 C160.2509,7.9633 160.2509,4.3453 160.2029,4.0573 C160.0429,3.2403 159.4659,3.2403 158.4099,3.2403 C158.3139,3.2403 158.0579,3.2403 158.0579,2.9853 C158.0579,2.7123 158.2979,2.7123 158.5219,2.7123 L163.2279,2.7123 C163.4199,2.7123 163.6599,2.7123 163.6599,2.9853 C163.6599,3.2243 163.5159,3.2243 162.9229,3.2243 C162.4439,3.2243 161.7549,3.2403 161.5469,3.9613 C161.4829,4.1853 161.4829,7.7863 161.4829,8.5233 C161.4829,12.7643 161.4829,12.7803 161.5309,13.0363 C161.6749,13.8693 162.2519,13.8693 163.3239,13.8693 C163.4039,13.8693 163.6599,13.8693 163.6599,14.1253 C163.6599,14.3813 163.4199,14.3813 163.2279,14.3813 L158.5059,14.3813 Z" id="Fill-23" fill="#808080"></path>
            <path d="M165.9233,13.789 C165.8113,13.501 165.1233,11.692 165.1233,11.596 C165.1233,11.356 165.3313,11.26 165.4753,11.26 C165.6513,11.26 165.6833,11.34 166.0683,11.932 C166.7723,13.037 168.2123,14.125 169.8293,14.125 C170.9013,14.125 172.1983,13.405 172.1983,11.708 C172.1983,10.251 171.2373,9.739 169.2053,9.035 C166.9803,8.267 165.5073,7.418 165.5073,5.514 C165.5073,3.849 166.6593,2.409 168.7083,2.409 C169.0283,2.409 169.4293,2.456 169.8453,2.537 C170.0213,2.568 170.6933,2.712 170.8053,2.712 C170.9493,2.712 171.0613,2.681 171.1573,2.617 C171.3813,2.44 171.4133,2.409 171.5263,2.409 C171.7173,2.409 171.7663,2.553 171.9253,2.969 C172.0383,3.225 172.7903,5.114 172.7903,5.209 C172.7903,5.418 172.6143,5.466 172.5183,5.466 C172.3903,5.466 172.3583,5.418 172.1023,5.001 C171.6703,4.313 170.8053,2.936 168.8373,2.936 C167.0443,2.936 166.6593,4.377 166.6593,5.05 C166.6593,6.378 167.6203,6.858 169.7173,7.595 C172.9503,8.715 173.3823,9.996 173.3823,11.228 C173.3823,13.389 171.6863,14.685 169.9093,14.685 C169.3333,14.685 168.7733,14.573 168.1803,14.365 C167.7483,14.221 167.6363,14.205 167.5403,14.205 C167.2843,14.205 167.0763,14.269 166.9323,14.414 C166.6593,14.653 166.6283,14.685 166.4673,14.685 C166.2593,14.685 166.2273,14.589 165.9233,13.789" id="Fill-25" fill="#808080"></path>
            <path d="M175.165,14.3813 C174.957,14.3813 174.717,14.3813 174.717,14.1253 C174.717,13.8693 174.845,13.8693 175.469,13.8693 C175.933,13.8693 176.702,13.8693 176.862,13.0363 C176.91,12.7643 176.91,9.0833 176.91,8.6193 C176.91,7.9633 176.91,4.3453 176.862,4.0573 C176.702,3.2403 176.125,3.2403 175.069,3.2403 C174.973,3.2403 174.717,3.2403 174.717,2.9853 C174.717,2.7123 174.957,2.7123 175.181,2.7123 L179.887,2.7123 C180.079,2.7123 180.319,2.7123 180.319,2.9853 C180.319,3.2243 180.175,3.2243 179.582,3.2243 C179.103,3.2243 178.414,3.2403 178.206,3.9613 C178.142,4.1853 178.142,7.7863 178.142,8.5233 C178.142,12.7643 178.142,12.7803 178.19,13.0363 C178.334,13.8693 178.911,13.8693 179.983,13.8693 C180.063,13.8693 180.319,13.8693 180.319,14.1253 C180.319,14.3813 180.079,14.3813 179.887,14.3813 L175.165,14.3813 Z" id="Fill-27" fill="#808080"></path>
            <path d="M182.5937,14.3813 C182.3537,14.3813 182.1137,14.3813 182.1137,14.1253 C182.1137,13.8693 182.3057,13.8693 182.7057,13.8693 C182.9137,13.8693 183.7297,13.8693 183.9867,13.1493 C184.1147,12.7803 184.1307,12.7643 184.1307,8.5233 C184.1307,4.4893 184.1307,4.4733 184.0817,4.2013 C183.8897,3.2403 183.0097,3.2403 182.4657,3.2403 C182.3697,3.2403 182.1137,3.2403 182.1137,2.9853 C182.1137,2.7123 182.3537,2.7123 182.5937,2.7123 L184.1457,2.7123 C185.2987,2.7123 185.3307,2.7603 186.1467,4.0093 C187.1237,5.4823 188.6917,7.8343 189.6687,9.3073 C189.8767,9.6273 191.3487,11.8683 191.4457,11.8683 C191.5097,11.8683 191.5567,11.7563 191.5567,11.5483 C191.5567,11.1003 191.5727,8.4753 191.5727,7.9143 C191.5727,7.3383 191.5727,4.5053 191.5257,4.2173 C191.3327,3.2403 190.5167,3.2403 189.9887,3.2403 C189.8927,3.2403 189.6527,3.2403 189.6527,2.9853 C189.6527,2.7123 189.8767,2.7123 190.1007,2.7123 L193.4297,2.7123 C193.6057,2.7123 193.8457,2.7123 193.8457,2.9853 C193.8457,3.2403 193.6217,3.2403 193.3657,3.2403 C192.0377,3.2403 192.0377,3.9613 192.0377,5.8813 C192.0377,7.0823 192.0527,13.0053 192.0527,14.3333 C192.0527,14.4133 192.0527,14.6853 191.8447,14.6853 C191.7487,14.6853 191.6697,14.6053 191.6367,14.5573 C191.5407,14.4453 185.2667,5.0173 185.1867,4.9053 C184.8987,4.4413 184.8667,4.3773 184.7867,4.3773 C184.7067,4.3773 184.6577,4.5053 184.6577,4.6813 C184.6577,5.2573 184.6427,8.0433 184.6427,8.6833 C184.6427,9.3233 184.6427,12.5083 184.6907,12.8123 C184.8827,13.8693 185.7627,13.8693 186.4507,13.8693 C186.5787,13.8693 186.8197,13.8693 186.8197,14.1253 C186.8197,14.3813 186.6117,14.3813 186.3067,14.3813 L182.5937,14.3813 Z" id="Fill-29" fill="#808080"></path>
            <g id="Group-33" transform="translate(195.000000, 1.646000)">
                <mask id="mask-6" fill="white">
                    <use xlink:href="#path-5"></use>
                </mask>
                <g id="Clip-32"></g>
                <path d="M9.9722,7.7251 C10.1002,7.7251 10.3402,7.7251 10.3402,7.9811 C10.3402,8.1251 10.2442,8.2371 10.0682,8.2371 C9.8442,8.2531 9.5402,8.2691 9.2682,8.6851 C9.0762,8.9901 9.0602,9.2621 9.0602,11.7271 C9.0602,12.2551 8.9962,12.2551 8.3882,12.2551 C8.0992,12.2551 7.6832,12.4311 7.4272,12.5431 C6.3392,12.9921 5.7632,13.0391 5.2662,13.0391 C2.0812,13.0391 0.3042,10.4301 0.3042,6.9891 C0.3042,3.3711 2.2892,0.7631 5.0582,0.7631 C5.3622,0.7631 5.7462,0.7941 6.5952,1.0511 C7.1072,1.2101 7.2352,1.1951 7.3472,1.2101 C7.4752,1.1951 7.5872,1.1791 7.7152,1.0511 C7.9722,0.8271 8.0192,0.7631 8.1632,0.7631 C8.4042,0.7631 8.4352,0.8741 8.7562,1.8351 C8.8522,2.1071 9.4122,3.7561 9.4122,3.8361 C9.4122,4.0281 9.2362,4.1081 9.1242,4.1081 C8.9962,4.1081 8.9642,4.0601 8.7082,3.6121 C7.9392,2.2671 6.4672,1.2901 5.1222,1.2901 C2.9612,1.2901 1.7452,4.1401 1.7452,6.9251 C1.7452,9.8701 3.0892,12.5271 5.4102,12.5271 C6.0672,12.5271 6.7232,12.3031 7.2352,11.7911 C7.6672,11.3591 7.8432,10.9271 7.8432,9.8701 C7.8432,8.3661 7.3792,8.2531 6.1792,8.2531 C6.0832,8.2531 5.8432,8.2531 5.8432,7.9811 C5.8432,7.7251 6.0832,7.7251 6.2752,7.7251 L9.9722,7.7251 Z" id="Fill-31" fill="#808080" mask="url(#mask-6)"></path>
            </g>
        </g>
    </g>
</svg>