<?xml version="1.0" encoding="UTF-8"?>
<svg width="39px" height="11px" viewBox="0 0 39 11" version="1.1" xmlns="http://www.w3.org/2000/svg" xmlns:xlink="http://www.w3.org/1999/xlink">
    <!-- Generator: Sketch 42 (36781) - http://www.bohemiancoding.com/sketch -->
    <title>img_logoWhite.svg</title>
    <desc>Created with Sketch.</desc>
    <defs>
        <polygon id="path-1" points="4.5296 5 0.1736 5 0.1736 0.6515 4.5296 0.6515 4.5296 5"></polygon>
        <polygon id="path-3" points="0 10.0468 38.605 10.0468 38.605 -0.0002 0 -0.0002"></polygon>
    </defs>
    <g id="Page-1" stroke="none" stroke-width="1" fill="none" fill-rule="evenodd">
        <g id="img_logoWhite.svg">
            <path d="M18.3144,9.8388 L19.3514,9.8388 L19.3514,7.6688 C19.3514,6.9738 18.9424,6.3428 18.3104,6.0588 C17.6764,5.7748 16.9364,5.8898 16.4214,6.3558 C16.3804,6.3938 16.3224,6.3938 16.2824,6.3558 C15.7664,5.8978 15.0224,5.7768 14.3934,6.0588 C13.7564,6.3428 13.3494,6.9738 13.3494,7.6688 L13.3494,9.8388 L14.3834,9.8388 L14.3834,7.6688 C14.3834,7.2658 14.7104,6.9408 15.1114,6.9408 C15.5074,6.9408 15.8354,7.2658 15.8354,7.6688 L15.8354,9.8388 L16.8634,9.8388 L16.8634,7.6688 C16.8634,7.2658 17.1914,6.9408 17.5874,6.9408 C17.9884,6.9408 18.3144,7.2658 18.3144,7.6688 L18.3144,9.8388 Z M19.4534,10.0468 L18.2104,10.0468 C18.1524,10.0468 18.1054,9.9998 18.1054,9.9438 L18.1054,7.6688 C18.1054,7.3828 17.8714,7.1518 17.5874,7.1518 C17.3044,7.1518 17.0724,7.3828 17.0724,7.6688 L17.0724,9.9438 C17.0724,9.9998 17.0254,10.0468 16.9684,10.0468 L15.7304,10.0468 C15.6734,10.0468 15.6264,9.9998 15.6264,9.9438 L15.6264,7.6688 C15.6264,7.3828 15.3924,7.1518 15.1114,7.1518 C14.8234,7.1518 14.5934,7.3828 14.5934,7.6688 L14.5934,9.9438 C14.5934,9.9998 14.5454,10.0468 14.4884,10.0468 L13.2454,10.0468 C13.1874,10.0468 13.1414,9.9998 13.1414,9.9438 L13.1414,7.5638 C13.1414,7.5568 13.1444,7.5448 13.1454,7.5358 C13.1934,6.8128 13.6374,6.1668 14.3064,5.8708 C14.9864,5.5668 15.7794,5.6748 16.3524,6.1438 C16.9254,5.6728 17.7124,5.5638 18.3944,5.8708 C19.0624,6.1668 19.5044,6.8128 19.5544,7.5358 C19.5564,7.5448 19.5574,7.5568 19.5574,7.5638 L19.5574,9.9438 C19.5574,9.9998 19.5114,10.0468 19.4534,10.0468 Z" id="Fill-1" fill="#000000"></path>
            <g id="Group-5" transform="translate(20.000000, 5.046800)">
                <mask id="mask-2" fill="white">
                    <use xlink:href="#path-1"></use>
                </mask>
                <g id="Clip-4"></g>
                <path d="M2.3496,2.1055 C1.9536,2.1055 1.6286,2.4275 1.6286,2.8265 C1.6286,3.2235 1.9536,3.5455 2.3496,3.5455 C2.7536,3.5455 3.0796,3.2235 3.0796,2.8265 C3.0796,2.4275 2.7536,2.1055 2.3496,2.1055 M2.3496,3.7565 C1.8366,3.7565 1.4176,3.3385 1.4176,2.8265 C1.4176,2.3105 1.8366,1.8935 2.3496,1.8935 C2.8686,1.8935 3.2876,2.3105 3.2876,2.8265 C3.2876,3.3385 2.8686,3.7565 2.3496,3.7565 M2.3496,0.8605 C1.2676,0.8605 0.3846,1.7445 0.3846,2.8265 C0.3846,3.9095 1.2676,4.7925 2.3496,4.7925 C3.4396,4.7925 4.3226,3.9095 4.3226,2.8265 C4.3226,1.7445 3.4396,0.8605 2.3496,0.8605 M2.3496,5.0005 C1.1526,5.0005 0.1736,4.0265 0.1736,2.8265 C0.1736,1.6255 1.1526,0.6515 2.3496,0.6515 C3.5546,0.6515 4.5296,1.6255 4.5296,2.8265 C4.5296,4.0265 3.5546,5.0005 2.3496,5.0005" id="Fill-3" fill="#000000" mask="url(#mask-2)"></path>
            </g>
            <mask id="mask-4" fill="white">
                <use xlink:href="#path-3"></use>
            </mask>
            <g id="Clip-7"></g>
            <path d="M30.326,9.8388 L31.362,9.8388 L31.362,5.9068 L30.326,5.9068 L30.326,9.8388 Z M31.465,10.0468 L30.221,10.0468 C30.162,10.0468 30.116,9.9998 30.116,9.9438 L30.116,5.8038 C30.116,5.7468 30.162,5.6978 30.221,5.6978 L31.465,5.6978 C31.522,5.6978 31.57,5.7468 31.57,5.8038 L31.57,9.9438 C31.57,9.9998 31.522,10.0468 31.465,10.0468 L31.465,10.0468 Z" id="Fill-6" fill="#000000" mask="url(#mask-4)"></path>
            <path d="M30.8408,4.247 C30.5618,4.247 30.3258,4.485 30.3258,4.767 C30.3258,5.048 30.5548,5.28 30.8408,5.28 C31.1288,5.28 31.3618,5.048 31.3618,4.767 C31.3618,4.485 31.1228,4.247 30.8408,4.247 M30.8408,5.49 C30.4398,5.49 30.1158,5.163 30.1158,4.767 C30.1158,4.362 30.4398,4.038 30.8408,4.038 C31.2408,4.038 31.5698,4.362 31.5698,4.767 C31.5698,5.163 31.2408,5.49 30.8408,5.49" id="Fill-8" fill="#000000" mask="url(#mask-4)"></path>
            <path d="M32.395,9.8388 L33.43,9.8388 L33.43,3.8378 L32.395,3.8378 L32.395,9.8388 Z M33.536,10.0468 L32.29,10.0468 C32.235,10.0468 32.186,9.9998 32.186,9.9438 L32.186,3.7338 C32.186,3.6728 32.235,3.6278 32.29,3.6278 L33.536,3.6278 C33.591,3.6278 33.638,3.6728 33.638,3.7338 L33.638,9.9438 C33.638,9.9998 33.591,10.0468 33.536,10.0468 L33.536,10.0468 Z" id="Fill-9" fill="#000000" mask="url(#mask-4)"></path>
            <polygon id="Fill-10" fill="#000000" mask="url(#mask-4)" points="9.9316 9.9443 3.7226 9.9443 3.7226 8.2913 8.2776 8.2913 8.2776 7.6693 5.7916 7.6693 5.7916 3.7333 9.9316 3.7333 9.9316 5.3853 7.4446 5.3853 7.4446 6.0093 9.9316 6.0093"></polygon>
            <polygon id="Fill-11" fill="#000000" mask="url(#mask-4)" points="9.9316 1.664 3.3026 1.664 3.3026 7.873 1.6506 7.873 1.6506 1.664 -0.0004 1.664 -0.0004 0 9.9316 0"></polygon>
            <polygon id="Fill-12" fill="#C84F36" mask="url(#mask-4)" points="3.738 3.7348 5.394 3.7348 5.394 2.0808 3.738 2.0808"></polygon>
            <polygon id="Fill-13" fill="#5EA745" mask="url(#mask-4)" points="1.668 9.9268 3.305 9.9268 3.305 8.2888 1.668 8.2888"></polygon>
            <path d="M27.3252,7.1523 C26.9212,7.1523 26.5962,7.4743 26.5962,7.8733 C26.5962,8.2703 26.9212,8.5923 27.3252,8.5923 C27.7222,8.5923 28.0482,8.2703 28.0482,7.8733 C28.0482,7.4743 27.7222,7.1523 27.3252,7.1523 L27.3252,7.1523 Z M27.3252,8.8033 C26.8062,8.8033 26.3872,8.3853 26.3872,7.8733 C26.3872,7.3573 26.8062,6.9403 27.3252,6.9403 C27.8402,6.9403 28.2562,7.3573 28.2562,7.8733 C28.2562,8.3853 27.8402,8.8033 27.3252,8.8033 L27.3252,8.8033 Z M25.3572,3.8383 L25.3572,7.8733 C25.3572,8.9563 26.2412,9.8393 27.3252,9.8393 C28.4092,9.8393 29.2882,8.9563 29.2882,7.8733 C29.2882,6.7913 28.4092,5.9073 27.3252,5.9073 C27.0512,5.9073 26.7792,5.9633 26.5342,6.0743 C26.4992,6.0853 26.4632,6.0833 26.4332,6.0653 C26.4042,6.0453 26.3872,6.0123 26.3872,5.9763 L26.3872,3.8383 L25.3572,3.8383 Z M27.3252,10.0473 C26.1252,10.0473 25.1482,9.0733 25.1482,7.8733 L25.1482,3.7333 C25.1482,3.6733 25.1952,3.6283 25.2542,3.6283 L26.4902,3.6283 C26.5512,3.6283 26.5962,3.6733 26.5962,3.7333 L26.5962,5.8273 C26.8262,5.7393 27.0742,5.6983 27.3252,5.6983 C28.5222,5.6983 29.4962,6.6723 29.4962,7.8733 C29.4962,9.0733 28.5222,10.0473 27.3252,10.0473 L27.3252,10.0473 Z" id="Fill-14" fill="#000000" mask="url(#mask-4)"></path>
            <path d="M36.9804,7.3564 L35.8784,7.3564 C35.8344,7.3564 35.7984,7.3314 35.7834,7.2904 C35.7694,7.2494 35.7794,7.2024 35.8114,7.1744 C36.1574,6.8684 36.7074,6.8684 37.0504,7.1744 C37.0804,7.2024 37.0934,7.2494 37.0774,7.2904 C37.0624,7.3314 37.0214,7.3564 36.9804,7.3564 M36.4294,8.8074 C36.2044,8.8074 35.9824,8.7254 35.8114,8.5724 C35.7794,8.5434 35.7694,8.4994 35.7824,8.4594 C35.7984,8.4174 35.8344,8.3904 35.8784,8.3904 L36.9804,8.3904 C37.0214,8.3904 37.0624,8.4174 37.0774,8.4594 C37.0934,8.4994 37.0804,8.5434 37.0504,8.5724 C36.8764,8.7254 36.6564,8.8074 36.4294,8.8074 M36.4294,5.9064 C35.5664,5.9064 34.8154,6.4604 34.5544,7.2834 C34.3944,7.7824 34.4414,8.3154 34.6864,8.7824 C34.9314,9.2474 35.3364,9.5904 35.8394,9.7474 C36.6094,9.9894 37.4844,9.7124 37.9774,9.0834 L37.2554,8.5834 C37.2174,8.5574 37.2004,8.5064 37.2144,8.4634 C37.2284,8.4184 37.2674,8.3904 37.3114,8.3904 L38.3254,8.3904 C38.6044,7.3774 38.0294,6.3194 37.0194,5.9974 C36.8284,5.9334 36.6304,5.9064 36.4294,5.9064 M36.4264,10.0454 C36.2074,10.0454 35.9874,10.0124 35.7774,9.9474 C35.2224,9.7724 34.7714,9.3934 34.5004,8.8794 C34.2334,8.3614 34.1824,7.7744 34.3554,7.2194 C34.6404,6.3074 35.4764,5.6964 36.4294,5.6964 C36.6504,5.6964 36.8724,5.7304 37.0834,5.7954 C38.2254,6.1584 38.8654,7.3824 38.5044,8.5284 C38.4904,8.5694 38.4494,8.5984 38.4054,8.5984 L37.6484,8.5984 L38.1844,8.9714 C38.2114,8.9884 38.2234,9.0124 38.2314,9.0404 C38.2374,9.0654 38.2264,9.0964 38.2144,9.1214 C37.8034,9.7014 37.1364,10.0454 36.4264,10.0454" id="Fill-15" fill="#000000" mask="url(#mask-4)"></path>
        </g>
    </g>
</svg>