<?xml version="1.0" encoding="UTF-8"?>
<svg width="49px" height="13px" viewBox="0 0 49 13" version="1.1" xmlns="http://www.w3.org/2000/svg" xmlns:xlink="http://www.w3.org/1999/xlink">
    <!-- Generator: Sketch 42 (36781) - http://www.bohemiancoding.com/sketch -->
    <title>Page 1</title>
    <desc>Created with Sketch.</desc>
    <defs>
        <polygon id="path-1" points="5.6910359 6.36363636 0.218112821 6.36363636 0.218112821 0.829181818 5.6910359 0.829181818 5.6910359 6.36363636"></polygon>
        <polygon id="path-3" points="0 12.7868364 48.5037179 12.7868364 48.5037179 -0.000254545455 0 -0.000254545455"></polygon>
    </defs>
    <g id="Page-1" stroke="none" stroke-width="1" fill="none" fill-rule="evenodd">
        <g>
            <path d="M23.0104,12.5221091 L24.3132974,12.5221091 L24.3132974,9.76029091 C24.3132974,8.87574545 23.7994256,8.07265455 23.0053744,7.7112 C22.2088103,7.34974545 21.2790667,7.49610909 20.6320154,8.0892 C20.5805026,8.13756364 20.5076308,8.13756364 20.4573744,8.0892 C19.8090667,7.50629091 18.8742974,7.35229091 18.0840154,7.7112 C17.2836821,8.07265455 16.7723231,8.87574545 16.7723231,9.76029091 L16.7723231,12.5221091 L18.0714513,12.5221091 L18.0714513,9.76029091 C18.0714513,9.24738182 18.4822974,8.83374545 18.9861179,8.83374545 C19.4836564,8.83374545 19.895759,9.24738182 19.895759,9.76029091 L19.895759,12.5221091 L21.1873487,12.5221091 L21.1873487,9.76029091 C21.1873487,9.24738182 21.5994513,8.83374545 22.0969897,8.83374545 C22.6008103,8.83374545 23.0104,9.24738182 23.0104,9.76029091 L23.0104,12.5221091 Z M24.4414513,12.7868364 L22.8797333,12.7868364 C22.8068615,12.7868364 22.7478103,12.7270182 22.7478103,12.6557455 L22.7478103,9.76029091 C22.7478103,9.39629091 22.4538103,9.10229091 22.0969897,9.10229091 C21.7414256,9.10229091 21.4499385,9.39629091 21.4499385,9.76029091 L21.4499385,12.6557455 C21.4499385,12.7270182 21.3908872,12.7868364 21.3192718,12.7868364 L19.7638359,12.7868364 C19.6922205,12.7868364 19.6331692,12.7270182 19.6331692,12.6557455 L19.6331692,9.76029091 C19.6331692,9.39629091 19.3391692,9.10229091 18.9861179,9.10229091 C18.6242718,9.10229091 18.3352974,9.39629091 18.3352974,9.76029091 L18.3352974,12.6557455 C18.3352974,12.7270182 18.2749897,12.7868364 18.2033744,12.7868364 L16.6416564,12.7868364 C16.5687846,12.7868364 16.5109897,12.7270182 16.5109897,12.6557455 L16.5109897,9.62665455 C16.5109897,9.61774545 16.514759,9.60247273 16.5160154,9.59101818 C16.5763231,8.67083636 17.1341692,7.84865455 17.9747077,7.47192727 C18.8290667,7.08501818 19.8254,7.22247273 20.5453231,7.81938182 C21.2652462,7.21992727 22.254041,7.0812 23.1109128,7.47192727 C23.9501949,7.84865455 24.5055282,8.67083636 24.5683487,9.59101818 C24.5708615,9.60247273 24.5721179,9.61774545 24.5721179,9.62665455 L24.5721179,12.6557455 C24.5721179,12.7270182 24.5143231,12.7868364 24.4414513,12.7868364 Z" id="Fill-1" fill="#000000"></path>
            <g id="Group-5" transform="translate(25.128205, 6.423200)">
                <mask id="mask-2" fill="white">
                    <use xlink:href="#path-1"></use>
                </mask>
                <g id="Clip-4"></g>
                <path d="M2.95206154,2.67972727 C2.45452308,2.67972727 2.04618974,3.08954545 2.04618974,3.59736364 C2.04618974,4.10263636 2.45452308,4.51245455 2.95206154,4.51245455 C3.45965128,4.51245455 3.86924103,4.10263636 3.86924103,3.59736364 C3.86924103,3.08954545 3.45965128,2.67972727 2.95206154,2.67972727 M2.95206154,4.781 C2.30752308,4.781 1.78108718,4.249 1.78108718,3.59736364 C1.78108718,2.94063636 2.30752308,2.40990909 2.95206154,2.40990909 C3.60413846,2.40990909 4.13057436,2.94063636 4.13057436,3.59736364 C4.13057436,4.249 3.60413846,4.781 2.95206154,4.781 M2.95206154,1.09518182 C1.59262564,1.09518182 0.483215385,2.22027273 0.483215385,3.59736364 C0.483215385,4.97572727 1.59262564,6.09954545 2.95206154,6.09954545 C4.32154872,6.09954545 5.43095897,4.97572727 5.43095897,3.59736364 C5.43095897,2.22027273 4.32154872,1.09518182 2.95206154,1.09518182 M2.95206154,6.36427273 C1.44813846,6.36427273 0.218112821,5.12463636 0.218112821,3.59736364 C0.218112821,2.06881818 1.44813846,0.829181818 2.95206154,0.829181818 C4.4660359,0.829181818 5.6910359,2.06881818 5.6910359,3.59736364 C5.6910359,5.12463636 4.4660359,6.36427273 2.95206154,6.36427273" id="Fill-3" fill="#000000" mask="url(#mask-2)"></path>
            </g>
            <mask id="mask-4" fill="white">
                <use xlink:href="#path-3"></use>
            </mask>
            <g id="Clip-7"></g>
            <path d="M38.1018974,12.5221091 L39.4035385,12.5221091 L39.4035385,7.51774545 L38.1018974,7.51774545 L38.1018974,12.5221091 Z M39.5329487,12.7868364 L37.9699744,12.7868364 C37.8958462,12.7868364 37.8380513,12.7270182 37.8380513,12.6557455 L37.8380513,7.38665455 C37.8380513,7.31410909 37.8958462,7.25174545 37.9699744,7.25174545 L39.5329487,7.25174545 C39.6045641,7.25174545 39.6648718,7.31410909 39.6648718,7.38665455 L39.6648718,12.6557455 C39.6648718,12.7270182 39.6045641,12.7868364 39.5329487,12.7868364 L39.5329487,12.7868364 Z" id="Fill-6" fill="#000000" mask="url(#mask-4)"></path>
            <path d="M38.7486974,5.40527273 C38.398159,5.40527273 38.1016462,5.70818182 38.1016462,6.06709091 C38.1016462,6.42472727 38.3893641,6.72 38.7486974,6.72 C39.1105436,6.72 39.4032872,6.42472727 39.4032872,6.06709091 C39.4032872,5.70818182 39.1030051,5.40527273 38.7486974,5.40527273 M38.7486974,6.98727273 C38.2448769,6.98727273 37.8378,6.57109091 37.8378,6.06709091 C37.8378,5.55163636 38.2448769,5.13927273 38.7486974,5.13927273 C39.2512615,5.13927273 39.6646205,5.55163636 39.6646205,6.06709091 C39.6646205,6.57109091 39.2512615,6.98727273 38.7486974,6.98727273" id="Fill-8" fill="#000000" mask="url(#mask-4)"></path>
            <path d="M40.7014103,12.5221091 L42.0017949,12.5221091 L42.0017949,4.88447273 L40.7014103,4.88447273 L40.7014103,12.5221091 Z M42.1349744,12.7868364 L40.5694872,12.7868364 C40.5003846,12.7868364 40.4388205,12.7270182 40.4388205,12.6557455 L40.4388205,4.75210909 C40.4388205,4.67447273 40.5003846,4.6172 40.5694872,4.6172 L42.1349744,4.6172 C42.2040769,4.6172 42.2631282,4.67447273 42.2631282,4.75210909 L42.2631282,12.6557455 C42.2631282,12.7270182 42.2040769,12.7868364 42.1349744,12.7868364 L42.1349744,12.7868364 Z" id="Fill-9" fill="#000000" mask="url(#mask-4)"></path>
            <polygon id="Fill-10" fill="#000000" mask="url(#mask-4)" points="12.4781641 12.6563818 4.67711282 12.6563818 4.67711282 10.5525636 10.4000615 10.5525636 10.4000615 9.76092727 7.27662564 9.76092727 7.27662564 4.75147273 12.4781641 4.75147273 12.4781641 6.85401818 9.35347179 6.85401818 9.35347179 7.6482 12.4781641 7.6482"></polygon>
            <polygon id="Fill-11" fill="#000000" mask="url(#mask-4)" points="12.4781641 2.11781818 4.14942051 2.11781818 4.14942051 10.0201818 2.07383077 10.0201818 2.07383077 2.11781818 -0.000502564103 2.11781818 -0.000502564103 0 12.4781641 0"></polygon>
            <polygon id="Fill-12" fill="#C84F36" mask="url(#mask-4)" points="4.69646154 4.75338182 6.77707692 4.75338182 6.77707692 2.64829091 4.69646154 2.64829091"></polygon>
            <polygon id="Fill-13" fill="#5EA745" mask="url(#mask-4)" points="2.09569231 12.6341091 4.1524359 12.6341091 4.1524359 10.5493818 2.09569231 10.5493818"></polygon>
            <path d="M34.3316615,9.10292727 C33.8240718,9.10292727 33.4157385,9.51274545 33.4157385,10.0205636 C33.4157385,10.5258364 33.8240718,10.9356545 34.3316615,10.9356545 C34.8304564,10.9356545 35.2400462,10.5258364 35.2400462,10.0205636 C35.2400462,9.51274545 34.8304564,9.10292727 34.3316615,9.10292727 L34.3316615,9.10292727 Z M34.3316615,11.2042 C33.6795846,11.2042 33.1531487,10.6722 33.1531487,10.0205636 C33.1531487,9.36383636 33.6795846,8.83310909 34.3316615,8.83310909 C34.9787128,8.83310909 35.5013795,9.36383636 35.5013795,10.0205636 C35.5013795,10.6722 34.9787128,11.2042 34.3316615,11.2042 L34.3316615,11.2042 Z M31.8590462,4.88510909 L31.8590462,10.0205636 C31.8590462,11.3989273 32.9697128,12.5227455 34.3316615,12.5227455 C35.6936103,12.5227455 36.7979949,11.3989273 36.7979949,10.0205636 C36.7979949,8.64347273 35.6936103,7.51838182 34.3316615,7.51838182 C33.9874051,7.51838182 33.6456615,7.58965455 33.337841,7.73092727 C33.2938667,7.74492727 33.2486359,7.74238182 33.2109436,7.71947273 C33.1745077,7.69401818 33.1531487,7.65201818 33.1531487,7.6062 L33.1531487,4.88510909 L31.8590462,4.88510909 Z M34.3316615,12.7874727 C32.8239692,12.7874727 31.5964564,11.5478364 31.5964564,10.0205636 L31.5964564,4.75147273 C31.5964564,4.67510909 31.6555077,4.61783636 31.7296359,4.61783636 L33.282559,4.61783636 C33.3592,4.61783636 33.4157385,4.67510909 33.4157385,4.75147273 L33.4157385,7.41656364 C33.7047128,7.30456364 34.0163026,7.25238182 34.3316615,7.25238182 C35.8355846,7.25238182 37.0593282,8.49201818 37.0593282,10.0205636 C37.0593282,11.5478364 35.8355846,12.7874727 34.3316615,12.7874727 L34.3316615,12.7874727 Z" id="Fill-14" fill="#000000" mask="url(#mask-4)"></path>
            <path d="M46.4625538,9.36269091 L45.0779897,9.36269091 C45.0227077,9.36269091 44.9774769,9.33087273 44.9586308,9.27869091 C44.941041,9.22650909 44.9536051,9.16669091 44.9938103,9.13105455 C45.4285282,8.7416 46.1195538,8.7416 46.5505026,9.13105455 C46.5881949,9.16669091 46.6045282,9.22650909 46.5844256,9.27869091 C46.5655795,9.33087273 46.5140667,9.36269091 46.4625538,9.36269091 M45.7702718,11.2094182 C45.4875795,11.2094182 45.2086564,11.1050545 44.9938103,10.9103273 C44.9536051,10.8734182 44.941041,10.8174182 44.9573744,10.7665091 C44.9774769,10.7130545 45.0227077,10.6786909 45.0779897,10.6786909 L46.4625538,10.6786909 C46.5140667,10.6786909 46.5655795,10.7130545 46.5844256,10.7665091 C46.6045282,10.8174182 46.5881949,10.8734182 46.5505026,10.9103273 C46.3318872,11.1050545 46.0554769,11.2094182 45.7702718,11.2094182 M45.7702718,7.51723636 C44.6859897,7.51723636 43.7424256,8.22232727 43.4145026,9.26978182 C43.2134769,9.90487273 43.2725282,10.5832364 43.5803487,11.1776 C43.8881692,11.7694182 44.3970154,12.2059636 45.0289897,12.4057818 C45.9964256,12.7137818 47.0957846,12.3612364 47.7151949,11.5606909 L46.8080667,10.9243273 C46.7603231,10.8912364 46.7389641,10.8263273 46.7565538,10.7716 C46.7741436,10.7143273 46.8231436,10.6786909 46.8784256,10.6786909 L48.1524256,10.6786909 C48.5029641,9.38941818 47.7805282,8.04287273 46.5115538,7.63305455 C46.2715795,7.5516 46.0228103,7.51723636 45.7702718,7.51723636 M45.7665026,12.7850545 C45.4913487,12.7850545 45.2149385,12.7430545 44.9510923,12.6603273 C44.2537846,12.4376 43.6871436,11.9552364 43.3466564,11.3010545 C43.0111949,10.6417818 42.9471179,9.89469091 43.1644769,9.18832727 C43.5225538,8.0276 44.5729128,7.24996364 45.7702718,7.24996364 C46.0479385,7.24996364 46.3268615,7.29323636 46.5919641,7.37596364 C48.0267846,7.83796364 48.8308872,9.39578182 48.3773231,10.8543273 C48.3597333,10.9065091 48.3082205,10.9434182 48.2529385,10.9434182 L47.3018359,10.9434182 L47.9752718,11.4181455 C48.0091949,11.4397818 48.0242718,11.4703273 48.0343231,11.5059636 C48.0418615,11.5377818 48.028041,11.5772364 48.0129641,11.6090545 C47.4965795,12.3472364 46.6585538,12.7850545 45.7665026,12.7850545" id="Fill-15" fill="#000000" mask="url(#mask-4)"></path>
        </g>
    </g>
</svg>