<svg id="bnr_tres.png" xmlns="http://www.w3.org/2000/svg" width="196" height="128" viewBox="0 0 196 128">
  <metadata><?xpacket begin="﻿" id="W5M0MpCehiHzreSzNTczkc9d"?>
<x:xmpmeta xmlns:x="adobe:ns:meta/" x:xmptk="Adobe XMP Core 5.6-c140 79.160451, 2017/05/06-01:08:21        ">
   <rdf:RDF xmlns:rdf="http://www.w3.org/1999/02/22-rdf-syntax-ns#">
      <rdf:Description rdf:about=""/>
   </rdf:RDF>
</x:xmpmeta>
                                                                                                    
                                                                                                    
                                                                                                    
                                                                                                    
                                                                                                    
                                                                                                    
                                                                                                    
                                                                                                    
                                                                                                    
                                                                                                    
                                                                                                    
                                                                                                    
                                                                                                    
                                                                                                    
                                                                                                    
                                                                                                    
                                                                                                    
                                                                                                    
                                                                                                    
                                                                                                    
                           
<?xpacket end="w"?></metadata>
<defs>
    <style>
      .cls-1 {
        fill: #fff;
      }

      .cls-2 {
        fill-rule: evenodd;
      }
    </style>
  </defs>
  <rect id="長方形_2" data-name="長方形 2" class="cls-1" width="196" height="128"/>
  <path id="シェイプ_1" data-name="シェイプ 1" class="cls-2" d="M979,480.935a0.241,0.241,0,0,1-.24.24H895a0.24,0.24,0,0,1-.238-0.24V446.242A0.239,0.239,0,0,1,895,446H978.76a0.241,0.241,0,0,1,.24.241v34.693Zm-164.048,15.1a0.245,0.245,0,0,0-.244-0.24s-0.913,0-1.531.015-1.232.033-1.849,0.066-1.213.071-1.785,0.115-1.3.133-1.3,0.133a0.159,0.159,0,0,1-.186-0.205,5.038,5.038,0,0,0,.11-0.812,5.7,5.7,0,0,0-.113-0.779,0.182,0.182,0,0,1,.19-0.229s2.586,0.076,3.95.108,2.758,0.049,4.187.049,2.824-.016,4.187-0.049,3.95-.108,3.95-0.108a0.182,0.182,0,0,1,.19.229,5.817,5.817,0,0,0-.114.811,4.85,4.85,0,0,0,.11.78,0.158,0.158,0,0,1-.185.205s-0.732-.09-1.305-0.133-1.169-.082-1.786-0.115-1.232-.054-1.849-0.066-1.531-.015-1.531-0.015a0.246,0.246,0,0,0-.244.24l-0.09,6.292c0,0.132,0,.349,0,0.482v5.147c0,0.131,0,.348,0,0.481,0,0,.024,2.617.079,4.013s0.167,3.883.167,3.883a0.21,0.21,0,0,1-.227.225s-0.789-.051-1.352-0.051-1.353.051-1.353,0.051a0.211,0.211,0,0,1-.227-0.225s0.114-2.486.168-3.883,0.078-4.013.078-4.013c0-.133,0-0.35,0-0.481v-5.147c0-.133,0-0.35,0-0.482Zm12.917,2.295c-0.054-1.385-.168-4-0.168-4a0.211,0.211,0,0,1,.228-0.225s1.006,0.067,1.611.1,1.223,0.049,1.851.049,1.245-.027,1.851-0.081,1.222-.083,1.851-0.083a12.522,12.522,0,0,1,2.6.262,6.3,6.3,0,0,1,2.159.867,4.372,4.372,0,0,1,1.461,1.588,5.721,5.721,0,0,1-.162,5.153,6.534,6.534,0,0,1-1.705,1.865,8.391,8.391,0,0,1-2.158,1.146,16.678,16.678,0,0,1-1.86.493,0.136,0.136,0,0,0-.086.236s0.468,0.6.923,1.185,0.962,1.239,1.526,1.947,1.147,1.451,1.753,2.226,1.189,1.516,1.752,2.224,1.093,1.359,1.591,1.947,1.037,1.167,1.037,1.167c0.091,0.1.057,0.164-.073,0.151,0,0-.412-0.042-0.736-0.042H841.2c-0.325,0-.7.041-0.7,0.041a0.451,0.451,0,0,1-.377-0.17s-0.678-.95-1.338-1.866-1.39-1.9-2.191-2.945-1.618-2.089-2.451-3.125-2.127-2.458-2.127-2.458a0.621,0.621,0,0,0-.4-0.177h-0.756a0.241,0.241,0,0,0-.239.241v1.908c0,0.131,0,.348,0,0.481,0,0,.025,2.617.08,4.013s0.167,3.883.167,3.883a0.21,0.21,0,0,1-.227.225s-0.791-.051-1.353-0.051-1.352.051-1.352,0.051a0.21,0.21,0,0,1-.227-0.225s0.113-2.486.167-3.883,0.079-4.013.079-4.013c0-.133,0-0.35,0-0.481v-5.147c0-.133,0-0.35,0-0.482,0,0-.025-2.611-0.079-4m3.734,6.233c0.356,0.023.751,0.033,1.184,0.033a10.068,10.068,0,0,0,2.094-.229,6.051,6.051,0,0,0,2-.8,4.746,4.746,0,0,0,1.51-1.538,4.545,4.545,0,0,0,.6-2.439,4.262,4.262,0,0,0-.471-2.11,3.768,3.768,0,0,0-1.217-1.325,4.634,4.634,0,0,0-1.624-.671,8.594,8.594,0,0,0-1.72-.18q-1.137,0-1.883.049c-0.5.033-1.028,0.09-1.028,0.09a0.285,0.285,0,0,0-.247.266s-0.078,2.147-.121,3.325-0.063,3.294-.063,3.294c0,0.132,0,.349,0,0.482v1.383a0.3,0.3,0,0,0,.236.282s0.4,0.068.755,0.089m15.17-6.282c-0.055-1.4-.168-3.948-0.168-3.948a0.216,0.216,0,0,1,.228-0.23s1.7,0.071,2.667.1,1.931,0.048,2.9.048,1.937-.015,2.89-0.048,2.65-.1,2.65-0.1a0.19,0.19,0,0,1,.2.228,4.562,4.562,0,0,0,0,1.487,0.185,0.185,0,0,1-.2.222s-1.088-.071-1.661-0.116l-1.817-.131q-0.959-.065-2.095-0.114c-0.758-.032-2.488-0.047-2.488-0.047a0.251,0.251,0,0,0-.248.239s-0.04,1.123-.072,1.755-0.048,1.353-.048,2.16q0,1.276.016,2.487c0.01,0.807.014,1.592,0.014,1.592a0.242,0.242,0,0,0,.241.24s1.567-.01,2.325-0.032,1.45-.049,2.078-0.082,1.206-.065,1.736-0.1,1.272-.094,1.272-0.094a0.181,0.181,0,0,1,.2.217,6.485,6.485,0,0,0-.062.777,6.115,6.115,0,0,0,.062.744,0.179,0.179,0,0,1-.2.214s-0.979-.1-1.726-0.14-1.493-.07-2.239-0.082-1.451-.021-2.111-0.033-1.335-.014-1.335-0.014a0.243,0.243,0,0,0-.243.239s0,0.168-.012.4-0.014.625-.014,0.625c0,0.133,0,.349,0,0.482v3.24s0,2.029.016,2.835,0.039,1.592.039,1.592a0.252,0.252,0,0,0,.248.241h2.033q1.235,0,2.42-.049t2.239-.131c0.7-.054,1.6-0.206,1.6-0.206a0.15,0.15,0,0,1,.184.195,1.919,1.919,0,0,0-.029.272c-0.012.186-.017,0.355-0.017,0.507a3.608,3.608,0,0,0,.051.615,0.182,0.182,0,0,1-.192.228s-1.7-.057-2.667-0.057h-5.892c-0.974,0-2.716.058-2.716,0.058a0.221,0.221,0,0,1-.228-0.233s0.113-2.546.168-3.932,0.079-4,.079-4c0-.132,0-0.349,0-0.481v-5.147c0-.133,0-0.349,0-0.482,0,0-.025-2.617-0.079-4.013m15.532,15.233a5.409,5.409,0,0,0,1.071,1.1,5.47,5.47,0,0,0,1.478.8,5.411,5.411,0,0,0,1.882.311,4.774,4.774,0,0,0,1.932-.377,4.322,4.322,0,0,0,2.385-2.52,5.216,5.216,0,0,0,.325-1.849,3.528,3.528,0,0,0-.763-2.388,6.3,6.3,0,0,0-1.9-1.473,22.176,22.176,0,0,0-2.451-1.08,12.471,12.471,0,0,1-2.45-1.227,6.52,6.52,0,0,1-1.9-1.881,5.475,5.475,0,0,1-.763-3.077,6.259,6.259,0,0,1,.486-2.5,5.44,5.44,0,0,1,1.413-1.948,6.651,6.651,0,0,1,2.223-1.276,8.754,8.754,0,0,1,2.922-.458,8.621,8.621,0,0,1,2.694.376,10.544,10.544,0,0,1,1.912,1.028,0.292,0.292,0,0,1,.1.352,9.259,9.259,0,0,0-.385.96c-0.13.414-.337,1.336-0.337,1.336a0.289,0.289,0,0,1-.248.235,0.353,0.353,0,0,1-.284-0.224s-0.165-.415-0.349-0.774a3.843,3.843,0,0,0-.746-1,4.2,4.2,0,0,0-1.12-.769,3.588,3.588,0,0,0-1.559-.311,4.605,4.605,0,0,0-1.671.3,3.985,3.985,0,0,0-1.331.835,3.675,3.675,0,0,0-.877,1.292,4.267,4.267,0,0,0-.309,1.636,3.586,3.586,0,0,0,.763,2.422,6.522,6.522,0,0,0,1.9,1.489,18.682,18.682,0,0,0,2.451,1.08,13.708,13.708,0,0,1,2.451,1.161,6.291,6.291,0,0,1,1.9,1.768,4.9,4.9,0,0,1,.762,2.879,7.58,7.58,0,0,1-.535,2.846,6.725,6.725,0,0,1-1.558,2.341,6.949,6.949,0,0,1-2.5,1.538,9.757,9.757,0,0,1-3.361.539,8.312,8.312,0,0,1-3.262-.539,13.941,13.941,0,0,1-1.9-1.092,0.335,0.335,0,0,1-.118-0.363,10.861,10.861,0,0,0,.328-1.13c0.075-.4.182-1.315,0.182-1.315a0.256,0.256,0,0,1,.223-0.24,0.4,0.4,0,0,1,.3.214,9.127,9.127,0,0,0,.588.981m29.93-32.579a0.24,0.24,0,0,1-.238.24H808.239a0.241,0.241,0,0,1-.239-0.24V446.242a0.241,0.241,0,0,1,.239-0.241H892a0.24,0.24,0,0,1,.238.241v34.693Zm10.357,22.217c-0.129,0-.264,0-0.4,0s-0.283.007-.424,0.015l-0.408.025c-0.131.012-.248,0.023-0.353,0.039a0.912,0.912,0,0,0,.038-0.24,1.029,1.029,0,0,0-.038-0.232q0.49,0.015.958,0.026c0.312,0.008.631,0.011,0.957,0.011s0.646,0,.957-0.011,0.632-.016.957-0.026a1.079,1.079,0,0,0-.036.239,0.921,0.921,0,0,0,.036.233c-0.1-.016-0.221-0.027-0.351-0.039l-0.409-.025q-0.212-.012-0.423-0.015c-0.141,0-.276,0-0.4,0q-0.022.771-.023,1.548v1.287q0,0.495.019,0.972t0.041,0.943c-0.115-.01-0.235-0.015-0.364-0.015s-0.25,0-.364.015q0.022-.463.041-0.943c0.013-.318.018-0.642,0.018-0.972V504.7q0-.777-0.021-1.548m7.651,0.58c-0.012-.317-0.025-0.64-0.041-0.969,0.065,0.011.127,0.019,0.186,0.026a1.523,1.523,0,0,0,.179.012,1.5,1.5,0,0,0,.177-0.012c0.059-.007.121-0.015,0.186-0.026q-0.022.493-.041,0.969t-0.018.968v1.287c0,0.33.006,0.653,0.018,0.972s0.026,0.634.041,0.943c-0.114-.009-0.235-0.015-0.363-0.015s-0.251.006-.365,0.015c0.016-.309.029-0.623,0.041-0.943s0.019-.642.019-0.972v-0.673c-0.267,0-.526-0.009-0.775-0.011s-0.509,0-.776,0-0.526,0-.776,0-0.508.006-.775,0.011v0.673c0,0.33.006,0.653,0.018,0.972s0.027,0.634.042,0.943c-0.114-.009-0.236-0.015-0.364-0.015s-0.25.006-.364,0.015c0.015-.309.029-0.623,0.04-0.943s0.019-.642.019-0.972V504.7c0-.329,0-0.652-0.019-0.968s-0.025-.64-0.04-0.969c0.065,0.011.126,0.019,0.185,0.026a1.537,1.537,0,0,0,.179.012,1.52,1.52,0,0,0,.178-0.012c0.059-.007.121-0.015,0.186-0.026q-0.023.493-.042,0.969t-0.018.968v0.263l0.775,0.014q0.375,0.008.776,0.008t0.776-.008l0.775-.014V504.7q0-.493-0.019-0.968m2.887-.011c-0.012-.32-0.026-0.638-0.041-0.958,0.223,0.01.444,0.019,0.665,0.026s0.441,0.011.664,0.011,0.442,0,.66-0.011,0.438-.016.661-0.026a1.107,1.107,0,0,0,0,.449l-0.435-.03-0.415-.03c-0.146-.009-0.306-0.019-0.479-0.026s-0.381-.011-0.623-0.011c0,0.159-.011.312-0.018,0.456s-0.012.31-.012,0.494,0,0.384,0,.569,0,0.324,0,.418c0.217,0,.413,0,0.586-0.007s0.331-.012.475-0.019l0.4-.022q0.182-.012.345-0.027a1.188,1.188,0,0,0-.023.233,1.143,1.143,0,0,0,.023.224c-0.129-.015-0.279-0.027-0.449-0.038s-0.341-.015-0.512-0.018l-0.483-.008-0.359,0c0,0.045,0,.093,0,0.146s0,0.119,0,.2v0.74q0,0.426,0,.7c0,0.185.006,0.324,0.011,0.419h0.519c0.188,0,.373,0,0.553-0.011s0.352-.017.512-0.03a3.622,3.622,0,0,0,.42-0.056,0.5,0.5,0,0,0-.019.116c0,0.042,0,.081,0,0.116a0.69,0.69,0,0,0,.022.194q-0.334-.015-0.664-0.015h-1.347q-0.334,0-.676.015,0.022-.478.041-0.953c0.013-.317.018-0.64,0.018-0.969v-1.287c0-.329,0-0.653-0.018-0.972m7.689,3.482a1.23,1.23,0,0,0,.244.251,1.283,1.283,0,0,0,.338.182,1.216,1.216,0,0,0,.43.072,1.1,1.1,0,0,0,.442-0.086,1,1,0,0,0,.334-0.233,1.027,1.027,0,0,0,.212-0.343,1.233,1.233,0,0,0,.074-0.423,0.81,0.81,0,0,0-.175-0.546,1.456,1.456,0,0,0-.434-0.337,5.073,5.073,0,0,0-.56-0.246,2.821,2.821,0,0,1-.56-0.281,1.477,1.477,0,0,1-.435-0.431,1.249,1.249,0,0,1-.174-0.7,1.434,1.434,0,0,1,.111-0.572,1.242,1.242,0,0,1,.323-0.445,1.507,1.507,0,0,1,.509-0.293,2.012,2.012,0,0,1,.667-0.1,1.974,1.974,0,0,1,.616.086,1.568,1.568,0,0,1,.483.265,1.649,1.649,0,0,0-.112.27c-0.029.094-.059,0.213-0.089,0.359h-0.089a2.4,2.4,0,0,0-.1-0.229,0.92,0.92,0,0,0-.172-0.227,0.968,0.968,0,0,0-.256-0.176,0.8,0.8,0,0,0-.356-0.072,1.05,1.05,0,0,0-.382.068,0.917,0.917,0,0,0-.3.191,0.832,0.832,0,0,0-.2.295,1,1,0,0,0-.07.375,0.814,0.814,0,0,0,.174.552,1.475,1.475,0,0,0,.435.341,4.135,4.135,0,0,0,.559.246,3.293,3.293,0,0,1,.561.266,1.444,1.444,0,0,1,.434.4,1.125,1.125,0,0,1,.174.659,1.756,1.756,0,0,1-.122.651,1.535,1.535,0,0,1-.356.534,1.573,1.573,0,0,1-.572.352,2.232,2.232,0,0,1-.767.123,1.906,1.906,0,0,1-.746-0.123,1.99,1.99,0,0,1-.479-0.28,1.883,1.883,0,0,0,.093-0.311c0.017-.092.033-0.21,0.047-0.355h0.09a1.422,1.422,0,0,0,.16.273m4.4-2.992a2.367,2.367,0,0,1,.571-0.842,2.452,2.452,0,0,1,.88-0.524,3.6,3.6,0,0,1,2.248,0,2.448,2.448,0,0,1,.879.524,2.369,2.369,0,0,1,.572.842,3.248,3.248,0,0,1,0,2.266,2.36,2.36,0,0,1-.572.842,2.328,2.328,0,0,1-.879.512,3.844,3.844,0,0,1-2.248,0,2.332,2.332,0,0,1-.88-0.512,2.358,2.358,0,0,1-.571-0.842,3.233,3.233,0,0,1,0-2.266m4.471,0.059a2.037,2.037,0,0,0-.434-0.747,1.745,1.745,0,0,0-.653-0.439,2.3,2.3,0,0,0-.813-0.142,2.268,2.268,0,0,0-.805.142,1.737,1.737,0,0,0-.653.439,2.01,2.01,0,0,0-.434.747,3.772,3.772,0,0,0,0,2.147,2.022,2.022,0,0,0,.434.748,1.723,1.723,0,0,0,.653.438,2.268,2.268,0,0,0,.805.142,2.3,2.3,0,0,0,.813-0.142,1.731,1.731,0,0,0,.653-0.438,2.05,2.05,0,0,0,.434-0.748,3.772,3.772,0,0,0,0-2.147m2.755-.538q-0.018-.476-0.04-0.969c0.222,0.011.444,0.019,0.664,0.026s0.442,0.012.664,0.012,0.447,0,.675-0.012,0.475-.015.742-0.026a1.156,1.156,0,0,0,0,.449c-0.134-.015-0.294-0.029-0.482-0.041s-0.379-.023-0.575-0.03-0.383-.014-0.564-0.019-0.33-.007-0.449-0.007c0,0.174-.009.342-0.011,0.5s0,0.319,0,.479,0,0.335,0,.482,0,0.3,0,.46q0.49,0,.968-0.015t0.947-.059a0.851,0.851,0,0,0,0,.448c-0.123-.015-0.263-0.026-0.419-0.033s-0.318-.014-0.487-0.019-0.338-.007-0.511-0.007h-0.5v0.635c0,0.33.006,0.653,0.019,0.972s0.026,0.634.041,0.943c-0.114-.009-0.235-0.015-0.364-0.015s-0.25.006-.363,0.015q0.023-.463.04-0.943c0.013-.319.019-0.642,0.019-0.972V504.7q0-.493-0.019-0.968m8.242,4.17a1.554,1.554,0,0,0-.2-0.015H940.1a1.513,1.513,0,0,0-.2.015c-0.035-.115-0.082-0.253-0.141-0.415s-0.126-.332-0.2-0.509l-0.219-.538c-0.074-.182-0.144-0.355-0.208-0.52-0.158,0-.319-0.008-0.482-0.011s-0.326,0-.49,0-0.3,0-.453,0-0.3.006-.453,0.011q-0.237.584-.43,1.111c-0.128.351-.225,0.642-0.29,0.871a2.51,2.51,0,0,0-.548,0q0.6-1.308,1.172-2.6t1.15-2.633h0.141q0.178,0.433.386,0.939t0.423,1.021q0.216,0.516.43,1.024t0.4,0.947c0.126,0.292.239,0.552,0.341,0.782s0.185,0.4.249,0.523m-3.288-2.326c0.129,0,.263,0,0.4.007s0.273,0.007.4,0.007,0.277,0,.415,0,0.277-.006.416-0.011l-0.823-1.9Zm8.238-2.424c-0.128,0-.263,0-0.4,0s-0.282.007-.423,0.015l-0.408.025c-0.132.012-.249,0.023-0.353,0.039a0.955,0.955,0,0,0,.038-0.24,1.09,1.09,0,0,0-.038-0.232c0.327,0.01.645,0.019,0.957,0.026s0.631,0.011.958,0.011,0.645,0,.958-0.011,0.63-.016.957-0.026a0.982,0.982,0,0,0-.037.239,0.844,0.844,0,0,0,.037.233c-0.105-.016-0.222-0.027-0.353-0.039l-0.408-.025q-0.212-.012-0.423-0.015c-0.141,0-.276,0-0.4,0q-0.021.771-.022,1.548v1.287q0,0.495.019,0.972t0.041,0.943c-0.114-.01-0.235-0.015-0.364-0.015s-0.25,0-.364.015q0.022-.463.041-0.943c0.012-.318.019-0.642,0.019-0.972V504.7q0-.777-0.023-1.548m7.552,4.75a1.54,1.54,0,0,0-.2-0.015H952.6a1.513,1.513,0,0,0-.2.015c-0.035-.115-0.082-0.253-0.142-0.415s-0.124-.332-0.2-0.509-0.145-.356-0.219-0.538-0.144-.355-0.208-0.52c-0.159,0-.319-0.008-0.482-0.011s-0.326,0-.49,0-0.3,0-.453,0-0.3.006-.453,0.011q-0.237.584-.429,1.111c-0.129.351-.225,0.642-0.29,0.871a2.519,2.519,0,0,0-.549,0q0.6-1.308,1.172-2.6t1.15-2.633h0.141q0.179,0.433.386,0.939t0.424,1.021q0.215,0.516.429,1.024t0.4,0.947c0.126,0.292.24,0.552,0.341,0.782s0.185,0.4.249,0.523m-3.288-2.326c0.129,0,.263,0,0.4.007s0.272,0.007.4,0.007,0.277,0,.415,0,0.277-.006.416-0.011l-0.823-1.9Zm4.98-1.844q-0.018-.476-0.04-0.969c0.064,0.011.126,0.019,0.185,0.026a1.334,1.334,0,0,0,.357,0c0.059-.007.121-0.015,0.185-0.026-0.014.329-.029,0.652-0.04,0.969s-0.019.639-.019,0.968v1.287c0,0.33.006,0.653,0.019,0.972s0.026,0.634.04,0.943c-0.114-.009-0.235-0.015-0.363-0.015s-0.251.006-.364,0.015q0.022-.463.04-0.943c0.014-.319.019-0.642,0.019-0.972V504.7c0-.329,0-0.652-0.019-0.968m2.885,0c-0.013-.317-0.026-0.64-0.042-0.969,0.065,0.011.127,0.019,0.186,0.026a1.523,1.523,0,0,0,.179.012,1.5,1.5,0,0,0,.177-0.012c0.059-.007.121-0.015,0.186-0.026q-0.023.493-.041,0.969t-0.018.968c0,0.629,0,1.173.007,1.635s0.01,0.874.015,1.238q0.527,0,1.009-.011a9.348,9.348,0,0,0,1.039-.086,0.862,0.862,0,0,0-.037.225,0.7,0.7,0,0,0,.037.2c-0.228-.009-0.455-0.015-0.683-0.015h-1.369c-0.22,0-.449.006-0.687,0.015,0.016-.309.029-0.623,0.042-0.943s0.018-.642.018-0.972V504.7q0-.493-0.018-0.968m4.06,0.479a2.38,2.38,0,0,1,.571-0.842,2.461,2.461,0,0,1,.88-0.524,3.6,3.6,0,0,1,2.248,0,2.443,2.443,0,0,1,.88.524,2.382,2.382,0,0,1,.572.842,3.263,3.263,0,0,1,0,2.266,2.373,2.373,0,0,1-.572.842,2.325,2.325,0,0,1-.88.512,3.844,3.844,0,0,1-2.248,0,2.34,2.34,0,0,1-.88-0.512,2.371,2.371,0,0,1-.571-0.842,3.248,3.248,0,0,1,0-2.266m4.471,0.059a2.037,2.037,0,0,0-.434-0.747,1.729,1.729,0,0,0-.653-0.439,2.375,2.375,0,0,0-1.618,0,1.737,1.737,0,0,0-.653.439,2.01,2.01,0,0,0-.434.747,3.795,3.795,0,0,0,0,2.147,2.022,2.022,0,0,0,.434.748,1.723,1.723,0,0,0,.653.438,2.375,2.375,0,0,0,1.618,0,1.716,1.716,0,0,0,.653-0.438,2.05,2.05,0,0,0,.434-0.748,3.772,3.772,0,0,0,0-2.147m2.756-.538c-0.013-.317-0.026-0.64-0.041-0.969,0.143,0.011.285,0.019,0.423,0.026s0.28,0.012.423,0.012,0.284-.007.423-0.019,0.279-.019.423-0.019a2.863,2.863,0,0,1,.594.06,1.441,1.441,0,0,1,.493.2,1,1,0,0,1,.334.363,1.158,1.158,0,0,1,.123.561,1.137,1.137,0,0,1-.16.616,1.485,1.485,0,0,1-.389.428,1.936,1.936,0,0,1-.494.261,2.407,2.407,0,0,1-.479.124c0.06,0.075.141,0.179,0.245,0.314s0.22,0.283.349,0.446,0.262,0.331.4,0.508l0.4,0.508c0.13,0.163.25,0.311,0.364,0.446s0.205,0.237.275,0.306a1.856,1.856,0,0,0-.223-0.015H972.1a1.69,1.69,0,0,0-.216.015c-0.073-.1-0.185-0.262-0.337-0.471s-0.318-.434-0.5-0.673-0.369-.478-0.56-0.714-0.365-.438-0.523-0.6h-0.282v0.546c0,0.33.006,0.653,0.019,0.972s0.025,0.634.04,0.943c-0.114-.009-0.234-0.015-0.363-0.015s-0.25.006-.364,0.015c0.015-.309.028-0.623,0.041-0.943s0.019-.642.019-0.972V504.7c0-.329-0.007-0.652-0.019-0.968m0.853,1.425c0.082,0,.172.007,0.271,0.007a2.305,2.305,0,0,0,.478-0.052,1.379,1.379,0,0,0,.457-0.183,1.088,1.088,0,0,0,.346-0.352,1.044,1.044,0,0,0,.137-0.558,0.971,0.971,0,0,0-.108-0.482,0.883,0.883,0,0,0-.278-0.3,1.066,1.066,0,0,0-.372-0.153,1.973,1.973,0,0,0-.393-0.041c-0.174,0-.317,0-0.43.011s-0.211.016-.29,0.026q-0.014.412-.03,0.816t-0.014.807v0.427a1.374,1.374,0,0,0,.226.03" transform="translate(-795 -433)"/>
  <path id="TRES_THE_SOFA_TAILOR_オフィシャルサイトへ" data-name="TRES THE SOFA TAILOR オフィシャルサイトへ" class="cls-2" d="M825.04,527.445h-6.572v0.887h2.746v7.952h1.056v-7.952h2.77v-0.887Zm2.031,0v8.839h1.02v-4.126h2.134l1.943,4.126h1.152l-2.111-4.294a2.191,2.191,0,0,0,1.871-2.23c0-1.463-.948-2.315-3.034-2.315h-2.975Zm1.02,0.84h1.895c1.475,0,2.026.527,2.026,1.487,0,1-.623,1.571-2.1,1.571h-1.823v-3.058Zm12.9-.84h-5.565v8.839h5.649v-0.875h-4.605v-3.383h3.418v-0.875h-3.418V528.32h4.521v-0.875Zm7.548,1.943a2.838,2.838,0,0,0-2.938-2.1c-1.835,0-2.795,1.1-2.795,2.327,0,1.307.588,2.027,2.507,2.542l0.348,0.108c1.631,0.432,1.979.876,1.979,1.787s-0.624,1.547-2,1.547a2.105,2.105,0,0,1-2.135-1.727l-1.032.36a3.022,3.022,0,0,0,3.191,2.219c1.967,0,3.046-1.019,3.046-2.519,0-1.271-.528-2.026-2.639-2.566l-0.383-.108c-1.392-.348-1.835-0.768-1.835-1.691a1.513,1.513,0,0,1,1.775-1.427,1.859,1.859,0,0,1,1.871,1.559Zm11.94-1.943H853.9v0.887h2.747v7.952h1.055v-7.952h2.771v-0.887Zm8.459,0h-1.043V531.2H863.55v-3.754h-1.043v8.839h1.043v-4.2h4.342v4.2h1.043v-8.839Zm8.388,0h-5.564v8.839h5.648v-0.875H872.8v-3.383h3.418v-0.875H872.8V528.32h4.521v-0.875Zm11.268,1.943a2.838,2.838,0,0,0-2.938-2.1c-1.835,0-2.794,1.1-2.794,2.327,0,1.307.587,2.027,2.506,2.542l0.348,0.108c1.631,0.432,1.979.876,1.979,1.787s-0.624,1.547-2,1.547a2.106,2.106,0,0,1-2.135-1.727l-1.031.36a3.02,3.02,0,0,0,3.19,2.219c1.967,0,3.046-1.019,3.046-2.519,0-1.271-.527-2.026-2.638-2.566l-0.384-.108c-1.391-.348-1.835-0.768-1.835-1.691a1.514,1.514,0,0,1,1.775-1.427,1.859,1.859,0,0,1,1.871,1.559Zm5.57-2.1c-2.1,0-3.646,1.679-3.646,4.594s1.523,4.569,3.646,4.569,3.646-1.691,3.646-4.593S896.283,527.289,894.161,527.289Zm0,0.864c1.511,0,2.542,1.271,2.542,3.718s-1.031,3.718-2.542,3.718-2.543-1.284-2.543-3.718S892.661,528.153,894.161,528.153Zm11.506-.708h-5.553v8.839h1.044v-4.222h3.406v-0.875h-3.406V528.32h4.509v-0.875Zm4.909,0h-1.319l-2.842,8.839h1.019l0.888-2.806h3.154l0.851,2.806h1.092Zm0.672,5.217h-2.722l0.647-2.159c0.228-.743.408-1.415,0.612-2.254h0.18c0.216,0.839.4,1.523,0.623,2.266Zm13.631-5.217h-6.573v0.887h2.747v7.952h1.055v-7.952h2.771v-0.887Zm4.909,0h-1.319l-2.842,8.839h1.019l0.888-2.806h3.154l0.851,2.806h1.092Zm0.672,5.217h-2.723l0.648-2.159c0.228-.743.408-1.415,0.612-2.254h0.18c0.215,0.839.395,1.523,0.623,2.266Zm5.173-5.217H934.59v8.839h1.043v-8.839Zm3.864,0h-1.043v8.839h5.421V535.4H939.5v-7.952Zm9.419-.156c-2.1,0-3.646,1.679-3.646,4.594s1.523,4.569,3.646,4.569,3.646-1.691,3.646-4.593S951.039,527.289,948.916,527.289Zm0,0.864c1.511,0,2.543,1.271,2.543,3.718s-1.032,3.718-2.543,3.718-2.542-1.284-2.542-3.718S947.417,528.153,948.916,528.153Zm5.954-.708v8.839h1.019v-4.126h2.135l1.943,4.126h1.151l-2.11-4.294a2.191,2.191,0,0,0,1.871-2.23c0-1.463-.948-2.315-3.035-2.315H954.87Zm1.019,0.84h1.895c1.475,0,2.027.527,2.027,1.487,0,1-.623,1.571-2.1,1.571h-1.823v-3.058ZM824.224,544.823l0.132,3.046c0.024,0.612-.072.731-0.371,0.815a5.255,5.255,0,0,1-1.536.144,1.6,1.6,0,0,1,.5.66,0.2,0.2,0,0,0,.24.144,4.058,4.058,0,0,0,1.463-.312,1.152,1.152,0,0,0,.528-1.271l-0.228-4.57h1.187c0.732,0,1.356.024,2.159,0.048,0.108,0,.156-0.036.156-0.132v-0.587c0-.084-0.048-0.12-0.156-0.12-0.8.036-1.391,0.048-2.171,0.048H824.9l-0.048-1.116a3.281,3.281,0,0,1,.072-1.055c0.06-.12.06-0.24-0.072-0.276a5.26,5.26,0,0,0-1-.1,5.955,5.955,0,0,1,.18,1.391l0.059,1.152h-3.034c-0.695,0-1.415,0-2.147-.06,0.012,0.24.036,0.563,0.06,0.719,0.012,0.12.048,0.168,0.144,0.156,0.648-.048,1.331-0.072,1.955-0.072h2.579a9.694,9.694,0,0,1-1.895,2.1,13.7,13.7,0,0,1-3.035,1.991,1.725,1.725,0,0,1,.588.384c0.1,0.108.18,0.108,0.348,0.012a17.523,17.523,0,0,0,2.65-1.859,12.251,12.251,0,0,0,1.907-2.2Zm13.463-2.531a11.287,11.287,0,0,1-2.255,3.838,11.49,11.49,0,0,1-3.874,2.962,2.083,2.083,0,0,1,.624.408,0.3,0.3,0,0,0,.408.024,13.118,13.118,0,0,0,3.562-2.89A12.869,12.869,0,0,0,838.5,542.7a1.091,1.091,0,0,1,.264-0.408,0.257,0.257,0,0,0,.036-0.372,3.067,3.067,0,0,0-.54-0.492,0.293,0.293,0,0,0-.312-0.012,1.09,1.09,0,0,1-.6.108h-4.245a22.678,22.678,0,0,1-2.3-.1c0.012,0.2.048,0.576,0.06,0.744s0.072,0.2.216,0.192c0.647-.048,1.307-0.072,2.015-0.072h4.593Zm7.3,2.447a16.907,16.907,0,0,0,1.151-1.26,1.991,1.991,0,0,1,.516-0.467c0.144-.072.168-0.156,0.036-0.288a3.193,3.193,0,0,0-.756-0.516,2.786,2.786,0,0,1-.528.9,16.377,16.377,0,0,1-4.881,3.957,1.47,1.47,0,0,1,.54.36,0.179,0.179,0,0,0,.228.036,14.915,14.915,0,0,0,2.914-2.087v2.747c0,0.539-.012,1.1-0.036,1.655a0.115,0.115,0,0,0,.132.144,4.421,4.421,0,0,0,.564,0c0.108,0,.144-0.036.132-0.144-0.012-.528-0.012-1.152-0.012-1.679v-3.358Zm4.659-.672a8.424,8.424,0,0,1,2.206,1.211,0.131,0.131,0,0,0,.228-0.024,3.672,3.672,0,0,0,.312-0.515,0.165,0.165,0,0,0-.06-0.252,9.488,9.488,0,0,0-2.111-1.092,0.159,0.159,0,0,0-.2.084C849.931,543.6,849.8,543.839,849.644,544.067Zm1.415-2.758a7.854,7.854,0,0,1,2.147,1.355c0.1,0.084.143,0.108,0.215,0.024a3.881,3.881,0,0,0,.348-0.516c0.06-.108.072-0.156-0.036-0.24a9.683,9.683,0,0,0-2.087-1.247,0.134,0.134,0,0,0-.215.06C851.311,540.913,851.179,541.141,851.059,541.309Zm-0.444,7.232a7.63,7.63,0,0,0,.564.8,0.209,0.209,0,0,0,.335.036,2.236,2.236,0,0,1,.576-0.408,28.2,28.2,0,0,0,3.5-2.242,20.056,20.056,0,0,0,3.166-2.939,0.262,0.262,0,0,0,.06-0.324,2.819,2.819,0,0,1-.227-0.779,20.919,20.919,0,0,1-3.419,3.322,21.845,21.845,0,0,1-3.3,2.063A5.079,5.079,0,0,1,850.615,548.541Zm13.211-3.155,0.635,2.459c0.168,0.648.3,1.259,0.468,1.955,0.036,0.144.1,0.144,0.2,0.12a2.668,2.668,0,0,0,.468-0.144,0.133,0.133,0,0,0,.1-0.2c-0.192-.684-0.36-1.283-0.528-1.943l-0.624-2.447,3.047-.8a7.013,7.013,0,0,1-1.5,2.171,1.667,1.667,0,0,1,.576.192,0.2,0.2,0,0,0,.288-0.072,10.086,10.086,0,0,0,1.391-2.207,0.74,0.74,0,0,1,.216-0.276,0.193,0.193,0,0,0,.024-0.3,2.89,2.89,0,0,0-.5-0.372,0.2,0.2,0,0,0-.276,0,1.541,1.541,0,0,1-.6.264l-2.843.744-0.264-1.1a1.636,1.636,0,0,1-.059-0.755c0.036-.108,0-0.192-0.156-0.2a7.273,7.273,0,0,0-.972.048,3.74,3.74,0,0,1,.444,1.127l0.288,1.1-1.02.263a15.189,15.189,0,0,1-1.643.324,5.62,5.62,0,0,0,.276.684c0.072,0.132.12,0.12,0.276,0.06,0.324-.12.815-0.288,1.307-0.42Zm13.031-2.219a5.726,5.726,0,0,1,.108-1.583c0.072-.168.108-0.287-0.072-0.347a8.339,8.339,0,0,0-1-.156,10.7,10.7,0,0,1,.12,2.1v3.407a6.144,6.144,0,0,1-.048,1.187,0.333,0.333,0,0,0,.024.3,2.469,2.469,0,0,0,.468.468,0.23,0.23,0,0,0,.324-0.012,1.681,1.681,0,0,1,.4-0.264,22.9,22.9,0,0,0,2.074-1.344,16.2,16.2,0,0,0,1.895-1.679,0.229,0.229,0,0,0,.072-0.311,2.021,2.021,0,0,1-.2-0.756,11.226,11.226,0,0,1-2.122,2,15.685,15.685,0,0,1-2.039,1.271v-4.282Zm-3.49-1.343a4.933,4.933,0,0,1,.108,1.248,7.022,7.022,0,0,1-.648,3.106,5.705,5.705,0,0,1-1.931,2.231,1.75,1.75,0,0,1,.636.3,0.228,0.228,0,0,0,.335-0.048,6.261,6.261,0,0,0,1.715-2.134,7.73,7.73,0,0,0,.744-3.287,2.839,2.839,0,0,1,.12-0.935c0.06-.144.048-0.252-0.084-0.3A4.532,4.532,0,0,0,873.367,541.824Zm17.457,1.188,0.012-1.1a3.82,3.82,0,0,1,.1-1.283c0.072-.168.06-0.276-0.12-0.324a6.915,6.915,0,0,0-.9-0.156,10.158,10.158,0,0,1,.108,1.8l-0.012,1.068H886.95v-0.984a4.356,4.356,0,0,1,.1-1.2c0.072-.156.12-0.288-0.06-0.336a5.114,5.114,0,0,0-.972-0.144,7.988,7.988,0,0,1,.132,1.679v0.984h-0.611c-0.768,0-1.4-.012-2.027-0.048,0.012,0.263.024,0.515,0.048,0.683,0.024,0.132.024,0.18,0.132,0.168,0.515-.024,1.211-0.048,1.847-0.048h0.611v0.612c0,0.683-.024,1.295-0.048,1.907,0,0.12.036,0.144,0.144,0.144a5,5,0,0,0,.6,0c0.108,0,.144-0.024.144-0.132-0.024-.636-0.036-1.272-0.036-1.943v-0.588h3.058a6.736,6.736,0,0,1-.731,3.394,5.264,5.264,0,0,1-3.215,2.231,1.682,1.682,0,0,1,.624.456c0.108,0.108.144,0.084,0.324,0.012a5.53,5.53,0,0,0,2.95-2.3,7.479,7.479,0,0,0,.852-3.79h0.455c0.672,0,1.308-.012,1.919.012,0.132,0.012.156-.024,0.156-0.144a3.687,3.687,0,0,0,0-.515c0-.108-0.012-0.144-0.144-0.144-0.659.036-1.271,0.036-1.943,0.036h-0.431Zm9.409,0.167a21.7,21.7,0,0,0,1.5-1.655,2.909,2.909,0,0,1,.671-0.635,0.193,0.193,0,0,0,.048-0.336,3.652,3.652,0,0,0-.827-0.54,3.736,3.736,0,0,1-.828,1.355,20.08,20.08,0,0,1-2.326,2.315,22.138,22.138,0,0,1-3.73,2.531,2.156,2.156,0,0,1,.6.384,0.207,0.207,0,0,0,.276.048,22.91,22.91,0,0,0,3.766-2.711v3.55c0,0.7-.024,1.415-0.048,2.135,0,0.108.024,0.144,0.12,0.144a6.733,6.733,0,0,0,.7,0c0.1,0,.132-0.036.12-0.144-0.024-.768-0.036-1.451-0.036-2.171v-4.27Zm8.077-1.331a5.006,5.006,0,0,1,.084-1.331c0.059-.18.107-0.312-0.084-0.36a4.952,4.952,0,0,0-1-.156,10.146,10.146,0,0,1,.132,1.919v5.337c0,0.732-.012,1.667-0.048,2.435a0.136,0.136,0,0,0,.168.168,5.205,5.205,0,0,0,.612,0c0.132,0,.168-0.036.156-0.156-0.012-.78-0.036-1.715-0.036-2.447v-2.782a13.312,13.312,0,0,1,3.49,1.607c0.108,0.072.156,0.048,0.228-.048a3.936,3.936,0,0,0,.287-0.588,0.133,0.133,0,0,0-.084-0.192,16.943,16.943,0,0,0-3.909-1.667v-1.739Zm6.134,3.55a5.817,5.817,0,0,0,.624.756,0.159,0.159,0,0,0,.276-0.024,3.72,3.72,0,0,1,.4-0.432c0.587-.552,1.463-1.379,2.17-2.051a0.811,0.811,0,0,1,.516-0.3,0.986,0.986,0,0,1,.612.336c0.875,0.732,1.775,1.5,2.674,2.171,0.816,0.612,1.847,1.295,2.543,1.727a0.125,0.125,0,0,0,.2-0.036,3.824,3.824,0,0,0,.348-0.66c0.024-.06,0-0.108-0.084-0.155a24.732,24.732,0,0,1-2.639-1.656c-0.983-.719-1.823-1.415-2.782-2.182a1.255,1.255,0,0,0-.888-0.4,1.215,1.215,0,0,0-.887.444c-0.8.731-1.56,1.391-2.159,1.895A3.058,3.058,0,0,1,914.444,545.4Z" transform="translate(-795 -433)"/>
  <rect id="長方形_1" data-name="長方形 1" x="13" y="94" width="1" height="1"/>
  <rect id="長方形_1_のコピー" data-name="長方形 1 のコピー" x="15" y="94" width="1" height="1"/>
  <rect id="長方形_1_のコピー_2" data-name="長方形 1 のコピー 2" x="17" y="94" width="1" height="1"/>
  <rect id="長方形_1_のコピー_3" data-name="長方形 1 のコピー 3" x="13" y="96" width="1" height="1"/>
  <rect id="長方形_1_のコピー_3-2" data-name="長方形 1 のコピー 3" x="15" y="96" width="1" height="1"/>
  <rect id="長方形_1_のコピー_3-3" data-name="長方形 1 のコピー 3" x="17" y="96" width="1" height="1"/>
  <rect id="長方形_1_のコピー_4" data-name="長方形 1 のコピー 4" x="13" y="98" width="1" height="1"/>
  <rect id="長方形_1_のコピー_4-2" data-name="長方形 1 のコピー 4" x="15" y="98" width="1" height="1"/>
  <rect id="長方形_1_のコピー_4-3" data-name="長方形 1 のコピー 4" x="17" y="98" width="1" height="1"/>
  <rect id="長方形_1_のコピー_5" data-name="長方形 1 のコピー 5" x="13" y="100" width="1" height="1"/>
  <rect id="長方形_1_のコピー_5-2" data-name="長方形 1 のコピー 5" x="15" y="100" width="1" height="1"/>
  <rect id="長方形_1_のコピー_5-3" data-name="長方形 1 のコピー 5" x="17" y="100" width="1" height="1"/>
  <rect id="長方形_1_のコピー_6" data-name="長方形 1 のコピー 6" x="13" y="102" width="1" height="1"/>
  <rect id="長方形_1_のコピー_6-2" data-name="長方形 1 のコピー 6" x="15" y="102" width="1" height="1"/>
  <rect id="長方形_1_のコピー_6-3" data-name="長方形 1 のコピー 6" x="17" y="102" width="1" height="1"/>
  <rect id="長方形_1_のコピー_7" data-name="長方形 1 のコピー 7" x="13" y="104" width="1" height="1"/>
  <rect id="長方形_1_のコピー_7-2" data-name="長方形 1 のコピー 7" x="15" y="104" width="1" height="1"/>
  <rect id="長方形_1_のコピー_7-3" data-name="長方形 1 のコピー 7" x="17" y="104" width="1" height="1"/>
  <rect id="長方形_1_のコピー_8" data-name="長方形 1 のコピー 8" x="13" y="106" width="1" height="1"/>
  <rect id="長方形_1_のコピー_8-2" data-name="長方形 1 のコピー 8" x="15" y="106" width="1" height="1"/>
  <rect id="長方形_1_のコピー_8-3" data-name="長方形 1 のコピー 8" x="17" y="106" width="1" height="1"/>
  <rect id="長方形_1_のコピー_9" data-name="長方形 1 のコピー 9" x="13" y="108" width="1" height="1"/>
  <rect id="長方形_1_のコピー_9-2" data-name="長方形 1 のコピー 9" x="15" y="108" width="1" height="1"/>
  <rect id="長方形_1_のコピー_9-3" data-name="長方形 1 のコピー 9" x="17" y="108" width="1" height="1"/>
  <rect id="長方形_1_のコピー_10" data-name="長方形 1 のコピー 10" x="13" y="110" width="1" height="1"/>
  <rect id="長方形_1_のコピー_10-2" data-name="長方形 1 のコピー 10" x="15" y="110" width="1" height="1"/>
  <rect id="長方形_1_のコピー_10-3" data-name="長方形 1 のコピー 10" x="17" y="110" width="1" height="1"/>
  <rect id="長方形_1_のコピー_11" data-name="長方形 1 のコピー 11" x="13" y="112" width="1" height="1"/>
  <rect id="長方形_1_のコピー_11-2" data-name="長方形 1 のコピー 11" x="15" y="112" width="1" height="1"/>
  <rect id="長方形_1_のコピー_11-3" data-name="長方形 1 のコピー 11" x="17" y="112" width="1" height="1"/>
  <rect id="長方形_1_のコピー_12" data-name="長方形 1 のコピー 12" x="13" y="114" width="1" height="1"/>
  <rect id="長方形_1_のコピー_12-2" data-name="長方形 1 のコピー 12" x="15" y="114" width="1" height="1"/>
  <rect id="長方形_1_のコピー_12-3" data-name="長方形 1 のコピー 12" x="17" y="114" width="1" height="1"/>
  <rect id="長方形_1_のコピー_13" data-name="長方形 1 のコピー 13" x="13" y="116" width="1" height="1"/>
  <rect id="長方形_1_のコピー_13-2" data-name="長方形 1 のコピー 13" x="15" y="116" width="1" height="1"/>
  <rect id="長方形_1_のコピー_13-3" data-name="長方形 1 のコピー 13" x="17" y="116" width="1" height="1"/>
</svg>
