<svg id="bnr_tres_sp" data-name="bnr_tres@sp" xmlns="http://www.w3.org/2000/svg" width="304.625" height="23" viewBox="0 0 304.625 23">
  <metadata><?xpacket begin="﻿" id="W5M0MpCehiHzreSzNTczkc9d"?>
<x:xmpmeta xmlns:x="adobe:ns:meta/" x:xmptk="Adobe XMP Core 5.6-c140 79.160451, 2017/05/06-01:08:21        ">
   <rdf:RDF xmlns:rdf="http://www.w3.org/1999/02/22-rdf-syntax-ns#">
      <rdf:Description rdf:about=""/>
   </rdf:RDF>
</x:xmpmeta>
                                                                                                    
                                                                                                    
                                                                                                    
                                                                                                    
                                                                                                    
                                                                                                    
                                                                                                    
                                                                                                    
                                                                                                    
                                                                                                    
                                                                                                    
                                                                                                    
                                                                                                    
                                                                                                    
                                                                                                    
                                                                                                    
                                                                                                    
                                                                                                    
                                                                                                    
                                                                                                    
                           
<?xpacket end="w"?></metadata>
<defs>
    <style>
      .cls-1 {
        fill-rule: evenodd;
      }
    </style>
  </defs>
  <path id="TRES_THE_SOFA_TAILOR_オフィシャルサイトへ" data-name="TRES THE SOFA TAILOR オフィシャルサイトへ" class="cls-1" d="M187.292,535.948h-6.268v0.831h2.619v7.444h1.007v-7.444h2.642v-0.831Zm1.651,0v8.275h0.972v-3.862h2.036l1.853,3.862h1.1l-2.013-4.019a2.063,2.063,0,0,0,1.784-2.089c0-1.369-.9-2.167-2.893-2.167h-2.837Zm0.972,0.786h1.807c1.407,0,1.933.494,1.933,1.393,0,0.932-.594,1.471-2,1.471h-1.739v-2.864Zm12.014-.786h-5.307v8.275h5.388V543.4h-4.393v-3.166h3.26v-0.82h-3.26v-2.65h4.312v-0.82Zm6.913,1.819a2.7,2.7,0,0,0-2.8-1.964c-1.75,0-2.665,1.032-2.665,2.178,0,1.224.56,1.9,2.39,2.38l0.332,0.1c1.556,0.4,1.887.82,1.887,1.673s-0.595,1.448-1.91,1.448a2,2,0,0,1-2.036-1.616l-0.984.336a2.878,2.878,0,0,0,3.043,2.078c1.876,0,2.905-.955,2.905-2.358,0-1.19-.5-1.9-2.516-2.4l-0.366-.1c-1.327-.326-1.75-0.719-1.75-1.583a1.435,1.435,0,0,1,1.693-1.336,1.766,1.766,0,0,1,1.784,1.459Zm10.815-1.819h-6.268v0.831h2.619v7.444h1.007v-7.444h2.642v-0.831Zm7.782,0h-1v3.515H222.3v-3.515h-1v8.275h1v-3.929h4.141v3.929h1v-8.275Zm7.714,0h-5.308v8.275h5.388V543.4h-4.392v-3.166h3.26v-0.82h-3.26v-2.65h4.312v-0.82Zm10.174,1.819a2.7,2.7,0,0,0-2.8-1.964c-1.75,0-2.665,1.032-2.665,2.178,0,1.224.56,1.9,2.39,2.38l0.332,0.1c1.555,0.4,1.887.82,1.887,1.673s-0.595,1.448-1.91,1.448a2,2,0,0,1-2.036-1.616l-0.984.336a2.878,2.878,0,0,0,3.043,2.078c1.876,0,2.905-.955,2.905-2.358,0-1.19-.5-1.9-2.516-2.4l-0.366-.1c-1.327-.326-1.75-0.719-1.75-1.583a1.435,1.435,0,0,1,1.693-1.336,1.766,1.766,0,0,1,1.784,1.459Zm5.025-1.964c-2,0-3.477,1.571-3.477,4.3s1.453,4.278,3.477,4.278,3.478-1.583,3.478-4.3S252.377,535.8,250.352,535.8Zm0,0.808c1.442,0,2.425,1.19,2.425,3.481s-0.983,3.48-2.425,3.48-2.425-1.2-2.425-3.48S248.923,536.611,250.352,536.611Zm10.688-.663h-5.3v8.275h1v-3.952h3.248v-0.819H256.74v-2.684h4.3v-0.82Zm4.4,0h-1.258l-2.711,8.275h0.972l0.847-2.627h3.008l0.812,2.627h1.041Zm0.641,4.885h-2.6l0.618-2.021c0.217-.7.389-1.325,0.583-2.111h0.172c0.206,0.786.377,1.426,0.595,2.122Zm12.428-4.885h-6.269v0.831h2.62v7.444h1.006v-7.444h2.643v-0.831Zm4.4,0h-1.258l-2.711,8.275H279.9l0.846-2.627h3.009l0.812,2.627h1.041Zm0.64,4.885h-2.6l0.617-2.021c0.218-.7.389-1.325,0.584-2.111h0.171c0.206,0.786.378,1.426,0.595,2.122Zm4.648-4.885h-1v8.275h1v-8.275Zm3.4,0h-1v8.275h5.17v-0.83h-4.175v-7.445Zm8.7-.145c-2,0-3.477,1.571-3.477,4.3s1.453,4.278,3.477,4.278,3.477-1.583,3.477-4.3S302.31,535.8,300.285,535.8Zm0,0.808c1.441,0,2.425,1.19,2.425,3.481s-0.984,3.48-2.425,3.48-2.425-1.2-2.425-3.48S298.855,536.611,300.285,536.611Zm5.392-.663v8.275h0.972v-3.862h2.036l1.854,3.862h1.1l-2.014-4.019a2.064,2.064,0,0,0,1.785-2.089c0-1.369-.9-2.167-2.894-2.167h-2.837Zm0.972,0.786h1.808c1.407,0,1.933.494,1.933,1.393,0,0.932-.595,1.471-2,1.471h-1.739v-2.864ZM186.514,552.217l0.126,2.852c0.023,0.572-.069.685-0.355,0.763a5.1,5.1,0,0,1-1.464.135,1.494,1.494,0,0,1,.48.618,0.187,0.187,0,0,0,.229.134,3.933,3.933,0,0,0,1.4-.292,1.072,1.072,0,0,0,.5-1.19l-0.217-4.278h1.132c0.7,0,1.293.023,2.059,0.045,0.1,0,.149-0.033.149-0.123v-0.55c0-.079-0.046-0.113-0.149-0.113-0.766.034-1.327,0.045-2.07,0.045h-1.179l-0.045-1.044a3.045,3.045,0,0,1,.068-0.988c0.057-.112.057-0.225-0.068-0.258a5.112,5.112,0,0,0-.95-0.09,5.43,5.43,0,0,1,.172,1.3l0.057,1.078h-2.894c-0.663,0-1.35,0-2.047-.056,0.011,0.225.034,0.528,0.057,0.674,0.011,0.112.046,0.157,0.137,0.146,0.618-.045,1.27-0.068,1.865-0.068h2.459a9.16,9.16,0,0,1-1.807,1.965,13.082,13.082,0,0,1-2.894,1.864,1.647,1.647,0,0,1,.56.359c0.092,0.1.172,0.1,0.332,0.012a16.739,16.739,0,0,0,2.528-1.741,11.583,11.583,0,0,0,1.818-2.054Zm12.553-2.369a10.517,10.517,0,0,1-2.15,3.593,10.939,10.939,0,0,1-3.695,2.773,1.971,1.971,0,0,1,.595.382,0.286,0.286,0,0,0,.389.022,12.427,12.427,0,0,0,3.4-2.706,11.972,11.972,0,0,0,2.242-3.682,1.018,1.018,0,0,1,.252-0.382,0.236,0.236,0,0,0,.034-0.348,2.9,2.9,0,0,0-.515-0.461,0.284,0.284,0,0,0-.3-0.011,1.049,1.049,0,0,1-.572.1H194.7a21.859,21.859,0,0,1-2.2-.09c0.011,0.191.046,0.539,0.057,0.7a0.165,0.165,0,0,0,.206.18c0.618-.045,1.247-0.067,1.922-0.067h4.38Zm6.674,2.29a15.548,15.548,0,0,0,1.1-1.179,1.938,1.938,0,0,1,.492-0.438c0.137-.067.16-0.145,0.034-0.269a3.043,3.043,0,0,0-.72-0.483,2.59,2.59,0,0,1-.5.842,15.574,15.574,0,0,1-4.655,3.705,1.42,1.42,0,0,1,.515.337,0.172,0.172,0,0,0,.217.034,14.208,14.208,0,0,0,2.78-1.954V555.3c0,0.5-.012,1.033-0.035,1.549a0.109,0.109,0,0,0,.126.135,4.388,4.388,0,0,0,.538,0c0.1,0,.137-0.034.126-0.135-0.012-.494-0.012-1.078-0.012-1.572v-3.144Zm4.157-.628a8.036,8.036,0,0,1,2.1,1.134,0.125,0.125,0,0,0,.217-0.023,3.455,3.455,0,0,0,.3-0.483,0.154,0.154,0,0,0-.058-0.236,9.082,9.082,0,0,0-2.013-1.021,0.153,0.153,0,0,0-.194.078C210.173,551.072,210.047,551.3,209.9,551.51Zm1.35-2.583A7.5,7.5,0,0,1,213.3,550.2c0.092,0.078.138,0.1,0.206,0.022a3.5,3.5,0,0,0,.332-0.483c0.057-.1.069-0.145-0.034-0.224a9.313,9.313,0,0,0-1.991-1.168,0.129,0.129,0,0,0-.2.056C211.488,548.557,211.362,548.77,211.248,548.927Zm-0.423,6.771a7.189,7.189,0,0,0,.537.752,0.2,0.2,0,0,0,.321.033,2.112,2.112,0,0,1,.549-0.381,27.02,27.02,0,0,0,3.34-2.1,18.954,18.954,0,0,0,3.019-2.751,0.241,0.241,0,0,0,.058-0.3,2.565,2.565,0,0,1-.218-0.73,19.709,19.709,0,0,1-3.26,3.11,20.848,20.848,0,0,1-3.145,1.932A4.954,4.954,0,0,1,210.825,555.7Zm12.313-2.953,0.606,2.3c0.16,0.607.286,1.179,0.446,1.83,0.035,0.135.092,0.135,0.195,0.113a2.642,2.642,0,0,0,.446-0.135,0.124,0.124,0,0,0,.091-0.191c-0.183-.64-0.343-1.2-0.5-1.819l-0.595-2.29,2.906-.753a6.563,6.563,0,0,1-1.43,2.033,1.619,1.619,0,0,1,.549.179,0.19,0.19,0,0,0,.274-0.067,9.386,9.386,0,0,0,1.327-2.066,0.694,0.694,0,0,1,.206-0.258,0.179,0.179,0,0,0,.023-0.281,2.767,2.767,0,0,0-.48-0.348,0.2,0.2,0,0,0-.263,0,1.5,1.5,0,0,1-.572.247l-2.711.7L223.4,550.9a1.509,1.509,0,0,1-.057-0.707c0.034-.1,0-0.18-0.149-0.191a7.036,7.036,0,0,0-.926.045,3.471,3.471,0,0,1,.423,1.055l0.274,1.033-0.972.247a14.632,14.632,0,0,1-1.567.3,5.372,5.372,0,0,0,.263.64c0.069,0.124.115,0.113,0.263,0.057,0.309-.113.778-0.27,1.247-0.393Zm12.142-2.078a5.255,5.255,0,0,1,.1-1.482c0.068-.157.1-0.269-0.069-0.325a7.964,7.964,0,0,0-.949-0.146,9.87,9.87,0,0,1,.114,1.965v3.188a5.58,5.58,0,0,1-.046,1.112,0.312,0.312,0,0,0,.023.281,2.375,2.375,0,0,0,.446.438,0.222,0.222,0,0,0,.309-0.012,1.617,1.617,0,0,1,.378-0.247,21.977,21.977,0,0,0,1.979-1.257,15.65,15.65,0,0,0,1.807-1.572,0.212,0.212,0,0,0,.068-0.292,1.87,1.87,0,0,1-.194-0.707,10.621,10.621,0,0,1-2.025,1.875,14.911,14.911,0,0,1-1.944,1.19v-4.009Zm-3.329-1.257a4.515,4.515,0,0,1,.1,1.168,6.483,6.483,0,0,1-.617,2.908,5.371,5.371,0,0,1-1.842,2.088,1.654,1.654,0,0,1,.606.281,0.223,0.223,0,0,0,.321-0.045,5.919,5.919,0,0,0,1.635-2,7.119,7.119,0,0,0,.709-3.076,2.615,2.615,0,0,1,.115-0.876c0.057-.135.046-0.236-0.08-0.281A4.445,4.445,0,0,0,231.951,549.41Zm16.363,1.111,0.012-1.033a3.529,3.529,0,0,1,.091-1.2c0.069-.157.058-0.258-0.114-0.3a6.771,6.771,0,0,0-.858-0.146,9.345,9.345,0,0,1,.1,1.684l-0.011,1H244.62V549.6a4.043,4.043,0,0,1,.091-1.123c0.069-.146.115-0.269-0.057-0.314a4.848,4.848,0,0,0-.926-0.135,7.371,7.371,0,0,1,.125,1.572v0.92H243.27c-0.732,0-1.338-.011-1.933-0.044,0.011,0.247.023,0.482,0.046,0.64,0.023,0.123.023,0.168,0.126,0.157,0.491-.023,1.155-0.045,1.761-0.045h0.583V551.8c0,0.64-.022,1.213-0.045,1.786,0,0.112.034,0.134,0.137,0.134a4.548,4.548,0,0,0,.572,0c0.1,0,.137-0.022.137-0.123-0.023-.595-0.034-1.19-0.034-1.819v-0.55h2.917a6.2,6.2,0,0,1-.7,3.177,5.018,5.018,0,0,1-3.066,2.089,1.6,1.6,0,0,1,.595.426c0.1,0.1.137,0.079,0.309,0.012a5.266,5.266,0,0,0,2.814-2.156,6.9,6.9,0,0,0,.812-3.548h0.435c0.64,0,1.246-.011,1.83.011,0.126,0.011.148-.022,0.148-0.135a3.23,3.23,0,0,0,0-.482c0-.1-0.011-0.135-0.137-0.135-0.629.033-1.212,0.033-1.853,0.033h-0.412ZM257,550.679a20.7,20.7,0,0,0,1.43-1.55,2.757,2.757,0,0,1,.64-0.6,0.179,0.179,0,0,0,.046-0.314,3.531,3.531,0,0,0-.789-0.506,3.479,3.479,0,0,1-.79,1.269,18.987,18.987,0,0,1-2.219,2.167,21.084,21.084,0,0,1-3.557,2.369,2.06,2.06,0,0,1,.572.36,0.2,0.2,0,0,0,.263.045,21.81,21.81,0,0,0,3.592-2.538v3.323c0,0.652-.023,1.325-0.046,2,0,0.1.023,0.135,0.114,0.135,0.206,0.011.458,0.011,0.664,0,0.091,0,.125-0.034.114-0.135-0.023-.719-0.034-1.359-0.034-2.032v-4Zm7.417-1.247a4.59,4.59,0,0,1,.08-1.246c0.057-.168.1-0.292-0.08-0.337a4.854,4.854,0,0,0-.95-0.146,9.256,9.256,0,0,1,.126,1.8v5c0,0.685-.011,1.561-0.045,2.279a0.128,0.128,0,0,0,.16.158,5.153,5.153,0,0,0,.583,0c0.126,0,.16-0.034.149-0.146-0.012-.73-0.035-1.606-0.035-2.291v-2.605a12.809,12.809,0,0,1,3.329,1.5,0.132,0.132,0,0,0,.217-0.045,3.519,3.519,0,0,0,.275-0.55,0.125,0.125,0,0,0-.08-0.18,16.349,16.349,0,0,0-3.729-1.561v-1.628Zm5.565,3.324a5.519,5.519,0,0,0,.594.707,0.153,0.153,0,0,0,.263-0.022,3.472,3.472,0,0,1,.378-0.4c0.56-.517,1.395-1.292,2.07-1.92a0.778,0.778,0,0,1,.492-0.281,0.943,0.943,0,0,1,.583.314c0.835,0.685,1.693,1.4,2.551,2.032,0.778,0.573,1.762,1.213,2.425,1.617a0.121,0.121,0,0,0,.2-0.033,3.6,3.6,0,0,0,.331-0.618c0.023-.056,0-0.1-0.08-0.146a23.762,23.762,0,0,1-2.516-1.549c-0.938-.674-1.739-1.325-2.654-2.044a1.207,1.207,0,0,0-.846-0.37,1.169,1.169,0,0,0-.847.415c-0.766.685-1.487,1.3-2.059,1.774A2.929,2.929,0,0,1,269.984,552.756Z" transform="translate(-7 -535)"/>
  <path id="シェイプ_1" data-name="シェイプ 1" class="cls-1" d="M113.84,557.727a0.149,0.149,0,0,1-.149.148H61.36a0.149,0.149,0,0,1-.149-0.148V536.439a0.149,0.149,0,0,1,.149-0.148h52.332a0.149,0.149,0,0,1,.149.148v21.288Zm12.323-20.273a0.152,0.152,0,0,0-.153-0.147s-0.57,0-.956.009-0.77.02-1.156,0.04-0.757.044-1.115,0.071-0.815.082-.815,0.082a0.1,0.1,0,0,1-.116-0.126,3.038,3.038,0,0,0,.069-0.5,3.4,3.4,0,0,0-.071-0.478,0.111,0.111,0,0,1,.119-0.14s1.615,0.045,2.467.066,1.724,0.03,2.616.03,1.765-.01,2.617-0.03,2.467-.066,2.467-0.066a0.111,0.111,0,0,1,.119.14,3.51,3.51,0,0,0-.071.5,2.909,2.909,0,0,0,.069.479,0.1,0.1,0,0,1-.116.126s-0.457-.055-0.815-0.082-0.73-.05-1.115-0.071-0.771-.033-1.156-0.04-0.957-.009-0.957-0.009a0.152,0.152,0,0,0-.152.147l-0.057,3.861c0,0.081,0,.215,0,0.3v3.158c0,0.081,0,.214,0,0.3,0,0,.015,1.606.049,2.462s0.1,2.383.1,2.383a0.132,0.132,0,0,1-.143.138s-0.493-.031-0.845-0.031-0.844.031-.844,0.031a0.131,0.131,0,0,1-.143-0.138s0.071-1.526.105-2.383,0.049-2.462.049-2.462c0-.082,0-0.215,0-0.3v-3.158c0-.081,0-0.215,0-0.3Zm8.07,1.409c-0.033-.85-0.105-2.453-0.105-2.453a0.131,0.131,0,0,1,.143-0.138s0.628,0.04,1.007.061,0.764,0.03,1.156.03,0.777-.017,1.156-0.051,0.764-.05,1.156-0.05a7.948,7.948,0,0,1,1.623.161,3.964,3.964,0,0,1,1.349.532,2.7,2.7,0,0,1,.913.974,3.456,3.456,0,0,1-.1,3.163,4.054,4.054,0,0,1-1.065,1.144,5.274,5.274,0,0,1-1.349.7,10.7,10.7,0,0,1-1.161.3,0.082,0.082,0,0,0-.054.144s0.292,0.366.576,0.727,0.6,0.761.954,1.2,0.716,0.89,1.095,1.365,0.744,0.931,1.095,1.365,0.683,0.834.994,1.2,0.648,0.716.648,0.716c0.056,0.059.036,0.1-.046,0.093,0,0-.257-0.026-0.46-0.026h-1.2c-0.2,0-.44.025-0.44,0.025a0.288,0.288,0,0,1-.236-0.105s-0.423-.583-0.836-1.145-0.868-1.165-1.369-1.807-1.011-1.281-1.531-1.918-1.329-1.507-1.329-1.507a0.391,0.391,0,0,0-.25-0.109H136.1a0.149,0.149,0,0,0-.15.148v1.17c0,0.081,0,.214,0,0.3,0,0,.015,1.606.049,2.462s0.105,2.383.105,2.383a0.131,0.131,0,0,1-.142.138s-0.494-.031-0.845-0.031-0.845.031-.845,0.031a0.13,0.13,0,0,1-.142-0.138s0.071-1.526.1-2.383,0.05-2.462.05-2.462c0-.082,0-0.215,0-0.3v-3.158c0-.081,0-0.215,0-0.3C134.283,541.315,134.267,539.713,134.233,538.863Zm2.333,3.825q0.334,0.019.74,0.02a6.5,6.5,0,0,0,1.308-.14,3.82,3.82,0,0,0,1.248-.493,2.949,2.949,0,0,0,.943-0.943,2.751,2.751,0,0,0,.375-1.5,2.578,2.578,0,0,0-.294-1.3,2.325,2.325,0,0,0-.761-0.813,2.921,2.921,0,0,0-1.013-.411,5.414,5.414,0,0,0-1.075-.111q-0.711,0-1.177.03c-0.311.021-.642,0.055-0.642,0.055a0.179,0.179,0,0,0-.155.163s-0.048,1.318-.075,2.041-0.039,2.021-.039,2.021c0,0.081,0,.215,0,0.3v0.849a0.183,0.183,0,0,0,.147.173S136.343,542.675,136.566,542.688Zm9.479-3.856c-0.034-.856-0.1-2.422-0.1-2.422a0.134,0.134,0,0,1,.142-0.142s1.064,0.044,1.666.065,1.207,0.03,1.816.03,1.21-.01,1.805-0.03,1.656-.065,1.656-0.065a0.118,0.118,0,0,1,.127.14,2.761,2.761,0,0,0,0,.913,0.114,0.114,0,0,1-.127.136s-0.679-.043-1.037-0.07-0.738-.054-1.136-0.08-0.835-.051-1.308-0.071-1.555-.029-1.555-0.029a0.153,0.153,0,0,0-.154.147s-0.026.688-.046,1.077-0.03.83-.03,1.325q0,0.783.01,1.526c0.006,0.5.009,0.977,0.009,0.977a0.15,0.15,0,0,0,.15.147s0.98-.006,1.453-0.019,0.906-.03,1.3-0.05,0.753-.04,1.084-0.061,0.795-.058.795-0.058a0.113,0.113,0,0,1,.127.134,3.89,3.89,0,0,0-.039.476,3.667,3.667,0,0,0,.039.457,0.11,0.11,0,0,1-.127.131s-0.612-.059-1.078-0.086-0.933-.043-1.4-0.05-0.906-.013-1.319-0.02-0.834-.009-0.834-0.009a0.15,0.15,0,0,0-.151.147s0,0.1-.008.244-0.009.384-.009,0.384c0,0.081,0,.215,0,0.3v1.988s0,1.244.01,1.739,0.025,0.977.025,0.977a0.155,0.155,0,0,0,.154.148h1.271q0.771,0,1.511-.03t1.4-.08c0.44-.034,1-0.127,1-0.127a0.094,0.094,0,0,1,.116.12,1.033,1.033,0,0,0-.019.167c-0.007.114-.01,0.218-0.01,0.311a2.175,2.175,0,0,0,.032.378,0.112,0.112,0,0,1-.12.139s-1.065-.035-1.667-0.035h-3.681c-0.609,0-1.7.035-1.7,0.035a0.134,0.134,0,0,1-.142-0.142s0.071-1.563.1-2.413,0.049-2.452.049-2.452c0-.081,0-0.215,0-0.3v-3.158c0-.082,0-0.215,0-0.3C146.094,541.295,146.078,539.689,146.045,538.832Zm9.7,9.348a3.28,3.28,0,0,0,.67.672,3.388,3.388,0,0,0,.922.493,3.443,3.443,0,0,0,1.177.19,3.023,3.023,0,0,0,1.206-.231,2.665,2.665,0,0,0,1.491-1.545,3.169,3.169,0,0,0,.2-1.135,2.14,2.14,0,0,0-.477-1.466,3.918,3.918,0,0,0-1.186-.9,14.168,14.168,0,0,0-1.532-.663,7.889,7.889,0,0,1-1.531-.752,4.057,4.057,0,0,1-1.187-1.155,3.318,3.318,0,0,1-.476-1.888,3.777,3.777,0,0,1,.3-1.536,3.347,3.347,0,0,1,.883-1.195,4.193,4.193,0,0,1,1.389-.783A5.563,5.563,0,0,1,159.43,536a5.47,5.47,0,0,1,1.684.231,6.652,6.652,0,0,1,1.194.631,0.177,0.177,0,0,1,.061.216,5.742,5.742,0,0,0-.241.589c-0.081.254-.21,0.819-0.21,0.819a0.181,0.181,0,0,1-.155.145,0.219,0.219,0,0,1-.177-0.137s-0.1-.255-0.219-0.476a2.313,2.313,0,0,0-.466-0.612,2.6,2.6,0,0,0-.7-0.472,2.273,2.273,0,0,0-.973-0.191,2.936,2.936,0,0,0-1.045.18,2.519,2.519,0,0,0-.832.513,2.263,2.263,0,0,0-.547.793,2.574,2.574,0,0,0-.193,1,2.173,2.173,0,0,0,.477,1.486,4.06,4.06,0,0,0,1.186.914,11.853,11.853,0,0,0,1.532.663,8.613,8.613,0,0,1,1.531.712,3.922,3.922,0,0,1,1.187,1.084A2.971,2.971,0,0,1,163,545.86a4.57,4.57,0,0,1-.335,1.747,4.1,4.1,0,0,1-.973,1.436,4.338,4.338,0,0,1-1.562.944,6.185,6.185,0,0,1-2.1.332,5.281,5.281,0,0,1-2.039-.332,8.764,8.764,0,0,1-1.184-.67,0.2,0.2,0,0,1-.075-0.222,6.722,6.722,0,0,0,.2-0.694c0.047-.248.114-0.807,0.114-0.807a0.157,0.157,0,0,1,.139-0.147,0.25,0.25,0,0,1,.191.131A5.456,5.456,0,0,0,155.749,548.18ZM59.63,557.727a0.15,0.15,0,0,1-.149.148H7.149A0.15,0.15,0,0,1,7,557.727V536.439a0.149,0.149,0,0,1,.149-0.148H59.481a0.149,0.149,0,0,1,.149.148v21.288Zm63.092-2.43-0.229,0c-0.08,0-.16,0-0.24.008l-0.231.014c-0.074.006-.141,0.013-0.2,0.021a0.5,0.5,0,0,0,.021-0.132,0.576,0.576,0,0,0-.021-0.13l0.542,0.015q0.265,0.006.543,0.006c0.184,0,.366,0,0.542-0.006l0.543-.015a0.539,0.539,0,0,0-.022.134,0.457,0.457,0,0,0,.022.128c-0.06-.008-0.126-0.015-0.2-0.021l-0.232-.014c-0.079,0-.159-0.007-0.239-0.008l-0.23,0q-0.012.429-.012,0.862v0.716c0,0.183,0,.363.011,0.541s0.014,0.352.023,0.524c-0.065-.005-0.134-0.008-0.206-0.008s-0.142,0-.206.008c0.008-.172.016-0.347,0.023-0.524s0.01-.358.01-0.541v-0.716Q122.734,555.726,122.722,555.3Zm4.334,0.323c-0.006-.176-0.015-0.356-0.023-0.539l0.105,0.015a0.868,0.868,0,0,0,.1.006,0.855,0.855,0,0,0,.1-0.006l0.1-.015c-0.008.183-.016,0.363-0.023,0.539s-0.01.356-.01,0.539v0.716c0,0.183,0,.363.01,0.541s0.015,0.352.023,0.524c-0.064-.005-0.133-0.008-0.206-0.008s-0.142,0-.206.008c0.008-.172.017-0.347,0.023-0.524s0.011-.358.011-0.541V556.5c-0.151,0-.3-0.006-0.439-0.007l-0.44,0-0.439,0c-0.141,0-.288,0-0.44.007v0.374c0,0.183,0,.363.011,0.541s0.015,0.352.023,0.524c-0.064-.005-0.133-0.008-0.206-0.008s-0.141,0-.2.008c0.008-.172.015-0.347,0.022-0.524s0.011-.358.011-0.541v-0.716c0-.183,0-0.363-0.011-0.539s-0.014-.356-0.022-0.539l0.1,0.015a0.868,0.868,0,0,0,.1.006,0.843,0.843,0,0,0,.1-0.006l0.105-.015c-0.008.183-.016,0.363-0.023,0.539s-0.011.356-.011,0.539V556.3l0.44,0.008c0.141,0,.288,0,0.439,0s0.3,0,.44,0l0.439-.008v-0.146C127.067,555.976,127.063,555.8,127.056,555.62Zm1.635-.006c-0.007-.177-0.014-0.355-0.023-0.533l0.376,0.015c0.125,0,.251.006,0.377,0.006s0.25,0,.374-0.006l0.374-.015a0.607,0.607,0,0,0,0,.25c-0.09,0-.172-0.011-0.246-0.017l-0.235-.017c-0.083,0-.174-0.01-0.271-0.014s-0.216-.006-0.353-0.006c0,0.088-.007.173-0.011,0.254s-0.006.172-.006,0.274,0,0.214,0,.317,0,0.18,0,.232c0.123,0,.234,0,0.332,0s0.188-.006.269-0.01l0.225-.012,0.2-.015a0.607,0.607,0,0,0-.013.129,0.59,0.59,0,0,0,.013.125c-0.074-.008-0.158-0.015-0.255-0.021s-0.193-.009-0.29-0.01l-0.274,0-0.2,0c0,0.026,0,.052,0,0.082s0,0.065,0,.11v0.412c0,0.158,0,.289,0,0.391s0,0.18.006,0.233h0.295q0.159,0,.312-0.006c0.1,0,.2-0.01.29-0.017a1.9,1.9,0,0,0,.238-0.031,0.3,0.3,0,0,0-.011.064c0,0.024,0,.045,0,0.065a0.362,0.362,0,0,0,.013.108c-0.126-.005-0.251-0.008-0.377-0.008h-0.762c-0.126,0-.254,0-0.383.008,0.009-.177.016-0.354,0.023-0.53s0.011-.356.011-0.539v-0.716C128.7,555.972,128.7,555.791,128.691,555.614Zm4.355,1.937a0.678,0.678,0,0,0,.139.139,0.7,0.7,0,0,0,.192.1,0.688,0.688,0,0,0,.243.04,0.623,0.623,0,0,0,.25-0.048,0.57,0.57,0,0,0,.19-0.129,0.576,0.576,0,0,0,.119-0.191,0.658,0.658,0,0,0,.043-0.235,0.448,0.448,0,0,0-.1-0.3,0.8,0.8,0,0,0-.246-0.187,2.992,2.992,0,0,0-.317-0.138,1.619,1.619,0,0,1-.318-0.156,0.836,0.836,0,0,1-.246-0.239,0.686,0.686,0,0,1-.1-0.391,0.786,0.786,0,0,1,.063-0.319,0.693,0.693,0,0,1,.183-0.247,0.861,0.861,0,0,1,.288-0.163,1.145,1.145,0,0,1,.378-0.058,1.128,1.128,0,0,1,.349.048,0.859,0.859,0,0,1,.274.148,0.766,0.766,0,0,0-.063.15,1.962,1.962,0,0,0-.051.2h-0.05a1.13,1.13,0,0,0-.057-0.128,0.5,0.5,0,0,0-.1-0.127,0.541,0.541,0,0,0-.145-0.1,0.459,0.459,0,0,0-.2-0.04,0.607,0.607,0,0,0-.217.038,0.527,0.527,0,0,0-.173.106,0.463,0.463,0,0,0-.113.164,0.547,0.547,0,0,0-.04.208,0.451,0.451,0,0,0,.1.308,0.839,0.839,0,0,0,.246.189,2.347,2.347,0,0,0,.317.138,1.745,1.745,0,0,1,.318.148,0.784,0.784,0,0,1,.245.224,0.608,0.608,0,0,1,.1.366,0.961,0.961,0,0,1-.069.363,0.861,0.861,0,0,1-.2.3,0.907,0.907,0,0,1-.324.2,1.3,1.3,0,0,1-.435.068,1.111,1.111,0,0,1-.422-0.068,1.171,1.171,0,0,1-.271-0.156,0.937,0.937,0,0,0,.052-0.173c0.01-.052.019-0.117,0.028-0.2h0.05A0.9,0.9,0,0,0,133.046,557.551Zm2.493-1.665a1.334,1.334,0,0,1,.325-0.468,1.4,1.4,0,0,1,.5-0.291,1.92,1.92,0,0,1,.634-0.1,1.942,1.942,0,0,1,.639.1,1.4,1.4,0,0,1,.5.291,1.319,1.319,0,0,1,.324.468,1.771,1.771,0,0,1,0,1.261,1.3,1.3,0,0,1-.324.468,1.32,1.32,0,0,1-.5.286,2.086,2.086,0,0,1-.639.093,2.062,2.062,0,0,1-.634-0.093,1.3,1.3,0,0,1-.823-0.754A1.786,1.786,0,0,1,135.539,555.886Zm2.534,0.034a1.131,1.131,0,0,0-.247-0.416,0.973,0.973,0,0,0-.369-0.244,1.309,1.309,0,0,0-.461-0.079,1.293,1.293,0,0,0-.456.079,0.984,0.984,0,0,0-.37.244,1.129,1.129,0,0,0-.246.416,2.069,2.069,0,0,0,0,1.194,1.129,1.129,0,0,0,.246.416,0.984,0.984,0,0,0,.37.244,1.293,1.293,0,0,0,.456.079,1.309,1.309,0,0,0,.461-0.079,0.973,0.973,0,0,0,.369-0.244,1.131,1.131,0,0,0,.247-0.416A2.069,2.069,0,0,0,138.073,555.92Zm1.56-.3c-0.007-.176-0.014-0.356-0.023-0.539l0.377,0.015c0.124,0,.249.006,0.376,0.006s0.253,0,.382-0.006l0.42-.015a0.657,0.657,0,0,0,0,.25c-0.075-.009-0.166-0.016-0.273-0.023s-0.215-.013-0.325-0.017l-0.32-.01c-0.1,0-.187,0-0.254,0q0,0.145-.006.279c0,0.088,0,.177,0,0.266s0,0.186,0,.268,0,0.168,0,.256c0.185,0,.368,0,0.549-0.008s0.359-.017.536-0.033a0.481,0.481,0,0,0-.017.124,0.5,0.5,0,0,0,.017.126c-0.07-.009-0.149-0.015-0.237-0.019l-0.276-.011c-0.095,0-.192,0-0.29,0h-0.282v0.354c0,0.183,0,.363.011,0.541s0.014,0.352.023,0.524c-0.065-.005-0.133-0.008-0.206-0.008s-0.141,0-.206.008c0.009-.172.016-0.347,0.023-0.524s0.011-.358.011-0.541v-0.716C139.644,555.976,139.64,555.8,139.633,555.62Zm4.669,2.32a0.907,0.907,0,0,0-.112-0.008h-0.223a0.892,0.892,0,0,0-.111.008c-0.019-.064-0.046-0.14-0.079-0.231s-0.072-.184-0.112-0.283-0.082-.2-0.124-0.3-0.081-.2-0.118-0.288c-0.09,0-.181,0-0.273-0.007l-0.278,0-0.256,0c-0.084,0-.169,0-0.256.007q-0.135.324-.244,0.617c-0.073.2-.128,0.357-0.164,0.485a1.5,1.5,0,0,0-.156-0.008,1.484,1.484,0,0,0-.155.008q0.34-.727.664-1.448t0.652-1.465h0.079q0.1,0.241.219,0.522t0.24,0.568q0.121,0.288.243,0.571c0.082,0.188.158,0.364,0.229,0.526s0.136,0.307.194,0.435S144.265,557.874,144.3,557.94Zm-1.863-1.294c0.073,0,.149,0,0.227,0s0.155,0,.227,0l0.236,0c0.078,0,.157,0,0.235-0.006l-0.467-1.057Zm4.667-1.349-0.229,0c-0.08,0-.16,0-0.24.008l-0.231.014c-0.074.006-.141,0.013-0.2,0.021a0.542,0.542,0,0,0,.021-0.132,0.64,0.64,0,0,0-.021-0.13l0.541,0.015q0.266,0.006.543,0.006c0.185,0,.366,0,0.542-0.006l0.543-.015a0.53,0.53,0,0,0-.021.134,0.451,0.451,0,0,0,.021.128c-0.06-.008-0.126-0.015-0.2-0.021l-0.231-.014c-0.08,0-.16-0.007-0.24-0.008l-0.229,0q-0.013.429-.013,0.862v0.716c0,0.183,0,.363.011,0.541s0.014,0.352.023,0.524c-0.065-.005-0.133-0.008-0.206-0.008s-0.142,0-.206.008c0.008-.172.016-0.347,0.023-0.524s0.01-.358.01-0.541v-0.716Q147.118,555.726,147.106,555.3Zm4.278,2.643a0.907,0.907,0,0,0-.112-0.008h-0.223a0.879,0.879,0,0,0-.111.008c-0.019-.064-0.046-0.14-0.08-0.231s-0.071-.184-0.111-0.283-0.082-.2-0.124-0.3-0.081-.2-0.118-0.288c-0.09,0-.18,0-0.273-0.007l-0.278,0-0.256,0c-0.084,0-.17,0-0.256.007q-0.135.324-.244,0.617c-0.073.2-.128,0.357-0.164,0.485a1.5,1.5,0,0,0-.156-0.008,1.47,1.47,0,0,0-.155.008q0.34-.727.664-1.448t0.652-1.465h0.079c0.068,0.161.14,0.335,0.219,0.522s0.158,0.377.239,0.568l0.244,0.571c0.081,0.188.158,0.364,0.229,0.526s0.136,0.307.194,0.435S151.347,557.874,151.384,557.94Zm-1.863-1.294c0.073,0,.149,0,0.227,0s0.155,0,.227,0l0.236,0,0.236-.006-0.468-1.057Zm2.821-1.026c-0.007-.176-0.014-0.356-0.023-0.539l0.105,0.015a0.872,0.872,0,0,0,.1.006,0.839,0.839,0,0,0,.1-0.006l0.1-.015c-0.008.183-.016,0.363-0.023,0.539s-0.01.356-.01,0.539v0.716c0,0.183,0,.363.01,0.541s0.015,0.352.023,0.524c-0.064-.005-0.133-0.008-0.2-0.008s-0.142,0-.207.008c0.009-.172.016-0.347,0.023-0.524s0.011-.358.011-0.541v-0.716C152.353,555.976,152.349,555.8,152.342,555.62Zm1.634,0c-0.007-.176-0.015-0.356-0.023-0.539l0.1,0.015a0.843,0.843,0,0,0,.1.006,0.855,0.855,0,0,0,.1-0.006l0.105-.015c-0.009.183-.016,0.363-0.023,0.539s-0.011.356-.011,0.539c0,0.35,0,.653.005,0.91s0,0.485.008,0.688c0.2,0,.389,0,0.572-0.006a5.357,5.357,0,0,0,.588-0.048,0.483,0.483,0,0,0-.021.125,0.385,0.385,0,0,0,.021.112c-0.129-.005-0.258-0.008-0.387-0.008h-0.775c-0.125,0-.255,0-0.389.008,0.008-.172.016-0.347,0.023-0.524s0.01-.358.01-0.541v-0.716C153.986,555.976,153.983,555.8,153.976,555.62Zm2.3,0.266a1.319,1.319,0,0,1,.324-0.468,1.408,1.408,0,0,1,.5-0.291,1.925,1.925,0,0,1,.634-0.1,1.948,1.948,0,0,1,.64.1,1.417,1.417,0,0,1,.5.291,1.316,1.316,0,0,1,.323.468,1.771,1.771,0,0,1,0,1.261,1.3,1.3,0,0,1-.323.468,1.336,1.336,0,0,1-.5.286,2.092,2.092,0,0,1-.64.093,2.067,2.067,0,0,1-.634-0.093,1.328,1.328,0,0,1-.5-0.286,1.3,1.3,0,0,1-.324-0.468A1.771,1.771,0,0,1,156.276,555.886Zm2.533,0.034a1.129,1.129,0,0,0-.246-0.416,0.984,0.984,0,0,0-.37-0.244,1.3,1.3,0,0,0-.461-0.079,1.284,1.284,0,0,0-.455.079,0.976,0.976,0,0,0-.37.244,1.1,1.1,0,0,0-.246.416,2.069,2.069,0,0,0,0,1.194,1.1,1.1,0,0,0,.246.416,0.976,0.976,0,0,0,.37.244,1.284,1.284,0,0,0,.455.079,1.3,1.3,0,0,0,.461-0.079,0.984,0.984,0,0,0,.37-0.244,1.129,1.129,0,0,0,.246-0.416A2.069,2.069,0,0,0,158.809,555.92Zm1.56-.3c-0.006-.176-0.014-0.356-0.022-0.539l0.239,0.015q0.117,0.006.24,0.006a2.348,2.348,0,0,0,.239-0.011c0.079-.006.159-0.01,0.24-0.01a1.658,1.658,0,0,1,.336.033,0.846,0.846,0,0,1,.28.111,0.547,0.547,0,0,1,.189.2,0.718,0.718,0,0,1-.021.655,0.837,0.837,0,0,1-.221.237,1.094,1.094,0,0,1-.279.146,1.478,1.478,0,0,1-.271.069l0.138,0.174c0.059,0.075.125,0.158,0.2,0.248s0.149,0.184.227,0.283,0.154,0.193.227,0.283,0.141,0.173.206,0.248,0.116,0.131.156,0.17a1.1,1.1,0,0,0-.127-0.008H162.1a0.974,0.974,0,0,0-.122.008l-0.191-.262q-0.128-.174-0.284-0.375t-0.317-.4c-0.108-.132-0.207-0.243-0.3-0.335h-0.16v0.3c0,0.183,0,.363.01,0.541s0.015,0.352.024,0.524c-0.065-.005-0.134-0.008-0.206-0.008s-0.142,0-.206.008c0.008-.172.016-0.347,0.022-0.524s0.011-.358.011-0.541v-0.716C160.38,555.976,160.377,555.8,160.369,555.62Zm0.484,0.793c0.046,0,.1,0,0.153,0a1.385,1.385,0,0,0,.272-0.029,0.766,0.766,0,0,0,.258-0.1,0.6,0.6,0,0,0,.2-0.2,0.577,0.577,0,0,0,.077-0.31,0.54,0.54,0,0,0-.06-0.268,0.494,0.494,0,0,0-.158-0.169,0.6,0.6,0,0,0-.21-0.085,1.149,1.149,0,0,0-.223-0.023c-0.1,0-.18,0-0.244.006s-0.119.009-.164,0.015c-0.006.152-.011,0.3-0.017,0.454s-0.008.3-.008,0.449V556.4A0.809,0.809,0,0,0,160.853,556.413Z" transform="translate(-7 -535)"/>
  <g id="グループ_1" data-name="グループ 1">
    <rect id="長方形_1_のコピー" data-name="長方形 1 のコピー" x="166" width="1" height="1"/>
    <rect id="長方形_1_のコピー_2" data-name="長方形 1 のコピー 2" x="168" width="1" height="1"/>
    <rect id="長方形_1_のコピー_3" data-name="長方形 1 のコピー 3" x="164" y="2" width="1" height="1"/>
    <rect id="長方形_1_のコピー_3-2" data-name="長方形 1 のコピー 3" x="166" y="2" width="1" height="1"/>
    <rect id="長方形_1_のコピー_3-3" data-name="長方形 1 のコピー 3" x="168" y="2" width="1" height="1"/>
    <rect id="長方形_1_のコピー_4" data-name="長方形 1 のコピー 4" x="164" y="4" width="1" height="1"/>
    <rect id="長方形_1_のコピー_4-2" data-name="長方形 1 のコピー 4" x="166" y="4" width="1" height="1"/>
    <rect id="長方形_1_のコピー_4-3" data-name="長方形 1 のコピー 4" x="168" y="4" width="1" height="1"/>
    <rect id="長方形_1_のコピー_5" data-name="長方形 1 のコピー 5" x="164" y="6" width="1" height="1"/>
    <rect id="長方形_1_のコピー_5-2" data-name="長方形 1 のコピー 5" x="166" y="6" width="1" height="1"/>
    <rect id="長方形_1_のコピー_5-3" data-name="長方形 1 のコピー 5" x="168" y="6" width="1" height="1"/>
    <rect id="長方形_1_のコピー_6" data-name="長方形 1 のコピー 6" x="164" y="8" width="1" height="1"/>
    <rect id="長方形_1_のコピー_6-2" data-name="長方形 1 のコピー 6" x="166" y="8" width="1" height="1"/>
    <rect id="長方形_1_のコピー_6-3" data-name="長方形 1 のコピー 6" x="168" y="8" width="1" height="1"/>
    <rect id="長方形_1_のコピー_7" data-name="長方形 1 のコピー 7" x="164" y="10" width="1" height="1"/>
    <rect id="長方形_1_のコピー_7-2" data-name="長方形 1 のコピー 7" x="166" y="10" width="1" height="1"/>
    <rect id="長方形_1_のコピー_7-3" data-name="長方形 1 のコピー 7" x="168" y="10" width="1" height="1"/>
    <rect id="長方形_1_のコピー_8" data-name="長方形 1 のコピー 8" x="164" y="12" width="1" height="1"/>
    <rect id="長方形_1_のコピー_8-2" data-name="長方形 1 のコピー 8" x="166" y="12" width="1" height="1"/>
    <rect id="長方形_1_のコピー_8-3" data-name="長方形 1 のコピー 8" x="168" y="12" width="1" height="1"/>
    <rect id="長方形_1_のコピー_9" data-name="長方形 1 のコピー 9" x="164" y="14" width="1" height="1"/>
    <rect id="長方形_1_のコピー_9-2" data-name="長方形 1 のコピー 9" x="166" y="14" width="1" height="1"/>
    <rect id="長方形_1_のコピー_9-3" data-name="長方形 1 のコピー 9" x="168" y="14" width="1" height="1"/>
    <rect id="長方形_1_のコピー_10" data-name="長方形 1 のコピー 10" x="164" y="16" width="1" height="1"/>
    <rect id="長方形_1_のコピー_10-2" data-name="長方形 1 のコピー 10" x="166" y="16" width="1" height="1"/>
    <rect id="長方形_1_のコピー_10-3" data-name="長方形 1 のコピー 10" x="168" y="16" width="1" height="1"/>
    <rect id="長方形_1_のコピー_11" data-name="長方形 1 のコピー 11" x="164" y="18" width="1" height="1"/>
    <rect id="長方形_1_のコピー_11-2" data-name="長方形 1 のコピー 11" x="166" y="18" width="1" height="1"/>
    <rect id="長方形_1_のコピー_11-3" data-name="長方形 1 のコピー 11" x="168" y="18" width="1" height="1"/>
    <rect id="長方形_1_のコピー_12" data-name="長方形 1 のコピー 12" x="164" y="20" width="1" height="1"/>
    <rect id="長方形_1_のコピー_12-2" data-name="長方形 1 のコピー 12" x="166" y="20" width="1" height="1"/>
    <rect id="長方形_1_のコピー_12-3" data-name="長方形 1 のコピー 12" x="168" y="20" width="1" height="1"/>
    <rect id="長方形_1_のコピー_13" data-name="長方形 1 のコピー 13" x="164" y="22" width="1" height="1"/>
    <rect id="長方形_1_のコピー_13-2" data-name="長方形 1 のコピー 13" x="166" y="22" width="1" height="1"/>
    <rect id="長方形_1_のコピー_13-3" data-name="長方形 1 のコピー 13" x="168" y="22" width="1" height="1"/>
    <rect id="長方形_1" data-name="長方形 1" x="164" width="1" height="1"/>
  </g>
</svg>
